G04 #@! TF.GenerationSoftware,KiCad,Pcbnew,6.0.0-d3dd2cf0fa~116~ubuntu20.04.1*
G04 #@! TF.CreationDate,2022-01-09T22:45:00+01:00*
G04 #@! TF.ProjectId,Statikplatte,53746174-696b-4706-9c61-7474652e6b69,rev?*
G04 #@! TF.SameCoordinates,Original*
G04 #@! TF.FileFunction,Legend,Bot*
G04 #@! TF.FilePolarity,Positive*
%FSLAX46Y46*%
G04 Gerber Fmt 4.6, Leading zero omitted, Abs format (unit mm)*
G04 Created by KiCad (PCBNEW 6.0.0-d3dd2cf0fa~116~ubuntu20.04.1) date 2022-01-09 22:45:00*
%MOMM*%
%LPD*%
G01*
G04 APERTURE LIST*
%ADD10C,0.300000*%
%ADD11C,0.150000*%
%ADD12C,0.120000*%
G04 APERTURE END LIST*
D10*
X195142857Y-84250000D02*
X195285714Y-84178571D01*
X195500000Y-84178571D01*
X195714285Y-84250000D01*
X195857142Y-84392857D01*
X195928571Y-84535714D01*
X196000000Y-84821428D01*
X196000000Y-85035714D01*
X195928571Y-85321428D01*
X195857142Y-85464285D01*
X195714285Y-85607142D01*
X195500000Y-85678571D01*
X195357142Y-85678571D01*
X195142857Y-85607142D01*
X195071428Y-85535714D01*
X195071428Y-85035714D01*
X195357142Y-85035714D01*
X194428571Y-85678571D02*
X194428571Y-84178571D01*
X193571428Y-85678571D01*
X193571428Y-84178571D01*
X192857142Y-85678571D02*
X192857142Y-84178571D01*
X192500000Y-84178571D01*
X192285714Y-84250000D01*
X192142857Y-84392857D01*
X192071428Y-84535714D01*
X192000000Y-84821428D01*
X192000000Y-85035714D01*
X192071428Y-85321428D01*
X192142857Y-85464285D01*
X192285714Y-85607142D01*
X192500000Y-85678571D01*
X192857142Y-85678571D01*
X107142857Y-84250000D02*
X107285714Y-84178571D01*
X107500000Y-84178571D01*
X107714285Y-84250000D01*
X107857142Y-84392857D01*
X107928571Y-84535714D01*
X108000000Y-84821428D01*
X108000000Y-85035714D01*
X107928571Y-85321428D01*
X107857142Y-85464285D01*
X107714285Y-85607142D01*
X107500000Y-85678571D01*
X107357142Y-85678571D01*
X107142857Y-85607142D01*
X107071428Y-85535714D01*
X107071428Y-85035714D01*
X107357142Y-85035714D01*
X106428571Y-85678571D02*
X106428571Y-84178571D01*
X105571428Y-85678571D01*
X105571428Y-84178571D01*
X104857142Y-85678571D02*
X104857142Y-84178571D01*
X104500000Y-84178571D01*
X104285714Y-84250000D01*
X104142857Y-84392857D01*
X104071428Y-84535714D01*
X104000000Y-84821428D01*
X104000000Y-85035714D01*
X104071428Y-85321428D01*
X104142857Y-85464285D01*
X104285714Y-85607142D01*
X104500000Y-85678571D01*
X104857142Y-85678571D01*
X136142857Y-145250000D02*
X136285714Y-145178571D01*
X136500000Y-145178571D01*
X136714285Y-145250000D01*
X136857142Y-145392857D01*
X136928571Y-145535714D01*
X137000000Y-145821428D01*
X137000000Y-146035714D01*
X136928571Y-146321428D01*
X136857142Y-146464285D01*
X136714285Y-146607142D01*
X136500000Y-146678571D01*
X136357142Y-146678571D01*
X136142857Y-146607142D01*
X136071428Y-146535714D01*
X136071428Y-146035714D01*
X136357142Y-146035714D01*
X135428571Y-146678571D02*
X135428571Y-145178571D01*
X134571428Y-146678571D01*
X134571428Y-145178571D01*
X133857142Y-146678571D02*
X133857142Y-145178571D01*
X133500000Y-145178571D01*
X133285714Y-145250000D01*
X133142857Y-145392857D01*
X133071428Y-145535714D01*
X133000000Y-145821428D01*
X133000000Y-146035714D01*
X133071428Y-146321428D01*
X133142857Y-146464285D01*
X133285714Y-146607142D01*
X133500000Y-146678571D01*
X133857142Y-146678571D01*
X136142857Y-53250000D02*
X136285714Y-53178571D01*
X136500000Y-53178571D01*
X136714285Y-53250000D01*
X136857142Y-53392857D01*
X136928571Y-53535714D01*
X137000000Y-53821428D01*
X137000000Y-54035714D01*
X136928571Y-54321428D01*
X136857142Y-54464285D01*
X136714285Y-54607142D01*
X136500000Y-54678571D01*
X136357142Y-54678571D01*
X136142857Y-54607142D01*
X136071428Y-54535714D01*
X136071428Y-54035714D01*
X136357142Y-54035714D01*
X135428571Y-54678571D02*
X135428571Y-53178571D01*
X134571428Y-54678571D01*
X134571428Y-53178571D01*
X133857142Y-54678571D02*
X133857142Y-53178571D01*
X133500000Y-53178571D01*
X133285714Y-53250000D01*
X133142857Y-53392857D01*
X133071428Y-53535714D01*
X133000000Y-53821428D01*
X133000000Y-54035714D01*
X133071428Y-54321428D01*
X133142857Y-54464285D01*
X133285714Y-54607142D01*
X133500000Y-54678571D01*
X133857142Y-54678571D01*
X166071428Y-54678571D02*
X166071428Y-53178571D01*
X166071428Y-53892857D02*
X165214285Y-53892857D01*
X165214285Y-54678571D02*
X165214285Y-53178571D01*
X164714285Y-53178571D02*
X164214285Y-54678571D01*
X163714285Y-53178571D01*
X166071428Y-146678571D02*
X166071428Y-145178571D01*
X166071428Y-145892857D02*
X165214285Y-145892857D01*
X165214285Y-146678571D02*
X165214285Y-145178571D01*
X164714285Y-145178571D02*
X164214285Y-146678571D01*
X163714285Y-145178571D01*
X196071428Y-115678571D02*
X196071428Y-114178571D01*
X196071428Y-114892857D02*
X195214285Y-114892857D01*
X195214285Y-115678571D02*
X195214285Y-114178571D01*
X194714285Y-114178571D02*
X194214285Y-115678571D01*
X193714285Y-114178571D01*
X106071428Y-115678571D02*
X106071428Y-114178571D01*
X106071428Y-114892857D02*
X105214285Y-114892857D01*
X105214285Y-115678571D02*
X105214285Y-114178571D01*
X104714285Y-114178571D02*
X104214285Y-115678571D01*
X103714285Y-114178571D01*
X165678571Y-85685357D02*
X165178571Y-85685357D01*
X164964285Y-86471071D02*
X165678571Y-86471071D01*
X165678571Y-84971071D01*
X164964285Y-84971071D01*
X164107142Y-86471071D02*
X164250000Y-86399642D01*
X164321428Y-86256785D01*
X164321428Y-84971071D01*
X162964285Y-86399642D02*
X163107142Y-86471071D01*
X163392857Y-86471071D01*
X163535714Y-86399642D01*
X163607142Y-86256785D01*
X163607142Y-85685357D01*
X163535714Y-85542500D01*
X163392857Y-85471071D01*
X163107142Y-85471071D01*
X162964285Y-85542500D01*
X162892857Y-85685357D01*
X162892857Y-85828214D01*
X163607142Y-85971071D01*
X161607142Y-86399642D02*
X161750000Y-86471071D01*
X162035714Y-86471071D01*
X162178571Y-86399642D01*
X162250000Y-86328214D01*
X162321428Y-86185357D01*
X162321428Y-85756785D01*
X162250000Y-85613928D01*
X162178571Y-85542500D01*
X162035714Y-85471071D01*
X161750000Y-85471071D01*
X161607142Y-85542500D01*
X161178571Y-85471071D02*
X160607142Y-85471071D01*
X160964285Y-84971071D02*
X160964285Y-86256785D01*
X160892857Y-86399642D01*
X160750000Y-86471071D01*
X160607142Y-86471071D01*
X160107142Y-86471071D02*
X160107142Y-85471071D01*
X160107142Y-85756785D02*
X160035714Y-85613928D01*
X159964285Y-85542500D01*
X159821428Y-85471071D01*
X159678571Y-85471071D01*
X158964285Y-86471071D02*
X159107142Y-86399642D01*
X159178571Y-86328214D01*
X159250000Y-86185357D01*
X159250000Y-85756785D01*
X159178571Y-85613928D01*
X159107142Y-85542500D01*
X158964285Y-85471071D01*
X158750000Y-85471071D01*
X158607142Y-85542500D01*
X158535714Y-85613928D01*
X158464285Y-85756785D01*
X158464285Y-86185357D01*
X158535714Y-86328214D01*
X158607142Y-86399642D01*
X158750000Y-86471071D01*
X158964285Y-86471071D01*
X157892857Y-86399642D02*
X157750000Y-86471071D01*
X157464285Y-86471071D01*
X157321428Y-86399642D01*
X157250000Y-86256785D01*
X157250000Y-86185357D01*
X157321428Y-86042500D01*
X157464285Y-85971071D01*
X157678571Y-85971071D01*
X157821428Y-85899642D01*
X157892857Y-85756785D01*
X157892857Y-85685357D01*
X157821428Y-85542500D01*
X157678571Y-85471071D01*
X157464285Y-85471071D01*
X157321428Y-85542500D01*
X156821428Y-85471071D02*
X156250000Y-85471071D01*
X156607142Y-84971071D02*
X156607142Y-86256785D01*
X156535714Y-86399642D01*
X156392857Y-86471071D01*
X156250000Y-86471071D01*
X155107142Y-86471071D02*
X155107142Y-85685357D01*
X155178571Y-85542500D01*
X155321428Y-85471071D01*
X155607142Y-85471071D01*
X155750000Y-85542500D01*
X155107142Y-86399642D02*
X155250000Y-86471071D01*
X155607142Y-86471071D01*
X155750000Y-86399642D01*
X155821428Y-86256785D01*
X155821428Y-86113928D01*
X155750000Y-85971071D01*
X155607142Y-85899642D01*
X155250000Y-85899642D01*
X155107142Y-85828214D01*
X154607142Y-85471071D02*
X154035714Y-85471071D01*
X154392857Y-84971071D02*
X154392857Y-86256785D01*
X154321428Y-86399642D01*
X154178571Y-86471071D01*
X154035714Y-86471071D01*
X153535714Y-86471071D02*
X153535714Y-85471071D01*
X153535714Y-84971071D02*
X153607142Y-85042500D01*
X153535714Y-85113928D01*
X153464285Y-85042500D01*
X153535714Y-84971071D01*
X153535714Y-85113928D01*
X152178571Y-86399642D02*
X152321428Y-86471071D01*
X152607142Y-86471071D01*
X152750000Y-86399642D01*
X152821428Y-86328214D01*
X152892857Y-86185357D01*
X152892857Y-85756785D01*
X152821428Y-85613928D01*
X152750000Y-85542500D01*
X152607142Y-85471071D01*
X152321428Y-85471071D01*
X152178571Y-85542500D01*
X149750000Y-86471071D02*
X149750000Y-85685357D01*
X149821428Y-85542500D01*
X149964285Y-85471071D01*
X150250000Y-85471071D01*
X150392857Y-85542500D01*
X149750000Y-86399642D02*
X149892857Y-86471071D01*
X150250000Y-86471071D01*
X150392857Y-86399642D01*
X150464285Y-86256785D01*
X150464285Y-86113928D01*
X150392857Y-85971071D01*
X150250000Y-85899642D01*
X149892857Y-85899642D01*
X149750000Y-85828214D01*
X148392857Y-86471071D02*
X148392857Y-84971071D01*
X148392857Y-86399642D02*
X148535714Y-86471071D01*
X148821428Y-86471071D01*
X148964285Y-86399642D01*
X149035714Y-86328214D01*
X149107142Y-86185357D01*
X149107142Y-85756785D01*
X149035714Y-85613928D01*
X148964285Y-85542500D01*
X148821428Y-85471071D01*
X148535714Y-85471071D01*
X148392857Y-85542500D01*
X147678571Y-86471071D02*
X147678571Y-84971071D01*
X147035714Y-86471071D02*
X147035714Y-85685357D01*
X147107142Y-85542500D01*
X147250000Y-85471071D01*
X147464285Y-85471071D01*
X147607142Y-85542500D01*
X147678571Y-85613928D01*
X145750000Y-86399642D02*
X145892857Y-86471071D01*
X146178571Y-86471071D01*
X146321428Y-86399642D01*
X146392857Y-86256785D01*
X146392857Y-85685357D01*
X146321428Y-85542500D01*
X146178571Y-85471071D01*
X145892857Y-85471071D01*
X145750000Y-85542500D01*
X145678571Y-85685357D01*
X145678571Y-85828214D01*
X146392857Y-85971071D01*
X145107142Y-86399642D02*
X144964285Y-86471071D01*
X144678571Y-86471071D01*
X144535714Y-86399642D01*
X144464285Y-86256785D01*
X144464285Y-86185357D01*
X144535714Y-86042500D01*
X144678571Y-85971071D01*
X144892857Y-85971071D01*
X145035714Y-85899642D01*
X145107142Y-85756785D01*
X145107142Y-85685357D01*
X145035714Y-85542500D01*
X144892857Y-85471071D01*
X144678571Y-85471071D01*
X144535714Y-85542500D01*
X143821428Y-86471071D02*
X143821428Y-85471071D01*
X143821428Y-84971071D02*
X143892857Y-85042500D01*
X143821428Y-85113928D01*
X143750000Y-85042500D01*
X143821428Y-84971071D01*
X143821428Y-85113928D01*
X142892857Y-86471071D02*
X143035714Y-86399642D01*
X143107142Y-86328214D01*
X143178571Y-86185357D01*
X143178571Y-85756785D01*
X143107142Y-85613928D01*
X143035714Y-85542500D01*
X142892857Y-85471071D01*
X142678571Y-85471071D01*
X142535714Y-85542500D01*
X142464285Y-85613928D01*
X142392857Y-85756785D01*
X142392857Y-86185357D01*
X142464285Y-86328214D01*
X142535714Y-86399642D01*
X142678571Y-86471071D01*
X142892857Y-86471071D01*
X141750000Y-85471071D02*
X141750000Y-86471071D01*
X141750000Y-85613928D02*
X141678571Y-85542500D01*
X141535714Y-85471071D01*
X141321428Y-85471071D01*
X141178571Y-85542500D01*
X141107142Y-85685357D01*
X141107142Y-86471071D01*
X139250000Y-85471071D02*
X139250000Y-86971071D01*
X139250000Y-85542500D02*
X139107142Y-85471071D01*
X138821428Y-85471071D01*
X138678571Y-85542500D01*
X138607142Y-85613928D01*
X138535714Y-85756785D01*
X138535714Y-86185357D01*
X138607142Y-86328214D01*
X138678571Y-86399642D01*
X138821428Y-86471071D01*
X139107142Y-86471071D01*
X139250000Y-86399642D01*
X137678571Y-86471071D02*
X137821428Y-86399642D01*
X137892857Y-86256785D01*
X137892857Y-84971071D01*
X136464285Y-86471071D02*
X136464285Y-85685357D01*
X136535714Y-85542500D01*
X136678571Y-85471071D01*
X136964285Y-85471071D01*
X137107142Y-85542500D01*
X136464285Y-86399642D02*
X136607142Y-86471071D01*
X136964285Y-86471071D01*
X137107142Y-86399642D01*
X137178571Y-86256785D01*
X137178571Y-86113928D01*
X137107142Y-85971071D01*
X136964285Y-85899642D01*
X136607142Y-85899642D01*
X136464285Y-85828214D01*
X135964285Y-85471071D02*
X135392857Y-85471071D01*
X135750000Y-84971071D02*
X135750000Y-86256785D01*
X135678571Y-86399642D01*
X135535714Y-86471071D01*
X135392857Y-86471071D01*
X134321428Y-86399642D02*
X134464285Y-86471071D01*
X134750000Y-86471071D01*
X134892857Y-86399642D01*
X134964285Y-86256785D01*
X134964285Y-85685357D01*
X134892857Y-85542500D01*
X134750000Y-85471071D01*
X134464285Y-85471071D01*
X134321428Y-85542500D01*
X134250000Y-85685357D01*
X134250000Y-85828214D01*
X134964285Y-85971071D01*
X167250000Y-88886071D02*
X167250000Y-87386071D01*
X166892857Y-87386071D01*
X166678571Y-87457500D01*
X166535714Y-87600357D01*
X166464285Y-87743214D01*
X166392857Y-88028928D01*
X166392857Y-88243214D01*
X166464285Y-88528928D01*
X166535714Y-88671785D01*
X166678571Y-88814642D01*
X166892857Y-88886071D01*
X167250000Y-88886071D01*
X165178571Y-88814642D02*
X165321428Y-88886071D01*
X165607142Y-88886071D01*
X165750000Y-88814642D01*
X165821428Y-88671785D01*
X165821428Y-88100357D01*
X165750000Y-87957500D01*
X165607142Y-87886071D01*
X165321428Y-87886071D01*
X165178571Y-87957500D01*
X165107142Y-88100357D01*
X165107142Y-88243214D01*
X165821428Y-88386071D01*
X164535714Y-88814642D02*
X164392857Y-88886071D01*
X164107142Y-88886071D01*
X163964285Y-88814642D01*
X163892857Y-88671785D01*
X163892857Y-88600357D01*
X163964285Y-88457500D01*
X164107142Y-88386071D01*
X164321428Y-88386071D01*
X164464285Y-88314642D01*
X164535714Y-88171785D01*
X164535714Y-88100357D01*
X164464285Y-87957500D01*
X164321428Y-87886071D01*
X164107142Y-87886071D01*
X163964285Y-87957500D01*
X163250000Y-88886071D02*
X163250000Y-87886071D01*
X163250000Y-87386071D02*
X163321428Y-87457500D01*
X163250000Y-87528928D01*
X163178571Y-87457500D01*
X163250000Y-87386071D01*
X163250000Y-87528928D01*
X161892857Y-87886071D02*
X161892857Y-89100357D01*
X161964285Y-89243214D01*
X162035714Y-89314642D01*
X162178571Y-89386071D01*
X162392857Y-89386071D01*
X162535714Y-89314642D01*
X161892857Y-88814642D02*
X162035714Y-88886071D01*
X162321428Y-88886071D01*
X162464285Y-88814642D01*
X162535714Y-88743214D01*
X162607142Y-88600357D01*
X162607142Y-88171785D01*
X162535714Y-88028928D01*
X162464285Y-87957500D01*
X162321428Y-87886071D01*
X162035714Y-87886071D01*
X161892857Y-87957500D01*
X161178571Y-87886071D02*
X161178571Y-88886071D01*
X161178571Y-88028928D02*
X161107142Y-87957500D01*
X160964285Y-87886071D01*
X160750000Y-87886071D01*
X160607142Y-87957500D01*
X160535714Y-88100357D01*
X160535714Y-88886071D01*
X158678571Y-88886071D02*
X158678571Y-87386071D01*
X158678571Y-87957500D02*
X158535714Y-87886071D01*
X158250000Y-87886071D01*
X158107142Y-87957500D01*
X158035714Y-88028928D01*
X157964285Y-88171785D01*
X157964285Y-88600357D01*
X158035714Y-88743214D01*
X158107142Y-88814642D01*
X158250000Y-88886071D01*
X158535714Y-88886071D01*
X158678571Y-88814642D01*
X157464285Y-87886071D02*
X157107142Y-88886071D01*
X156750000Y-87886071D02*
X157107142Y-88886071D01*
X157250000Y-89243214D01*
X157321428Y-89314642D01*
X157464285Y-89386071D01*
X154607142Y-87386071D02*
X154607142Y-88457500D01*
X154678571Y-88671785D01*
X154821428Y-88814642D01*
X155035714Y-88886071D01*
X155178571Y-88886071D01*
X153250000Y-88886071D02*
X153250000Y-88100357D01*
X153321428Y-87957500D01*
X153464285Y-87886071D01*
X153750000Y-87886071D01*
X153892857Y-87957500D01*
X153250000Y-88814642D02*
X153392857Y-88886071D01*
X153750000Y-88886071D01*
X153892857Y-88814642D01*
X153964285Y-88671785D01*
X153964285Y-88528928D01*
X153892857Y-88386071D01*
X153750000Y-88314642D01*
X153392857Y-88314642D01*
X153250000Y-88243214D01*
X152535714Y-87886071D02*
X152535714Y-88886071D01*
X152535714Y-88028928D02*
X152464285Y-87957500D01*
X152321428Y-87886071D01*
X152107142Y-87886071D01*
X151964285Y-87957500D01*
X151892857Y-88100357D01*
X151892857Y-88886071D01*
X150535714Y-88886071D02*
X150535714Y-88100357D01*
X150607142Y-87957500D01*
X150750000Y-87886071D01*
X151035714Y-87886071D01*
X151178571Y-87957500D01*
X150535714Y-88814642D02*
X150678571Y-88886071D01*
X151035714Y-88886071D01*
X151178571Y-88814642D01*
X151250000Y-88671785D01*
X151250000Y-88528928D01*
X151178571Y-88386071D01*
X151035714Y-88314642D01*
X150678571Y-88314642D01*
X150535714Y-88243214D01*
X148678571Y-88886071D02*
X148678571Y-87386071D01*
X148178571Y-88457500D01*
X147678571Y-87386071D01*
X147678571Y-88886071D01*
X146321428Y-88886071D02*
X146321428Y-88100357D01*
X146392857Y-87957500D01*
X146535714Y-87886071D01*
X146821428Y-87886071D01*
X146964285Y-87957500D01*
X146321428Y-88814642D02*
X146464285Y-88886071D01*
X146821428Y-88886071D01*
X146964285Y-88814642D01*
X147035714Y-88671785D01*
X147035714Y-88528928D01*
X146964285Y-88386071D01*
X146821428Y-88314642D01*
X146464285Y-88314642D01*
X146321428Y-88243214D01*
X145607142Y-88886071D02*
X145607142Y-87886071D01*
X145607142Y-88171785D02*
X145535714Y-88028928D01*
X145464285Y-87957500D01*
X145321428Y-87886071D01*
X145178571Y-87886071D01*
X144678571Y-88886071D02*
X144678571Y-87886071D01*
X144678571Y-87386071D02*
X144750000Y-87457500D01*
X144678571Y-87528928D01*
X144607142Y-87457500D01*
X144678571Y-87386071D01*
X144678571Y-87528928D01*
X143392857Y-88814642D02*
X143535714Y-88886071D01*
X143821428Y-88886071D01*
X143964285Y-88814642D01*
X144035714Y-88671785D01*
X144035714Y-88100357D01*
X143964285Y-87957500D01*
X143821428Y-87886071D01*
X143535714Y-87886071D01*
X143392857Y-87957500D01*
X143321428Y-88100357D01*
X143321428Y-88243214D01*
X144035714Y-88386071D01*
X141535714Y-88886071D02*
X141535714Y-87386071D01*
X141535714Y-88100357D02*
X140678571Y-88100357D01*
X140678571Y-88886071D02*
X140678571Y-87386071D01*
X139392857Y-88814642D02*
X139535714Y-88886071D01*
X139821428Y-88886071D01*
X139964285Y-88814642D01*
X140035714Y-88671785D01*
X140035714Y-88100357D01*
X139964285Y-87957500D01*
X139821428Y-87886071D01*
X139535714Y-87886071D01*
X139392857Y-87957500D01*
X139321428Y-88100357D01*
X139321428Y-88243214D01*
X140035714Y-88386071D01*
X138678571Y-88886071D02*
X138678571Y-87886071D01*
X138678571Y-88028928D02*
X138607142Y-87957500D01*
X138464285Y-87886071D01*
X138250000Y-87886071D01*
X138107142Y-87957500D01*
X138035714Y-88100357D01*
X138035714Y-88886071D01*
X138035714Y-88100357D02*
X137964285Y-87957500D01*
X137821428Y-87886071D01*
X137607142Y-87886071D01*
X137464285Y-87957500D01*
X137392857Y-88100357D01*
X137392857Y-88886071D01*
X136750000Y-88814642D02*
X136607142Y-88886071D01*
X136321428Y-88886071D01*
X136178571Y-88814642D01*
X136107142Y-88671785D01*
X136107142Y-88600357D01*
X136178571Y-88457500D01*
X136321428Y-88386071D01*
X136535714Y-88386071D01*
X136678571Y-88314642D01*
X136750000Y-88171785D01*
X136750000Y-88100357D01*
X136678571Y-87957500D01*
X136535714Y-87886071D01*
X136321428Y-87886071D01*
X136178571Y-87957500D01*
X135464285Y-88886071D02*
X135464285Y-87886071D01*
X135464285Y-87386071D02*
X135535714Y-87457500D01*
X135464285Y-87528928D01*
X135392857Y-87457500D01*
X135464285Y-87386071D01*
X135464285Y-87528928D01*
X134750000Y-87886071D02*
X134750000Y-88886071D01*
X134750000Y-88028928D02*
X134678571Y-87957500D01*
X134535714Y-87886071D01*
X134321428Y-87886071D01*
X134178571Y-87957500D01*
X134107142Y-88100357D01*
X134107142Y-88886071D01*
X132750000Y-87886071D02*
X132750000Y-89100357D01*
X132821428Y-89243214D01*
X132892857Y-89314642D01*
X133035714Y-89386071D01*
X133250000Y-89386071D01*
X133392857Y-89314642D01*
X132750000Y-88814642D02*
X132892857Y-88886071D01*
X133178571Y-88886071D01*
X133321428Y-88814642D01*
X133392857Y-88743214D01*
X133464285Y-88600357D01*
X133464285Y-88171785D01*
X133392857Y-88028928D01*
X133321428Y-87957500D01*
X133178571Y-87886071D01*
X132892857Y-87886071D01*
X132750000Y-87957500D01*
X111642857Y-93178571D02*
X111142857Y-94678571D01*
X110642857Y-93178571D01*
X110142857Y-94678571D02*
X110142857Y-93178571D01*
X109428571Y-94678571D02*
X109428571Y-93178571D01*
X108571428Y-94678571D01*
X108571428Y-93178571D01*
X111142857Y-101250000D02*
X111285714Y-101178571D01*
X111500000Y-101178571D01*
X111714285Y-101250000D01*
X111857142Y-101392857D01*
X111928571Y-101535714D01*
X112000000Y-101821428D01*
X112000000Y-102035714D01*
X111928571Y-102321428D01*
X111857142Y-102464285D01*
X111714285Y-102607142D01*
X111500000Y-102678571D01*
X111357142Y-102678571D01*
X111142857Y-102607142D01*
X111071428Y-102535714D01*
X111071428Y-102035714D01*
X111357142Y-102035714D01*
X110428571Y-102678571D02*
X110428571Y-101178571D01*
X109571428Y-102678571D01*
X109571428Y-101178571D01*
X108857142Y-102678571D02*
X108857142Y-101178571D01*
X108500000Y-101178571D01*
X108285714Y-101250000D01*
X108142857Y-101392857D01*
X108071428Y-101535714D01*
X108000000Y-101821428D01*
X108000000Y-102035714D01*
X108071428Y-102321428D01*
X108142857Y-102464285D01*
X108285714Y-102607142D01*
X108500000Y-102678571D01*
X108857142Y-102678571D01*
D11*
X126166666Y-109357142D02*
X126214285Y-109404761D01*
X126357142Y-109452380D01*
X126452380Y-109452380D01*
X126595238Y-109404761D01*
X126690476Y-109309523D01*
X126738095Y-109214285D01*
X126785714Y-109023809D01*
X126785714Y-108880952D01*
X126738095Y-108690476D01*
X126690476Y-108595238D01*
X126595238Y-108500000D01*
X126452380Y-108452380D01*
X126357142Y-108452380D01*
X126214285Y-108500000D01*
X126166666Y-108547619D01*
X125785714Y-108547619D02*
X125738095Y-108500000D01*
X125642857Y-108452380D01*
X125404761Y-108452380D01*
X125309523Y-108500000D01*
X125261904Y-108547619D01*
X125214285Y-108642857D01*
X125214285Y-108738095D01*
X125261904Y-108880952D01*
X125833333Y-109452380D01*
X125214285Y-109452380D01*
X132166666Y-91707142D02*
X132214285Y-91754761D01*
X132357142Y-91802380D01*
X132452380Y-91802380D01*
X132595238Y-91754761D01*
X132690476Y-91659523D01*
X132738095Y-91564285D01*
X132785714Y-91373809D01*
X132785714Y-91230952D01*
X132738095Y-91040476D01*
X132690476Y-90945238D01*
X132595238Y-90850000D01*
X132452380Y-90802380D01*
X132357142Y-90802380D01*
X132214285Y-90850000D01*
X132166666Y-90897619D01*
X131833333Y-90802380D02*
X131214285Y-90802380D01*
X131547619Y-91183333D01*
X131404761Y-91183333D01*
X131309523Y-91230952D01*
X131261904Y-91278571D01*
X131214285Y-91373809D01*
X131214285Y-91611904D01*
X131261904Y-91707142D01*
X131309523Y-91754761D01*
X131404761Y-91802380D01*
X131690476Y-91802380D01*
X131785714Y-91754761D01*
X131833333Y-91707142D01*
X138166666Y-109357142D02*
X138214285Y-109404761D01*
X138357142Y-109452380D01*
X138452380Y-109452380D01*
X138595238Y-109404761D01*
X138690476Y-109309523D01*
X138738095Y-109214285D01*
X138785714Y-109023809D01*
X138785714Y-108880952D01*
X138738095Y-108690476D01*
X138690476Y-108595238D01*
X138595238Y-108500000D01*
X138452380Y-108452380D01*
X138357142Y-108452380D01*
X138214285Y-108500000D01*
X138166666Y-108547619D01*
X137309523Y-108785714D02*
X137309523Y-109452380D01*
X137547619Y-108404761D02*
X137785714Y-109119047D01*
X137166666Y-109119047D01*
X144166666Y-91707142D02*
X144214285Y-91754761D01*
X144357142Y-91802380D01*
X144452380Y-91802380D01*
X144595238Y-91754761D01*
X144690476Y-91659523D01*
X144738095Y-91564285D01*
X144785714Y-91373809D01*
X144785714Y-91230952D01*
X144738095Y-91040476D01*
X144690476Y-90945238D01*
X144595238Y-90850000D01*
X144452380Y-90802380D01*
X144357142Y-90802380D01*
X144214285Y-90850000D01*
X144166666Y-90897619D01*
X143261904Y-90802380D02*
X143738095Y-90802380D01*
X143785714Y-91278571D01*
X143738095Y-91230952D01*
X143642857Y-91183333D01*
X143404761Y-91183333D01*
X143309523Y-91230952D01*
X143261904Y-91278571D01*
X143214285Y-91373809D01*
X143214285Y-91611904D01*
X143261904Y-91707142D01*
X143309523Y-91754761D01*
X143404761Y-91802380D01*
X143642857Y-91802380D01*
X143738095Y-91754761D01*
X143785714Y-91707142D01*
X150029166Y-109357142D02*
X150076785Y-109404761D01*
X150219642Y-109452380D01*
X150314880Y-109452380D01*
X150457738Y-109404761D01*
X150552976Y-109309523D01*
X150600595Y-109214285D01*
X150648214Y-109023809D01*
X150648214Y-108880952D01*
X150600595Y-108690476D01*
X150552976Y-108595238D01*
X150457738Y-108500000D01*
X150314880Y-108452380D01*
X150219642Y-108452380D01*
X150076785Y-108500000D01*
X150029166Y-108547619D01*
X149172023Y-108452380D02*
X149362500Y-108452380D01*
X149457738Y-108500000D01*
X149505357Y-108547619D01*
X149600595Y-108690476D01*
X149648214Y-108880952D01*
X149648214Y-109261904D01*
X149600595Y-109357142D01*
X149552976Y-109404761D01*
X149457738Y-109452380D01*
X149267261Y-109452380D01*
X149172023Y-109404761D01*
X149124404Y-109357142D01*
X149076785Y-109261904D01*
X149076785Y-109023809D01*
X149124404Y-108928571D01*
X149172023Y-108880952D01*
X149267261Y-108833333D01*
X149457738Y-108833333D01*
X149552976Y-108880952D01*
X149600595Y-108928571D01*
X149648214Y-109023809D01*
X156166666Y-91707142D02*
X156214285Y-91754761D01*
X156357142Y-91802380D01*
X156452380Y-91802380D01*
X156595238Y-91754761D01*
X156690476Y-91659523D01*
X156738095Y-91564285D01*
X156785714Y-91373809D01*
X156785714Y-91230952D01*
X156738095Y-91040476D01*
X156690476Y-90945238D01*
X156595238Y-90850000D01*
X156452380Y-90802380D01*
X156357142Y-90802380D01*
X156214285Y-90850000D01*
X156166666Y-90897619D01*
X155833333Y-90802380D02*
X155166666Y-90802380D01*
X155595238Y-91802380D01*
X162166666Y-109357142D02*
X162214285Y-109404761D01*
X162357142Y-109452380D01*
X162452380Y-109452380D01*
X162595238Y-109404761D01*
X162690476Y-109309523D01*
X162738095Y-109214285D01*
X162785714Y-109023809D01*
X162785714Y-108880952D01*
X162738095Y-108690476D01*
X162690476Y-108595238D01*
X162595238Y-108500000D01*
X162452380Y-108452380D01*
X162357142Y-108452380D01*
X162214285Y-108500000D01*
X162166666Y-108547619D01*
X161595238Y-108880952D02*
X161690476Y-108833333D01*
X161738095Y-108785714D01*
X161785714Y-108690476D01*
X161785714Y-108642857D01*
X161738095Y-108547619D01*
X161690476Y-108500000D01*
X161595238Y-108452380D01*
X161404761Y-108452380D01*
X161309523Y-108500000D01*
X161261904Y-108547619D01*
X161214285Y-108642857D01*
X161214285Y-108690476D01*
X161261904Y-108785714D01*
X161309523Y-108833333D01*
X161404761Y-108880952D01*
X161595238Y-108880952D01*
X161690476Y-108928571D01*
X161738095Y-108976190D01*
X161785714Y-109071428D01*
X161785714Y-109261904D01*
X161738095Y-109357142D01*
X161690476Y-109404761D01*
X161595238Y-109452380D01*
X161404761Y-109452380D01*
X161309523Y-109404761D01*
X161261904Y-109357142D01*
X161214285Y-109261904D01*
X161214285Y-109071428D01*
X161261904Y-108976190D01*
X161309523Y-108928571D01*
X161404761Y-108880952D01*
X168166666Y-91707142D02*
X168214285Y-91754761D01*
X168357142Y-91802380D01*
X168452380Y-91802380D01*
X168595238Y-91754761D01*
X168690476Y-91659523D01*
X168738095Y-91564285D01*
X168785714Y-91373809D01*
X168785714Y-91230952D01*
X168738095Y-91040476D01*
X168690476Y-90945238D01*
X168595238Y-90850000D01*
X168452380Y-90802380D01*
X168357142Y-90802380D01*
X168214285Y-90850000D01*
X168166666Y-90897619D01*
X167690476Y-91802380D02*
X167500000Y-91802380D01*
X167404761Y-91754761D01*
X167357142Y-91707142D01*
X167261904Y-91564285D01*
X167214285Y-91373809D01*
X167214285Y-90992857D01*
X167261904Y-90897619D01*
X167309523Y-90850000D01*
X167404761Y-90802380D01*
X167595238Y-90802380D01*
X167690476Y-90850000D01*
X167738095Y-90897619D01*
X167785714Y-90992857D01*
X167785714Y-91230952D01*
X167738095Y-91326190D01*
X167690476Y-91373809D01*
X167595238Y-91421428D01*
X167404761Y-91421428D01*
X167309523Y-91373809D01*
X167261904Y-91326190D01*
X167214285Y-91230952D01*
X174505357Y-109357142D02*
X174552976Y-109404761D01*
X174695833Y-109452380D01*
X174791071Y-109452380D01*
X174933928Y-109404761D01*
X175029166Y-109309523D01*
X175076785Y-109214285D01*
X175124404Y-109023809D01*
X175124404Y-108880952D01*
X175076785Y-108690476D01*
X175029166Y-108595238D01*
X174933928Y-108500000D01*
X174791071Y-108452380D01*
X174695833Y-108452380D01*
X174552976Y-108500000D01*
X174505357Y-108547619D01*
X173552976Y-109452380D02*
X174124404Y-109452380D01*
X173838690Y-109452380D02*
X173838690Y-108452380D01*
X173933928Y-108595238D01*
X174029166Y-108690476D01*
X174124404Y-108738095D01*
X172933928Y-108452380D02*
X172838690Y-108452380D01*
X172743452Y-108500000D01*
X172695833Y-108547619D01*
X172648214Y-108642857D01*
X172600595Y-108833333D01*
X172600595Y-109071428D01*
X172648214Y-109261904D01*
X172695833Y-109357142D01*
X172743452Y-109404761D01*
X172838690Y-109452380D01*
X172933928Y-109452380D01*
X173029166Y-109404761D01*
X173076785Y-109357142D01*
X173124404Y-109261904D01*
X173172023Y-109071428D01*
X173172023Y-108833333D01*
X173124404Y-108642857D01*
X173076785Y-108547619D01*
X173029166Y-108500000D01*
X172933928Y-108452380D01*
X179452380Y-98785714D02*
X178452380Y-98785714D01*
X178452380Y-99023809D01*
X178500000Y-99166666D01*
X178595238Y-99261904D01*
X178690476Y-99309523D01*
X178880952Y-99357142D01*
X179023809Y-99357142D01*
X179214285Y-99309523D01*
X179309523Y-99261904D01*
X179404761Y-99166666D01*
X179452380Y-99023809D01*
X179452380Y-98785714D01*
X179452380Y-100309523D02*
X179452380Y-99738095D01*
X179452380Y-100023809D02*
X178452380Y-100023809D01*
X178595238Y-99928571D01*
X178690476Y-99833333D01*
X178738095Y-99738095D01*
X178452380Y-100928571D02*
X178452380Y-101023809D01*
X178500000Y-101119047D01*
X178547619Y-101166666D01*
X178642857Y-101214285D01*
X178833333Y-101261904D01*
X179071428Y-101261904D01*
X179261904Y-101214285D01*
X179357142Y-101166666D01*
X179404761Y-101119047D01*
X179452380Y-101023809D01*
X179452380Y-100928571D01*
X179404761Y-100833333D01*
X179357142Y-100785714D01*
X179261904Y-100738095D01*
X179071428Y-100690476D01*
X178833333Y-100690476D01*
X178642857Y-100738095D01*
X178547619Y-100785714D01*
X178500000Y-100833333D01*
X178452380Y-100928571D01*
X131452380Y-99261904D02*
X130452380Y-99261904D01*
X130452380Y-99500000D01*
X130500000Y-99642857D01*
X130595238Y-99738095D01*
X130690476Y-99785714D01*
X130880952Y-99833333D01*
X131023809Y-99833333D01*
X131214285Y-99785714D01*
X131309523Y-99738095D01*
X131404761Y-99642857D01*
X131452380Y-99500000D01*
X131452380Y-99261904D01*
X130547619Y-100214285D02*
X130500000Y-100261904D01*
X130452380Y-100357142D01*
X130452380Y-100595238D01*
X130500000Y-100690476D01*
X130547619Y-100738095D01*
X130642857Y-100785714D01*
X130738095Y-100785714D01*
X130880952Y-100738095D01*
X131452380Y-100166666D01*
X131452380Y-100785714D01*
X133452380Y-99261904D02*
X132452380Y-99261904D01*
X132452380Y-99500000D01*
X132500000Y-99642857D01*
X132595238Y-99738095D01*
X132690476Y-99785714D01*
X132880952Y-99833333D01*
X133023809Y-99833333D01*
X133214285Y-99785714D01*
X133309523Y-99738095D01*
X133404761Y-99642857D01*
X133452380Y-99500000D01*
X133452380Y-99261904D01*
X132452380Y-100166666D02*
X132452380Y-100785714D01*
X132833333Y-100452380D01*
X132833333Y-100595238D01*
X132880952Y-100690476D01*
X132928571Y-100738095D01*
X133023809Y-100785714D01*
X133261904Y-100785714D01*
X133357142Y-100738095D01*
X133404761Y-100690476D01*
X133452380Y-100595238D01*
X133452380Y-100309523D01*
X133404761Y-100214285D01*
X133357142Y-100166666D01*
X143452380Y-99261904D02*
X142452380Y-99261904D01*
X142452380Y-99500000D01*
X142500000Y-99642857D01*
X142595238Y-99738095D01*
X142690476Y-99785714D01*
X142880952Y-99833333D01*
X143023809Y-99833333D01*
X143214285Y-99785714D01*
X143309523Y-99738095D01*
X143404761Y-99642857D01*
X143452380Y-99500000D01*
X143452380Y-99261904D01*
X142785714Y-100690476D02*
X143452380Y-100690476D01*
X142404761Y-100452380D02*
X143119047Y-100214285D01*
X143119047Y-100833333D01*
X145452380Y-99261904D02*
X144452380Y-99261904D01*
X144452380Y-99500000D01*
X144500000Y-99642857D01*
X144595238Y-99738095D01*
X144690476Y-99785714D01*
X144880952Y-99833333D01*
X145023809Y-99833333D01*
X145214285Y-99785714D01*
X145309523Y-99738095D01*
X145404761Y-99642857D01*
X145452380Y-99500000D01*
X145452380Y-99261904D01*
X144452380Y-100738095D02*
X144452380Y-100261904D01*
X144928571Y-100214285D01*
X144880952Y-100261904D01*
X144833333Y-100357142D01*
X144833333Y-100595238D01*
X144880952Y-100690476D01*
X144928571Y-100738095D01*
X145023809Y-100785714D01*
X145261904Y-100785714D01*
X145357142Y-100738095D01*
X145404761Y-100690476D01*
X145452380Y-100595238D01*
X145452380Y-100357142D01*
X145404761Y-100261904D01*
X145357142Y-100214285D01*
X155452380Y-99261904D02*
X154452380Y-99261904D01*
X154452380Y-99500000D01*
X154500000Y-99642857D01*
X154595238Y-99738095D01*
X154690476Y-99785714D01*
X154880952Y-99833333D01*
X155023809Y-99833333D01*
X155214285Y-99785714D01*
X155309523Y-99738095D01*
X155404761Y-99642857D01*
X155452380Y-99500000D01*
X155452380Y-99261904D01*
X154452380Y-100690476D02*
X154452380Y-100500000D01*
X154500000Y-100404761D01*
X154547619Y-100357142D01*
X154690476Y-100261904D01*
X154880952Y-100214285D01*
X155261904Y-100214285D01*
X155357142Y-100261904D01*
X155404761Y-100309523D01*
X155452380Y-100404761D01*
X155452380Y-100595238D01*
X155404761Y-100690476D01*
X155357142Y-100738095D01*
X155261904Y-100785714D01*
X155023809Y-100785714D01*
X154928571Y-100738095D01*
X154880952Y-100690476D01*
X154833333Y-100595238D01*
X154833333Y-100404761D01*
X154880952Y-100309523D01*
X154928571Y-100261904D01*
X155023809Y-100214285D01*
X157452380Y-99261904D02*
X156452380Y-99261904D01*
X156452380Y-99500000D01*
X156500000Y-99642857D01*
X156595238Y-99738095D01*
X156690476Y-99785714D01*
X156880952Y-99833333D01*
X157023809Y-99833333D01*
X157214285Y-99785714D01*
X157309523Y-99738095D01*
X157404761Y-99642857D01*
X157452380Y-99500000D01*
X157452380Y-99261904D01*
X156452380Y-100166666D02*
X156452380Y-100833333D01*
X157452380Y-100404761D01*
X167452380Y-99261904D02*
X166452380Y-99261904D01*
X166452380Y-99500000D01*
X166500000Y-99642857D01*
X166595238Y-99738095D01*
X166690476Y-99785714D01*
X166880952Y-99833333D01*
X167023809Y-99833333D01*
X167214285Y-99785714D01*
X167309523Y-99738095D01*
X167404761Y-99642857D01*
X167452380Y-99500000D01*
X167452380Y-99261904D01*
X166880952Y-100404761D02*
X166833333Y-100309523D01*
X166785714Y-100261904D01*
X166690476Y-100214285D01*
X166642857Y-100214285D01*
X166547619Y-100261904D01*
X166500000Y-100309523D01*
X166452380Y-100404761D01*
X166452380Y-100595238D01*
X166500000Y-100690476D01*
X166547619Y-100738095D01*
X166642857Y-100785714D01*
X166690476Y-100785714D01*
X166785714Y-100738095D01*
X166833333Y-100690476D01*
X166880952Y-100595238D01*
X166880952Y-100404761D01*
X166928571Y-100309523D01*
X166976190Y-100261904D01*
X167071428Y-100214285D01*
X167261904Y-100214285D01*
X167357142Y-100261904D01*
X167404761Y-100309523D01*
X167452380Y-100404761D01*
X167452380Y-100595238D01*
X167404761Y-100690476D01*
X167357142Y-100738095D01*
X167261904Y-100785714D01*
X167071428Y-100785714D01*
X166976190Y-100738095D01*
X166928571Y-100690476D01*
X166880952Y-100595238D01*
X169452380Y-99261904D02*
X168452380Y-99261904D01*
X168452380Y-99500000D01*
X168500000Y-99642857D01*
X168595238Y-99738095D01*
X168690476Y-99785714D01*
X168880952Y-99833333D01*
X169023809Y-99833333D01*
X169214285Y-99785714D01*
X169309523Y-99738095D01*
X169404761Y-99642857D01*
X169452380Y-99500000D01*
X169452380Y-99261904D01*
X169452380Y-100309523D02*
X169452380Y-100500000D01*
X169404761Y-100595238D01*
X169357142Y-100642857D01*
X169214285Y-100738095D01*
X169023809Y-100785714D01*
X168642857Y-100785714D01*
X168547619Y-100738095D01*
X168500000Y-100690476D01*
X168452380Y-100595238D01*
X168452380Y-100404761D01*
X168500000Y-100309523D01*
X168547619Y-100261904D01*
X168642857Y-100214285D01*
X168880952Y-100214285D01*
X168976190Y-100261904D01*
X169023809Y-100309523D01*
X169071428Y-100404761D01*
X169071428Y-100595238D01*
X169023809Y-100690476D01*
X168976190Y-100738095D01*
X168880952Y-100785714D01*
X120166666Y-91707142D02*
X120214285Y-91754761D01*
X120357142Y-91802380D01*
X120452380Y-91802380D01*
X120595238Y-91754761D01*
X120690476Y-91659523D01*
X120738095Y-91564285D01*
X120785714Y-91373809D01*
X120785714Y-91230952D01*
X120738095Y-91040476D01*
X120690476Y-90945238D01*
X120595238Y-90850000D01*
X120452380Y-90802380D01*
X120357142Y-90802380D01*
X120214285Y-90850000D01*
X120166666Y-90897619D01*
X119214285Y-91802380D02*
X119785714Y-91802380D01*
X119500000Y-91802380D02*
X119500000Y-90802380D01*
X119595238Y-90945238D01*
X119690476Y-91040476D01*
X119785714Y-91088095D01*
X183166666Y-109452380D02*
X183500000Y-108976190D01*
X183738095Y-109452380D02*
X183738095Y-108452380D01*
X183357142Y-108452380D01*
X183261904Y-108500000D01*
X183214285Y-108547619D01*
X183166666Y-108642857D01*
X183166666Y-108785714D01*
X183214285Y-108880952D01*
X183261904Y-108928571D01*
X183357142Y-108976190D01*
X183738095Y-108976190D01*
X182214285Y-109452380D02*
X182785714Y-109452380D01*
X182500000Y-109452380D02*
X182500000Y-108452380D01*
X182595238Y-108595238D01*
X182690476Y-108690476D01*
X182785714Y-108738095D01*
X121452380Y-99261904D02*
X120452380Y-99261904D01*
X120452380Y-99500000D01*
X120500000Y-99642857D01*
X120595238Y-99738095D01*
X120690476Y-99785714D01*
X120880952Y-99833333D01*
X121023809Y-99833333D01*
X121214285Y-99785714D01*
X121309523Y-99738095D01*
X121404761Y-99642857D01*
X121452380Y-99500000D01*
X121452380Y-99261904D01*
X121452380Y-100785714D02*
X121452380Y-100214285D01*
X121452380Y-100500000D02*
X120452380Y-100500000D01*
X120595238Y-100404761D01*
X120690476Y-100309523D01*
X120738095Y-100214285D01*
D12*
X127386252Y-107710000D02*
X124613748Y-107710000D01*
X127386252Y-104290000D02*
X124613748Y-104290000D01*
X133386252Y-95710000D02*
X130613748Y-95710000D01*
X133386252Y-92290000D02*
X130613748Y-92290000D01*
X139386252Y-107710000D02*
X136613748Y-107710000D01*
X139386252Y-104290000D02*
X136613748Y-104290000D01*
X145386252Y-95710000D02*
X142613748Y-95710000D01*
X145386252Y-92290000D02*
X142613748Y-92290000D01*
X151248752Y-107710000D02*
X148476248Y-107710000D01*
X151248752Y-104290000D02*
X148476248Y-104290000D01*
X157386252Y-95710000D02*
X154613748Y-95710000D01*
X157386252Y-92290000D02*
X154613748Y-92290000D01*
X163386252Y-107710000D02*
X160613748Y-107710000D01*
X163386252Y-104290000D02*
X160613748Y-104290000D01*
X169386252Y-95710000D02*
X166613748Y-95710000D01*
X169386252Y-92290000D02*
X166613748Y-92290000D01*
X175248752Y-107710000D02*
X172476248Y-107710000D01*
X175248752Y-104290000D02*
X172476248Y-104290000D01*
X115450000Y-95450000D02*
X115450000Y-92550000D01*
X112550000Y-95450000D02*
X115450000Y-95450000D01*
X112550000Y-92550000D02*
X112550000Y-95450000D01*
X115450000Y-92550000D02*
X112550000Y-92550000D01*
X136450000Y-150200000D02*
X136450000Y-147300000D01*
X133550000Y-150200000D02*
X136450000Y-150200000D01*
X133550000Y-147300000D02*
X133550000Y-150200000D01*
X136450000Y-147300000D02*
X133550000Y-147300000D01*
X115450000Y-103450000D02*
X115450000Y-100550000D01*
X112550000Y-103450000D02*
X115450000Y-103450000D01*
X112550000Y-100550000D02*
X112550000Y-103450000D01*
X115450000Y-100550000D02*
X112550000Y-100550000D01*
X200200000Y-86450000D02*
X200200000Y-83550000D01*
X197300000Y-86450000D02*
X200200000Y-86450000D01*
X197300000Y-83550000D02*
X197300000Y-86450000D01*
X200200000Y-83550000D02*
X197300000Y-83550000D01*
X136450000Y-52700000D02*
X136450000Y-49800000D01*
X133550000Y-52700000D02*
X136450000Y-52700000D01*
X133550000Y-49800000D02*
X133550000Y-52700000D01*
X136450000Y-49800000D02*
X133550000Y-49800000D01*
X166450000Y-150200000D02*
X166450000Y-147300000D01*
X163550000Y-150200000D02*
X166450000Y-150200000D01*
X163550000Y-147300000D02*
X163550000Y-150200000D01*
X166450000Y-147300000D02*
X163550000Y-147300000D01*
X166450000Y-52700000D02*
X166450000Y-49800000D01*
X163550000Y-52700000D02*
X166450000Y-52700000D01*
X163550000Y-49800000D02*
X163550000Y-52700000D01*
X166450000Y-49800000D02*
X163550000Y-49800000D01*
X200200000Y-116450000D02*
X200200000Y-113550000D01*
X197300000Y-116450000D02*
X200200000Y-116450000D01*
X197300000Y-113550000D02*
X197300000Y-116450000D01*
X200200000Y-113550000D02*
X197300000Y-113550000D01*
X102700000Y-116450000D02*
X102700000Y-113550000D01*
X99800000Y-116450000D02*
X102700000Y-116450000D01*
X99800000Y-113550000D02*
X99800000Y-116450000D01*
X102700000Y-113550000D02*
X99800000Y-113550000D01*
X102700000Y-86450000D02*
X102700000Y-83550000D01*
X99800000Y-86450000D02*
X102700000Y-86450000D01*
X99800000Y-83550000D02*
X99800000Y-86450000D01*
X102700000Y-83550000D02*
X99800000Y-83550000D01*
D11*
X178400000Y-101425000D02*
X175600000Y-101425000D01*
X178400000Y-101525000D02*
X175600000Y-101525000D01*
X178400000Y-101725000D02*
X175600000Y-101725000D01*
X178400000Y-101625000D02*
X175600000Y-101625000D01*
X175600000Y-101825000D02*
X175600000Y-98175000D01*
X178400000Y-101825000D02*
X175600000Y-101825000D01*
X178400000Y-98175000D02*
X178400000Y-101825000D01*
X175600000Y-98175000D02*
X178400000Y-98175000D01*
X130400000Y-101424999D02*
X127600000Y-101424999D01*
X130400000Y-101524999D02*
X127600000Y-101524999D01*
X130400000Y-101724999D02*
X127600000Y-101724999D01*
X130400000Y-101624999D02*
X127600000Y-101624999D01*
X127600000Y-101824999D02*
X127600000Y-98174999D01*
X130400000Y-101824999D02*
X127600000Y-101824999D01*
X130400000Y-98174999D02*
X130400000Y-101824999D01*
X127600000Y-98174999D02*
X130400000Y-98174999D01*
X133600000Y-98575000D02*
X136400000Y-98575000D01*
X133600000Y-98475000D02*
X136400000Y-98475000D01*
X133600000Y-98275000D02*
X136400000Y-98275000D01*
X133600000Y-98375000D02*
X136400000Y-98375000D01*
X136400000Y-98175000D02*
X136400000Y-101825000D01*
X133600000Y-98175000D02*
X136400000Y-98175000D01*
X133600000Y-101825000D02*
X133600000Y-98175000D01*
X136400000Y-101825000D02*
X133600000Y-101825000D01*
X142400000Y-101425000D02*
X139600000Y-101425000D01*
X142400000Y-101525000D02*
X139600000Y-101525000D01*
X142400000Y-101725000D02*
X139600000Y-101725000D01*
X142400000Y-101625000D02*
X139600000Y-101625000D01*
X139600000Y-101825000D02*
X139600000Y-98175000D01*
X142400000Y-101825000D02*
X139600000Y-101825000D01*
X142400000Y-98175000D02*
X142400000Y-101825000D01*
X139600000Y-98175000D02*
X142400000Y-98175000D01*
X145600000Y-98575000D02*
X148400000Y-98575000D01*
X145600000Y-98475000D02*
X148400000Y-98475000D01*
X145600000Y-98275000D02*
X148400000Y-98275000D01*
X145600000Y-98375000D02*
X148400000Y-98375000D01*
X148400000Y-98175000D02*
X148400000Y-101825000D01*
X145600000Y-98175000D02*
X148400000Y-98175000D01*
X145600000Y-101825000D02*
X145600000Y-98175000D01*
X148400000Y-101825000D02*
X145600000Y-101825000D01*
X154400000Y-101424999D02*
X151600000Y-101424999D01*
X154400000Y-101524999D02*
X151600000Y-101524999D01*
X154400000Y-101724999D02*
X151600000Y-101724999D01*
X154400000Y-101624999D02*
X151600000Y-101624999D01*
X151600000Y-101824999D02*
X151600000Y-98174999D01*
X154400000Y-101824999D02*
X151600000Y-101824999D01*
X154400000Y-98174999D02*
X154400000Y-101824999D01*
X151600000Y-98174999D02*
X154400000Y-98174999D01*
X157600000Y-98575001D02*
X160400000Y-98575001D01*
X157600000Y-98475001D02*
X160400000Y-98475001D01*
X157600000Y-98275001D02*
X160400000Y-98275001D01*
X157600000Y-98375001D02*
X160400000Y-98375001D01*
X160400000Y-98175001D02*
X160400000Y-101825001D01*
X157600000Y-98175001D02*
X160400000Y-98175001D01*
X157600000Y-101825001D02*
X157600000Y-98175001D01*
X160400000Y-101825001D02*
X157600000Y-101825001D01*
X166400000Y-101425000D02*
X163600000Y-101425000D01*
X166400000Y-101525000D02*
X163600000Y-101525000D01*
X166400000Y-101725000D02*
X163600000Y-101725000D01*
X166400000Y-101625000D02*
X163600000Y-101625000D01*
X163600000Y-101825000D02*
X163600000Y-98175000D01*
X166400000Y-101825000D02*
X163600000Y-101825000D01*
X166400000Y-98175000D02*
X166400000Y-101825000D01*
X163600000Y-98175000D02*
X166400000Y-98175000D01*
X169600000Y-98575000D02*
X172400000Y-98575000D01*
X169600000Y-98475000D02*
X172400000Y-98475000D01*
X169600000Y-98275000D02*
X172400000Y-98275000D01*
X169600000Y-98375000D02*
X172400000Y-98375000D01*
X172400000Y-98175000D02*
X172400000Y-101825000D01*
X169600000Y-98175000D02*
X172400000Y-98175000D01*
X169600000Y-101825000D02*
X169600000Y-98175000D01*
X172400000Y-101825000D02*
X169600000Y-101825000D01*
D12*
X121386252Y-95710000D02*
X118613748Y-95710000D01*
X121386252Y-92290000D02*
X118613748Y-92290000D01*
X185052064Y-107710000D02*
X180947936Y-107710000D01*
X185052064Y-104290000D02*
X180947936Y-104290000D01*
D11*
X121600000Y-98575000D02*
X124400000Y-98575000D01*
X121600000Y-98475000D02*
X124400000Y-98475000D01*
X121600000Y-98275000D02*
X124400000Y-98275000D01*
X121600000Y-98375000D02*
X124400000Y-98375000D01*
X124400000Y-98175000D02*
X124400000Y-101825000D01*
X121600000Y-98175000D02*
X124400000Y-98175000D01*
X121600000Y-101825000D02*
X121600000Y-98175000D01*
X124400000Y-101825000D02*
X121600000Y-101825000D01*
M02*
