G04 #@! TF.GenerationSoftware,KiCad,Pcbnew,6.0.0-d3dd2cf0fa~116~ubuntu20.04.1*
G04 #@! TF.CreationDate,2022-01-09T22:45:00+01:00*
G04 #@! TF.ProjectId,Statikplatte,53746174-696b-4706-9c61-7474652e6b69,rev?*
G04 #@! TF.SameCoordinates,Original*
G04 #@! TF.FileFunction,Soldermask,Bot*
G04 #@! TF.FilePolarity,Negative*
%FSLAX46Y46*%
G04 Gerber Fmt 4.6, Leading zero omitted, Abs format (unit mm)*
G04 Created by KiCad (PCBNEW 6.0.0-d3dd2cf0fa~116~ubuntu20.04.1) date 2022-01-09 22:45:00*
%MOMM*%
%LPD*%
G01*
G04 APERTURE LIST*
G04 Aperture macros list*
%AMRoundRect*
0 Rectangle with rounded corners*
0 $1 Rounding radius*
0 $2 $3 $4 $5 $6 $7 $8 $9 X,Y pos of 4 corners*
0 Add a 4 corners polygon primitive as box body*
4,1,4,$2,$3,$4,$5,$6,$7,$8,$9,$2,$3,0*
0 Add four circle primitives for the rounded corners*
1,1,$1+$1,$2,$3*
1,1,$1+$1,$4,$5*
1,1,$1+$1,$6,$7*
1,1,$1+$1,$8,$9*
0 Add four rect primitives between the rounded corners*
20,1,$1+$1,$2,$3,$4,$5,0*
20,1,$1+$1,$4,$5,$6,$7,0*
20,1,$1+$1,$6,$7,$8,$9,0*
20,1,$1+$1,$8,$9,$2,$3,0*%
G04 Aperture macros list end*
%ADD10RoundRect,0.301000X0.312500X1.450000X-0.312500X1.450000X-0.312500X-1.450000X0.312500X-1.450000X0*%
%ADD11RoundRect,0.051000X1.250000X1.250000X-1.250000X1.250000X-1.250000X-1.250000X1.250000X-1.250000X0*%
%ADD12RoundRect,0.051000X0.850000X-1.250000X0.850000X1.250000X-0.850000X1.250000X-0.850000X-1.250000X0*%
%ADD13RoundRect,0.051000X-0.850000X1.250000X-0.850000X-1.250000X0.850000X-1.250000X0.850000X1.250000X0*%
%ADD14RoundRect,0.301000X0.425000X1.425000X-0.425000X1.425000X-0.425000X-1.425000X0.425000X-1.425000X0*%
G04 APERTURE END LIST*
D10*
X123862500Y-106000000D03*
X128137500Y-106000000D03*
X129862500Y-94000000D03*
X134137500Y-94000000D03*
X135862500Y-106000000D03*
X140137500Y-106000000D03*
X141862500Y-94000000D03*
X146137500Y-94000000D03*
X147725000Y-106000000D03*
X152000000Y-106000000D03*
X153862500Y-94000000D03*
X158137500Y-94000000D03*
X159862500Y-106000000D03*
X164137500Y-106000000D03*
X165862500Y-94000000D03*
X170137500Y-94000000D03*
X171725000Y-106000000D03*
X176000000Y-106000000D03*
D11*
X114000000Y-94000000D03*
X135000000Y-148750000D03*
X114000000Y-102000000D03*
X198750000Y-85000000D03*
X135000000Y-51250000D03*
X165000000Y-148750000D03*
X165000000Y-51250000D03*
X198750000Y-115000000D03*
X101250000Y-115000000D03*
X101250000Y-85000000D03*
D12*
X177000000Y-98000000D03*
X177000000Y-102000000D03*
X129000000Y-97999999D03*
X129000000Y-101999999D03*
D13*
X135000000Y-102000000D03*
X135000000Y-98000000D03*
D12*
X141000000Y-98000000D03*
X141000000Y-102000000D03*
D13*
X147000000Y-102000000D03*
X147000000Y-98000000D03*
D12*
X153000000Y-97999999D03*
X153000000Y-101999999D03*
D13*
X159000000Y-102000001D03*
X159000000Y-98000001D03*
D12*
X165000000Y-98000000D03*
X165000000Y-102000000D03*
D13*
X171000000Y-102000000D03*
X171000000Y-98000000D03*
D10*
X117862500Y-94000000D03*
X122137500Y-94000000D03*
D14*
X180100000Y-106000000D03*
X185900000Y-106000000D03*
D13*
X123000000Y-102000000D03*
X123000000Y-98000000D03*
M02*
