G04 #@! TF.GenerationSoftware,KiCad,Pcbnew,5.0.1*
G04 #@! TF.CreationDate,2019-01-23T19:28:01+01:00*
G04 #@! TF.ProjectId,Statikplatte,53746174696B706C617474652E6B6963,rev?*
G04 #@! TF.SameCoordinates,Original*
G04 #@! TF.FileFunction,Copper,L1,Top,Signal*
G04 #@! TF.FilePolarity,Positive*
%FSLAX46Y46*%
G04 Gerber Fmt 4.6, Leading zero omitted, Abs format (unit mm)*
G04 Created by KiCad (PCBNEW 5.0.1) date Mi 23 Jan 2019 19:28:01 CET*
%MOMM*%
%LPD*%
G01*
G04 APERTURE LIST*
G04 #@! TA.AperFunction,ViaPad*
%ADD10C,0.800000*%
G04 #@! TD*
G04 #@! TA.AperFunction,Conductor*
%ADD11C,0.254000*%
G04 #@! TD*
G04 APERTURE END LIST*
D10*
G04 #@! TO.N,/GND*
X102000000Y-102000000D03*
X102000000Y-148000000D03*
G04 #@! TO.N,/HV*
X198000000Y-106000000D03*
X198000000Y-52000000D03*
G04 #@! TD*
D11*
G04 #@! TO.N,/HV*
G36*
X198596257Y-51140769D02*
X198685955Y-51177923D01*
X198762976Y-51237024D01*
X198822077Y-51314045D01*
X198859231Y-51403743D01*
X198873000Y-51508328D01*
X198873000Y-144491672D01*
X198859231Y-144596257D01*
X198822077Y-144685955D01*
X198762976Y-144762976D01*
X198685955Y-144822077D01*
X198596257Y-144859231D01*
X198491672Y-144873000D01*
X106508328Y-144873000D01*
X106403743Y-144859231D01*
X106314045Y-144822077D01*
X106237024Y-144762976D01*
X106177923Y-144685955D01*
X106140769Y-144596257D01*
X106127000Y-144491672D01*
X106127000Y-143508328D01*
X106140769Y-143403743D01*
X106177923Y-143314045D01*
X106237024Y-143237024D01*
X106314045Y-143177923D01*
X106403743Y-143140769D01*
X106508328Y-143127000D01*
X196500000Y-143127000D01*
X196516577Y-143125914D01*
X196645987Y-143108877D01*
X196678011Y-143100296D01*
X196798601Y-143050346D01*
X196827313Y-143033768D01*
X196930866Y-142954308D01*
X196954308Y-142930866D01*
X197033768Y-142827313D01*
X197050346Y-142798601D01*
X197100296Y-142678011D01*
X197108877Y-142645987D01*
X197125914Y-142516577D01*
X197127000Y-142500000D01*
X197127000Y-137137500D01*
X197125914Y-137120923D01*
X197108877Y-136991513D01*
X197100296Y-136959489D01*
X197050346Y-136838899D01*
X197033768Y-136810187D01*
X196954308Y-136706634D01*
X196930866Y-136683192D01*
X196827313Y-136603732D01*
X196798601Y-136587154D01*
X196678011Y-136537204D01*
X196645987Y-136528623D01*
X196516577Y-136511586D01*
X196500000Y-136510500D01*
X106508328Y-136510500D01*
X106403743Y-136496731D01*
X106314045Y-136459577D01*
X106237024Y-136400476D01*
X106177923Y-136323455D01*
X106140769Y-136233757D01*
X106127000Y-136129172D01*
X106127000Y-135145828D01*
X106140769Y-135041243D01*
X106177923Y-134951545D01*
X106237024Y-134874524D01*
X106314045Y-134815423D01*
X106403743Y-134778269D01*
X106508328Y-134764500D01*
X196500000Y-134764500D01*
X196516577Y-134763414D01*
X196645987Y-134746377D01*
X196678011Y-134737796D01*
X196798601Y-134687846D01*
X196827313Y-134671268D01*
X196930866Y-134591808D01*
X196954308Y-134568366D01*
X197033768Y-134464813D01*
X197050346Y-134436101D01*
X197100296Y-134315511D01*
X197108877Y-134283487D01*
X197125914Y-134154077D01*
X197127000Y-134137500D01*
X197127000Y-128775000D01*
X197125914Y-128758423D01*
X197108877Y-128629013D01*
X197100296Y-128596989D01*
X197050346Y-128476399D01*
X197033768Y-128447687D01*
X196954308Y-128344134D01*
X196930866Y-128320692D01*
X196827313Y-128241232D01*
X196798601Y-128224654D01*
X196678011Y-128174704D01*
X196645987Y-128166123D01*
X196516577Y-128149086D01*
X196500000Y-128148000D01*
X106508328Y-128148000D01*
X106403743Y-128134231D01*
X106314045Y-128097077D01*
X106237024Y-128037976D01*
X106177923Y-127960955D01*
X106140769Y-127871257D01*
X106127000Y-127766672D01*
X106127000Y-126783328D01*
X106140769Y-126678743D01*
X106177923Y-126589045D01*
X106237024Y-126512024D01*
X106314045Y-126452923D01*
X106403743Y-126415769D01*
X106508328Y-126402000D01*
X196500000Y-126402000D01*
X196516577Y-126400914D01*
X196645987Y-126383877D01*
X196678011Y-126375296D01*
X196798601Y-126325346D01*
X196827313Y-126308768D01*
X196930866Y-126229308D01*
X196954308Y-126205866D01*
X197033768Y-126102313D01*
X197050346Y-126073601D01*
X197100296Y-125953011D01*
X197108877Y-125920987D01*
X197125914Y-125791577D01*
X197127000Y-125775000D01*
X197127000Y-120412500D01*
X197125914Y-120395923D01*
X197108877Y-120266513D01*
X197100296Y-120234489D01*
X197050346Y-120113899D01*
X197033768Y-120085187D01*
X196954308Y-119981634D01*
X196930866Y-119958192D01*
X196827313Y-119878732D01*
X196798601Y-119862154D01*
X196678011Y-119812204D01*
X196645987Y-119803623D01*
X196516577Y-119786586D01*
X196500000Y-119785500D01*
X106508328Y-119785500D01*
X106403743Y-119771731D01*
X106314045Y-119734577D01*
X106237024Y-119675476D01*
X106177923Y-119598455D01*
X106140769Y-119508757D01*
X106127000Y-119404172D01*
X106127000Y-118420828D01*
X106140769Y-118316243D01*
X106177923Y-118226545D01*
X106237024Y-118149524D01*
X106314045Y-118090423D01*
X106403743Y-118053269D01*
X106508328Y-118039500D01*
X196500000Y-118039500D01*
X196516577Y-118038414D01*
X196645987Y-118021377D01*
X196678011Y-118012796D01*
X196798601Y-117962846D01*
X196827313Y-117946268D01*
X196930866Y-117866808D01*
X196954308Y-117843366D01*
X197033768Y-117739813D01*
X197050346Y-117711101D01*
X197100296Y-117590511D01*
X197108877Y-117558487D01*
X197125914Y-117429077D01*
X197127000Y-117412500D01*
X197127000Y-112050000D01*
X197125914Y-112033423D01*
X197108877Y-111904013D01*
X197100296Y-111871989D01*
X197050346Y-111751399D01*
X197033768Y-111722687D01*
X196954308Y-111619134D01*
X196930866Y-111595692D01*
X196827313Y-111516232D01*
X196798601Y-111499654D01*
X196678011Y-111449704D01*
X196645987Y-111441123D01*
X196516577Y-111424086D01*
X196500000Y-111423000D01*
X106508328Y-111423000D01*
X106403743Y-111409231D01*
X106314045Y-111372077D01*
X106237024Y-111312976D01*
X106177923Y-111235955D01*
X106140769Y-111146257D01*
X106127000Y-111041672D01*
X106127000Y-110058328D01*
X106140769Y-109953743D01*
X106177923Y-109864045D01*
X106237024Y-109787024D01*
X106314045Y-109727923D01*
X106403743Y-109690769D01*
X106508328Y-109677000D01*
X196500000Y-109677000D01*
X196516577Y-109675914D01*
X196645987Y-109658877D01*
X196678011Y-109650296D01*
X196798601Y-109600346D01*
X196827313Y-109583768D01*
X196930866Y-109504308D01*
X196954308Y-109480866D01*
X197033768Y-109377313D01*
X197050346Y-109348601D01*
X197100296Y-109228011D01*
X197108877Y-109195987D01*
X197125914Y-109066577D01*
X197127000Y-109050000D01*
X197127000Y-103687500D01*
X197125914Y-103670923D01*
X197108877Y-103541513D01*
X197100296Y-103509489D01*
X197050346Y-103388899D01*
X197033768Y-103360187D01*
X196954308Y-103256634D01*
X196930866Y-103233192D01*
X196827313Y-103153732D01*
X196798601Y-103137154D01*
X196678011Y-103087204D01*
X196645987Y-103078623D01*
X196516577Y-103061586D01*
X196500000Y-103060500D01*
X106508328Y-103060500D01*
X106403743Y-103046731D01*
X106314045Y-103009577D01*
X106237024Y-102950476D01*
X106177923Y-102873455D01*
X106140769Y-102783757D01*
X106127000Y-102679172D01*
X106127000Y-101695828D01*
X106140769Y-101591243D01*
X106177923Y-101501545D01*
X106237024Y-101424524D01*
X106314045Y-101365423D01*
X106403743Y-101328269D01*
X106508328Y-101314500D01*
X196500000Y-101314500D01*
X196516577Y-101313414D01*
X196645987Y-101296377D01*
X196678011Y-101287796D01*
X196798601Y-101237846D01*
X196827313Y-101221268D01*
X196930866Y-101141808D01*
X196954308Y-101118366D01*
X197033768Y-101014813D01*
X197050346Y-100986101D01*
X197100296Y-100865511D01*
X197108877Y-100833487D01*
X197125914Y-100704077D01*
X197127000Y-100687500D01*
X197127000Y-95325000D01*
X197125914Y-95308423D01*
X197108877Y-95179013D01*
X197100296Y-95146989D01*
X197050346Y-95026399D01*
X197033768Y-94997687D01*
X196954308Y-94894134D01*
X196930866Y-94870692D01*
X196827313Y-94791232D01*
X196798601Y-94774654D01*
X196678011Y-94724704D01*
X196645987Y-94716123D01*
X196516577Y-94699086D01*
X196500000Y-94698000D01*
X106508328Y-94698000D01*
X106403743Y-94684231D01*
X106314045Y-94647077D01*
X106237024Y-94587976D01*
X106177923Y-94510955D01*
X106140769Y-94421257D01*
X106127000Y-94316672D01*
X106127000Y-93333328D01*
X106140769Y-93228743D01*
X106177923Y-93139045D01*
X106237024Y-93062024D01*
X106314045Y-93002923D01*
X106403743Y-92965769D01*
X106508328Y-92952000D01*
X196500000Y-92952000D01*
X196516577Y-92950914D01*
X196645987Y-92933877D01*
X196678011Y-92925296D01*
X196798601Y-92875346D01*
X196827313Y-92858768D01*
X196930866Y-92779308D01*
X196954308Y-92755866D01*
X197033768Y-92652313D01*
X197050346Y-92623601D01*
X197100296Y-92503011D01*
X197108877Y-92470987D01*
X197125914Y-92341577D01*
X197127000Y-92325000D01*
X197127000Y-86962500D01*
X197125914Y-86945923D01*
X197108877Y-86816513D01*
X197100296Y-86784489D01*
X197050346Y-86663899D01*
X197033768Y-86635187D01*
X196954308Y-86531634D01*
X196930866Y-86508192D01*
X196827313Y-86428732D01*
X196798601Y-86412154D01*
X196678011Y-86362204D01*
X196645987Y-86353623D01*
X196516577Y-86336586D01*
X196500000Y-86335500D01*
X106508328Y-86335500D01*
X106403743Y-86321731D01*
X106314045Y-86284577D01*
X106237024Y-86225476D01*
X106177923Y-86148455D01*
X106140769Y-86058757D01*
X106127000Y-85954172D01*
X106127000Y-84970828D01*
X106140769Y-84866243D01*
X106177923Y-84776545D01*
X106237024Y-84699524D01*
X106314045Y-84640423D01*
X106403743Y-84603269D01*
X106508328Y-84589500D01*
X196500000Y-84589500D01*
X196516577Y-84588414D01*
X196645987Y-84571377D01*
X196678011Y-84562796D01*
X196798601Y-84512846D01*
X196827313Y-84496268D01*
X196930866Y-84416808D01*
X196954308Y-84393366D01*
X197033768Y-84289813D01*
X197050346Y-84261101D01*
X197100296Y-84140511D01*
X197108877Y-84108487D01*
X197125914Y-83979077D01*
X197127000Y-83962500D01*
X197127000Y-78600000D01*
X197125914Y-78583423D01*
X197108877Y-78454013D01*
X197100296Y-78421989D01*
X197050346Y-78301399D01*
X197033768Y-78272687D01*
X196954308Y-78169134D01*
X196930866Y-78145692D01*
X196827313Y-78066232D01*
X196798601Y-78049654D01*
X196678011Y-77999704D01*
X196645987Y-77991123D01*
X196516577Y-77974086D01*
X196500000Y-77973000D01*
X106508328Y-77973000D01*
X106403743Y-77959231D01*
X106314045Y-77922077D01*
X106237024Y-77862976D01*
X106177923Y-77785955D01*
X106140769Y-77696257D01*
X106127000Y-77591672D01*
X106127000Y-76608328D01*
X106140769Y-76503743D01*
X106177923Y-76414045D01*
X106237024Y-76337024D01*
X106314045Y-76277923D01*
X106403743Y-76240769D01*
X106508328Y-76227000D01*
X196500000Y-76227000D01*
X196516577Y-76225914D01*
X196645987Y-76208877D01*
X196678011Y-76200296D01*
X196798601Y-76150346D01*
X196827313Y-76133768D01*
X196930866Y-76054308D01*
X196954308Y-76030866D01*
X197033768Y-75927313D01*
X197050346Y-75898601D01*
X197100296Y-75778011D01*
X197108877Y-75745987D01*
X197125914Y-75616577D01*
X197127000Y-75600000D01*
X197127000Y-70237500D01*
X197125914Y-70220923D01*
X197108877Y-70091513D01*
X197100296Y-70059489D01*
X197050346Y-69938899D01*
X197033768Y-69910187D01*
X196954308Y-69806634D01*
X196930866Y-69783192D01*
X196827313Y-69703732D01*
X196798601Y-69687154D01*
X196678011Y-69637204D01*
X196645987Y-69628623D01*
X196516577Y-69611586D01*
X196500000Y-69610500D01*
X106508328Y-69610500D01*
X106403743Y-69596731D01*
X106314045Y-69559577D01*
X106237024Y-69500476D01*
X106177923Y-69423455D01*
X106140769Y-69333757D01*
X106127000Y-69229172D01*
X106127000Y-68245828D01*
X106140769Y-68141243D01*
X106177923Y-68051545D01*
X106237024Y-67974524D01*
X106314045Y-67915423D01*
X106403743Y-67878269D01*
X106508328Y-67864500D01*
X196500000Y-67864500D01*
X196516577Y-67863414D01*
X196645987Y-67846377D01*
X196678011Y-67837796D01*
X196798601Y-67787846D01*
X196827313Y-67771268D01*
X196930866Y-67691808D01*
X196954308Y-67668366D01*
X197033768Y-67564813D01*
X197050346Y-67536101D01*
X197100296Y-67415511D01*
X197108877Y-67383487D01*
X197125914Y-67254077D01*
X197127000Y-67237500D01*
X197127000Y-61875000D01*
X197125914Y-61858423D01*
X197108877Y-61729013D01*
X197100296Y-61696989D01*
X197050346Y-61576399D01*
X197033768Y-61547687D01*
X196954308Y-61444134D01*
X196930866Y-61420692D01*
X196827313Y-61341232D01*
X196798601Y-61324654D01*
X196678011Y-61274704D01*
X196645987Y-61266123D01*
X196516577Y-61249086D01*
X196500000Y-61248000D01*
X106508328Y-61248000D01*
X106403743Y-61234231D01*
X106314045Y-61197077D01*
X106237024Y-61137976D01*
X106177923Y-61060955D01*
X106140769Y-60971257D01*
X106127000Y-60866672D01*
X106127000Y-59883328D01*
X106140769Y-59778743D01*
X106177923Y-59689045D01*
X106237024Y-59612024D01*
X106314045Y-59552923D01*
X106403743Y-59515769D01*
X106508328Y-59502000D01*
X196500000Y-59502000D01*
X196516577Y-59500914D01*
X196645987Y-59483877D01*
X196678011Y-59475296D01*
X196798601Y-59425346D01*
X196827313Y-59408768D01*
X196930866Y-59329308D01*
X196954308Y-59305866D01*
X197033768Y-59202313D01*
X197050346Y-59173601D01*
X197100296Y-59053011D01*
X197108877Y-59020987D01*
X197125914Y-58891577D01*
X197127000Y-58875000D01*
X197127000Y-53512181D01*
X197125914Y-53495606D01*
X197108880Y-53366207D01*
X197100300Y-53334184D01*
X197050357Y-53213602D01*
X197033783Y-53184893D01*
X196954336Y-53081343D01*
X196930896Y-53057900D01*
X196827357Y-52978440D01*
X196798649Y-52961862D01*
X196678073Y-52911904D01*
X196646053Y-52903320D01*
X196516656Y-52886269D01*
X196500080Y-52885181D01*
X101508279Y-52873065D01*
X101403704Y-52859285D01*
X101314020Y-52822126D01*
X101237007Y-52763024D01*
X101177914Y-52686003D01*
X101140766Y-52596312D01*
X101127000Y-52491739D01*
X101127000Y-51508386D01*
X101140770Y-51403800D01*
X101177929Y-51314099D01*
X101237041Y-51237072D01*
X101314077Y-51177969D01*
X101403784Y-51140821D01*
X101508369Y-51127065D01*
X196993862Y-51139244D01*
X197018639Y-51136807D01*
X197042464Y-51129583D01*
X197047298Y-51127000D01*
X198491672Y-51127000D01*
X198596257Y-51140769D01*
X198596257Y-51140769D01*
G37*
X198596257Y-51140769D02*
X198685955Y-51177923D01*
X198762976Y-51237024D01*
X198822077Y-51314045D01*
X198859231Y-51403743D01*
X198873000Y-51508328D01*
X198873000Y-144491672D01*
X198859231Y-144596257D01*
X198822077Y-144685955D01*
X198762976Y-144762976D01*
X198685955Y-144822077D01*
X198596257Y-144859231D01*
X198491672Y-144873000D01*
X106508328Y-144873000D01*
X106403743Y-144859231D01*
X106314045Y-144822077D01*
X106237024Y-144762976D01*
X106177923Y-144685955D01*
X106140769Y-144596257D01*
X106127000Y-144491672D01*
X106127000Y-143508328D01*
X106140769Y-143403743D01*
X106177923Y-143314045D01*
X106237024Y-143237024D01*
X106314045Y-143177923D01*
X106403743Y-143140769D01*
X106508328Y-143127000D01*
X196500000Y-143127000D01*
X196516577Y-143125914D01*
X196645987Y-143108877D01*
X196678011Y-143100296D01*
X196798601Y-143050346D01*
X196827313Y-143033768D01*
X196930866Y-142954308D01*
X196954308Y-142930866D01*
X197033768Y-142827313D01*
X197050346Y-142798601D01*
X197100296Y-142678011D01*
X197108877Y-142645987D01*
X197125914Y-142516577D01*
X197127000Y-142500000D01*
X197127000Y-137137500D01*
X197125914Y-137120923D01*
X197108877Y-136991513D01*
X197100296Y-136959489D01*
X197050346Y-136838899D01*
X197033768Y-136810187D01*
X196954308Y-136706634D01*
X196930866Y-136683192D01*
X196827313Y-136603732D01*
X196798601Y-136587154D01*
X196678011Y-136537204D01*
X196645987Y-136528623D01*
X196516577Y-136511586D01*
X196500000Y-136510500D01*
X106508328Y-136510500D01*
X106403743Y-136496731D01*
X106314045Y-136459577D01*
X106237024Y-136400476D01*
X106177923Y-136323455D01*
X106140769Y-136233757D01*
X106127000Y-136129172D01*
X106127000Y-135145828D01*
X106140769Y-135041243D01*
X106177923Y-134951545D01*
X106237024Y-134874524D01*
X106314045Y-134815423D01*
X106403743Y-134778269D01*
X106508328Y-134764500D01*
X196500000Y-134764500D01*
X196516577Y-134763414D01*
X196645987Y-134746377D01*
X196678011Y-134737796D01*
X196798601Y-134687846D01*
X196827313Y-134671268D01*
X196930866Y-134591808D01*
X196954308Y-134568366D01*
X197033768Y-134464813D01*
X197050346Y-134436101D01*
X197100296Y-134315511D01*
X197108877Y-134283487D01*
X197125914Y-134154077D01*
X197127000Y-134137500D01*
X197127000Y-128775000D01*
X197125914Y-128758423D01*
X197108877Y-128629013D01*
X197100296Y-128596989D01*
X197050346Y-128476399D01*
X197033768Y-128447687D01*
X196954308Y-128344134D01*
X196930866Y-128320692D01*
X196827313Y-128241232D01*
X196798601Y-128224654D01*
X196678011Y-128174704D01*
X196645987Y-128166123D01*
X196516577Y-128149086D01*
X196500000Y-128148000D01*
X106508328Y-128148000D01*
X106403743Y-128134231D01*
X106314045Y-128097077D01*
X106237024Y-128037976D01*
X106177923Y-127960955D01*
X106140769Y-127871257D01*
X106127000Y-127766672D01*
X106127000Y-126783328D01*
X106140769Y-126678743D01*
X106177923Y-126589045D01*
X106237024Y-126512024D01*
X106314045Y-126452923D01*
X106403743Y-126415769D01*
X106508328Y-126402000D01*
X196500000Y-126402000D01*
X196516577Y-126400914D01*
X196645987Y-126383877D01*
X196678011Y-126375296D01*
X196798601Y-126325346D01*
X196827313Y-126308768D01*
X196930866Y-126229308D01*
X196954308Y-126205866D01*
X197033768Y-126102313D01*
X197050346Y-126073601D01*
X197100296Y-125953011D01*
X197108877Y-125920987D01*
X197125914Y-125791577D01*
X197127000Y-125775000D01*
X197127000Y-120412500D01*
X197125914Y-120395923D01*
X197108877Y-120266513D01*
X197100296Y-120234489D01*
X197050346Y-120113899D01*
X197033768Y-120085187D01*
X196954308Y-119981634D01*
X196930866Y-119958192D01*
X196827313Y-119878732D01*
X196798601Y-119862154D01*
X196678011Y-119812204D01*
X196645987Y-119803623D01*
X196516577Y-119786586D01*
X196500000Y-119785500D01*
X106508328Y-119785500D01*
X106403743Y-119771731D01*
X106314045Y-119734577D01*
X106237024Y-119675476D01*
X106177923Y-119598455D01*
X106140769Y-119508757D01*
X106127000Y-119404172D01*
X106127000Y-118420828D01*
X106140769Y-118316243D01*
X106177923Y-118226545D01*
X106237024Y-118149524D01*
X106314045Y-118090423D01*
X106403743Y-118053269D01*
X106508328Y-118039500D01*
X196500000Y-118039500D01*
X196516577Y-118038414D01*
X196645987Y-118021377D01*
X196678011Y-118012796D01*
X196798601Y-117962846D01*
X196827313Y-117946268D01*
X196930866Y-117866808D01*
X196954308Y-117843366D01*
X197033768Y-117739813D01*
X197050346Y-117711101D01*
X197100296Y-117590511D01*
X197108877Y-117558487D01*
X197125914Y-117429077D01*
X197127000Y-117412500D01*
X197127000Y-112050000D01*
X197125914Y-112033423D01*
X197108877Y-111904013D01*
X197100296Y-111871989D01*
X197050346Y-111751399D01*
X197033768Y-111722687D01*
X196954308Y-111619134D01*
X196930866Y-111595692D01*
X196827313Y-111516232D01*
X196798601Y-111499654D01*
X196678011Y-111449704D01*
X196645987Y-111441123D01*
X196516577Y-111424086D01*
X196500000Y-111423000D01*
X106508328Y-111423000D01*
X106403743Y-111409231D01*
X106314045Y-111372077D01*
X106237024Y-111312976D01*
X106177923Y-111235955D01*
X106140769Y-111146257D01*
X106127000Y-111041672D01*
X106127000Y-110058328D01*
X106140769Y-109953743D01*
X106177923Y-109864045D01*
X106237024Y-109787024D01*
X106314045Y-109727923D01*
X106403743Y-109690769D01*
X106508328Y-109677000D01*
X196500000Y-109677000D01*
X196516577Y-109675914D01*
X196645987Y-109658877D01*
X196678011Y-109650296D01*
X196798601Y-109600346D01*
X196827313Y-109583768D01*
X196930866Y-109504308D01*
X196954308Y-109480866D01*
X197033768Y-109377313D01*
X197050346Y-109348601D01*
X197100296Y-109228011D01*
X197108877Y-109195987D01*
X197125914Y-109066577D01*
X197127000Y-109050000D01*
X197127000Y-103687500D01*
X197125914Y-103670923D01*
X197108877Y-103541513D01*
X197100296Y-103509489D01*
X197050346Y-103388899D01*
X197033768Y-103360187D01*
X196954308Y-103256634D01*
X196930866Y-103233192D01*
X196827313Y-103153732D01*
X196798601Y-103137154D01*
X196678011Y-103087204D01*
X196645987Y-103078623D01*
X196516577Y-103061586D01*
X196500000Y-103060500D01*
X106508328Y-103060500D01*
X106403743Y-103046731D01*
X106314045Y-103009577D01*
X106237024Y-102950476D01*
X106177923Y-102873455D01*
X106140769Y-102783757D01*
X106127000Y-102679172D01*
X106127000Y-101695828D01*
X106140769Y-101591243D01*
X106177923Y-101501545D01*
X106237024Y-101424524D01*
X106314045Y-101365423D01*
X106403743Y-101328269D01*
X106508328Y-101314500D01*
X196500000Y-101314500D01*
X196516577Y-101313414D01*
X196645987Y-101296377D01*
X196678011Y-101287796D01*
X196798601Y-101237846D01*
X196827313Y-101221268D01*
X196930866Y-101141808D01*
X196954308Y-101118366D01*
X197033768Y-101014813D01*
X197050346Y-100986101D01*
X197100296Y-100865511D01*
X197108877Y-100833487D01*
X197125914Y-100704077D01*
X197127000Y-100687500D01*
X197127000Y-95325000D01*
X197125914Y-95308423D01*
X197108877Y-95179013D01*
X197100296Y-95146989D01*
X197050346Y-95026399D01*
X197033768Y-94997687D01*
X196954308Y-94894134D01*
X196930866Y-94870692D01*
X196827313Y-94791232D01*
X196798601Y-94774654D01*
X196678011Y-94724704D01*
X196645987Y-94716123D01*
X196516577Y-94699086D01*
X196500000Y-94698000D01*
X106508328Y-94698000D01*
X106403743Y-94684231D01*
X106314045Y-94647077D01*
X106237024Y-94587976D01*
X106177923Y-94510955D01*
X106140769Y-94421257D01*
X106127000Y-94316672D01*
X106127000Y-93333328D01*
X106140769Y-93228743D01*
X106177923Y-93139045D01*
X106237024Y-93062024D01*
X106314045Y-93002923D01*
X106403743Y-92965769D01*
X106508328Y-92952000D01*
X196500000Y-92952000D01*
X196516577Y-92950914D01*
X196645987Y-92933877D01*
X196678011Y-92925296D01*
X196798601Y-92875346D01*
X196827313Y-92858768D01*
X196930866Y-92779308D01*
X196954308Y-92755866D01*
X197033768Y-92652313D01*
X197050346Y-92623601D01*
X197100296Y-92503011D01*
X197108877Y-92470987D01*
X197125914Y-92341577D01*
X197127000Y-92325000D01*
X197127000Y-86962500D01*
X197125914Y-86945923D01*
X197108877Y-86816513D01*
X197100296Y-86784489D01*
X197050346Y-86663899D01*
X197033768Y-86635187D01*
X196954308Y-86531634D01*
X196930866Y-86508192D01*
X196827313Y-86428732D01*
X196798601Y-86412154D01*
X196678011Y-86362204D01*
X196645987Y-86353623D01*
X196516577Y-86336586D01*
X196500000Y-86335500D01*
X106508328Y-86335500D01*
X106403743Y-86321731D01*
X106314045Y-86284577D01*
X106237024Y-86225476D01*
X106177923Y-86148455D01*
X106140769Y-86058757D01*
X106127000Y-85954172D01*
X106127000Y-84970828D01*
X106140769Y-84866243D01*
X106177923Y-84776545D01*
X106237024Y-84699524D01*
X106314045Y-84640423D01*
X106403743Y-84603269D01*
X106508328Y-84589500D01*
X196500000Y-84589500D01*
X196516577Y-84588414D01*
X196645987Y-84571377D01*
X196678011Y-84562796D01*
X196798601Y-84512846D01*
X196827313Y-84496268D01*
X196930866Y-84416808D01*
X196954308Y-84393366D01*
X197033768Y-84289813D01*
X197050346Y-84261101D01*
X197100296Y-84140511D01*
X197108877Y-84108487D01*
X197125914Y-83979077D01*
X197127000Y-83962500D01*
X197127000Y-78600000D01*
X197125914Y-78583423D01*
X197108877Y-78454013D01*
X197100296Y-78421989D01*
X197050346Y-78301399D01*
X197033768Y-78272687D01*
X196954308Y-78169134D01*
X196930866Y-78145692D01*
X196827313Y-78066232D01*
X196798601Y-78049654D01*
X196678011Y-77999704D01*
X196645987Y-77991123D01*
X196516577Y-77974086D01*
X196500000Y-77973000D01*
X106508328Y-77973000D01*
X106403743Y-77959231D01*
X106314045Y-77922077D01*
X106237024Y-77862976D01*
X106177923Y-77785955D01*
X106140769Y-77696257D01*
X106127000Y-77591672D01*
X106127000Y-76608328D01*
X106140769Y-76503743D01*
X106177923Y-76414045D01*
X106237024Y-76337024D01*
X106314045Y-76277923D01*
X106403743Y-76240769D01*
X106508328Y-76227000D01*
X196500000Y-76227000D01*
X196516577Y-76225914D01*
X196645987Y-76208877D01*
X196678011Y-76200296D01*
X196798601Y-76150346D01*
X196827313Y-76133768D01*
X196930866Y-76054308D01*
X196954308Y-76030866D01*
X197033768Y-75927313D01*
X197050346Y-75898601D01*
X197100296Y-75778011D01*
X197108877Y-75745987D01*
X197125914Y-75616577D01*
X197127000Y-75600000D01*
X197127000Y-70237500D01*
X197125914Y-70220923D01*
X197108877Y-70091513D01*
X197100296Y-70059489D01*
X197050346Y-69938899D01*
X197033768Y-69910187D01*
X196954308Y-69806634D01*
X196930866Y-69783192D01*
X196827313Y-69703732D01*
X196798601Y-69687154D01*
X196678011Y-69637204D01*
X196645987Y-69628623D01*
X196516577Y-69611586D01*
X196500000Y-69610500D01*
X106508328Y-69610500D01*
X106403743Y-69596731D01*
X106314045Y-69559577D01*
X106237024Y-69500476D01*
X106177923Y-69423455D01*
X106140769Y-69333757D01*
X106127000Y-69229172D01*
X106127000Y-68245828D01*
X106140769Y-68141243D01*
X106177923Y-68051545D01*
X106237024Y-67974524D01*
X106314045Y-67915423D01*
X106403743Y-67878269D01*
X106508328Y-67864500D01*
X196500000Y-67864500D01*
X196516577Y-67863414D01*
X196645987Y-67846377D01*
X196678011Y-67837796D01*
X196798601Y-67787846D01*
X196827313Y-67771268D01*
X196930866Y-67691808D01*
X196954308Y-67668366D01*
X197033768Y-67564813D01*
X197050346Y-67536101D01*
X197100296Y-67415511D01*
X197108877Y-67383487D01*
X197125914Y-67254077D01*
X197127000Y-67237500D01*
X197127000Y-61875000D01*
X197125914Y-61858423D01*
X197108877Y-61729013D01*
X197100296Y-61696989D01*
X197050346Y-61576399D01*
X197033768Y-61547687D01*
X196954308Y-61444134D01*
X196930866Y-61420692D01*
X196827313Y-61341232D01*
X196798601Y-61324654D01*
X196678011Y-61274704D01*
X196645987Y-61266123D01*
X196516577Y-61249086D01*
X196500000Y-61248000D01*
X106508328Y-61248000D01*
X106403743Y-61234231D01*
X106314045Y-61197077D01*
X106237024Y-61137976D01*
X106177923Y-61060955D01*
X106140769Y-60971257D01*
X106127000Y-60866672D01*
X106127000Y-59883328D01*
X106140769Y-59778743D01*
X106177923Y-59689045D01*
X106237024Y-59612024D01*
X106314045Y-59552923D01*
X106403743Y-59515769D01*
X106508328Y-59502000D01*
X196500000Y-59502000D01*
X196516577Y-59500914D01*
X196645987Y-59483877D01*
X196678011Y-59475296D01*
X196798601Y-59425346D01*
X196827313Y-59408768D01*
X196930866Y-59329308D01*
X196954308Y-59305866D01*
X197033768Y-59202313D01*
X197050346Y-59173601D01*
X197100296Y-59053011D01*
X197108877Y-59020987D01*
X197125914Y-58891577D01*
X197127000Y-58875000D01*
X197127000Y-53512181D01*
X197125914Y-53495606D01*
X197108880Y-53366207D01*
X197100300Y-53334184D01*
X197050357Y-53213602D01*
X197033783Y-53184893D01*
X196954336Y-53081343D01*
X196930896Y-53057900D01*
X196827357Y-52978440D01*
X196798649Y-52961862D01*
X196678073Y-52911904D01*
X196646053Y-52903320D01*
X196516656Y-52886269D01*
X196500080Y-52885181D01*
X101508279Y-52873065D01*
X101403704Y-52859285D01*
X101314020Y-52822126D01*
X101237007Y-52763024D01*
X101177914Y-52686003D01*
X101140766Y-52596312D01*
X101127000Y-52491739D01*
X101127000Y-51508386D01*
X101140770Y-51403800D01*
X101177929Y-51314099D01*
X101237041Y-51237072D01*
X101314077Y-51177969D01*
X101403784Y-51140821D01*
X101508369Y-51127065D01*
X196993862Y-51139244D01*
X197018639Y-51136807D01*
X197042464Y-51129583D01*
X197047298Y-51127000D01*
X198491672Y-51127000D01*
X198596257Y-51140769D01*
G04 #@! TO.N,/GND*
G36*
X102957649Y-55129833D02*
X102981474Y-55137060D01*
X103006250Y-55139500D01*
X193491672Y-55139500D01*
X193596257Y-55153269D01*
X193685955Y-55190423D01*
X193762976Y-55249524D01*
X193822077Y-55326545D01*
X193859231Y-55416243D01*
X193873000Y-55520828D01*
X193873000Y-56504172D01*
X193859231Y-56608757D01*
X193822077Y-56698455D01*
X193762976Y-56775476D01*
X193685955Y-56834577D01*
X193596257Y-56871731D01*
X193491672Y-56885500D01*
X103500000Y-56885500D01*
X103483423Y-56886586D01*
X103354013Y-56903623D01*
X103321989Y-56912204D01*
X103201399Y-56962154D01*
X103172687Y-56978732D01*
X103069134Y-57058192D01*
X103045692Y-57081634D01*
X102966232Y-57185187D01*
X102949654Y-57213899D01*
X102899704Y-57334489D01*
X102891123Y-57366513D01*
X102874086Y-57495923D01*
X102873000Y-57512500D01*
X102873000Y-62875000D01*
X102874086Y-62891577D01*
X102891123Y-63020987D01*
X102899704Y-63053011D01*
X102949654Y-63173601D01*
X102966232Y-63202313D01*
X103045692Y-63305866D01*
X103069134Y-63329308D01*
X103172687Y-63408768D01*
X103201399Y-63425346D01*
X103321989Y-63475296D01*
X103354013Y-63483877D01*
X103483423Y-63500914D01*
X103500000Y-63502000D01*
X193491672Y-63502000D01*
X193596257Y-63515769D01*
X193685955Y-63552923D01*
X193762976Y-63612024D01*
X193822077Y-63689045D01*
X193859231Y-63778743D01*
X193873000Y-63883328D01*
X193873000Y-64866672D01*
X193859231Y-64971257D01*
X193822077Y-65060955D01*
X193762976Y-65137976D01*
X193685955Y-65197077D01*
X193596257Y-65234231D01*
X193491672Y-65248000D01*
X103500000Y-65248000D01*
X103483423Y-65249086D01*
X103354013Y-65266123D01*
X103321989Y-65274704D01*
X103201399Y-65324654D01*
X103172687Y-65341232D01*
X103069134Y-65420692D01*
X103045692Y-65444134D01*
X102966232Y-65547687D01*
X102949654Y-65576399D01*
X102899704Y-65696989D01*
X102891123Y-65729013D01*
X102874086Y-65858423D01*
X102873000Y-65875000D01*
X102873000Y-71237500D01*
X102874086Y-71254077D01*
X102891123Y-71383487D01*
X102899704Y-71415511D01*
X102949654Y-71536101D01*
X102966232Y-71564813D01*
X103045692Y-71668366D01*
X103069134Y-71691808D01*
X103172687Y-71771268D01*
X103201399Y-71787846D01*
X103321989Y-71837796D01*
X103354013Y-71846377D01*
X103483423Y-71863414D01*
X103500000Y-71864500D01*
X193491672Y-71864500D01*
X193596257Y-71878269D01*
X193685955Y-71915423D01*
X193762976Y-71974524D01*
X193822077Y-72051545D01*
X193859231Y-72141243D01*
X193873000Y-72245828D01*
X193873000Y-73229172D01*
X193859231Y-73333757D01*
X193822077Y-73423455D01*
X193762976Y-73500476D01*
X193685955Y-73559577D01*
X193596257Y-73596731D01*
X193491672Y-73610500D01*
X103500000Y-73610500D01*
X103483423Y-73611586D01*
X103354013Y-73628623D01*
X103321989Y-73637204D01*
X103201399Y-73687154D01*
X103172687Y-73703732D01*
X103069134Y-73783192D01*
X103045692Y-73806634D01*
X102966232Y-73910187D01*
X102949654Y-73938899D01*
X102899704Y-74059489D01*
X102891123Y-74091513D01*
X102874086Y-74220923D01*
X102873000Y-74237500D01*
X102873000Y-79600000D01*
X102874086Y-79616577D01*
X102891123Y-79745987D01*
X102899704Y-79778011D01*
X102949654Y-79898601D01*
X102966232Y-79927313D01*
X103045692Y-80030866D01*
X103069134Y-80054308D01*
X103172687Y-80133768D01*
X103201399Y-80150346D01*
X103321989Y-80200296D01*
X103354013Y-80208877D01*
X103483423Y-80225914D01*
X103500000Y-80227000D01*
X193491672Y-80227000D01*
X193596257Y-80240769D01*
X193685955Y-80277923D01*
X193762976Y-80337024D01*
X193822077Y-80414045D01*
X193859231Y-80503743D01*
X193873000Y-80608328D01*
X193873000Y-81591672D01*
X193859231Y-81696257D01*
X193822077Y-81785955D01*
X193762976Y-81862976D01*
X193685955Y-81922077D01*
X193596257Y-81959231D01*
X193491672Y-81973000D01*
X103500000Y-81973000D01*
X103483423Y-81974086D01*
X103354013Y-81991123D01*
X103321989Y-81999704D01*
X103201399Y-82049654D01*
X103172687Y-82066232D01*
X103069134Y-82145692D01*
X103045692Y-82169134D01*
X102966232Y-82272687D01*
X102949654Y-82301399D01*
X102899704Y-82421989D01*
X102891123Y-82454013D01*
X102874086Y-82583423D01*
X102873000Y-82600000D01*
X102873000Y-87962500D01*
X102874086Y-87979077D01*
X102891123Y-88108487D01*
X102899704Y-88140511D01*
X102949654Y-88261101D01*
X102966232Y-88289813D01*
X103045692Y-88393366D01*
X103069134Y-88416808D01*
X103172687Y-88496268D01*
X103201399Y-88512846D01*
X103321989Y-88562796D01*
X103354013Y-88571377D01*
X103483423Y-88588414D01*
X103500000Y-88589500D01*
X193491672Y-88589500D01*
X193596257Y-88603269D01*
X193685955Y-88640423D01*
X193762976Y-88699524D01*
X193822077Y-88776545D01*
X193859231Y-88866243D01*
X193873000Y-88970828D01*
X193873000Y-89954172D01*
X193859231Y-90058757D01*
X193822077Y-90148455D01*
X193762976Y-90225476D01*
X193685955Y-90284577D01*
X193596257Y-90321731D01*
X193491672Y-90335500D01*
X103500000Y-90335500D01*
X103483423Y-90336586D01*
X103354013Y-90353623D01*
X103321989Y-90362204D01*
X103201399Y-90412154D01*
X103172687Y-90428732D01*
X103069134Y-90508192D01*
X103045692Y-90531634D01*
X102966232Y-90635187D01*
X102949654Y-90663899D01*
X102899704Y-90784489D01*
X102891123Y-90816513D01*
X102874086Y-90945923D01*
X102873000Y-90962500D01*
X102873000Y-96325000D01*
X102874086Y-96341577D01*
X102891123Y-96470987D01*
X102899704Y-96503011D01*
X102949654Y-96623601D01*
X102966232Y-96652313D01*
X103045692Y-96755866D01*
X103069134Y-96779308D01*
X103172687Y-96858768D01*
X103201399Y-96875346D01*
X103321989Y-96925296D01*
X103354013Y-96933877D01*
X103483423Y-96950914D01*
X103500000Y-96952000D01*
X193491672Y-96952000D01*
X193596257Y-96965769D01*
X193685955Y-97002923D01*
X193762976Y-97062024D01*
X193822077Y-97139045D01*
X193859231Y-97228743D01*
X193873000Y-97333328D01*
X193873000Y-98316672D01*
X193859231Y-98421257D01*
X193822077Y-98510955D01*
X193762976Y-98587976D01*
X193685955Y-98647077D01*
X193596257Y-98684231D01*
X193491672Y-98698000D01*
X103500000Y-98698000D01*
X103483423Y-98699086D01*
X103354013Y-98716123D01*
X103321989Y-98724704D01*
X103201399Y-98774654D01*
X103172687Y-98791232D01*
X103069134Y-98870692D01*
X103045692Y-98894134D01*
X102966232Y-98997687D01*
X102949654Y-99026399D01*
X102899704Y-99146989D01*
X102891123Y-99179013D01*
X102874086Y-99308423D01*
X102873000Y-99325000D01*
X102873000Y-104687500D01*
X102874086Y-104704077D01*
X102891123Y-104833487D01*
X102899704Y-104865511D01*
X102949654Y-104986101D01*
X102966232Y-105014813D01*
X103045692Y-105118366D01*
X103069134Y-105141808D01*
X103172687Y-105221268D01*
X103201399Y-105237846D01*
X103321989Y-105287796D01*
X103354013Y-105296377D01*
X103483423Y-105313414D01*
X103500000Y-105314500D01*
X193491672Y-105314500D01*
X193596257Y-105328269D01*
X193685955Y-105365423D01*
X193762976Y-105424524D01*
X193822077Y-105501545D01*
X193859231Y-105591243D01*
X193873000Y-105695828D01*
X193873000Y-106679172D01*
X193859231Y-106783757D01*
X193822077Y-106873455D01*
X193762976Y-106950476D01*
X193685955Y-107009577D01*
X193596257Y-107046731D01*
X193491672Y-107060500D01*
X103500000Y-107060500D01*
X103483423Y-107061586D01*
X103354013Y-107078623D01*
X103321989Y-107087204D01*
X103201399Y-107137154D01*
X103172687Y-107153732D01*
X103069134Y-107233192D01*
X103045692Y-107256634D01*
X102966232Y-107360187D01*
X102949654Y-107388899D01*
X102899704Y-107509489D01*
X102891123Y-107541513D01*
X102874086Y-107670923D01*
X102873000Y-107687500D01*
X102873000Y-113050000D01*
X102874086Y-113066577D01*
X102891123Y-113195987D01*
X102899704Y-113228011D01*
X102949654Y-113348601D01*
X102966232Y-113377313D01*
X103045692Y-113480866D01*
X103069134Y-113504308D01*
X103172687Y-113583768D01*
X103201399Y-113600346D01*
X103321989Y-113650296D01*
X103354013Y-113658877D01*
X103483423Y-113675914D01*
X103500000Y-113677000D01*
X193491672Y-113677000D01*
X193596257Y-113690769D01*
X193685955Y-113727923D01*
X193762976Y-113787024D01*
X193822077Y-113864045D01*
X193859231Y-113953743D01*
X193873000Y-114058328D01*
X193873000Y-115041672D01*
X193859231Y-115146257D01*
X193822077Y-115235955D01*
X193762976Y-115312976D01*
X193685955Y-115372077D01*
X193596257Y-115409231D01*
X193491672Y-115423000D01*
X103500000Y-115423000D01*
X103483423Y-115424086D01*
X103354013Y-115441123D01*
X103321989Y-115449704D01*
X103201399Y-115499654D01*
X103172687Y-115516232D01*
X103069134Y-115595692D01*
X103045692Y-115619134D01*
X102966232Y-115722687D01*
X102949654Y-115751399D01*
X102899704Y-115871989D01*
X102891123Y-115904013D01*
X102874086Y-116033423D01*
X102873000Y-116050000D01*
X102873000Y-121412500D01*
X102874086Y-121429077D01*
X102891123Y-121558487D01*
X102899704Y-121590511D01*
X102949654Y-121711101D01*
X102966232Y-121739813D01*
X103045692Y-121843366D01*
X103069134Y-121866808D01*
X103172687Y-121946268D01*
X103201399Y-121962846D01*
X103321989Y-122012796D01*
X103354013Y-122021377D01*
X103483423Y-122038414D01*
X103500000Y-122039500D01*
X193491672Y-122039500D01*
X193596257Y-122053269D01*
X193685955Y-122090423D01*
X193762976Y-122149524D01*
X193822077Y-122226545D01*
X193859231Y-122316243D01*
X193873000Y-122420828D01*
X193873000Y-123404172D01*
X193859231Y-123508757D01*
X193822077Y-123598455D01*
X193762976Y-123675476D01*
X193685955Y-123734577D01*
X193596257Y-123771731D01*
X193491672Y-123785500D01*
X103500000Y-123785500D01*
X103483423Y-123786586D01*
X103354013Y-123803623D01*
X103321989Y-123812204D01*
X103201399Y-123862154D01*
X103172687Y-123878732D01*
X103069134Y-123958192D01*
X103045692Y-123981634D01*
X102966232Y-124085187D01*
X102949654Y-124113899D01*
X102899704Y-124234489D01*
X102891123Y-124266513D01*
X102874086Y-124395923D01*
X102873000Y-124412500D01*
X102873000Y-129775000D01*
X102874086Y-129791577D01*
X102891123Y-129920987D01*
X102899704Y-129953011D01*
X102949654Y-130073601D01*
X102966232Y-130102313D01*
X103045692Y-130205866D01*
X103069134Y-130229308D01*
X103172687Y-130308768D01*
X103201399Y-130325346D01*
X103321989Y-130375296D01*
X103354013Y-130383877D01*
X103483423Y-130400914D01*
X103500000Y-130402000D01*
X193491672Y-130402000D01*
X193596257Y-130415769D01*
X193685955Y-130452923D01*
X193762976Y-130512024D01*
X193822077Y-130589045D01*
X193859231Y-130678743D01*
X193873000Y-130783328D01*
X193873000Y-131766672D01*
X193859231Y-131871257D01*
X193822077Y-131960955D01*
X193762976Y-132037976D01*
X193685955Y-132097077D01*
X193596257Y-132134231D01*
X193491672Y-132148000D01*
X103500000Y-132148000D01*
X103483423Y-132149086D01*
X103354013Y-132166123D01*
X103321989Y-132174704D01*
X103201399Y-132224654D01*
X103172687Y-132241232D01*
X103069134Y-132320692D01*
X103045692Y-132344134D01*
X102966232Y-132447687D01*
X102949654Y-132476399D01*
X102899704Y-132596989D01*
X102891123Y-132629013D01*
X102874086Y-132758423D01*
X102873000Y-132775000D01*
X102873000Y-138137500D01*
X102874086Y-138154077D01*
X102891123Y-138283487D01*
X102899704Y-138315511D01*
X102949654Y-138436101D01*
X102966232Y-138464813D01*
X103045692Y-138568366D01*
X103069134Y-138591808D01*
X103172687Y-138671268D01*
X103201399Y-138687846D01*
X103321989Y-138737796D01*
X103354013Y-138746377D01*
X103483423Y-138763414D01*
X103500000Y-138764500D01*
X193491672Y-138764500D01*
X193596257Y-138778269D01*
X193685955Y-138815423D01*
X193762976Y-138874524D01*
X193822077Y-138951545D01*
X193859231Y-139041243D01*
X193873000Y-139145828D01*
X193873000Y-140129172D01*
X193859231Y-140233757D01*
X193822077Y-140323455D01*
X193762976Y-140400476D01*
X193685955Y-140459577D01*
X193596257Y-140496731D01*
X193491672Y-140510500D01*
X103500000Y-140510500D01*
X103483423Y-140511586D01*
X103354013Y-140528623D01*
X103321989Y-140537204D01*
X103201399Y-140587154D01*
X103172687Y-140603732D01*
X103069134Y-140683192D01*
X103045692Y-140706634D01*
X102966232Y-140810187D01*
X102949654Y-140838899D01*
X102899704Y-140959489D01*
X102891123Y-140991513D01*
X102874086Y-141120923D01*
X102873000Y-141137500D01*
X102873000Y-146500000D01*
X102874086Y-146516577D01*
X102891123Y-146645987D01*
X102899704Y-146678011D01*
X102949654Y-146798601D01*
X102966232Y-146827313D01*
X103045692Y-146930866D01*
X103069134Y-146954308D01*
X103172687Y-147033768D01*
X103201399Y-147050346D01*
X103321989Y-147100296D01*
X103354013Y-147108877D01*
X103483423Y-147125914D01*
X103500000Y-147127000D01*
X198491672Y-147127000D01*
X198596257Y-147140769D01*
X198685955Y-147177923D01*
X198762976Y-147237024D01*
X198822077Y-147314045D01*
X198859231Y-147403743D01*
X198873000Y-147508328D01*
X198873000Y-148491672D01*
X198859231Y-148596257D01*
X198822077Y-148685955D01*
X198762976Y-148762976D01*
X198685955Y-148822077D01*
X198596257Y-148859231D01*
X198491672Y-148873000D01*
X101508328Y-148873000D01*
X101403743Y-148859231D01*
X101314045Y-148822077D01*
X101237024Y-148762976D01*
X101177923Y-148685955D01*
X101140769Y-148596257D01*
X101127000Y-148491672D01*
X101127000Y-55508328D01*
X101140769Y-55403743D01*
X101177923Y-55314045D01*
X101237024Y-55237024D01*
X101314045Y-55177923D01*
X101403743Y-55140769D01*
X101508328Y-55127000D01*
X102952349Y-55127000D01*
X102957649Y-55129833D01*
X102957649Y-55129833D01*
G37*
X102957649Y-55129833D02*
X102981474Y-55137060D01*
X103006250Y-55139500D01*
X193491672Y-55139500D01*
X193596257Y-55153269D01*
X193685955Y-55190423D01*
X193762976Y-55249524D01*
X193822077Y-55326545D01*
X193859231Y-55416243D01*
X193873000Y-55520828D01*
X193873000Y-56504172D01*
X193859231Y-56608757D01*
X193822077Y-56698455D01*
X193762976Y-56775476D01*
X193685955Y-56834577D01*
X193596257Y-56871731D01*
X193491672Y-56885500D01*
X103500000Y-56885500D01*
X103483423Y-56886586D01*
X103354013Y-56903623D01*
X103321989Y-56912204D01*
X103201399Y-56962154D01*
X103172687Y-56978732D01*
X103069134Y-57058192D01*
X103045692Y-57081634D01*
X102966232Y-57185187D01*
X102949654Y-57213899D01*
X102899704Y-57334489D01*
X102891123Y-57366513D01*
X102874086Y-57495923D01*
X102873000Y-57512500D01*
X102873000Y-62875000D01*
X102874086Y-62891577D01*
X102891123Y-63020987D01*
X102899704Y-63053011D01*
X102949654Y-63173601D01*
X102966232Y-63202313D01*
X103045692Y-63305866D01*
X103069134Y-63329308D01*
X103172687Y-63408768D01*
X103201399Y-63425346D01*
X103321989Y-63475296D01*
X103354013Y-63483877D01*
X103483423Y-63500914D01*
X103500000Y-63502000D01*
X193491672Y-63502000D01*
X193596257Y-63515769D01*
X193685955Y-63552923D01*
X193762976Y-63612024D01*
X193822077Y-63689045D01*
X193859231Y-63778743D01*
X193873000Y-63883328D01*
X193873000Y-64866672D01*
X193859231Y-64971257D01*
X193822077Y-65060955D01*
X193762976Y-65137976D01*
X193685955Y-65197077D01*
X193596257Y-65234231D01*
X193491672Y-65248000D01*
X103500000Y-65248000D01*
X103483423Y-65249086D01*
X103354013Y-65266123D01*
X103321989Y-65274704D01*
X103201399Y-65324654D01*
X103172687Y-65341232D01*
X103069134Y-65420692D01*
X103045692Y-65444134D01*
X102966232Y-65547687D01*
X102949654Y-65576399D01*
X102899704Y-65696989D01*
X102891123Y-65729013D01*
X102874086Y-65858423D01*
X102873000Y-65875000D01*
X102873000Y-71237500D01*
X102874086Y-71254077D01*
X102891123Y-71383487D01*
X102899704Y-71415511D01*
X102949654Y-71536101D01*
X102966232Y-71564813D01*
X103045692Y-71668366D01*
X103069134Y-71691808D01*
X103172687Y-71771268D01*
X103201399Y-71787846D01*
X103321989Y-71837796D01*
X103354013Y-71846377D01*
X103483423Y-71863414D01*
X103500000Y-71864500D01*
X193491672Y-71864500D01*
X193596257Y-71878269D01*
X193685955Y-71915423D01*
X193762976Y-71974524D01*
X193822077Y-72051545D01*
X193859231Y-72141243D01*
X193873000Y-72245828D01*
X193873000Y-73229172D01*
X193859231Y-73333757D01*
X193822077Y-73423455D01*
X193762976Y-73500476D01*
X193685955Y-73559577D01*
X193596257Y-73596731D01*
X193491672Y-73610500D01*
X103500000Y-73610500D01*
X103483423Y-73611586D01*
X103354013Y-73628623D01*
X103321989Y-73637204D01*
X103201399Y-73687154D01*
X103172687Y-73703732D01*
X103069134Y-73783192D01*
X103045692Y-73806634D01*
X102966232Y-73910187D01*
X102949654Y-73938899D01*
X102899704Y-74059489D01*
X102891123Y-74091513D01*
X102874086Y-74220923D01*
X102873000Y-74237500D01*
X102873000Y-79600000D01*
X102874086Y-79616577D01*
X102891123Y-79745987D01*
X102899704Y-79778011D01*
X102949654Y-79898601D01*
X102966232Y-79927313D01*
X103045692Y-80030866D01*
X103069134Y-80054308D01*
X103172687Y-80133768D01*
X103201399Y-80150346D01*
X103321989Y-80200296D01*
X103354013Y-80208877D01*
X103483423Y-80225914D01*
X103500000Y-80227000D01*
X193491672Y-80227000D01*
X193596257Y-80240769D01*
X193685955Y-80277923D01*
X193762976Y-80337024D01*
X193822077Y-80414045D01*
X193859231Y-80503743D01*
X193873000Y-80608328D01*
X193873000Y-81591672D01*
X193859231Y-81696257D01*
X193822077Y-81785955D01*
X193762976Y-81862976D01*
X193685955Y-81922077D01*
X193596257Y-81959231D01*
X193491672Y-81973000D01*
X103500000Y-81973000D01*
X103483423Y-81974086D01*
X103354013Y-81991123D01*
X103321989Y-81999704D01*
X103201399Y-82049654D01*
X103172687Y-82066232D01*
X103069134Y-82145692D01*
X103045692Y-82169134D01*
X102966232Y-82272687D01*
X102949654Y-82301399D01*
X102899704Y-82421989D01*
X102891123Y-82454013D01*
X102874086Y-82583423D01*
X102873000Y-82600000D01*
X102873000Y-87962500D01*
X102874086Y-87979077D01*
X102891123Y-88108487D01*
X102899704Y-88140511D01*
X102949654Y-88261101D01*
X102966232Y-88289813D01*
X103045692Y-88393366D01*
X103069134Y-88416808D01*
X103172687Y-88496268D01*
X103201399Y-88512846D01*
X103321989Y-88562796D01*
X103354013Y-88571377D01*
X103483423Y-88588414D01*
X103500000Y-88589500D01*
X193491672Y-88589500D01*
X193596257Y-88603269D01*
X193685955Y-88640423D01*
X193762976Y-88699524D01*
X193822077Y-88776545D01*
X193859231Y-88866243D01*
X193873000Y-88970828D01*
X193873000Y-89954172D01*
X193859231Y-90058757D01*
X193822077Y-90148455D01*
X193762976Y-90225476D01*
X193685955Y-90284577D01*
X193596257Y-90321731D01*
X193491672Y-90335500D01*
X103500000Y-90335500D01*
X103483423Y-90336586D01*
X103354013Y-90353623D01*
X103321989Y-90362204D01*
X103201399Y-90412154D01*
X103172687Y-90428732D01*
X103069134Y-90508192D01*
X103045692Y-90531634D01*
X102966232Y-90635187D01*
X102949654Y-90663899D01*
X102899704Y-90784489D01*
X102891123Y-90816513D01*
X102874086Y-90945923D01*
X102873000Y-90962500D01*
X102873000Y-96325000D01*
X102874086Y-96341577D01*
X102891123Y-96470987D01*
X102899704Y-96503011D01*
X102949654Y-96623601D01*
X102966232Y-96652313D01*
X103045692Y-96755866D01*
X103069134Y-96779308D01*
X103172687Y-96858768D01*
X103201399Y-96875346D01*
X103321989Y-96925296D01*
X103354013Y-96933877D01*
X103483423Y-96950914D01*
X103500000Y-96952000D01*
X193491672Y-96952000D01*
X193596257Y-96965769D01*
X193685955Y-97002923D01*
X193762976Y-97062024D01*
X193822077Y-97139045D01*
X193859231Y-97228743D01*
X193873000Y-97333328D01*
X193873000Y-98316672D01*
X193859231Y-98421257D01*
X193822077Y-98510955D01*
X193762976Y-98587976D01*
X193685955Y-98647077D01*
X193596257Y-98684231D01*
X193491672Y-98698000D01*
X103500000Y-98698000D01*
X103483423Y-98699086D01*
X103354013Y-98716123D01*
X103321989Y-98724704D01*
X103201399Y-98774654D01*
X103172687Y-98791232D01*
X103069134Y-98870692D01*
X103045692Y-98894134D01*
X102966232Y-98997687D01*
X102949654Y-99026399D01*
X102899704Y-99146989D01*
X102891123Y-99179013D01*
X102874086Y-99308423D01*
X102873000Y-99325000D01*
X102873000Y-104687500D01*
X102874086Y-104704077D01*
X102891123Y-104833487D01*
X102899704Y-104865511D01*
X102949654Y-104986101D01*
X102966232Y-105014813D01*
X103045692Y-105118366D01*
X103069134Y-105141808D01*
X103172687Y-105221268D01*
X103201399Y-105237846D01*
X103321989Y-105287796D01*
X103354013Y-105296377D01*
X103483423Y-105313414D01*
X103500000Y-105314500D01*
X193491672Y-105314500D01*
X193596257Y-105328269D01*
X193685955Y-105365423D01*
X193762976Y-105424524D01*
X193822077Y-105501545D01*
X193859231Y-105591243D01*
X193873000Y-105695828D01*
X193873000Y-106679172D01*
X193859231Y-106783757D01*
X193822077Y-106873455D01*
X193762976Y-106950476D01*
X193685955Y-107009577D01*
X193596257Y-107046731D01*
X193491672Y-107060500D01*
X103500000Y-107060500D01*
X103483423Y-107061586D01*
X103354013Y-107078623D01*
X103321989Y-107087204D01*
X103201399Y-107137154D01*
X103172687Y-107153732D01*
X103069134Y-107233192D01*
X103045692Y-107256634D01*
X102966232Y-107360187D01*
X102949654Y-107388899D01*
X102899704Y-107509489D01*
X102891123Y-107541513D01*
X102874086Y-107670923D01*
X102873000Y-107687500D01*
X102873000Y-113050000D01*
X102874086Y-113066577D01*
X102891123Y-113195987D01*
X102899704Y-113228011D01*
X102949654Y-113348601D01*
X102966232Y-113377313D01*
X103045692Y-113480866D01*
X103069134Y-113504308D01*
X103172687Y-113583768D01*
X103201399Y-113600346D01*
X103321989Y-113650296D01*
X103354013Y-113658877D01*
X103483423Y-113675914D01*
X103500000Y-113677000D01*
X193491672Y-113677000D01*
X193596257Y-113690769D01*
X193685955Y-113727923D01*
X193762976Y-113787024D01*
X193822077Y-113864045D01*
X193859231Y-113953743D01*
X193873000Y-114058328D01*
X193873000Y-115041672D01*
X193859231Y-115146257D01*
X193822077Y-115235955D01*
X193762976Y-115312976D01*
X193685955Y-115372077D01*
X193596257Y-115409231D01*
X193491672Y-115423000D01*
X103500000Y-115423000D01*
X103483423Y-115424086D01*
X103354013Y-115441123D01*
X103321989Y-115449704D01*
X103201399Y-115499654D01*
X103172687Y-115516232D01*
X103069134Y-115595692D01*
X103045692Y-115619134D01*
X102966232Y-115722687D01*
X102949654Y-115751399D01*
X102899704Y-115871989D01*
X102891123Y-115904013D01*
X102874086Y-116033423D01*
X102873000Y-116050000D01*
X102873000Y-121412500D01*
X102874086Y-121429077D01*
X102891123Y-121558487D01*
X102899704Y-121590511D01*
X102949654Y-121711101D01*
X102966232Y-121739813D01*
X103045692Y-121843366D01*
X103069134Y-121866808D01*
X103172687Y-121946268D01*
X103201399Y-121962846D01*
X103321989Y-122012796D01*
X103354013Y-122021377D01*
X103483423Y-122038414D01*
X103500000Y-122039500D01*
X193491672Y-122039500D01*
X193596257Y-122053269D01*
X193685955Y-122090423D01*
X193762976Y-122149524D01*
X193822077Y-122226545D01*
X193859231Y-122316243D01*
X193873000Y-122420828D01*
X193873000Y-123404172D01*
X193859231Y-123508757D01*
X193822077Y-123598455D01*
X193762976Y-123675476D01*
X193685955Y-123734577D01*
X193596257Y-123771731D01*
X193491672Y-123785500D01*
X103500000Y-123785500D01*
X103483423Y-123786586D01*
X103354013Y-123803623D01*
X103321989Y-123812204D01*
X103201399Y-123862154D01*
X103172687Y-123878732D01*
X103069134Y-123958192D01*
X103045692Y-123981634D01*
X102966232Y-124085187D01*
X102949654Y-124113899D01*
X102899704Y-124234489D01*
X102891123Y-124266513D01*
X102874086Y-124395923D01*
X102873000Y-124412500D01*
X102873000Y-129775000D01*
X102874086Y-129791577D01*
X102891123Y-129920987D01*
X102899704Y-129953011D01*
X102949654Y-130073601D01*
X102966232Y-130102313D01*
X103045692Y-130205866D01*
X103069134Y-130229308D01*
X103172687Y-130308768D01*
X103201399Y-130325346D01*
X103321989Y-130375296D01*
X103354013Y-130383877D01*
X103483423Y-130400914D01*
X103500000Y-130402000D01*
X193491672Y-130402000D01*
X193596257Y-130415769D01*
X193685955Y-130452923D01*
X193762976Y-130512024D01*
X193822077Y-130589045D01*
X193859231Y-130678743D01*
X193873000Y-130783328D01*
X193873000Y-131766672D01*
X193859231Y-131871257D01*
X193822077Y-131960955D01*
X193762976Y-132037976D01*
X193685955Y-132097077D01*
X193596257Y-132134231D01*
X193491672Y-132148000D01*
X103500000Y-132148000D01*
X103483423Y-132149086D01*
X103354013Y-132166123D01*
X103321989Y-132174704D01*
X103201399Y-132224654D01*
X103172687Y-132241232D01*
X103069134Y-132320692D01*
X103045692Y-132344134D01*
X102966232Y-132447687D01*
X102949654Y-132476399D01*
X102899704Y-132596989D01*
X102891123Y-132629013D01*
X102874086Y-132758423D01*
X102873000Y-132775000D01*
X102873000Y-138137500D01*
X102874086Y-138154077D01*
X102891123Y-138283487D01*
X102899704Y-138315511D01*
X102949654Y-138436101D01*
X102966232Y-138464813D01*
X103045692Y-138568366D01*
X103069134Y-138591808D01*
X103172687Y-138671268D01*
X103201399Y-138687846D01*
X103321989Y-138737796D01*
X103354013Y-138746377D01*
X103483423Y-138763414D01*
X103500000Y-138764500D01*
X193491672Y-138764500D01*
X193596257Y-138778269D01*
X193685955Y-138815423D01*
X193762976Y-138874524D01*
X193822077Y-138951545D01*
X193859231Y-139041243D01*
X193873000Y-139145828D01*
X193873000Y-140129172D01*
X193859231Y-140233757D01*
X193822077Y-140323455D01*
X193762976Y-140400476D01*
X193685955Y-140459577D01*
X193596257Y-140496731D01*
X193491672Y-140510500D01*
X103500000Y-140510500D01*
X103483423Y-140511586D01*
X103354013Y-140528623D01*
X103321989Y-140537204D01*
X103201399Y-140587154D01*
X103172687Y-140603732D01*
X103069134Y-140683192D01*
X103045692Y-140706634D01*
X102966232Y-140810187D01*
X102949654Y-140838899D01*
X102899704Y-140959489D01*
X102891123Y-140991513D01*
X102874086Y-141120923D01*
X102873000Y-141137500D01*
X102873000Y-146500000D01*
X102874086Y-146516577D01*
X102891123Y-146645987D01*
X102899704Y-146678011D01*
X102949654Y-146798601D01*
X102966232Y-146827313D01*
X103045692Y-146930866D01*
X103069134Y-146954308D01*
X103172687Y-147033768D01*
X103201399Y-147050346D01*
X103321989Y-147100296D01*
X103354013Y-147108877D01*
X103483423Y-147125914D01*
X103500000Y-147127000D01*
X198491672Y-147127000D01*
X198596257Y-147140769D01*
X198685955Y-147177923D01*
X198762976Y-147237024D01*
X198822077Y-147314045D01*
X198859231Y-147403743D01*
X198873000Y-147508328D01*
X198873000Y-148491672D01*
X198859231Y-148596257D01*
X198822077Y-148685955D01*
X198762976Y-148762976D01*
X198685955Y-148822077D01*
X198596257Y-148859231D01*
X198491672Y-148873000D01*
X101508328Y-148873000D01*
X101403743Y-148859231D01*
X101314045Y-148822077D01*
X101237024Y-148762976D01*
X101177923Y-148685955D01*
X101140769Y-148596257D01*
X101127000Y-148491672D01*
X101127000Y-55508328D01*
X101140769Y-55403743D01*
X101177923Y-55314045D01*
X101237024Y-55237024D01*
X101314045Y-55177923D01*
X101403743Y-55140769D01*
X101508328Y-55127000D01*
X102952349Y-55127000D01*
X102957649Y-55129833D01*
G04 #@! TD*
M02*
