G04 #@! TF.GenerationSoftware,KiCad,Pcbnew,6.0.0-d3dd2cf0fa~116~ubuntu20.04.1*
G04 #@! TF.CreationDate,2022-01-09T22:45:00+01:00*
G04 #@! TF.ProjectId,Statikplatte,53746174-696b-4706-9c61-7474652e6b69,rev?*
G04 #@! TF.SameCoordinates,Original*
G04 #@! TF.FileFunction,Copper,L2,Bot*
G04 #@! TF.FilePolarity,Positive*
%FSLAX46Y46*%
G04 Gerber Fmt 4.6, Leading zero omitted, Abs format (unit mm)*
G04 Created by KiCad (PCBNEW 6.0.0-d3dd2cf0fa~116~ubuntu20.04.1) date 2022-01-09 22:45:00*
%MOMM*%
%LPD*%
G01*
G04 APERTURE LIST*
G04 Aperture macros list*
%AMRoundRect*
0 Rectangle with rounded corners*
0 $1 Rounding radius*
0 $2 $3 $4 $5 $6 $7 $8 $9 X,Y pos of 4 corners*
0 Add a 4 corners polygon primitive as box body*
4,1,4,$2,$3,$4,$5,$6,$7,$8,$9,$2,$3,0*
0 Add four circle primitives for the rounded corners*
1,1,$1+$1,$2,$3*
1,1,$1+$1,$4,$5*
1,1,$1+$1,$6,$7*
1,1,$1+$1,$8,$9*
0 Add four rect primitives between the rounded corners*
20,1,$1+$1,$2,$3,$4,$5,0*
20,1,$1+$1,$4,$5,$6,$7,0*
20,1,$1+$1,$6,$7,$8,$9,0*
20,1,$1+$1,$8,$9,$2,$3,0*%
G04 Aperture macros list end*
G04 #@! TA.AperFunction,SMDPad,CuDef*
%ADD10RoundRect,0.250000X0.312500X1.450000X-0.312500X1.450000X-0.312500X-1.450000X0.312500X-1.450000X0*%
G04 #@! TD*
G04 #@! TA.AperFunction,SMDPad,CuDef*
%ADD11R,2.500000X2.500000*%
G04 #@! TD*
G04 #@! TA.AperFunction,SMDPad,CuDef*
%ADD12R,1.700000X2.500000*%
G04 #@! TD*
G04 #@! TA.AperFunction,SMDPad,CuDef*
%ADD13RoundRect,0.250000X0.425000X1.425000X-0.425000X1.425000X-0.425000X-1.425000X0.425000X-1.425000X0*%
G04 #@! TD*
G04 #@! TA.AperFunction,ViaPad*
%ADD14C,0.800000*%
G04 #@! TD*
G04 #@! TA.AperFunction,Conductor*
%ADD15C,0.800000*%
G04 #@! TD*
G04 APERTURE END LIST*
D10*
X123862500Y-106000000D03*
X128137500Y-106000000D03*
X129862500Y-94000000D03*
X134137500Y-94000000D03*
X135862500Y-106000000D03*
X140137500Y-106000000D03*
X141862500Y-94000000D03*
X146137500Y-94000000D03*
X147725000Y-106000000D03*
X152000000Y-106000000D03*
X153862500Y-94000000D03*
X158137500Y-94000000D03*
X159862500Y-106000000D03*
X164137500Y-106000000D03*
X165862500Y-94000000D03*
X170137500Y-94000000D03*
X171725000Y-106000000D03*
X176000000Y-106000000D03*
D11*
X114000000Y-94000000D03*
X135000000Y-148750000D03*
X114000000Y-102000000D03*
X198750000Y-85000000D03*
X135000000Y-51250000D03*
X165000000Y-148750000D03*
X165000000Y-51250000D03*
X198750000Y-115000000D03*
X101250000Y-115000000D03*
X101250000Y-85000000D03*
D12*
X177000000Y-98000000D03*
X177000000Y-102000000D03*
X129000000Y-97999999D03*
X129000000Y-101999999D03*
X135000000Y-102000000D03*
X135000000Y-98000000D03*
X141000000Y-98000000D03*
X141000000Y-102000000D03*
X147000000Y-102000000D03*
X147000000Y-98000000D03*
X153000000Y-97999999D03*
X153000000Y-101999999D03*
X159000000Y-102000001D03*
X159000000Y-98000001D03*
X165000000Y-98000000D03*
X165000000Y-102000000D03*
X171000000Y-102000000D03*
X171000000Y-98000000D03*
D10*
X117862500Y-94000000D03*
X122137500Y-94000000D03*
D13*
X180100000Y-106000000D03*
X185900000Y-106000000D03*
D12*
X123000000Y-102000000D03*
X123000000Y-98000000D03*
D14*
X102000000Y-102000000D03*
X102000000Y-148000000D03*
X198000000Y-106000000D03*
X198000000Y-52000000D03*
D15*
X114000000Y-94000000D02*
X117862500Y-94000000D01*
X164137500Y-102862500D02*
X165000000Y-102000000D01*
X164137500Y-106000000D02*
X164137500Y-102862500D01*
X171725000Y-102725000D02*
X171000000Y-102000000D01*
X171725000Y-106000000D02*
X171725000Y-102725000D01*
X171000000Y-102000000D02*
X165000000Y-102000000D01*
X170137500Y-97137500D02*
X171000000Y-98000000D01*
X170137500Y-94000000D02*
X170137500Y-97137500D01*
X171000000Y-98000000D02*
X177000000Y-98000000D01*
X158137500Y-97137501D02*
X159000000Y-98000001D01*
X158137500Y-94000000D02*
X158137500Y-97137501D01*
X165862500Y-97137500D02*
X165000000Y-98000000D01*
X165862500Y-94000000D02*
X165862500Y-97137500D01*
X164999999Y-98000001D02*
X165000000Y-98000000D01*
X159000000Y-98000001D02*
X164999999Y-98000001D01*
X152000000Y-102999999D02*
X153000000Y-101999999D01*
X152000000Y-106000000D02*
X152000000Y-102999999D01*
X159862500Y-102862501D02*
X159000000Y-102000001D01*
X159862500Y-106000000D02*
X159862500Y-102862501D01*
X153000002Y-102000001D02*
X153000000Y-101999999D01*
X159000000Y-102000001D02*
X153000002Y-102000001D01*
X146137500Y-97137500D02*
X147000000Y-98000000D01*
X146137500Y-94000000D02*
X146137500Y-97137500D01*
X153862500Y-97137499D02*
X153000000Y-97999999D01*
X153862500Y-94000000D02*
X153862500Y-97137499D01*
X147000001Y-97999999D02*
X147000000Y-98000000D01*
X153000000Y-97999999D02*
X147000001Y-97999999D01*
X140137500Y-102862500D02*
X141000000Y-102000000D01*
X140137500Y-106000000D02*
X140137500Y-102862500D01*
X147725000Y-102725000D02*
X147000000Y-102000000D01*
X147725000Y-106000000D02*
X147725000Y-102725000D01*
X147000000Y-102000000D02*
X141000000Y-102000000D01*
X134137500Y-97137500D02*
X135000000Y-98000000D01*
X134137500Y-94000000D02*
X134137500Y-97137500D01*
X141862500Y-97137500D02*
X141000000Y-98000000D01*
X141862500Y-94000000D02*
X141862500Y-97137500D01*
X135000000Y-98000000D02*
X141000000Y-98000000D01*
X128137500Y-102862499D02*
X129000000Y-101999999D01*
X128137500Y-106000000D02*
X128137500Y-102862499D01*
X134999999Y-101999999D02*
X135000000Y-102000000D01*
X129000000Y-101999999D02*
X134999999Y-101999999D01*
X135862500Y-102862500D02*
X135000000Y-102000000D01*
X135862500Y-106000000D02*
X135862500Y-102862500D01*
X122137500Y-97137500D02*
X123000000Y-98000000D01*
X122137500Y-94000000D02*
X122137500Y-97137500D01*
X129862500Y-97137499D02*
X129000000Y-97999999D01*
X129862500Y-94000000D02*
X129862500Y-97137499D01*
X123000001Y-97999999D02*
X123000000Y-98000000D01*
X129000000Y-97999999D02*
X123000001Y-97999999D01*
X114000000Y-102000000D02*
X123000000Y-102000000D01*
X123862500Y-102862500D02*
X123000000Y-102000000D01*
X123862500Y-106000000D02*
X123862500Y-102862500D01*
X114000000Y-102000000D02*
X111950000Y-102000000D01*
X111950000Y-102000000D02*
X102000000Y-102000000D01*
X101250000Y-85000000D02*
X101250000Y-85250000D01*
X102000000Y-86000000D02*
X102000000Y-102000000D01*
X101250000Y-85250000D02*
X102000000Y-86000000D01*
X135000000Y-51250000D02*
X135000000Y-79000000D01*
X135000000Y-79000000D02*
X129000000Y-85000000D01*
X101250000Y-85000000D02*
X129000000Y-85000000D01*
X129000000Y-85000000D02*
X198750000Y-85000000D01*
X135000000Y-148750000D02*
X134750000Y-148750000D01*
X134750000Y-148750000D02*
X134000000Y-148000000D01*
X134000000Y-148000000D02*
X102000000Y-148000000D01*
X176000000Y-103000000D02*
X177000000Y-102000000D01*
X176000000Y-106000000D02*
X176000000Y-103000000D01*
X180100000Y-106000000D02*
X176000000Y-106000000D01*
X185900000Y-106000000D02*
X198000000Y-106000000D01*
X198750000Y-113750000D02*
X198000000Y-113000000D01*
X198750000Y-115000000D02*
X198750000Y-113750000D01*
X198000000Y-113000000D02*
X198000000Y-106000000D01*
X165000000Y-122000000D02*
X172000000Y-115000000D01*
X165000000Y-148750000D02*
X165000000Y-122000000D01*
X101250000Y-115000000D02*
X172000000Y-115000000D01*
X172000000Y-115000000D02*
X198750000Y-115000000D01*
X166000000Y-52000000D02*
X198000000Y-52000000D01*
X165000000Y-51250000D02*
X165250000Y-51250000D01*
X165250000Y-51250000D02*
X166000000Y-52000000D01*
M02*
