G04 #@! TF.GenerationSoftware,KiCad,Pcbnew,6.0.0-d3dd2cf0fa~116~ubuntu20.04.1*
G04 #@! TF.CreationDate,2022-01-09T22:40:42+01:00*
G04 #@! TF.ProjectId,Statikplatte,53746174-696b-4706-9c61-7474652e6b69,rev?*
G04 #@! TF.SameCoordinates,Original*
G04 #@! TF.FileFunction,Copper,L2,Bot*
G04 #@! TF.FilePolarity,Positive*
%FSLAX46Y46*%
G04 Gerber Fmt 4.6, Leading zero omitted, Abs format (unit mm)*
G04 Created by KiCad (PCBNEW 6.0.0-d3dd2cf0fa~116~ubuntu20.04.1) date 2022-01-09 22:40:42*
%MOMM*%
%LPD*%
G01*
G04 APERTURE LIST*
G04 Aperture macros list*
%AMRoundRect*
0 Rectangle with rounded corners*
0 $1 Rounding radius*
0 $2 $3 $4 $5 $6 $7 $8 $9 X,Y pos of 4 corners*
0 Add a 4 corners polygon primitive as box body*
4,1,4,$2,$3,$4,$5,$6,$7,$8,$9,$2,$3,0*
0 Add four circle primitives for the rounded corners*
1,1,$1+$1,$2,$3*
1,1,$1+$1,$4,$5*
1,1,$1+$1,$6,$7*
1,1,$1+$1,$8,$9*
0 Add four rect primitives between the rounded corners*
20,1,$1+$1,$2,$3,$4,$5,0*
20,1,$1+$1,$4,$5,$6,$7,0*
20,1,$1+$1,$6,$7,$8,$9,0*
20,1,$1+$1,$8,$9,$2,$3,0*%
G04 Aperture macros list end*
G04 #@! TA.AperFunction,Profile*
%ADD10C,0.150000*%
G04 #@! TD*
G04 #@! TA.AperFunction,SMDPad,CuDef*
%ADD11RoundRect,0.650000X0.750000X-0.650000X0.750000X0.650000X-0.750000X0.650000X-0.750000X-0.650000X0*%
G04 #@! TD*
G04 #@! TA.AperFunction,SMDPad,CuDef*
%ADD12RoundRect,0.650000X-0.650000X-0.750000X0.650000X-0.750000X0.650000X0.750000X-0.650000X0.750000X0*%
G04 #@! TD*
G04 #@! TA.AperFunction,SMDPad,CuDef*
%ADD13RoundRect,0.650000X-0.750000X0.650000X-0.750000X-0.650000X0.750000X-0.650000X0.750000X0.650000X0*%
G04 #@! TD*
G04 #@! TA.AperFunction,SMDPad,CuDef*
%ADD14RoundRect,0.650000X0.650000X0.750000X-0.650000X0.750000X-0.650000X-0.750000X0.650000X-0.750000X0*%
G04 #@! TD*
G04 #@! TA.AperFunction,SMDPad,CuDef*
%ADD15C,6.500000*%
G04 #@! TD*
G04 #@! TA.AperFunction,ComponentPad*
%ADD16O,0.900000X0.900000*%
G04 #@! TD*
G04 #@! TA.AperFunction,SMDPad,CuDef*
%ADD17RoundRect,0.250000X0.312500X1.450000X-0.312500X1.450000X-0.312500X-1.450000X0.312500X-1.450000X0*%
G04 #@! TD*
G04 #@! TA.AperFunction,SMDPad,CuDef*
%ADD18RoundRect,0.425000X0.425000X-0.825000X0.425000X0.825000X-0.425000X0.825000X-0.425000X-0.825000X0*%
G04 #@! TD*
G04 #@! TA.AperFunction,SMDPad,CuDef*
%ADD19RoundRect,0.425000X-0.425000X0.825000X-0.425000X-0.825000X0.425000X-0.825000X0.425000X0.825000X0*%
G04 #@! TD*
G04 #@! TA.AperFunction,SMDPad,CuDef*
%ADD20RoundRect,0.250000X0.425000X1.425000X-0.425000X1.425000X-0.425000X-1.425000X0.425000X-1.425000X0*%
G04 #@! TD*
G04 #@! TA.AperFunction,SMDPad,CuDef*
%ADD21R,3.500000X2.000000*%
G04 #@! TD*
G04 #@! TA.AperFunction,SMDPad,CuDef*
%ADD22R,6.000000X2.000000*%
G04 #@! TD*
G04 #@! TA.AperFunction,SMDPad,CuDef*
%ADD23RoundRect,0.250000X1.425000X-0.425000X1.425000X0.425000X-1.425000X0.425000X-1.425000X-0.425000X0*%
G04 #@! TD*
G04 #@! TA.AperFunction,ViaPad*
%ADD24C,0.600000*%
G04 #@! TD*
G04 #@! TA.AperFunction,Conductor*
%ADD25C,0.800000*%
G04 #@! TD*
G04 #@! TA.AperFunction,Conductor*
%ADD26C,0.400000*%
G04 #@! TD*
G04 APERTURE END LIST*
D10*
X15000000Y-15000000D02*
X225000000Y-15000000D01*
X225000000Y-15000000D02*
X225000000Y-163000000D01*
X15000000Y-163000000D02*
X225000000Y-163000000D01*
X15000000Y-15000000D02*
X15000000Y-163000000D01*
D11*
X105000000Y-157650000D03*
D12*
X20350000Y-74000000D03*
D13*
X105000000Y-20350000D03*
D14*
X219650000Y-74000000D03*
D11*
X135000000Y-157650000D03*
D14*
X219650000Y-104000000D03*
D12*
X20350000Y-104000000D03*
D15*
X45625000Y-39000000D03*
D16*
X45625000Y-39000000D03*
D15*
X196125000Y-139000000D03*
D16*
X196125000Y-139000000D03*
D15*
X196125000Y-39000000D03*
D16*
X196125000Y-39000000D03*
D15*
X45625000Y-139000000D03*
D16*
X45625000Y-139000000D03*
D17*
X101362500Y-95000000D03*
X105637500Y-95000000D03*
X107362500Y-83000000D03*
X111637500Y-83000000D03*
X113362500Y-95000000D03*
X117637500Y-95000000D03*
X119362500Y-83000000D03*
X123637500Y-83000000D03*
X125225000Y-95000000D03*
X129500000Y-95000000D03*
X131362500Y-83000000D03*
X135637500Y-83000000D03*
X137362500Y-95000000D03*
X141637500Y-95000000D03*
X143362500Y-83000000D03*
X147637500Y-83000000D03*
X149225000Y-95000000D03*
X153500000Y-95000000D03*
D18*
X154500000Y-87000000D03*
X154500000Y-91000000D03*
X106500000Y-86999999D03*
X106500000Y-90999999D03*
D19*
X112500000Y-91000000D03*
X112500000Y-87000000D03*
D18*
X118500000Y-87000000D03*
X118500000Y-91000000D03*
D19*
X124500000Y-91000000D03*
X124500000Y-87000000D03*
D18*
X130500000Y-86999999D03*
X130500000Y-90999999D03*
D19*
X136500000Y-91000001D03*
X136500000Y-87000001D03*
D18*
X142500000Y-87000000D03*
X142500000Y-91000000D03*
D19*
X148500000Y-91000000D03*
X148500000Y-87000000D03*
D17*
X95362500Y-83000000D03*
X99637500Y-83000000D03*
D20*
X160700000Y-95000000D03*
X166500000Y-95000000D03*
D19*
X100500000Y-91000000D03*
X100500000Y-87000000D03*
D21*
X84125000Y-87000000D03*
X84125000Y-91000000D03*
D22*
X74875000Y-87000000D03*
X74875000Y-91000000D03*
D23*
X92500000Y-91100000D03*
X92500000Y-96900000D03*
D13*
X135000000Y-20350000D03*
D24*
X134880000Y-162100000D03*
X134890000Y-21060000D03*
X105110000Y-15910000D03*
X105120000Y-156250000D03*
D25*
X141637500Y-91862500D02*
X142500000Y-91000000D01*
X141637500Y-95000000D02*
X141637500Y-91862500D01*
X149225000Y-91725000D02*
X148500000Y-91000000D01*
X149225000Y-95000000D02*
X149225000Y-91725000D01*
X148500000Y-91000000D02*
X142500000Y-91000000D01*
X147637500Y-86137500D02*
X148500000Y-87000000D01*
X147637500Y-83000000D02*
X147637500Y-86137500D01*
X148500000Y-87000000D02*
X154500000Y-87000000D01*
X135637500Y-86137501D02*
X136500000Y-87000001D01*
X135637500Y-83000000D02*
X135637500Y-86137501D01*
X143362500Y-86137500D02*
X142500000Y-87000000D01*
X143362500Y-83000000D02*
X143362500Y-86137500D01*
X142499999Y-87000001D02*
X142500000Y-87000000D01*
X136500000Y-87000001D02*
X142499999Y-87000001D01*
X129500000Y-91999999D02*
X130500000Y-90999999D01*
X129500000Y-95000000D02*
X129500000Y-91999999D01*
X137362500Y-91862501D02*
X136500000Y-91000001D01*
X137362500Y-95000000D02*
X137362500Y-91862501D01*
X130500002Y-91000001D02*
X130500000Y-90999999D01*
X136500000Y-91000001D02*
X130500002Y-91000001D01*
X123637500Y-86137500D02*
X124500000Y-87000000D01*
X123637500Y-83000000D02*
X123637500Y-86137500D01*
X131362500Y-86137499D02*
X130500000Y-86999999D01*
X131362500Y-83000000D02*
X131362500Y-86137499D01*
X124500001Y-86999999D02*
X124500000Y-87000000D01*
X130500000Y-86999999D02*
X124500001Y-86999999D01*
X117637500Y-91862500D02*
X118500000Y-91000000D01*
X117637500Y-95000000D02*
X117637500Y-91862500D01*
X125225000Y-91725000D02*
X124500000Y-91000000D01*
X125225000Y-95000000D02*
X125225000Y-91725000D01*
X124500000Y-91000000D02*
X118500000Y-91000000D01*
X111637500Y-86137500D02*
X112500000Y-87000000D01*
X111637500Y-83000000D02*
X111637500Y-86137500D01*
X119362500Y-86137500D02*
X118500000Y-87000000D01*
X119362500Y-83000000D02*
X119362500Y-86137500D01*
X112500000Y-87000000D02*
X118500000Y-87000000D01*
X105637500Y-91862499D02*
X106500000Y-90999999D01*
X105637500Y-95000000D02*
X105637500Y-91862499D01*
X112499999Y-90999999D02*
X112500000Y-91000000D01*
X106500000Y-90999999D02*
X112499999Y-90999999D01*
X113362500Y-91862500D02*
X112500000Y-91000000D01*
X113362500Y-95000000D02*
X113362500Y-91862500D01*
X99637500Y-86137500D02*
X100500000Y-87000000D01*
X99637500Y-83000000D02*
X99637500Y-86137500D01*
X107362500Y-86137499D02*
X106500000Y-86999999D01*
X107362500Y-83000000D02*
X107362500Y-86137499D01*
X100500001Y-86999999D02*
X100500000Y-87000000D01*
X106500000Y-86999999D02*
X100500001Y-86999999D01*
X101362500Y-91862500D02*
X100500000Y-91000000D01*
X101362500Y-95000000D02*
X101362500Y-91862500D01*
X74875000Y-91000000D02*
X100500000Y-91000000D01*
X153500000Y-92000000D02*
X154500000Y-91000000D01*
X153500000Y-95000000D02*
X153500000Y-92000000D01*
X157600000Y-95000000D02*
X153500000Y-95000000D01*
X160700000Y-95000000D02*
X157500000Y-95000000D01*
X135000000Y-157000000D02*
X201000000Y-157000000D01*
X201000000Y-157000000D02*
X208000000Y-150000000D01*
X219000000Y-104000000D02*
X219000000Y-139000000D01*
X219000000Y-139000000D02*
X208000000Y-150000000D01*
X36000000Y-104000000D02*
X21000000Y-104000000D01*
X117000000Y-121000000D02*
X53000000Y-121000000D01*
X53000000Y-121000000D02*
X36000000Y-104000000D01*
X135000000Y-157000000D02*
X135000000Y-139000000D01*
X135000000Y-139000000D02*
X117000000Y-121000000D01*
X192000000Y-104000000D02*
X219000000Y-104000000D01*
X183200000Y-95200000D02*
X192000000Y-104000000D01*
X166500000Y-95000000D02*
X166700000Y-95200000D01*
X166700000Y-95200000D02*
X183200000Y-95200000D01*
D26*
X135000000Y-161980000D02*
X134880000Y-162100000D01*
X135000000Y-157650000D02*
X135000000Y-161980000D01*
D25*
X105000000Y-22000000D02*
X105000000Y-21000000D01*
X196125000Y-39000000D02*
X88000000Y-39000000D01*
X88000000Y-39000000D02*
X45625000Y-39000000D01*
X105000000Y-21000000D02*
X105000000Y-27100000D01*
X105000000Y-27100000D02*
X105000000Y-39000000D01*
X204000000Y-39000000D02*
X196125000Y-39000000D01*
X219000000Y-74000000D02*
X219000000Y-54000000D01*
X219000000Y-54000000D02*
X204000000Y-39000000D01*
X37000000Y-39000000D02*
X45625000Y-39000000D01*
X21000000Y-74000000D02*
X21000000Y-55000000D01*
X21000000Y-55000000D02*
X37000000Y-39000000D01*
X32000000Y-74000000D02*
X21000000Y-74000000D01*
X60200000Y-102200000D02*
X32000000Y-74000000D01*
X92500000Y-96900000D02*
X92500000Y-99500000D01*
X89800000Y-102200000D02*
X60200000Y-102200000D01*
X92500000Y-99500000D02*
X89800000Y-102200000D01*
D26*
X105120000Y-157530000D02*
X105000000Y-157650000D01*
X105120000Y-156250000D02*
X105120000Y-157530000D01*
X105110000Y-20240000D02*
X105000000Y-20350000D01*
X105110000Y-15910000D02*
X105110000Y-20240000D01*
D25*
X91500000Y-83000000D02*
X95362500Y-83000000D01*
X78675000Y-87000000D02*
X84125000Y-87000000D01*
X74875000Y-87000000D02*
X78675000Y-87000000D01*
X84875000Y-87000000D02*
X88875000Y-83000000D01*
X84125000Y-87000000D02*
X84875000Y-87000000D01*
X89500000Y-83000000D02*
X95362500Y-83000000D01*
X88875000Y-83000000D02*
X89500000Y-83000000D01*
X89500000Y-83000000D02*
X90500000Y-83000000D01*
M02*
