G04 #@! TF.GenerationSoftware,KiCad,Pcbnew,6.0.0-d3dd2cf0fa~116~ubuntu20.04.1*
G04 #@! TF.CreationDate,2022-01-09T22:40:42+01:00*
G04 #@! TF.ProjectId,Statikplatte,53746174-696b-4706-9c61-7474652e6b69,rev?*
G04 #@! TF.SameCoordinates,Original*
G04 #@! TF.FileFunction,Soldermask,Bot*
G04 #@! TF.FilePolarity,Negative*
%FSLAX46Y46*%
G04 Gerber Fmt 4.6, Leading zero omitted, Abs format (unit mm)*
G04 Created by KiCad (PCBNEW 6.0.0-d3dd2cf0fa~116~ubuntu20.04.1) date 2022-01-09 22:40:42*
%MOMM*%
%LPD*%
G01*
G04 APERTURE LIST*
G04 Aperture macros list*
%AMRoundRect*
0 Rectangle with rounded corners*
0 $1 Rounding radius*
0 $2 $3 $4 $5 $6 $7 $8 $9 X,Y pos of 4 corners*
0 Add a 4 corners polygon primitive as box body*
4,1,4,$2,$3,$4,$5,$6,$7,$8,$9,$2,$3,0*
0 Add four circle primitives for the rounded corners*
1,1,$1+$1,$2,$3*
1,1,$1+$1,$4,$5*
1,1,$1+$1,$6,$7*
1,1,$1+$1,$8,$9*
0 Add four rect primitives between the rounded corners*
20,1,$1+$1,$2,$3,$4,$5,0*
20,1,$1+$1,$4,$5,$6,$7,0*
20,1,$1+$1,$6,$7,$8,$9,0*
20,1,$1+$1,$8,$9,$2,$3,0*%
G04 Aperture macros list end*
G04 #@! TA.AperFunction,Profile*
%ADD10C,0.150000*%
G04 #@! TD*
%ADD11RoundRect,0.701000X0.750000X-0.650000X0.750000X0.650000X-0.750000X0.650000X-0.750000X-0.650000X0*%
%ADD12RoundRect,0.701000X-0.650000X-0.750000X0.650000X-0.750000X0.650000X0.750000X-0.650000X0.750000X0*%
%ADD13RoundRect,0.701000X-0.750000X0.650000X-0.750000X-0.650000X0.750000X-0.650000X0.750000X0.650000X0*%
%ADD14RoundRect,0.701000X0.650000X0.750000X-0.650000X0.750000X-0.650000X-0.750000X0.650000X-0.750000X0*%
%ADD15C,6.602000*%
%ADD16RoundRect,0.301000X0.312500X1.450000X-0.312500X1.450000X-0.312500X-1.450000X0.312500X-1.450000X0*%
%ADD17RoundRect,0.476000X0.425000X-0.825000X0.425000X0.825000X-0.425000X0.825000X-0.425000X-0.825000X0*%
%ADD18RoundRect,0.476000X-0.425000X0.825000X-0.425000X-0.825000X0.425000X-0.825000X0.425000X0.825000X0*%
%ADD19RoundRect,0.301000X0.425000X1.425000X-0.425000X1.425000X-0.425000X-1.425000X0.425000X-1.425000X0*%
%ADD20RoundRect,0.051000X-1.750000X-1.000000X1.750000X-1.000000X1.750000X1.000000X-1.750000X1.000000X0*%
%ADD21RoundRect,0.051000X-3.000000X-1.000000X3.000000X-1.000000X3.000000X1.000000X-3.000000X1.000000X0*%
%ADD22RoundRect,0.301000X1.425000X-0.425000X1.425000X0.425000X-1.425000X0.425000X-1.425000X-0.425000X0*%
G04 APERTURE END LIST*
D10*
X15000000Y-15000000D02*
X225000000Y-15000000D01*
X225000000Y-15000000D02*
X225000000Y-163000000D01*
X15000000Y-163000000D02*
X225000000Y-163000000D01*
X15000000Y-15000000D02*
X15000000Y-163000000D01*
X15000000Y-15000000D02*
X225000000Y-15000000D01*
X225000000Y-15000000D02*
X225000000Y-163000000D01*
X15000000Y-163000000D02*
X225000000Y-163000000D01*
X15000000Y-15000000D02*
X15000000Y-163000000D01*
D11*
X105000000Y-157650000D03*
D12*
X20350000Y-74000000D03*
D13*
X105000000Y-20350000D03*
D14*
X219650000Y-74000000D03*
D11*
X135000000Y-157650000D03*
D14*
X219650000Y-104000000D03*
D12*
X20350000Y-104000000D03*
D15*
X45625000Y-39000000D03*
X196125000Y-139000000D03*
X196125000Y-39000000D03*
X45625000Y-139000000D03*
D16*
X101362500Y-95000000D03*
X105637500Y-95000000D03*
X107362500Y-83000000D03*
X111637500Y-83000000D03*
X113362500Y-95000000D03*
X117637500Y-95000000D03*
X119362500Y-83000000D03*
X123637500Y-83000000D03*
X125225000Y-95000000D03*
X129500000Y-95000000D03*
X131362500Y-83000000D03*
X135637500Y-83000000D03*
X137362500Y-95000000D03*
X141637500Y-95000000D03*
X143362500Y-83000000D03*
X147637500Y-83000000D03*
X149225000Y-95000000D03*
X153500000Y-95000000D03*
D17*
X154500000Y-87000000D03*
X154500000Y-91000000D03*
X106500000Y-86999999D03*
X106500000Y-90999999D03*
D18*
X112500000Y-91000000D03*
X112500000Y-87000000D03*
D17*
X118500000Y-87000000D03*
X118500000Y-91000000D03*
D18*
X124500000Y-91000000D03*
X124500000Y-87000000D03*
D17*
X130500000Y-86999999D03*
X130500000Y-90999999D03*
D18*
X136500000Y-91000001D03*
X136500000Y-87000001D03*
D17*
X142500000Y-87000000D03*
X142500000Y-91000000D03*
D18*
X148500000Y-91000000D03*
X148500000Y-87000000D03*
D16*
X95362500Y-83000000D03*
X99637500Y-83000000D03*
D19*
X160700000Y-95000000D03*
X166500000Y-95000000D03*
D18*
X100500000Y-91000000D03*
X100500000Y-87000000D03*
D20*
X84125000Y-87000000D03*
X84125000Y-91000000D03*
D21*
X74875000Y-87000000D03*
X74875000Y-91000000D03*
D22*
X92500000Y-91100000D03*
X92500000Y-96900000D03*
D13*
X135000000Y-20350000D03*
M02*
