%TF.GenerationSoftware,KiCad,Pcbnew,5.0.1*%
%TF.CreationDate,2019-02-24T21:46:33+01:00*%
%TF.ProjectId,Statikplatte,53746174696B706C617474652E6B6963,rev?*%
%TF.SameCoordinates,Original*%
%TF.FileFunction,Soldermask,Bot*%
%TF.FilePolarity,Negative*%
%FSLAX46Y46*%
G04 Gerber Fmt 4.6, Leading zero omitted, Abs format (unit mm)*
G04 Created by KiCad (PCBNEW 5.0.1) date So 24 Feb 2019 21:46:33 CET*
%MOMM*%
%LPD*%
G01*
G04 APERTURE LIST*
%ADD10C,0.150000*%
%ADD11C,0.100000*%
G04 APERTURE END LIST*
D10*
X15000000Y-15000000D02*
X225000000Y-15000000D01*
X225000000Y-15000000D02*
X225000000Y-163000000D01*
X15000000Y-163000000D02*
X225000000Y-163000000D01*
X15000000Y-15000000D02*
X15000000Y-163000000D01*
D11*
G36*
X137321454Y-150984909D02*
X137666143Y-151089469D01*
X137983803Y-151259263D01*
X138262235Y-151487765D01*
X138490737Y-151766197D01*
X138660531Y-152083857D01*
X138765091Y-152428546D01*
X138801000Y-152793140D01*
X138801000Y-161206860D01*
X138765091Y-161571454D01*
X138660531Y-161916143D01*
X138490737Y-162233803D01*
X138262235Y-162512235D01*
X137983803Y-162740737D01*
X137666143Y-162910531D01*
X137321454Y-163015091D01*
X136956860Y-163051000D01*
X133043140Y-163051000D01*
X132678546Y-163015091D01*
X132333857Y-162910531D01*
X132016197Y-162740737D01*
X131737765Y-162512235D01*
X131509263Y-162233803D01*
X131339469Y-161916143D01*
X131234909Y-161571454D01*
X131199000Y-161206860D01*
X131199000Y-152793140D01*
X131234909Y-152428546D01*
X131339469Y-152083857D01*
X131509263Y-151766197D01*
X131737765Y-151487765D01*
X132016197Y-151259263D01*
X132333857Y-151089469D01*
X132678546Y-150984909D01*
X133043140Y-150949000D01*
X136956860Y-150949000D01*
X137321454Y-150984909D01*
X137321454Y-150984909D01*
G37*
G36*
X107321454Y-150984909D02*
X107666143Y-151089469D01*
X107983803Y-151259263D01*
X108262235Y-151487765D01*
X108490737Y-151766197D01*
X108660531Y-152083857D01*
X108765091Y-152428546D01*
X108801000Y-152793140D01*
X108801000Y-161206860D01*
X108765091Y-161571454D01*
X108660531Y-161916143D01*
X108490737Y-162233803D01*
X108262235Y-162512235D01*
X107983803Y-162740737D01*
X107666143Y-162910531D01*
X107321454Y-163015091D01*
X106956860Y-163051000D01*
X103043140Y-163051000D01*
X102678546Y-163015091D01*
X102333857Y-162910531D01*
X102016197Y-162740737D01*
X101737765Y-162512235D01*
X101509263Y-162233803D01*
X101339469Y-161916143D01*
X101234909Y-161571454D01*
X101199000Y-161206860D01*
X101199000Y-152793140D01*
X101234909Y-152428546D01*
X101339469Y-152083857D01*
X101509263Y-151766197D01*
X101737765Y-151487765D01*
X102016197Y-151259263D01*
X102333857Y-151089469D01*
X102678546Y-150984909D01*
X103043140Y-150949000D01*
X106956860Y-150949000D01*
X107321454Y-150984909D01*
X107321454Y-150984909D01*
G37*
G36*
X197014941Y-136066248D02*
X197014943Y-136066249D01*
X197014944Y-136066249D01*
X197570190Y-136296239D01*
X197570191Y-136296240D01*
X198069902Y-136630136D01*
X198494864Y-137055098D01*
X198494866Y-137055101D01*
X198828761Y-137554810D01*
X199058751Y-138110056D01*
X199176000Y-138699503D01*
X199176000Y-139300497D01*
X199058751Y-139889944D01*
X198828761Y-140445190D01*
X198828760Y-140445191D01*
X198494864Y-140944902D01*
X198069902Y-141369864D01*
X198069899Y-141369866D01*
X197570190Y-141703761D01*
X197014944Y-141933751D01*
X197014943Y-141933751D01*
X197014941Y-141933752D01*
X196425499Y-142051000D01*
X195824501Y-142051000D01*
X195235059Y-141933752D01*
X195235057Y-141933751D01*
X195235056Y-141933751D01*
X194679810Y-141703761D01*
X194180101Y-141369866D01*
X194180098Y-141369864D01*
X193755136Y-140944902D01*
X193421240Y-140445191D01*
X193421239Y-140445190D01*
X193191249Y-139889944D01*
X193074000Y-139300497D01*
X193074000Y-138699503D01*
X193191249Y-138110056D01*
X193421239Y-137554810D01*
X193755134Y-137055101D01*
X193755136Y-137055098D01*
X194180098Y-136630136D01*
X194679809Y-136296240D01*
X194679810Y-136296239D01*
X195235056Y-136066249D01*
X195235057Y-136066249D01*
X195235059Y-136066248D01*
X195824501Y-135949000D01*
X196425499Y-135949000D01*
X197014941Y-136066248D01*
X197014941Y-136066248D01*
G37*
G36*
X46514941Y-136066248D02*
X46514943Y-136066249D01*
X46514944Y-136066249D01*
X47070190Y-136296239D01*
X47070191Y-136296240D01*
X47569902Y-136630136D01*
X47994864Y-137055098D01*
X47994866Y-137055101D01*
X48328761Y-137554810D01*
X48558751Y-138110056D01*
X48676000Y-138699503D01*
X48676000Y-139300497D01*
X48558751Y-139889944D01*
X48328761Y-140445190D01*
X48328760Y-140445191D01*
X47994864Y-140944902D01*
X47569902Y-141369864D01*
X47569899Y-141369866D01*
X47070190Y-141703761D01*
X46514944Y-141933751D01*
X46514943Y-141933751D01*
X46514941Y-141933752D01*
X45925499Y-142051000D01*
X45324501Y-142051000D01*
X44735059Y-141933752D01*
X44735057Y-141933751D01*
X44735056Y-141933751D01*
X44179810Y-141703761D01*
X43680101Y-141369866D01*
X43680098Y-141369864D01*
X43255136Y-140944902D01*
X42921240Y-140445191D01*
X42921239Y-140445190D01*
X42691249Y-139889944D01*
X42574000Y-139300497D01*
X42574000Y-138699503D01*
X42691249Y-138110056D01*
X42921239Y-137554810D01*
X43255134Y-137055101D01*
X43255136Y-137055098D01*
X43680098Y-136630136D01*
X44179809Y-136296240D01*
X44179810Y-136296239D01*
X44735056Y-136066249D01*
X44735057Y-136066249D01*
X44735059Y-136066248D01*
X45324501Y-135949000D01*
X45925499Y-135949000D01*
X46514941Y-136066248D01*
X46514941Y-136066248D01*
G37*
G36*
X223571454Y-100234909D02*
X223916143Y-100339469D01*
X224233803Y-100509263D01*
X224512235Y-100737765D01*
X224740737Y-101016197D01*
X224910531Y-101333857D01*
X225015091Y-101678546D01*
X225051000Y-102043140D01*
X225051000Y-105956860D01*
X225015091Y-106321454D01*
X224910531Y-106666143D01*
X224740737Y-106983803D01*
X224512235Y-107262235D01*
X224233803Y-107490737D01*
X223916143Y-107660531D01*
X223571454Y-107765091D01*
X223206860Y-107801000D01*
X214793140Y-107801000D01*
X214428546Y-107765091D01*
X214083857Y-107660531D01*
X213766197Y-107490737D01*
X213487765Y-107262235D01*
X213259263Y-106983803D01*
X213089469Y-106666143D01*
X212984909Y-106321454D01*
X212949000Y-105956860D01*
X212949000Y-102043140D01*
X212984909Y-101678546D01*
X213089469Y-101333857D01*
X213259263Y-101016197D01*
X213487765Y-100737765D01*
X213766197Y-100509263D01*
X214083857Y-100339469D01*
X214428546Y-100234909D01*
X214793140Y-100199000D01*
X223206860Y-100199000D01*
X223571454Y-100234909D01*
X223571454Y-100234909D01*
G37*
G36*
X25571454Y-100234909D02*
X25916143Y-100339469D01*
X26233803Y-100509263D01*
X26512235Y-100737765D01*
X26740737Y-101016197D01*
X26910531Y-101333857D01*
X27015091Y-101678546D01*
X27051000Y-102043140D01*
X27051000Y-105956860D01*
X27015091Y-106321454D01*
X26910531Y-106666143D01*
X26740737Y-106983803D01*
X26512235Y-107262235D01*
X26233803Y-107490737D01*
X25916143Y-107660531D01*
X25571454Y-107765091D01*
X25206860Y-107801000D01*
X16793140Y-107801000D01*
X16428546Y-107765091D01*
X16083857Y-107660531D01*
X15766197Y-107490737D01*
X15487765Y-107262235D01*
X15259263Y-106983803D01*
X15089469Y-106666143D01*
X14984909Y-106321454D01*
X14949000Y-105956860D01*
X14949000Y-102043140D01*
X14984909Y-101678546D01*
X15089469Y-101333857D01*
X15259263Y-101016197D01*
X15487765Y-100737765D01*
X15766197Y-100509263D01*
X16083857Y-100339469D01*
X16428546Y-100234909D01*
X16793140Y-100199000D01*
X25206860Y-100199000D01*
X25571454Y-100234909D01*
X25571454Y-100234909D01*
G37*
G36*
X94072797Y-96178247D02*
X94108367Y-96189037D01*
X94141139Y-96206554D01*
X94169869Y-96230131D01*
X94193446Y-96258861D01*
X94210963Y-96291633D01*
X94221753Y-96327203D01*
X94226000Y-96370324D01*
X94226000Y-97429676D01*
X94221753Y-97472797D01*
X94210963Y-97508367D01*
X94193446Y-97541139D01*
X94169869Y-97569869D01*
X94141139Y-97593446D01*
X94108367Y-97610963D01*
X94072797Y-97621753D01*
X94029676Y-97626000D01*
X90970324Y-97626000D01*
X90927203Y-97621753D01*
X90891633Y-97610963D01*
X90858861Y-97593446D01*
X90830131Y-97569869D01*
X90806554Y-97541139D01*
X90789037Y-97508367D01*
X90778247Y-97472797D01*
X90774000Y-97429676D01*
X90774000Y-96370324D01*
X90778247Y-96327203D01*
X90789037Y-96291633D01*
X90806554Y-96258861D01*
X90830131Y-96230131D01*
X90858861Y-96206554D01*
X90891633Y-96189037D01*
X90927203Y-96178247D01*
X90970324Y-96174000D01*
X94029676Y-96174000D01*
X94072797Y-96178247D01*
X94072797Y-96178247D01*
G37*
G36*
X125674808Y-93253498D02*
X125712817Y-93265028D01*
X125747848Y-93283753D01*
X125778550Y-93308950D01*
X125803747Y-93339652D01*
X125822472Y-93374683D01*
X125834002Y-93412692D01*
X125838500Y-93458362D01*
X125838500Y-96541638D01*
X125834002Y-96587308D01*
X125822472Y-96625317D01*
X125803747Y-96660348D01*
X125778550Y-96691050D01*
X125747848Y-96716247D01*
X125712817Y-96734972D01*
X125674808Y-96746502D01*
X125629138Y-96751000D01*
X124820862Y-96751000D01*
X124775192Y-96746502D01*
X124737183Y-96734972D01*
X124702152Y-96716247D01*
X124671450Y-96691050D01*
X124646253Y-96660348D01*
X124627528Y-96625317D01*
X124615998Y-96587308D01*
X124611500Y-96541638D01*
X124611500Y-93458362D01*
X124615998Y-93412692D01*
X124627528Y-93374683D01*
X124646253Y-93339652D01*
X124671450Y-93308950D01*
X124702152Y-93283753D01*
X124737183Y-93265028D01*
X124775192Y-93253498D01*
X124820862Y-93249000D01*
X125629138Y-93249000D01*
X125674808Y-93253498D01*
X125674808Y-93253498D01*
G37*
G36*
X129949808Y-93253498D02*
X129987817Y-93265028D01*
X130022848Y-93283753D01*
X130053550Y-93308950D01*
X130078747Y-93339652D01*
X130097472Y-93374683D01*
X130109002Y-93412692D01*
X130113500Y-93458362D01*
X130113500Y-96541638D01*
X130109002Y-96587308D01*
X130097472Y-96625317D01*
X130078747Y-96660348D01*
X130053550Y-96691050D01*
X130022848Y-96716247D01*
X129987817Y-96734972D01*
X129949808Y-96746502D01*
X129904138Y-96751000D01*
X129095862Y-96751000D01*
X129050192Y-96746502D01*
X129012183Y-96734972D01*
X128977152Y-96716247D01*
X128946450Y-96691050D01*
X128921253Y-96660348D01*
X128902528Y-96625317D01*
X128890998Y-96587308D01*
X128886500Y-96541638D01*
X128886500Y-93458362D01*
X128890998Y-93412692D01*
X128902528Y-93374683D01*
X128921253Y-93339652D01*
X128946450Y-93308950D01*
X128977152Y-93283753D01*
X129012183Y-93265028D01*
X129050192Y-93253498D01*
X129095862Y-93249000D01*
X129904138Y-93249000D01*
X129949808Y-93253498D01*
X129949808Y-93253498D01*
G37*
G36*
X113812308Y-93253498D02*
X113850317Y-93265028D01*
X113885348Y-93283753D01*
X113916050Y-93308950D01*
X113941247Y-93339652D01*
X113959972Y-93374683D01*
X113971502Y-93412692D01*
X113976000Y-93458362D01*
X113976000Y-96541638D01*
X113971502Y-96587308D01*
X113959972Y-96625317D01*
X113941247Y-96660348D01*
X113916050Y-96691050D01*
X113885348Y-96716247D01*
X113850317Y-96734972D01*
X113812308Y-96746502D01*
X113766638Y-96751000D01*
X112958362Y-96751000D01*
X112912692Y-96746502D01*
X112874683Y-96734972D01*
X112839652Y-96716247D01*
X112808950Y-96691050D01*
X112783753Y-96660348D01*
X112765028Y-96625317D01*
X112753498Y-96587308D01*
X112749000Y-96541638D01*
X112749000Y-93458362D01*
X112753498Y-93412692D01*
X112765028Y-93374683D01*
X112783753Y-93339652D01*
X112808950Y-93308950D01*
X112839652Y-93283753D01*
X112874683Y-93265028D01*
X112912692Y-93253498D01*
X112958362Y-93249000D01*
X113766638Y-93249000D01*
X113812308Y-93253498D01*
X113812308Y-93253498D01*
G37*
G36*
X118087308Y-93253498D02*
X118125317Y-93265028D01*
X118160348Y-93283753D01*
X118191050Y-93308950D01*
X118216247Y-93339652D01*
X118234972Y-93374683D01*
X118246502Y-93412692D01*
X118251000Y-93458362D01*
X118251000Y-96541638D01*
X118246502Y-96587308D01*
X118234972Y-96625317D01*
X118216247Y-96660348D01*
X118191050Y-96691050D01*
X118160348Y-96716247D01*
X118125317Y-96734972D01*
X118087308Y-96746502D01*
X118041638Y-96751000D01*
X117233362Y-96751000D01*
X117187692Y-96746502D01*
X117149683Y-96734972D01*
X117114652Y-96716247D01*
X117083950Y-96691050D01*
X117058753Y-96660348D01*
X117040028Y-96625317D01*
X117028498Y-96587308D01*
X117024000Y-96541638D01*
X117024000Y-93458362D01*
X117028498Y-93412692D01*
X117040028Y-93374683D01*
X117058753Y-93339652D01*
X117083950Y-93308950D01*
X117114652Y-93283753D01*
X117149683Y-93265028D01*
X117187692Y-93253498D01*
X117233362Y-93249000D01*
X118041638Y-93249000D01*
X118087308Y-93253498D01*
X118087308Y-93253498D01*
G37*
G36*
X101812308Y-93253498D02*
X101850317Y-93265028D01*
X101885348Y-93283753D01*
X101916050Y-93308950D01*
X101941247Y-93339652D01*
X101959972Y-93374683D01*
X101971502Y-93412692D01*
X101976000Y-93458362D01*
X101976000Y-96541638D01*
X101971502Y-96587308D01*
X101959972Y-96625317D01*
X101941247Y-96660348D01*
X101916050Y-96691050D01*
X101885348Y-96716247D01*
X101850317Y-96734972D01*
X101812308Y-96746502D01*
X101766638Y-96751000D01*
X100958362Y-96751000D01*
X100912692Y-96746502D01*
X100874683Y-96734972D01*
X100839652Y-96716247D01*
X100808950Y-96691050D01*
X100783753Y-96660348D01*
X100765028Y-96625317D01*
X100753498Y-96587308D01*
X100749000Y-96541638D01*
X100749000Y-93458362D01*
X100753498Y-93412692D01*
X100765028Y-93374683D01*
X100783753Y-93339652D01*
X100808950Y-93308950D01*
X100839652Y-93283753D01*
X100874683Y-93265028D01*
X100912692Y-93253498D01*
X100958362Y-93249000D01*
X101766638Y-93249000D01*
X101812308Y-93253498D01*
X101812308Y-93253498D01*
G37*
G36*
X137812308Y-93253498D02*
X137850317Y-93265028D01*
X137885348Y-93283753D01*
X137916050Y-93308950D01*
X137941247Y-93339652D01*
X137959972Y-93374683D01*
X137971502Y-93412692D01*
X137976000Y-93458362D01*
X137976000Y-96541638D01*
X137971502Y-96587308D01*
X137959972Y-96625317D01*
X137941247Y-96660348D01*
X137916050Y-96691050D01*
X137885348Y-96716247D01*
X137850317Y-96734972D01*
X137812308Y-96746502D01*
X137766638Y-96751000D01*
X136958362Y-96751000D01*
X136912692Y-96746502D01*
X136874683Y-96734972D01*
X136839652Y-96716247D01*
X136808950Y-96691050D01*
X136783753Y-96660348D01*
X136765028Y-96625317D01*
X136753498Y-96587308D01*
X136749000Y-96541638D01*
X136749000Y-93458362D01*
X136753498Y-93412692D01*
X136765028Y-93374683D01*
X136783753Y-93339652D01*
X136808950Y-93308950D01*
X136839652Y-93283753D01*
X136874683Y-93265028D01*
X136912692Y-93253498D01*
X136958362Y-93249000D01*
X137766638Y-93249000D01*
X137812308Y-93253498D01*
X137812308Y-93253498D01*
G37*
G36*
X142087308Y-93253498D02*
X142125317Y-93265028D01*
X142160348Y-93283753D01*
X142191050Y-93308950D01*
X142216247Y-93339652D01*
X142234972Y-93374683D01*
X142246502Y-93412692D01*
X142251000Y-93458362D01*
X142251000Y-96541638D01*
X142246502Y-96587308D01*
X142234972Y-96625317D01*
X142216247Y-96660348D01*
X142191050Y-96691050D01*
X142160348Y-96716247D01*
X142125317Y-96734972D01*
X142087308Y-96746502D01*
X142041638Y-96751000D01*
X141233362Y-96751000D01*
X141187692Y-96746502D01*
X141149683Y-96734972D01*
X141114652Y-96716247D01*
X141083950Y-96691050D01*
X141058753Y-96660348D01*
X141040028Y-96625317D01*
X141028498Y-96587308D01*
X141024000Y-96541638D01*
X141024000Y-93458362D01*
X141028498Y-93412692D01*
X141040028Y-93374683D01*
X141058753Y-93339652D01*
X141083950Y-93308950D01*
X141114652Y-93283753D01*
X141149683Y-93265028D01*
X141187692Y-93253498D01*
X141233362Y-93249000D01*
X142041638Y-93249000D01*
X142087308Y-93253498D01*
X142087308Y-93253498D01*
G37*
G36*
X149674808Y-93253498D02*
X149712817Y-93265028D01*
X149747848Y-93283753D01*
X149778550Y-93308950D01*
X149803747Y-93339652D01*
X149822472Y-93374683D01*
X149834002Y-93412692D01*
X149838500Y-93458362D01*
X149838500Y-96541638D01*
X149834002Y-96587308D01*
X149822472Y-96625317D01*
X149803747Y-96660348D01*
X149778550Y-96691050D01*
X149747848Y-96716247D01*
X149712817Y-96734972D01*
X149674808Y-96746502D01*
X149629138Y-96751000D01*
X148820862Y-96751000D01*
X148775192Y-96746502D01*
X148737183Y-96734972D01*
X148702152Y-96716247D01*
X148671450Y-96691050D01*
X148646253Y-96660348D01*
X148627528Y-96625317D01*
X148615998Y-96587308D01*
X148611500Y-96541638D01*
X148611500Y-93458362D01*
X148615998Y-93412692D01*
X148627528Y-93374683D01*
X148646253Y-93339652D01*
X148671450Y-93308950D01*
X148702152Y-93283753D01*
X148737183Y-93265028D01*
X148775192Y-93253498D01*
X148820862Y-93249000D01*
X149629138Y-93249000D01*
X149674808Y-93253498D01*
X149674808Y-93253498D01*
G37*
G36*
X153949808Y-93253498D02*
X153987817Y-93265028D01*
X154022848Y-93283753D01*
X154053550Y-93308950D01*
X154078747Y-93339652D01*
X154097472Y-93374683D01*
X154109002Y-93412692D01*
X154113500Y-93458362D01*
X154113500Y-96541638D01*
X154109002Y-96587308D01*
X154097472Y-96625317D01*
X154078747Y-96660348D01*
X154053550Y-96691050D01*
X154022848Y-96716247D01*
X153987817Y-96734972D01*
X153949808Y-96746502D01*
X153904138Y-96751000D01*
X153095862Y-96751000D01*
X153050192Y-96746502D01*
X153012183Y-96734972D01*
X152977152Y-96716247D01*
X152946450Y-96691050D01*
X152921253Y-96660348D01*
X152902528Y-96625317D01*
X152890998Y-96587308D01*
X152886500Y-96541638D01*
X152886500Y-93458362D01*
X152890998Y-93412692D01*
X152902528Y-93374683D01*
X152921253Y-93339652D01*
X152946450Y-93308950D01*
X152977152Y-93283753D01*
X153012183Y-93265028D01*
X153050192Y-93253498D01*
X153095862Y-93249000D01*
X153904138Y-93249000D01*
X153949808Y-93253498D01*
X153949808Y-93253498D01*
G37*
G36*
X106087308Y-93253498D02*
X106125317Y-93265028D01*
X106160348Y-93283753D01*
X106191050Y-93308950D01*
X106216247Y-93339652D01*
X106234972Y-93374683D01*
X106246502Y-93412692D01*
X106251000Y-93458362D01*
X106251000Y-96541638D01*
X106246502Y-96587308D01*
X106234972Y-96625317D01*
X106216247Y-96660348D01*
X106191050Y-96691050D01*
X106160348Y-96716247D01*
X106125317Y-96734972D01*
X106087308Y-96746502D01*
X106041638Y-96751000D01*
X105233362Y-96751000D01*
X105187692Y-96746502D01*
X105149683Y-96734972D01*
X105114652Y-96716247D01*
X105083950Y-96691050D01*
X105058753Y-96660348D01*
X105040028Y-96625317D01*
X105028498Y-96587308D01*
X105024000Y-96541638D01*
X105024000Y-93458362D01*
X105028498Y-93412692D01*
X105040028Y-93374683D01*
X105058753Y-93339652D01*
X105083950Y-93308950D01*
X105114652Y-93283753D01*
X105149683Y-93265028D01*
X105187692Y-93253498D01*
X105233362Y-93249000D01*
X106041638Y-93249000D01*
X106087308Y-93253498D01*
X106087308Y-93253498D01*
G37*
G36*
X167072797Y-93278247D02*
X167108367Y-93289037D01*
X167141139Y-93306554D01*
X167169869Y-93330131D01*
X167193446Y-93358861D01*
X167210963Y-93391633D01*
X167221753Y-93427203D01*
X167226000Y-93470324D01*
X167226000Y-96529676D01*
X167221753Y-96572797D01*
X167210963Y-96608367D01*
X167193446Y-96641139D01*
X167169869Y-96669869D01*
X167141139Y-96693446D01*
X167108367Y-96710963D01*
X167072797Y-96721753D01*
X167029676Y-96726000D01*
X165970324Y-96726000D01*
X165927203Y-96721753D01*
X165891633Y-96710963D01*
X165858861Y-96693446D01*
X165830131Y-96669869D01*
X165806554Y-96641139D01*
X165789037Y-96608367D01*
X165778247Y-96572797D01*
X165774000Y-96529676D01*
X165774000Y-93470324D01*
X165778247Y-93427203D01*
X165789037Y-93391633D01*
X165806554Y-93358861D01*
X165830131Y-93330131D01*
X165858861Y-93306554D01*
X165891633Y-93289037D01*
X165927203Y-93278247D01*
X165970324Y-93274000D01*
X167029676Y-93274000D01*
X167072797Y-93278247D01*
X167072797Y-93278247D01*
G37*
G36*
X161272797Y-93278247D02*
X161308367Y-93289037D01*
X161341139Y-93306554D01*
X161369869Y-93330131D01*
X161393446Y-93358861D01*
X161410963Y-93391633D01*
X161421753Y-93427203D01*
X161426000Y-93470324D01*
X161426000Y-96529676D01*
X161421753Y-96572797D01*
X161410963Y-96608367D01*
X161393446Y-96641139D01*
X161369869Y-96669869D01*
X161341139Y-96693446D01*
X161308367Y-96710963D01*
X161272797Y-96721753D01*
X161229676Y-96726000D01*
X160170324Y-96726000D01*
X160127203Y-96721753D01*
X160091633Y-96710963D01*
X160058861Y-96693446D01*
X160030131Y-96669869D01*
X160006554Y-96641139D01*
X159989037Y-96608367D01*
X159978247Y-96572797D01*
X159974000Y-96529676D01*
X159974000Y-93470324D01*
X159978247Y-93427203D01*
X159989037Y-93391633D01*
X160006554Y-93358861D01*
X160030131Y-93330131D01*
X160058861Y-93306554D01*
X160091633Y-93289037D01*
X160127203Y-93278247D01*
X160170324Y-93274000D01*
X161229676Y-93274000D01*
X161272797Y-93278247D01*
X161272797Y-93278247D01*
G37*
G36*
X137088578Y-89707049D02*
X137161250Y-89729094D01*
X137228226Y-89764893D01*
X137286930Y-89813071D01*
X137335108Y-89871775D01*
X137370907Y-89938751D01*
X137392952Y-90011423D01*
X137401000Y-90093141D01*
X137401000Y-91906861D01*
X137392952Y-91988579D01*
X137370907Y-92061251D01*
X137335108Y-92128227D01*
X137286930Y-92186931D01*
X137228226Y-92235109D01*
X137161250Y-92270908D01*
X137088578Y-92292953D01*
X137006860Y-92301001D01*
X135993140Y-92301001D01*
X135911422Y-92292953D01*
X135838750Y-92270908D01*
X135771774Y-92235109D01*
X135713070Y-92186931D01*
X135664892Y-92128227D01*
X135629093Y-92061251D01*
X135607048Y-91988579D01*
X135599000Y-91906861D01*
X135599000Y-90093141D01*
X135607048Y-90011423D01*
X135629093Y-89938751D01*
X135664892Y-89871775D01*
X135713070Y-89813071D01*
X135771774Y-89764893D01*
X135838750Y-89729094D01*
X135911422Y-89707049D01*
X135993140Y-89699001D01*
X137006860Y-89699001D01*
X137088578Y-89707049D01*
X137088578Y-89707049D01*
G37*
G36*
X125088578Y-89707048D02*
X125161250Y-89729093D01*
X125228226Y-89764892D01*
X125286930Y-89813070D01*
X125335108Y-89871774D01*
X125370907Y-89938750D01*
X125392952Y-90011422D01*
X125401000Y-90093140D01*
X125401000Y-91906860D01*
X125392952Y-91988578D01*
X125370907Y-92061250D01*
X125335108Y-92128226D01*
X125286930Y-92186930D01*
X125228226Y-92235108D01*
X125161250Y-92270907D01*
X125088578Y-92292952D01*
X125006860Y-92301000D01*
X123993140Y-92301000D01*
X123911422Y-92292952D01*
X123838750Y-92270907D01*
X123771774Y-92235108D01*
X123713070Y-92186930D01*
X123664892Y-92128226D01*
X123629093Y-92061250D01*
X123607048Y-91988578D01*
X123599000Y-91906860D01*
X123599000Y-90093140D01*
X123607048Y-90011422D01*
X123629093Y-89938750D01*
X123664892Y-89871774D01*
X123713070Y-89813070D01*
X123771774Y-89764892D01*
X123838750Y-89729093D01*
X123911422Y-89707048D01*
X123993140Y-89699000D01*
X125006860Y-89699000D01*
X125088578Y-89707048D01*
X125088578Y-89707048D01*
G37*
G36*
X101088578Y-89707048D02*
X101161250Y-89729093D01*
X101228226Y-89764892D01*
X101286930Y-89813070D01*
X101335108Y-89871774D01*
X101370907Y-89938750D01*
X101392952Y-90011422D01*
X101401000Y-90093140D01*
X101401000Y-91906860D01*
X101392952Y-91988578D01*
X101370907Y-92061250D01*
X101335108Y-92128226D01*
X101286930Y-92186930D01*
X101228226Y-92235108D01*
X101161250Y-92270907D01*
X101088578Y-92292952D01*
X101006860Y-92301000D01*
X99993140Y-92301000D01*
X99911422Y-92292952D01*
X99838750Y-92270907D01*
X99771774Y-92235108D01*
X99713070Y-92186930D01*
X99664892Y-92128226D01*
X99629093Y-92061250D01*
X99607048Y-91988578D01*
X99599000Y-91906860D01*
X99599000Y-90093140D01*
X99607048Y-90011422D01*
X99629093Y-89938750D01*
X99664892Y-89871774D01*
X99713070Y-89813070D01*
X99771774Y-89764892D01*
X99838750Y-89729093D01*
X99911422Y-89707048D01*
X99993140Y-89699000D01*
X101006860Y-89699000D01*
X101088578Y-89707048D01*
X101088578Y-89707048D01*
G37*
G36*
X155088578Y-89707048D02*
X155161250Y-89729093D01*
X155228226Y-89764892D01*
X155286930Y-89813070D01*
X155335108Y-89871774D01*
X155370907Y-89938750D01*
X155392952Y-90011422D01*
X155401000Y-90093140D01*
X155401000Y-91906860D01*
X155392952Y-91988578D01*
X155370907Y-92061250D01*
X155335108Y-92128226D01*
X155286930Y-92186930D01*
X155228226Y-92235108D01*
X155161250Y-92270907D01*
X155088578Y-92292952D01*
X155006860Y-92301000D01*
X153993140Y-92301000D01*
X153911422Y-92292952D01*
X153838750Y-92270907D01*
X153771774Y-92235108D01*
X153713070Y-92186930D01*
X153664892Y-92128226D01*
X153629093Y-92061250D01*
X153607048Y-91988578D01*
X153599000Y-91906860D01*
X153599000Y-90093140D01*
X153607048Y-90011422D01*
X153629093Y-89938750D01*
X153664892Y-89871774D01*
X153713070Y-89813070D01*
X153771774Y-89764892D01*
X153838750Y-89729093D01*
X153911422Y-89707048D01*
X153993140Y-89699000D01*
X155006860Y-89699000D01*
X155088578Y-89707048D01*
X155088578Y-89707048D01*
G37*
G36*
X149088578Y-89707048D02*
X149161250Y-89729093D01*
X149228226Y-89764892D01*
X149286930Y-89813070D01*
X149335108Y-89871774D01*
X149370907Y-89938750D01*
X149392952Y-90011422D01*
X149401000Y-90093140D01*
X149401000Y-91906860D01*
X149392952Y-91988578D01*
X149370907Y-92061250D01*
X149335108Y-92128226D01*
X149286930Y-92186930D01*
X149228226Y-92235108D01*
X149161250Y-92270907D01*
X149088578Y-92292952D01*
X149006860Y-92301000D01*
X147993140Y-92301000D01*
X147911422Y-92292952D01*
X147838750Y-92270907D01*
X147771774Y-92235108D01*
X147713070Y-92186930D01*
X147664892Y-92128226D01*
X147629093Y-92061250D01*
X147607048Y-91988578D01*
X147599000Y-91906860D01*
X147599000Y-90093140D01*
X147607048Y-90011422D01*
X147629093Y-89938750D01*
X147664892Y-89871774D01*
X147713070Y-89813070D01*
X147771774Y-89764892D01*
X147838750Y-89729093D01*
X147911422Y-89707048D01*
X147993140Y-89699000D01*
X149006860Y-89699000D01*
X149088578Y-89707048D01*
X149088578Y-89707048D01*
G37*
G36*
X113088578Y-89707048D02*
X113161250Y-89729093D01*
X113228226Y-89764892D01*
X113286930Y-89813070D01*
X113335108Y-89871774D01*
X113370907Y-89938750D01*
X113392952Y-90011422D01*
X113401000Y-90093140D01*
X113401000Y-91906860D01*
X113392952Y-91988578D01*
X113370907Y-92061250D01*
X113335108Y-92128226D01*
X113286930Y-92186930D01*
X113228226Y-92235108D01*
X113161250Y-92270907D01*
X113088578Y-92292952D01*
X113006860Y-92301000D01*
X111993140Y-92301000D01*
X111911422Y-92292952D01*
X111838750Y-92270907D01*
X111771774Y-92235108D01*
X111713070Y-92186930D01*
X111664892Y-92128226D01*
X111629093Y-92061250D01*
X111607048Y-91988578D01*
X111599000Y-91906860D01*
X111599000Y-90093140D01*
X111607048Y-90011422D01*
X111629093Y-89938750D01*
X111664892Y-89871774D01*
X111713070Y-89813070D01*
X111771774Y-89764892D01*
X111838750Y-89729093D01*
X111911422Y-89707048D01*
X111993140Y-89699000D01*
X113006860Y-89699000D01*
X113088578Y-89707048D01*
X113088578Y-89707048D01*
G37*
G36*
X119088578Y-89707048D02*
X119161250Y-89729093D01*
X119228226Y-89764892D01*
X119286930Y-89813070D01*
X119335108Y-89871774D01*
X119370907Y-89938750D01*
X119392952Y-90011422D01*
X119401000Y-90093140D01*
X119401000Y-91906860D01*
X119392952Y-91988578D01*
X119370907Y-92061250D01*
X119335108Y-92128226D01*
X119286930Y-92186930D01*
X119228226Y-92235108D01*
X119161250Y-92270907D01*
X119088578Y-92292952D01*
X119006860Y-92301000D01*
X117993140Y-92301000D01*
X117911422Y-92292952D01*
X117838750Y-92270907D01*
X117771774Y-92235108D01*
X117713070Y-92186930D01*
X117664892Y-92128226D01*
X117629093Y-92061250D01*
X117607048Y-91988578D01*
X117599000Y-91906860D01*
X117599000Y-90093140D01*
X117607048Y-90011422D01*
X117629093Y-89938750D01*
X117664892Y-89871774D01*
X117713070Y-89813070D01*
X117771774Y-89764892D01*
X117838750Y-89729093D01*
X117911422Y-89707048D01*
X117993140Y-89699000D01*
X119006860Y-89699000D01*
X119088578Y-89707048D01*
X119088578Y-89707048D01*
G37*
G36*
X143088578Y-89707048D02*
X143161250Y-89729093D01*
X143228226Y-89764892D01*
X143286930Y-89813070D01*
X143335108Y-89871774D01*
X143370907Y-89938750D01*
X143392952Y-90011422D01*
X143401000Y-90093140D01*
X143401000Y-91906860D01*
X143392952Y-91988578D01*
X143370907Y-92061250D01*
X143335108Y-92128226D01*
X143286930Y-92186930D01*
X143228226Y-92235108D01*
X143161250Y-92270907D01*
X143088578Y-92292952D01*
X143006860Y-92301000D01*
X141993140Y-92301000D01*
X141911422Y-92292952D01*
X141838750Y-92270907D01*
X141771774Y-92235108D01*
X141713070Y-92186930D01*
X141664892Y-92128226D01*
X141629093Y-92061250D01*
X141607048Y-91988578D01*
X141599000Y-91906860D01*
X141599000Y-90093140D01*
X141607048Y-90011422D01*
X141629093Y-89938750D01*
X141664892Y-89871774D01*
X141713070Y-89813070D01*
X141771774Y-89764892D01*
X141838750Y-89729093D01*
X141911422Y-89707048D01*
X141993140Y-89699000D01*
X143006860Y-89699000D01*
X143088578Y-89707048D01*
X143088578Y-89707048D01*
G37*
G36*
X107088578Y-89707047D02*
X107161250Y-89729092D01*
X107228226Y-89764891D01*
X107286930Y-89813069D01*
X107335108Y-89871773D01*
X107370907Y-89938749D01*
X107392952Y-90011421D01*
X107401000Y-90093139D01*
X107401000Y-91906859D01*
X107392952Y-91988577D01*
X107370907Y-92061249D01*
X107335108Y-92128225D01*
X107286930Y-92186929D01*
X107228226Y-92235107D01*
X107161250Y-92270906D01*
X107088578Y-92292951D01*
X107006860Y-92300999D01*
X105993140Y-92300999D01*
X105911422Y-92292951D01*
X105838750Y-92270906D01*
X105771774Y-92235107D01*
X105713070Y-92186929D01*
X105664892Y-92128225D01*
X105629093Y-92061249D01*
X105607048Y-91988577D01*
X105599000Y-91906859D01*
X105599000Y-90093139D01*
X105607048Y-90011421D01*
X105629093Y-89938749D01*
X105664892Y-89871773D01*
X105713070Y-89813069D01*
X105771774Y-89764891D01*
X105838750Y-89729092D01*
X105911422Y-89707047D01*
X105993140Y-89698999D01*
X107006860Y-89698999D01*
X107088578Y-89707047D01*
X107088578Y-89707047D01*
G37*
G36*
X131088578Y-89707047D02*
X131161250Y-89729092D01*
X131228226Y-89764891D01*
X131286930Y-89813069D01*
X131335108Y-89871773D01*
X131370907Y-89938749D01*
X131392952Y-90011421D01*
X131401000Y-90093139D01*
X131401000Y-91906859D01*
X131392952Y-91988577D01*
X131370907Y-92061249D01*
X131335108Y-92128225D01*
X131286930Y-92186929D01*
X131228226Y-92235107D01*
X131161250Y-92270906D01*
X131088578Y-92292951D01*
X131006860Y-92300999D01*
X129993140Y-92300999D01*
X129911422Y-92292951D01*
X129838750Y-92270906D01*
X129771774Y-92235107D01*
X129713070Y-92186929D01*
X129664892Y-92128225D01*
X129629093Y-92061249D01*
X129607048Y-91988577D01*
X129599000Y-91906859D01*
X129599000Y-90093139D01*
X129607048Y-90011421D01*
X129629093Y-89938749D01*
X129664892Y-89871773D01*
X129713070Y-89813069D01*
X129771774Y-89764891D01*
X129838750Y-89729092D01*
X129911422Y-89707047D01*
X129993140Y-89698999D01*
X131006860Y-89698999D01*
X131088578Y-89707047D01*
X131088578Y-89707047D01*
G37*
G36*
X77926000Y-92051000D02*
X71824000Y-92051000D01*
X71824000Y-89949000D01*
X77926000Y-89949000D01*
X77926000Y-92051000D01*
X77926000Y-92051000D01*
G37*
G36*
X85926000Y-92051000D02*
X82324000Y-92051000D01*
X82324000Y-89949000D01*
X85926000Y-89949000D01*
X85926000Y-92051000D01*
X85926000Y-92051000D01*
G37*
G36*
X94072797Y-90378247D02*
X94108367Y-90389037D01*
X94141139Y-90406554D01*
X94169869Y-90430131D01*
X94193446Y-90458861D01*
X94210963Y-90491633D01*
X94221753Y-90527203D01*
X94226000Y-90570324D01*
X94226000Y-91629676D01*
X94221753Y-91672797D01*
X94210963Y-91708367D01*
X94193446Y-91741139D01*
X94169869Y-91769869D01*
X94141139Y-91793446D01*
X94108367Y-91810963D01*
X94072797Y-91821753D01*
X94029676Y-91826000D01*
X90970324Y-91826000D01*
X90927203Y-91821753D01*
X90891633Y-91810963D01*
X90858861Y-91793446D01*
X90830131Y-91769869D01*
X90806554Y-91741139D01*
X90789037Y-91708367D01*
X90778247Y-91672797D01*
X90774000Y-91629676D01*
X90774000Y-90570324D01*
X90778247Y-90527203D01*
X90789037Y-90491633D01*
X90806554Y-90458861D01*
X90830131Y-90430131D01*
X90858861Y-90406554D01*
X90891633Y-90389037D01*
X90927203Y-90378247D01*
X90970324Y-90374000D01*
X94029676Y-90374000D01*
X94072797Y-90378247D01*
X94072797Y-90378247D01*
G37*
G36*
X137088578Y-85707049D02*
X137161250Y-85729094D01*
X137228226Y-85764893D01*
X137286930Y-85813071D01*
X137335108Y-85871775D01*
X137370907Y-85938751D01*
X137392952Y-86011423D01*
X137401000Y-86093141D01*
X137401000Y-87906861D01*
X137392952Y-87988579D01*
X137370907Y-88061251D01*
X137335108Y-88128227D01*
X137286930Y-88186931D01*
X137228226Y-88235109D01*
X137161250Y-88270908D01*
X137088578Y-88292953D01*
X137006860Y-88301001D01*
X135993140Y-88301001D01*
X135911422Y-88292953D01*
X135838750Y-88270908D01*
X135771774Y-88235109D01*
X135713070Y-88186931D01*
X135664892Y-88128227D01*
X135629093Y-88061251D01*
X135607048Y-87988579D01*
X135599000Y-87906861D01*
X135599000Y-86093141D01*
X135607048Y-86011423D01*
X135629093Y-85938751D01*
X135664892Y-85871775D01*
X135713070Y-85813071D01*
X135771774Y-85764893D01*
X135838750Y-85729094D01*
X135911422Y-85707049D01*
X135993140Y-85699001D01*
X137006860Y-85699001D01*
X137088578Y-85707049D01*
X137088578Y-85707049D01*
G37*
G36*
X149088578Y-85707048D02*
X149161250Y-85729093D01*
X149228226Y-85764892D01*
X149286930Y-85813070D01*
X149335108Y-85871774D01*
X149370907Y-85938750D01*
X149392952Y-86011422D01*
X149401000Y-86093140D01*
X149401000Y-87906860D01*
X149392952Y-87988578D01*
X149370907Y-88061250D01*
X149335108Y-88128226D01*
X149286930Y-88186930D01*
X149228226Y-88235108D01*
X149161250Y-88270907D01*
X149088578Y-88292952D01*
X149006860Y-88301000D01*
X147993140Y-88301000D01*
X147911422Y-88292952D01*
X147838750Y-88270907D01*
X147771774Y-88235108D01*
X147713070Y-88186930D01*
X147664892Y-88128226D01*
X147629093Y-88061250D01*
X147607048Y-87988578D01*
X147599000Y-87906860D01*
X147599000Y-86093140D01*
X147607048Y-86011422D01*
X147629093Y-85938750D01*
X147664892Y-85871774D01*
X147713070Y-85813070D01*
X147771774Y-85764892D01*
X147838750Y-85729093D01*
X147911422Y-85707048D01*
X147993140Y-85699000D01*
X149006860Y-85699000D01*
X149088578Y-85707048D01*
X149088578Y-85707048D01*
G37*
G36*
X143088578Y-85707048D02*
X143161250Y-85729093D01*
X143228226Y-85764892D01*
X143286930Y-85813070D01*
X143335108Y-85871774D01*
X143370907Y-85938750D01*
X143392952Y-86011422D01*
X143401000Y-86093140D01*
X143401000Y-87906860D01*
X143392952Y-87988578D01*
X143370907Y-88061250D01*
X143335108Y-88128226D01*
X143286930Y-88186930D01*
X143228226Y-88235108D01*
X143161250Y-88270907D01*
X143088578Y-88292952D01*
X143006860Y-88301000D01*
X141993140Y-88301000D01*
X141911422Y-88292952D01*
X141838750Y-88270907D01*
X141771774Y-88235108D01*
X141713070Y-88186930D01*
X141664892Y-88128226D01*
X141629093Y-88061250D01*
X141607048Y-87988578D01*
X141599000Y-87906860D01*
X141599000Y-86093140D01*
X141607048Y-86011422D01*
X141629093Y-85938750D01*
X141664892Y-85871774D01*
X141713070Y-85813070D01*
X141771774Y-85764892D01*
X141838750Y-85729093D01*
X141911422Y-85707048D01*
X141993140Y-85699000D01*
X143006860Y-85699000D01*
X143088578Y-85707048D01*
X143088578Y-85707048D01*
G37*
G36*
X155088578Y-85707048D02*
X155161250Y-85729093D01*
X155228226Y-85764892D01*
X155286930Y-85813070D01*
X155335108Y-85871774D01*
X155370907Y-85938750D01*
X155392952Y-86011422D01*
X155401000Y-86093140D01*
X155401000Y-87906860D01*
X155392952Y-87988578D01*
X155370907Y-88061250D01*
X155335108Y-88128226D01*
X155286930Y-88186930D01*
X155228226Y-88235108D01*
X155161250Y-88270907D01*
X155088578Y-88292952D01*
X155006860Y-88301000D01*
X153993140Y-88301000D01*
X153911422Y-88292952D01*
X153838750Y-88270907D01*
X153771774Y-88235108D01*
X153713070Y-88186930D01*
X153664892Y-88128226D01*
X153629093Y-88061250D01*
X153607048Y-87988578D01*
X153599000Y-87906860D01*
X153599000Y-86093140D01*
X153607048Y-86011422D01*
X153629093Y-85938750D01*
X153664892Y-85871774D01*
X153713070Y-85813070D01*
X153771774Y-85764892D01*
X153838750Y-85729093D01*
X153911422Y-85707048D01*
X153993140Y-85699000D01*
X155006860Y-85699000D01*
X155088578Y-85707048D01*
X155088578Y-85707048D01*
G37*
G36*
X101088578Y-85707048D02*
X101161250Y-85729093D01*
X101228226Y-85764892D01*
X101286930Y-85813070D01*
X101335108Y-85871774D01*
X101370907Y-85938750D01*
X101392952Y-86011422D01*
X101401000Y-86093140D01*
X101401000Y-87906860D01*
X101392952Y-87988578D01*
X101370907Y-88061250D01*
X101335108Y-88128226D01*
X101286930Y-88186930D01*
X101228226Y-88235108D01*
X101161250Y-88270907D01*
X101088578Y-88292952D01*
X101006860Y-88301000D01*
X99993140Y-88301000D01*
X99911422Y-88292952D01*
X99838750Y-88270907D01*
X99771774Y-88235108D01*
X99713070Y-88186930D01*
X99664892Y-88128226D01*
X99629093Y-88061250D01*
X99607048Y-87988578D01*
X99599000Y-87906860D01*
X99599000Y-86093140D01*
X99607048Y-86011422D01*
X99629093Y-85938750D01*
X99664892Y-85871774D01*
X99713070Y-85813070D01*
X99771774Y-85764892D01*
X99838750Y-85729093D01*
X99911422Y-85707048D01*
X99993140Y-85699000D01*
X101006860Y-85699000D01*
X101088578Y-85707048D01*
X101088578Y-85707048D01*
G37*
G36*
X125088578Y-85707048D02*
X125161250Y-85729093D01*
X125228226Y-85764892D01*
X125286930Y-85813070D01*
X125335108Y-85871774D01*
X125370907Y-85938750D01*
X125392952Y-86011422D01*
X125401000Y-86093140D01*
X125401000Y-87906860D01*
X125392952Y-87988578D01*
X125370907Y-88061250D01*
X125335108Y-88128226D01*
X125286930Y-88186930D01*
X125228226Y-88235108D01*
X125161250Y-88270907D01*
X125088578Y-88292952D01*
X125006860Y-88301000D01*
X123993140Y-88301000D01*
X123911422Y-88292952D01*
X123838750Y-88270907D01*
X123771774Y-88235108D01*
X123713070Y-88186930D01*
X123664892Y-88128226D01*
X123629093Y-88061250D01*
X123607048Y-87988578D01*
X123599000Y-87906860D01*
X123599000Y-86093140D01*
X123607048Y-86011422D01*
X123629093Y-85938750D01*
X123664892Y-85871774D01*
X123713070Y-85813070D01*
X123771774Y-85764892D01*
X123838750Y-85729093D01*
X123911422Y-85707048D01*
X123993140Y-85699000D01*
X125006860Y-85699000D01*
X125088578Y-85707048D01*
X125088578Y-85707048D01*
G37*
G36*
X119088578Y-85707048D02*
X119161250Y-85729093D01*
X119228226Y-85764892D01*
X119286930Y-85813070D01*
X119335108Y-85871774D01*
X119370907Y-85938750D01*
X119392952Y-86011422D01*
X119401000Y-86093140D01*
X119401000Y-87906860D01*
X119392952Y-87988578D01*
X119370907Y-88061250D01*
X119335108Y-88128226D01*
X119286930Y-88186930D01*
X119228226Y-88235108D01*
X119161250Y-88270907D01*
X119088578Y-88292952D01*
X119006860Y-88301000D01*
X117993140Y-88301000D01*
X117911422Y-88292952D01*
X117838750Y-88270907D01*
X117771774Y-88235108D01*
X117713070Y-88186930D01*
X117664892Y-88128226D01*
X117629093Y-88061250D01*
X117607048Y-87988578D01*
X117599000Y-87906860D01*
X117599000Y-86093140D01*
X117607048Y-86011422D01*
X117629093Y-85938750D01*
X117664892Y-85871774D01*
X117713070Y-85813070D01*
X117771774Y-85764892D01*
X117838750Y-85729093D01*
X117911422Y-85707048D01*
X117993140Y-85699000D01*
X119006860Y-85699000D01*
X119088578Y-85707048D01*
X119088578Y-85707048D01*
G37*
G36*
X113088578Y-85707048D02*
X113161250Y-85729093D01*
X113228226Y-85764892D01*
X113286930Y-85813070D01*
X113335108Y-85871774D01*
X113370907Y-85938750D01*
X113392952Y-86011422D01*
X113401000Y-86093140D01*
X113401000Y-87906860D01*
X113392952Y-87988578D01*
X113370907Y-88061250D01*
X113335108Y-88128226D01*
X113286930Y-88186930D01*
X113228226Y-88235108D01*
X113161250Y-88270907D01*
X113088578Y-88292952D01*
X113006860Y-88301000D01*
X111993140Y-88301000D01*
X111911422Y-88292952D01*
X111838750Y-88270907D01*
X111771774Y-88235108D01*
X111713070Y-88186930D01*
X111664892Y-88128226D01*
X111629093Y-88061250D01*
X111607048Y-87988578D01*
X111599000Y-87906860D01*
X111599000Y-86093140D01*
X111607048Y-86011422D01*
X111629093Y-85938750D01*
X111664892Y-85871774D01*
X111713070Y-85813070D01*
X111771774Y-85764892D01*
X111838750Y-85729093D01*
X111911422Y-85707048D01*
X111993140Y-85699000D01*
X113006860Y-85699000D01*
X113088578Y-85707048D01*
X113088578Y-85707048D01*
G37*
G36*
X131088578Y-85707047D02*
X131161250Y-85729092D01*
X131228226Y-85764891D01*
X131286930Y-85813069D01*
X131335108Y-85871773D01*
X131370907Y-85938749D01*
X131392952Y-86011421D01*
X131401000Y-86093139D01*
X131401000Y-87906859D01*
X131392952Y-87988577D01*
X131370907Y-88061249D01*
X131335108Y-88128225D01*
X131286930Y-88186929D01*
X131228226Y-88235107D01*
X131161250Y-88270906D01*
X131088578Y-88292951D01*
X131006860Y-88300999D01*
X129993140Y-88300999D01*
X129911422Y-88292951D01*
X129838750Y-88270906D01*
X129771774Y-88235107D01*
X129713070Y-88186929D01*
X129664892Y-88128225D01*
X129629093Y-88061249D01*
X129607048Y-87988577D01*
X129599000Y-87906859D01*
X129599000Y-86093139D01*
X129607048Y-86011421D01*
X129629093Y-85938749D01*
X129664892Y-85871773D01*
X129713070Y-85813069D01*
X129771774Y-85764891D01*
X129838750Y-85729092D01*
X129911422Y-85707047D01*
X129993140Y-85698999D01*
X131006860Y-85698999D01*
X131088578Y-85707047D01*
X131088578Y-85707047D01*
G37*
G36*
X107088578Y-85707047D02*
X107161250Y-85729092D01*
X107228226Y-85764891D01*
X107286930Y-85813069D01*
X107335108Y-85871773D01*
X107370907Y-85938749D01*
X107392952Y-86011421D01*
X107401000Y-86093139D01*
X107401000Y-87906859D01*
X107392952Y-87988577D01*
X107370907Y-88061249D01*
X107335108Y-88128225D01*
X107286930Y-88186929D01*
X107228226Y-88235107D01*
X107161250Y-88270906D01*
X107088578Y-88292951D01*
X107006860Y-88300999D01*
X105993140Y-88300999D01*
X105911422Y-88292951D01*
X105838750Y-88270906D01*
X105771774Y-88235107D01*
X105713070Y-88186929D01*
X105664892Y-88128225D01*
X105629093Y-88061249D01*
X105607048Y-87988577D01*
X105599000Y-87906859D01*
X105599000Y-86093139D01*
X105607048Y-86011421D01*
X105629093Y-85938749D01*
X105664892Y-85871773D01*
X105713070Y-85813069D01*
X105771774Y-85764891D01*
X105838750Y-85729092D01*
X105911422Y-85707047D01*
X105993140Y-85698999D01*
X107006860Y-85698999D01*
X107088578Y-85707047D01*
X107088578Y-85707047D01*
G37*
G36*
X85926000Y-88051000D02*
X82324000Y-88051000D01*
X82324000Y-85949000D01*
X85926000Y-85949000D01*
X85926000Y-88051000D01*
X85926000Y-88051000D01*
G37*
G36*
X77926000Y-88051000D02*
X71824000Y-88051000D01*
X71824000Y-85949000D01*
X77926000Y-85949000D01*
X77926000Y-88051000D01*
X77926000Y-88051000D01*
G37*
G36*
X124087308Y-81253498D02*
X124125317Y-81265028D01*
X124160348Y-81283753D01*
X124191050Y-81308950D01*
X124216247Y-81339652D01*
X124234972Y-81374683D01*
X124246502Y-81412692D01*
X124251000Y-81458362D01*
X124251000Y-84541638D01*
X124246502Y-84587308D01*
X124234972Y-84625317D01*
X124216247Y-84660348D01*
X124191050Y-84691050D01*
X124160348Y-84716247D01*
X124125317Y-84734972D01*
X124087308Y-84746502D01*
X124041638Y-84751000D01*
X123233362Y-84751000D01*
X123187692Y-84746502D01*
X123149683Y-84734972D01*
X123114652Y-84716247D01*
X123083950Y-84691050D01*
X123058753Y-84660348D01*
X123040028Y-84625317D01*
X123028498Y-84587308D01*
X123024000Y-84541638D01*
X123024000Y-81458362D01*
X123028498Y-81412692D01*
X123040028Y-81374683D01*
X123058753Y-81339652D01*
X123083950Y-81308950D01*
X123114652Y-81283753D01*
X123149683Y-81265028D01*
X123187692Y-81253498D01*
X123233362Y-81249000D01*
X124041638Y-81249000D01*
X124087308Y-81253498D01*
X124087308Y-81253498D01*
G37*
G36*
X148087308Y-81253498D02*
X148125317Y-81265028D01*
X148160348Y-81283753D01*
X148191050Y-81308950D01*
X148216247Y-81339652D01*
X148234972Y-81374683D01*
X148246502Y-81412692D01*
X148251000Y-81458362D01*
X148251000Y-84541638D01*
X148246502Y-84587308D01*
X148234972Y-84625317D01*
X148216247Y-84660348D01*
X148191050Y-84691050D01*
X148160348Y-84716247D01*
X148125317Y-84734972D01*
X148087308Y-84746502D01*
X148041638Y-84751000D01*
X147233362Y-84751000D01*
X147187692Y-84746502D01*
X147149683Y-84734972D01*
X147114652Y-84716247D01*
X147083950Y-84691050D01*
X147058753Y-84660348D01*
X147040028Y-84625317D01*
X147028498Y-84587308D01*
X147024000Y-84541638D01*
X147024000Y-81458362D01*
X147028498Y-81412692D01*
X147040028Y-81374683D01*
X147058753Y-81339652D01*
X147083950Y-81308950D01*
X147114652Y-81283753D01*
X147149683Y-81265028D01*
X147187692Y-81253498D01*
X147233362Y-81249000D01*
X148041638Y-81249000D01*
X148087308Y-81253498D01*
X148087308Y-81253498D01*
G37*
G36*
X100087308Y-81253498D02*
X100125317Y-81265028D01*
X100160348Y-81283753D01*
X100191050Y-81308950D01*
X100216247Y-81339652D01*
X100234972Y-81374683D01*
X100246502Y-81412692D01*
X100251000Y-81458362D01*
X100251000Y-84541638D01*
X100246502Y-84587308D01*
X100234972Y-84625317D01*
X100216247Y-84660348D01*
X100191050Y-84691050D01*
X100160348Y-84716247D01*
X100125317Y-84734972D01*
X100087308Y-84746502D01*
X100041638Y-84751000D01*
X99233362Y-84751000D01*
X99187692Y-84746502D01*
X99149683Y-84734972D01*
X99114652Y-84716247D01*
X99083950Y-84691050D01*
X99058753Y-84660348D01*
X99040028Y-84625317D01*
X99028498Y-84587308D01*
X99024000Y-84541638D01*
X99024000Y-81458362D01*
X99028498Y-81412692D01*
X99040028Y-81374683D01*
X99058753Y-81339652D01*
X99083950Y-81308950D01*
X99114652Y-81283753D01*
X99149683Y-81265028D01*
X99187692Y-81253498D01*
X99233362Y-81249000D01*
X100041638Y-81249000D01*
X100087308Y-81253498D01*
X100087308Y-81253498D01*
G37*
G36*
X95812308Y-81253498D02*
X95850317Y-81265028D01*
X95885348Y-81283753D01*
X95916050Y-81308950D01*
X95941247Y-81339652D01*
X95959972Y-81374683D01*
X95971502Y-81412692D01*
X95976000Y-81458362D01*
X95976000Y-84541638D01*
X95971502Y-84587308D01*
X95959972Y-84625317D01*
X95941247Y-84660348D01*
X95916050Y-84691050D01*
X95885348Y-84716247D01*
X95850317Y-84734972D01*
X95812308Y-84746502D01*
X95766638Y-84751000D01*
X94958362Y-84751000D01*
X94912692Y-84746502D01*
X94874683Y-84734972D01*
X94839652Y-84716247D01*
X94808950Y-84691050D01*
X94783753Y-84660348D01*
X94765028Y-84625317D01*
X94753498Y-84587308D01*
X94749000Y-84541638D01*
X94749000Y-81458362D01*
X94753498Y-81412692D01*
X94765028Y-81374683D01*
X94783753Y-81339652D01*
X94808950Y-81308950D01*
X94839652Y-81283753D01*
X94874683Y-81265028D01*
X94912692Y-81253498D01*
X94958362Y-81249000D01*
X95766638Y-81249000D01*
X95812308Y-81253498D01*
X95812308Y-81253498D01*
G37*
G36*
X131812308Y-81253498D02*
X131850317Y-81265028D01*
X131885348Y-81283753D01*
X131916050Y-81308950D01*
X131941247Y-81339652D01*
X131959972Y-81374683D01*
X131971502Y-81412692D01*
X131976000Y-81458362D01*
X131976000Y-84541638D01*
X131971502Y-84587308D01*
X131959972Y-84625317D01*
X131941247Y-84660348D01*
X131916050Y-84691050D01*
X131885348Y-84716247D01*
X131850317Y-84734972D01*
X131812308Y-84746502D01*
X131766638Y-84751000D01*
X130958362Y-84751000D01*
X130912692Y-84746502D01*
X130874683Y-84734972D01*
X130839652Y-84716247D01*
X130808950Y-84691050D01*
X130783753Y-84660348D01*
X130765028Y-84625317D01*
X130753498Y-84587308D01*
X130749000Y-84541638D01*
X130749000Y-81458362D01*
X130753498Y-81412692D01*
X130765028Y-81374683D01*
X130783753Y-81339652D01*
X130808950Y-81308950D01*
X130839652Y-81283753D01*
X130874683Y-81265028D01*
X130912692Y-81253498D01*
X130958362Y-81249000D01*
X131766638Y-81249000D01*
X131812308Y-81253498D01*
X131812308Y-81253498D01*
G37*
G36*
X136087308Y-81253498D02*
X136125317Y-81265028D01*
X136160348Y-81283753D01*
X136191050Y-81308950D01*
X136216247Y-81339652D01*
X136234972Y-81374683D01*
X136246502Y-81412692D01*
X136251000Y-81458362D01*
X136251000Y-84541638D01*
X136246502Y-84587308D01*
X136234972Y-84625317D01*
X136216247Y-84660348D01*
X136191050Y-84691050D01*
X136160348Y-84716247D01*
X136125317Y-84734972D01*
X136087308Y-84746502D01*
X136041638Y-84751000D01*
X135233362Y-84751000D01*
X135187692Y-84746502D01*
X135149683Y-84734972D01*
X135114652Y-84716247D01*
X135083950Y-84691050D01*
X135058753Y-84660348D01*
X135040028Y-84625317D01*
X135028498Y-84587308D01*
X135024000Y-84541638D01*
X135024000Y-81458362D01*
X135028498Y-81412692D01*
X135040028Y-81374683D01*
X135058753Y-81339652D01*
X135083950Y-81308950D01*
X135114652Y-81283753D01*
X135149683Y-81265028D01*
X135187692Y-81253498D01*
X135233362Y-81249000D01*
X136041638Y-81249000D01*
X136087308Y-81253498D01*
X136087308Y-81253498D01*
G37*
G36*
X112087308Y-81253498D02*
X112125317Y-81265028D01*
X112160348Y-81283753D01*
X112191050Y-81308950D01*
X112216247Y-81339652D01*
X112234972Y-81374683D01*
X112246502Y-81412692D01*
X112251000Y-81458362D01*
X112251000Y-84541638D01*
X112246502Y-84587308D01*
X112234972Y-84625317D01*
X112216247Y-84660348D01*
X112191050Y-84691050D01*
X112160348Y-84716247D01*
X112125317Y-84734972D01*
X112087308Y-84746502D01*
X112041638Y-84751000D01*
X111233362Y-84751000D01*
X111187692Y-84746502D01*
X111149683Y-84734972D01*
X111114652Y-84716247D01*
X111083950Y-84691050D01*
X111058753Y-84660348D01*
X111040028Y-84625317D01*
X111028498Y-84587308D01*
X111024000Y-84541638D01*
X111024000Y-81458362D01*
X111028498Y-81412692D01*
X111040028Y-81374683D01*
X111058753Y-81339652D01*
X111083950Y-81308950D01*
X111114652Y-81283753D01*
X111149683Y-81265028D01*
X111187692Y-81253498D01*
X111233362Y-81249000D01*
X112041638Y-81249000D01*
X112087308Y-81253498D01*
X112087308Y-81253498D01*
G37*
G36*
X107812308Y-81253498D02*
X107850317Y-81265028D01*
X107885348Y-81283753D01*
X107916050Y-81308950D01*
X107941247Y-81339652D01*
X107959972Y-81374683D01*
X107971502Y-81412692D01*
X107976000Y-81458362D01*
X107976000Y-84541638D01*
X107971502Y-84587308D01*
X107959972Y-84625317D01*
X107941247Y-84660348D01*
X107916050Y-84691050D01*
X107885348Y-84716247D01*
X107850317Y-84734972D01*
X107812308Y-84746502D01*
X107766638Y-84751000D01*
X106958362Y-84751000D01*
X106912692Y-84746502D01*
X106874683Y-84734972D01*
X106839652Y-84716247D01*
X106808950Y-84691050D01*
X106783753Y-84660348D01*
X106765028Y-84625317D01*
X106753498Y-84587308D01*
X106749000Y-84541638D01*
X106749000Y-81458362D01*
X106753498Y-81412692D01*
X106765028Y-81374683D01*
X106783753Y-81339652D01*
X106808950Y-81308950D01*
X106839652Y-81283753D01*
X106874683Y-81265028D01*
X106912692Y-81253498D01*
X106958362Y-81249000D01*
X107766638Y-81249000D01*
X107812308Y-81253498D01*
X107812308Y-81253498D01*
G37*
G36*
X143812308Y-81253498D02*
X143850317Y-81265028D01*
X143885348Y-81283753D01*
X143916050Y-81308950D01*
X143941247Y-81339652D01*
X143959972Y-81374683D01*
X143971502Y-81412692D01*
X143976000Y-81458362D01*
X143976000Y-84541638D01*
X143971502Y-84587308D01*
X143959972Y-84625317D01*
X143941247Y-84660348D01*
X143916050Y-84691050D01*
X143885348Y-84716247D01*
X143850317Y-84734972D01*
X143812308Y-84746502D01*
X143766638Y-84751000D01*
X142958362Y-84751000D01*
X142912692Y-84746502D01*
X142874683Y-84734972D01*
X142839652Y-84716247D01*
X142808950Y-84691050D01*
X142783753Y-84660348D01*
X142765028Y-84625317D01*
X142753498Y-84587308D01*
X142749000Y-84541638D01*
X142749000Y-81458362D01*
X142753498Y-81412692D01*
X142765028Y-81374683D01*
X142783753Y-81339652D01*
X142808950Y-81308950D01*
X142839652Y-81283753D01*
X142874683Y-81265028D01*
X142912692Y-81253498D01*
X142958362Y-81249000D01*
X143766638Y-81249000D01*
X143812308Y-81253498D01*
X143812308Y-81253498D01*
G37*
G36*
X119812308Y-81253498D02*
X119850317Y-81265028D01*
X119885348Y-81283753D01*
X119916050Y-81308950D01*
X119941247Y-81339652D01*
X119959972Y-81374683D01*
X119971502Y-81412692D01*
X119976000Y-81458362D01*
X119976000Y-84541638D01*
X119971502Y-84587308D01*
X119959972Y-84625317D01*
X119941247Y-84660348D01*
X119916050Y-84691050D01*
X119885348Y-84716247D01*
X119850317Y-84734972D01*
X119812308Y-84746502D01*
X119766638Y-84751000D01*
X118958362Y-84751000D01*
X118912692Y-84746502D01*
X118874683Y-84734972D01*
X118839652Y-84716247D01*
X118808950Y-84691050D01*
X118783753Y-84660348D01*
X118765028Y-84625317D01*
X118753498Y-84587308D01*
X118749000Y-84541638D01*
X118749000Y-81458362D01*
X118753498Y-81412692D01*
X118765028Y-81374683D01*
X118783753Y-81339652D01*
X118808950Y-81308950D01*
X118839652Y-81283753D01*
X118874683Y-81265028D01*
X118912692Y-81253498D01*
X118958362Y-81249000D01*
X119766638Y-81249000D01*
X119812308Y-81253498D01*
X119812308Y-81253498D01*
G37*
G36*
X223571454Y-70234909D02*
X223916143Y-70339469D01*
X224233803Y-70509263D01*
X224512235Y-70737765D01*
X224740737Y-71016197D01*
X224910531Y-71333857D01*
X225015091Y-71678546D01*
X225051000Y-72043140D01*
X225051000Y-75956860D01*
X225015091Y-76321454D01*
X224910531Y-76666143D01*
X224740737Y-76983803D01*
X224512235Y-77262235D01*
X224233803Y-77490737D01*
X223916143Y-77660531D01*
X223571454Y-77765091D01*
X223206860Y-77801000D01*
X214793140Y-77801000D01*
X214428546Y-77765091D01*
X214083857Y-77660531D01*
X213766197Y-77490737D01*
X213487765Y-77262235D01*
X213259263Y-76983803D01*
X213089469Y-76666143D01*
X212984909Y-76321454D01*
X212949000Y-75956860D01*
X212949000Y-72043140D01*
X212984909Y-71678546D01*
X213089469Y-71333857D01*
X213259263Y-71016197D01*
X213487765Y-70737765D01*
X213766197Y-70509263D01*
X214083857Y-70339469D01*
X214428546Y-70234909D01*
X214793140Y-70199000D01*
X223206860Y-70199000D01*
X223571454Y-70234909D01*
X223571454Y-70234909D01*
G37*
G36*
X25571454Y-70234909D02*
X25916143Y-70339469D01*
X26233803Y-70509263D01*
X26512235Y-70737765D01*
X26740737Y-71016197D01*
X26910531Y-71333857D01*
X27015091Y-71678546D01*
X27051000Y-72043140D01*
X27051000Y-75956860D01*
X27015091Y-76321454D01*
X26910531Y-76666143D01*
X26740737Y-76983803D01*
X26512235Y-77262235D01*
X26233803Y-77490737D01*
X25916143Y-77660531D01*
X25571454Y-77765091D01*
X25206860Y-77801000D01*
X16793140Y-77801000D01*
X16428546Y-77765091D01*
X16083857Y-77660531D01*
X15766197Y-77490737D01*
X15487765Y-77262235D01*
X15259263Y-76983803D01*
X15089469Y-76666143D01*
X14984909Y-76321454D01*
X14949000Y-75956860D01*
X14949000Y-72043140D01*
X14984909Y-71678546D01*
X15089469Y-71333857D01*
X15259263Y-71016197D01*
X15487765Y-70737765D01*
X15766197Y-70509263D01*
X16083857Y-70339469D01*
X16428546Y-70234909D01*
X16793140Y-70199000D01*
X25206860Y-70199000D01*
X25571454Y-70234909D01*
X25571454Y-70234909D01*
G37*
G36*
X46514941Y-36066248D02*
X46514943Y-36066249D01*
X46514944Y-36066249D01*
X47070190Y-36296239D01*
X47070191Y-36296240D01*
X47569902Y-36630136D01*
X47994864Y-37055098D01*
X47994866Y-37055101D01*
X48328761Y-37554810D01*
X48558751Y-38110056D01*
X48676000Y-38699503D01*
X48676000Y-39300497D01*
X48558751Y-39889944D01*
X48328761Y-40445190D01*
X48328760Y-40445191D01*
X47994864Y-40944902D01*
X47569902Y-41369864D01*
X47569899Y-41369866D01*
X47070190Y-41703761D01*
X46514944Y-41933751D01*
X46514943Y-41933751D01*
X46514941Y-41933752D01*
X45925499Y-42051000D01*
X45324501Y-42051000D01*
X44735059Y-41933752D01*
X44735057Y-41933751D01*
X44735056Y-41933751D01*
X44179810Y-41703761D01*
X43680101Y-41369866D01*
X43680098Y-41369864D01*
X43255136Y-40944902D01*
X42921240Y-40445191D01*
X42921239Y-40445190D01*
X42691249Y-39889944D01*
X42574000Y-39300497D01*
X42574000Y-38699503D01*
X42691249Y-38110056D01*
X42921239Y-37554810D01*
X43255134Y-37055101D01*
X43255136Y-37055098D01*
X43680098Y-36630136D01*
X44179809Y-36296240D01*
X44179810Y-36296239D01*
X44735056Y-36066249D01*
X44735057Y-36066249D01*
X44735059Y-36066248D01*
X45324501Y-35949000D01*
X45925499Y-35949000D01*
X46514941Y-36066248D01*
X46514941Y-36066248D01*
G37*
G36*
X197014941Y-36066248D02*
X197014943Y-36066249D01*
X197014944Y-36066249D01*
X197570190Y-36296239D01*
X197570191Y-36296240D01*
X198069902Y-36630136D01*
X198494864Y-37055098D01*
X198494866Y-37055101D01*
X198828761Y-37554810D01*
X199058751Y-38110056D01*
X199176000Y-38699503D01*
X199176000Y-39300497D01*
X199058751Y-39889944D01*
X198828761Y-40445190D01*
X198828760Y-40445191D01*
X198494864Y-40944902D01*
X198069902Y-41369864D01*
X198069899Y-41369866D01*
X197570190Y-41703761D01*
X197014944Y-41933751D01*
X197014943Y-41933751D01*
X197014941Y-41933752D01*
X196425499Y-42051000D01*
X195824501Y-42051000D01*
X195235059Y-41933752D01*
X195235057Y-41933751D01*
X195235056Y-41933751D01*
X194679810Y-41703761D01*
X194180101Y-41369866D01*
X194180098Y-41369864D01*
X193755136Y-40944902D01*
X193421240Y-40445191D01*
X193421239Y-40445190D01*
X193191249Y-39889944D01*
X193074000Y-39300497D01*
X193074000Y-38699503D01*
X193191249Y-38110056D01*
X193421239Y-37554810D01*
X193755134Y-37055101D01*
X193755136Y-37055098D01*
X194180098Y-36630136D01*
X194679809Y-36296240D01*
X194679810Y-36296239D01*
X195235056Y-36066249D01*
X195235057Y-36066249D01*
X195235059Y-36066248D01*
X195824501Y-35949000D01*
X196425499Y-35949000D01*
X197014941Y-36066248D01*
X197014941Y-36066248D01*
G37*
G36*
X137321454Y-14984909D02*
X137666143Y-15089469D01*
X137983803Y-15259263D01*
X138262235Y-15487765D01*
X138490737Y-15766197D01*
X138660531Y-16083857D01*
X138765091Y-16428546D01*
X138801000Y-16793140D01*
X138801000Y-25206860D01*
X138765091Y-25571454D01*
X138660531Y-25916143D01*
X138490737Y-26233803D01*
X138262235Y-26512235D01*
X137983803Y-26740737D01*
X137666143Y-26910531D01*
X137321454Y-27015091D01*
X136956860Y-27051000D01*
X133043140Y-27051000D01*
X132678546Y-27015091D01*
X132333857Y-26910531D01*
X132016197Y-26740737D01*
X131737765Y-26512235D01*
X131509263Y-26233803D01*
X131339469Y-25916143D01*
X131234909Y-25571454D01*
X131199000Y-25206860D01*
X131199000Y-16793140D01*
X131234909Y-16428546D01*
X131339469Y-16083857D01*
X131509263Y-15766197D01*
X131737765Y-15487765D01*
X132016197Y-15259263D01*
X132333857Y-15089469D01*
X132678546Y-14984909D01*
X133043140Y-14949000D01*
X136956860Y-14949000D01*
X137321454Y-14984909D01*
X137321454Y-14984909D01*
G37*
G36*
X107321454Y-14984909D02*
X107666143Y-15089469D01*
X107983803Y-15259263D01*
X108262235Y-15487765D01*
X108490737Y-15766197D01*
X108660531Y-16083857D01*
X108765091Y-16428546D01*
X108801000Y-16793140D01*
X108801000Y-25206860D01*
X108765091Y-25571454D01*
X108660531Y-25916143D01*
X108490737Y-26233803D01*
X108262235Y-26512235D01*
X107983803Y-26740737D01*
X107666143Y-26910531D01*
X107321454Y-27015091D01*
X106956860Y-27051000D01*
X103043140Y-27051000D01*
X102678546Y-27015091D01*
X102333857Y-26910531D01*
X102016197Y-26740737D01*
X101737765Y-26512235D01*
X101509263Y-26233803D01*
X101339469Y-25916143D01*
X101234909Y-25571454D01*
X101199000Y-25206860D01*
X101199000Y-16793140D01*
X101234909Y-16428546D01*
X101339469Y-16083857D01*
X101509263Y-15766197D01*
X101737765Y-15487765D01*
X102016197Y-15259263D01*
X102333857Y-15089469D01*
X102678546Y-14984909D01*
X103043140Y-14949000D01*
X106956860Y-14949000D01*
X107321454Y-14984909D01*
X107321454Y-14984909D01*
G37*
M02*
