G04 #@! TF.GenerationSoftware,KiCad,Pcbnew,6.0.0-d3dd2cf0fa~116~ubuntu20.04.1*
G04 #@! TF.CreationDate,2022-01-09T22:40:41+01:00*
G04 #@! TF.ProjectId,Statikplatte,53746174-696b-4706-9c61-7474652e6b69,rev?*
G04 #@! TF.SameCoordinates,Original*
G04 #@! TF.FileFunction,Copper,L1,Top*
G04 #@! TF.FilePolarity,Positive*
%FSLAX46Y46*%
G04 Gerber Fmt 4.6, Leading zero omitted, Abs format (unit mm)*
G04 Created by KiCad (PCBNEW 6.0.0-d3dd2cf0fa~116~ubuntu20.04.1) date 2022-01-09 22:40:41*
%MOMM*%
%LPD*%
G01*
G04 APERTURE LIST*
G04 #@! TA.AperFunction,Profile*
%ADD10C,0.150000*%
G04 #@! TD*
G04 #@! TA.AperFunction,ComponentPad*
%ADD11O,0.900000X0.900000*%
G04 #@! TD*
G04 #@! TA.AperFunction,ViaPad*
%ADD12C,0.600000*%
G04 #@! TD*
G04 APERTURE END LIST*
D10*
X15000000Y-15000000D02*
X225000000Y-15000000D01*
X225000000Y-15000000D02*
X225000000Y-163000000D01*
X15000000Y-163000000D02*
X225000000Y-163000000D01*
X15000000Y-15000000D02*
X15000000Y-163000000D01*
D11*
X45625000Y-39000000D03*
X196125000Y-139000000D03*
X196125000Y-39000000D03*
X45625000Y-139000000D03*
D12*
X134880000Y-162100000D03*
X134890000Y-21060000D03*
X105110000Y-15910000D03*
X105120000Y-156250000D03*
G04 #@! TA.AperFunction,Conductor*
G36*
X224212172Y-15502421D02*
G01*
X224290225Y-15517947D01*
X224335642Y-15536759D01*
X224391295Y-15573945D01*
X224426055Y-15608705D01*
X224463241Y-15664358D01*
X224482054Y-15709777D01*
X224497579Y-15787829D01*
X224500000Y-15812410D01*
X224500000Y-160687590D01*
X224497579Y-160712171D01*
X224482054Y-160790223D01*
X224463241Y-160835642D01*
X224426056Y-160891294D01*
X224391295Y-160926055D01*
X224335642Y-160963241D01*
X224290225Y-160982053D01*
X224221876Y-160995649D01*
X224212171Y-160997579D01*
X224187590Y-161000000D01*
X224062410Y-161000000D01*
X224037829Y-160997579D01*
X224028124Y-160995649D01*
X223959775Y-160982053D01*
X223914358Y-160963241D01*
X223858705Y-160926055D01*
X223823944Y-160891294D01*
X223786759Y-160835642D01*
X223767946Y-160790223D01*
X223752421Y-160712171D01*
X223750000Y-160687590D01*
X223750000Y-16250000D01*
X221000000Y-16250000D01*
X221000000Y-160687590D01*
X220997579Y-160712171D01*
X220982054Y-160790223D01*
X220963241Y-160835642D01*
X220926056Y-160891294D01*
X220891295Y-160926055D01*
X220835642Y-160963241D01*
X220790225Y-160982053D01*
X220721876Y-160995649D01*
X220712171Y-160997579D01*
X220687590Y-161000000D01*
X220562410Y-161000000D01*
X220537829Y-160997579D01*
X220528124Y-160995649D01*
X220459775Y-160982053D01*
X220414358Y-160963241D01*
X220358705Y-160926055D01*
X220323944Y-160891294D01*
X220286759Y-160835642D01*
X220267946Y-160790223D01*
X220252421Y-160712171D01*
X220250000Y-160687590D01*
X220250000Y-16250000D01*
X217500000Y-16250000D01*
X217500000Y-160687590D01*
X217497579Y-160712171D01*
X217482054Y-160790223D01*
X217463241Y-160835642D01*
X217426056Y-160891294D01*
X217391295Y-160926055D01*
X217335642Y-160963241D01*
X217290225Y-160982053D01*
X217221876Y-160995649D01*
X217212171Y-160997579D01*
X217187590Y-161000000D01*
X217062410Y-161000000D01*
X217037829Y-160997579D01*
X217028124Y-160995649D01*
X216959775Y-160982053D01*
X216914358Y-160963241D01*
X216858705Y-160926055D01*
X216823944Y-160891294D01*
X216786759Y-160835642D01*
X216767946Y-160790223D01*
X216752421Y-160712171D01*
X216750000Y-160687590D01*
X216750000Y-16250000D01*
X214000000Y-16250000D01*
X214000000Y-160687590D01*
X213997579Y-160712171D01*
X213982054Y-160790223D01*
X213963241Y-160835642D01*
X213926056Y-160891294D01*
X213891295Y-160926055D01*
X213835642Y-160963241D01*
X213790225Y-160982053D01*
X213721876Y-160995649D01*
X213712171Y-160997579D01*
X213687590Y-161000000D01*
X213562410Y-161000000D01*
X213537829Y-160997579D01*
X213528124Y-160995649D01*
X213459775Y-160982053D01*
X213414358Y-160963241D01*
X213358705Y-160926055D01*
X213323944Y-160891294D01*
X213286759Y-160835642D01*
X213267946Y-160790223D01*
X213252421Y-160712171D01*
X213250000Y-160687590D01*
X213250000Y-16250000D01*
X210500000Y-16250000D01*
X210500000Y-160687590D01*
X210497579Y-160712171D01*
X210482054Y-160790223D01*
X210463241Y-160835642D01*
X210426056Y-160891294D01*
X210391295Y-160926055D01*
X210335642Y-160963241D01*
X210290225Y-160982053D01*
X210221876Y-160995649D01*
X210212171Y-160997579D01*
X210187590Y-161000000D01*
X210062410Y-161000000D01*
X210037829Y-160997579D01*
X210028124Y-160995649D01*
X209959775Y-160982053D01*
X209914358Y-160963241D01*
X209858705Y-160926055D01*
X209823944Y-160891294D01*
X209786759Y-160835642D01*
X209767946Y-160790223D01*
X209752421Y-160712171D01*
X209750000Y-160687590D01*
X209750000Y-16250000D01*
X207000000Y-16250000D01*
X207000000Y-160687590D01*
X206997579Y-160712171D01*
X206982054Y-160790223D01*
X206963241Y-160835642D01*
X206926056Y-160891294D01*
X206891295Y-160926055D01*
X206835642Y-160963241D01*
X206790225Y-160982053D01*
X206721876Y-160995649D01*
X206712171Y-160997579D01*
X206687590Y-161000000D01*
X206562410Y-161000000D01*
X206537829Y-160997579D01*
X206528124Y-160995649D01*
X206459775Y-160982053D01*
X206414358Y-160963241D01*
X206358705Y-160926055D01*
X206323944Y-160891294D01*
X206286759Y-160835642D01*
X206267946Y-160790223D01*
X206252421Y-160712171D01*
X206250000Y-160687590D01*
X206250000Y-16250000D01*
X203500000Y-16250000D01*
X203500000Y-160687590D01*
X203497579Y-160712171D01*
X203482054Y-160790223D01*
X203463241Y-160835642D01*
X203426056Y-160891294D01*
X203391295Y-160926055D01*
X203335642Y-160963241D01*
X203290225Y-160982053D01*
X203221876Y-160995649D01*
X203212171Y-160997579D01*
X203187590Y-161000000D01*
X203062410Y-161000000D01*
X203037829Y-160997579D01*
X203028124Y-160995649D01*
X202959775Y-160982053D01*
X202914358Y-160963241D01*
X202858705Y-160926055D01*
X202823944Y-160891294D01*
X202786759Y-160835642D01*
X202767946Y-160790223D01*
X202752421Y-160712171D01*
X202750000Y-160687590D01*
X202750000Y-16250000D01*
X200000000Y-16250000D01*
X200000000Y-160687590D01*
X199997579Y-160712171D01*
X199982054Y-160790223D01*
X199963241Y-160835642D01*
X199926056Y-160891294D01*
X199891295Y-160926055D01*
X199835642Y-160963241D01*
X199790225Y-160982053D01*
X199721876Y-160995649D01*
X199712171Y-160997579D01*
X199687590Y-161000000D01*
X199562410Y-161000000D01*
X199537829Y-160997579D01*
X199528124Y-160995649D01*
X199459775Y-160982053D01*
X199414358Y-160963241D01*
X199358705Y-160926055D01*
X199323944Y-160891294D01*
X199286759Y-160835642D01*
X199267946Y-160790223D01*
X199252421Y-160712171D01*
X199250000Y-160687590D01*
X199250000Y-16250000D01*
X196500000Y-16250000D01*
X196500000Y-160687590D01*
X196497579Y-160712171D01*
X196482054Y-160790223D01*
X196463241Y-160835642D01*
X196426056Y-160891294D01*
X196391295Y-160926055D01*
X196335642Y-160963241D01*
X196290225Y-160982053D01*
X196221876Y-160995649D01*
X196212171Y-160997579D01*
X196187590Y-161000000D01*
X196062410Y-161000000D01*
X196037829Y-160997579D01*
X196028124Y-160995649D01*
X195959775Y-160982053D01*
X195914358Y-160963241D01*
X195858705Y-160926055D01*
X195823944Y-160891294D01*
X195786759Y-160835642D01*
X195767946Y-160790223D01*
X195752421Y-160712171D01*
X195750000Y-160687590D01*
X195750000Y-16250000D01*
X193000000Y-16250000D01*
X193000000Y-160687590D01*
X192997579Y-160712171D01*
X192982054Y-160790223D01*
X192963241Y-160835642D01*
X192926056Y-160891294D01*
X192891295Y-160926055D01*
X192835642Y-160963241D01*
X192790225Y-160982053D01*
X192721876Y-160995649D01*
X192712171Y-160997579D01*
X192687590Y-161000000D01*
X192562410Y-161000000D01*
X192537829Y-160997579D01*
X192528124Y-160995649D01*
X192459775Y-160982053D01*
X192414358Y-160963241D01*
X192358705Y-160926055D01*
X192323944Y-160891294D01*
X192286759Y-160835642D01*
X192267946Y-160790223D01*
X192252421Y-160712171D01*
X192250000Y-160687590D01*
X192250000Y-16250000D01*
X189500000Y-16250000D01*
X189500000Y-160687590D01*
X189497579Y-160712171D01*
X189482054Y-160790223D01*
X189463241Y-160835642D01*
X189426056Y-160891294D01*
X189391295Y-160926055D01*
X189335642Y-160963241D01*
X189290225Y-160982053D01*
X189221876Y-160995649D01*
X189212171Y-160997579D01*
X189187590Y-161000000D01*
X189062410Y-161000000D01*
X189037829Y-160997579D01*
X189028124Y-160995649D01*
X188959775Y-160982053D01*
X188914358Y-160963241D01*
X188858705Y-160926055D01*
X188823944Y-160891294D01*
X188786759Y-160835642D01*
X188767946Y-160790223D01*
X188752421Y-160712171D01*
X188750000Y-160687590D01*
X188750000Y-16250000D01*
X186000000Y-16250000D01*
X186000000Y-160687590D01*
X185997579Y-160712171D01*
X185982054Y-160790223D01*
X185963241Y-160835642D01*
X185926056Y-160891294D01*
X185891295Y-160926055D01*
X185835642Y-160963241D01*
X185790225Y-160982053D01*
X185721876Y-160995649D01*
X185712171Y-160997579D01*
X185687590Y-161000000D01*
X185562410Y-161000000D01*
X185537829Y-160997579D01*
X185528124Y-160995649D01*
X185459775Y-160982053D01*
X185414358Y-160963241D01*
X185358705Y-160926055D01*
X185323944Y-160891294D01*
X185286759Y-160835642D01*
X185267946Y-160790223D01*
X185252421Y-160712171D01*
X185250000Y-160687590D01*
X185250000Y-16250000D01*
X182500000Y-16250000D01*
X182500000Y-160687590D01*
X182497579Y-160712171D01*
X182482054Y-160790223D01*
X182463241Y-160835642D01*
X182426056Y-160891294D01*
X182391295Y-160926055D01*
X182335642Y-160963241D01*
X182290225Y-160982053D01*
X182221876Y-160995649D01*
X182212171Y-160997579D01*
X182187590Y-161000000D01*
X182062410Y-161000000D01*
X182037829Y-160997579D01*
X182028124Y-160995649D01*
X181959775Y-160982053D01*
X181914358Y-160963241D01*
X181858705Y-160926055D01*
X181823944Y-160891294D01*
X181786759Y-160835642D01*
X181767946Y-160790223D01*
X181752421Y-160712171D01*
X181750000Y-160687590D01*
X181750000Y-16250000D01*
X179000000Y-16250000D01*
X179000000Y-160687590D01*
X178997579Y-160712171D01*
X178982054Y-160790223D01*
X178963241Y-160835642D01*
X178926056Y-160891294D01*
X178891295Y-160926055D01*
X178835642Y-160963241D01*
X178790225Y-160982053D01*
X178721876Y-160995649D01*
X178712171Y-160997579D01*
X178687590Y-161000000D01*
X178562410Y-161000000D01*
X178537829Y-160997579D01*
X178528124Y-160995649D01*
X178459775Y-160982053D01*
X178414358Y-160963241D01*
X178358705Y-160926055D01*
X178323944Y-160891294D01*
X178286759Y-160835642D01*
X178267946Y-160790223D01*
X178252421Y-160712171D01*
X178250000Y-160687590D01*
X178250000Y-16250000D01*
X175500000Y-16250000D01*
X175500000Y-160687590D01*
X175497579Y-160712171D01*
X175482054Y-160790223D01*
X175463241Y-160835642D01*
X175426056Y-160891294D01*
X175391295Y-160926055D01*
X175335642Y-160963241D01*
X175290225Y-160982053D01*
X175221876Y-160995649D01*
X175212171Y-160997579D01*
X175187590Y-161000000D01*
X175062410Y-161000000D01*
X175037829Y-160997579D01*
X175028124Y-160995649D01*
X174959775Y-160982053D01*
X174914358Y-160963241D01*
X174858705Y-160926055D01*
X174823944Y-160891294D01*
X174786759Y-160835642D01*
X174767946Y-160790223D01*
X174752421Y-160712171D01*
X174750000Y-160687590D01*
X174750000Y-16250000D01*
X172000000Y-16250000D01*
X172000000Y-160687590D01*
X171997579Y-160712171D01*
X171982054Y-160790223D01*
X171963241Y-160835642D01*
X171926056Y-160891294D01*
X171891295Y-160926055D01*
X171835642Y-160963241D01*
X171790225Y-160982053D01*
X171721876Y-160995649D01*
X171712171Y-160997579D01*
X171687590Y-161000000D01*
X171562410Y-161000000D01*
X171537829Y-160997579D01*
X171528124Y-160995649D01*
X171459775Y-160982053D01*
X171414358Y-160963241D01*
X171358705Y-160926055D01*
X171323944Y-160891294D01*
X171286759Y-160835642D01*
X171267946Y-160790223D01*
X171252421Y-160712171D01*
X171250000Y-160687590D01*
X171250000Y-16250000D01*
X168500000Y-16250000D01*
X168500000Y-160687590D01*
X168497579Y-160712171D01*
X168482054Y-160790223D01*
X168463241Y-160835642D01*
X168426056Y-160891294D01*
X168391295Y-160926055D01*
X168335642Y-160963241D01*
X168290225Y-160982053D01*
X168221876Y-160995649D01*
X168212171Y-160997579D01*
X168187590Y-161000000D01*
X168062410Y-161000000D01*
X168037829Y-160997579D01*
X168028124Y-160995649D01*
X167959775Y-160982053D01*
X167914358Y-160963241D01*
X167858705Y-160926055D01*
X167823944Y-160891294D01*
X167786759Y-160835642D01*
X167767946Y-160790223D01*
X167752421Y-160712171D01*
X167750000Y-160687590D01*
X167750000Y-16250000D01*
X165000000Y-16250000D01*
X165000000Y-160687590D01*
X164997579Y-160712171D01*
X164982054Y-160790223D01*
X164963241Y-160835642D01*
X164926056Y-160891294D01*
X164891295Y-160926055D01*
X164835642Y-160963241D01*
X164790225Y-160982053D01*
X164721876Y-160995649D01*
X164712171Y-160997579D01*
X164687590Y-161000000D01*
X164562410Y-161000000D01*
X164537829Y-160997579D01*
X164528124Y-160995649D01*
X164459775Y-160982053D01*
X164414358Y-160963241D01*
X164358705Y-160926055D01*
X164323944Y-160891294D01*
X164286759Y-160835642D01*
X164267946Y-160790223D01*
X164252421Y-160712171D01*
X164250000Y-160687590D01*
X164250000Y-16250000D01*
X161500000Y-16250000D01*
X161500000Y-160687590D01*
X161497579Y-160712171D01*
X161482054Y-160790223D01*
X161463241Y-160835642D01*
X161426056Y-160891294D01*
X161391295Y-160926055D01*
X161335642Y-160963241D01*
X161290225Y-160982053D01*
X161221876Y-160995649D01*
X161212171Y-160997579D01*
X161187590Y-161000000D01*
X161062410Y-161000000D01*
X161037829Y-160997579D01*
X161028124Y-160995649D01*
X160959775Y-160982053D01*
X160914358Y-160963241D01*
X160858705Y-160926055D01*
X160823944Y-160891294D01*
X160786759Y-160835642D01*
X160767946Y-160790223D01*
X160752421Y-160712171D01*
X160750000Y-160687590D01*
X160750000Y-16250000D01*
X158000000Y-16250000D01*
X158000000Y-160687590D01*
X157997579Y-160712171D01*
X157982054Y-160790223D01*
X157963241Y-160835642D01*
X157926056Y-160891294D01*
X157891295Y-160926055D01*
X157835642Y-160963241D01*
X157790225Y-160982053D01*
X157721876Y-160995649D01*
X157712171Y-160997579D01*
X157687590Y-161000000D01*
X157562410Y-161000000D01*
X157537829Y-160997579D01*
X157528124Y-160995649D01*
X157459775Y-160982053D01*
X157414358Y-160963241D01*
X157358705Y-160926055D01*
X157323944Y-160891294D01*
X157286759Y-160835642D01*
X157267946Y-160790223D01*
X157252421Y-160712171D01*
X157250000Y-160687590D01*
X157250000Y-16250000D01*
X154500000Y-16250000D01*
X154500000Y-160687590D01*
X154497579Y-160712171D01*
X154482054Y-160790223D01*
X154463241Y-160835642D01*
X154426056Y-160891294D01*
X154391295Y-160926055D01*
X154335642Y-160963241D01*
X154290225Y-160982053D01*
X154221876Y-160995649D01*
X154212171Y-160997579D01*
X154187590Y-161000000D01*
X154062410Y-161000000D01*
X154037829Y-160997579D01*
X154028124Y-160995649D01*
X153959775Y-160982053D01*
X153914358Y-160963241D01*
X153858705Y-160926055D01*
X153823944Y-160891294D01*
X153786759Y-160835642D01*
X153767946Y-160790223D01*
X153752421Y-160712171D01*
X153750000Y-160687590D01*
X153750000Y-16250000D01*
X151000000Y-16250000D01*
X151000000Y-160687590D01*
X150997579Y-160712171D01*
X150982054Y-160790223D01*
X150963241Y-160835642D01*
X150926056Y-160891294D01*
X150891295Y-160926055D01*
X150835642Y-160963241D01*
X150790225Y-160982053D01*
X150721876Y-160995649D01*
X150712171Y-160997579D01*
X150687590Y-161000000D01*
X150562410Y-161000000D01*
X150537829Y-160997579D01*
X150528124Y-160995649D01*
X150459775Y-160982053D01*
X150414358Y-160963241D01*
X150358705Y-160926055D01*
X150323944Y-160891294D01*
X150286759Y-160835642D01*
X150267946Y-160790223D01*
X150252421Y-160712171D01*
X150250000Y-160687590D01*
X150250000Y-16250000D01*
X147500000Y-16250000D01*
X147500000Y-160687590D01*
X147497579Y-160712171D01*
X147482054Y-160790223D01*
X147463241Y-160835642D01*
X147426056Y-160891294D01*
X147391295Y-160926055D01*
X147335642Y-160963241D01*
X147290225Y-160982053D01*
X147221876Y-160995649D01*
X147212171Y-160997579D01*
X147187590Y-161000000D01*
X147062410Y-161000000D01*
X147037829Y-160997579D01*
X147028124Y-160995649D01*
X146959775Y-160982053D01*
X146914358Y-160963241D01*
X146858705Y-160926055D01*
X146823944Y-160891294D01*
X146786759Y-160835642D01*
X146767946Y-160790223D01*
X146752421Y-160712171D01*
X146750000Y-160687590D01*
X146750000Y-16250000D01*
X144000000Y-16250000D01*
X144000000Y-160687590D01*
X143997579Y-160712171D01*
X143982054Y-160790223D01*
X143963241Y-160835642D01*
X143926056Y-160891294D01*
X143891295Y-160926055D01*
X143835642Y-160963241D01*
X143790225Y-160982053D01*
X143721876Y-160995649D01*
X143712171Y-160997579D01*
X143687590Y-161000000D01*
X143562410Y-161000000D01*
X143537829Y-160997579D01*
X143528124Y-160995649D01*
X143459775Y-160982053D01*
X143414358Y-160963241D01*
X143358705Y-160926055D01*
X143323944Y-160891294D01*
X143286759Y-160835642D01*
X143267946Y-160790223D01*
X143252421Y-160712171D01*
X143250000Y-160687590D01*
X143250000Y-16250000D01*
X140500000Y-16250000D01*
X140500000Y-160687590D01*
X140497579Y-160712171D01*
X140482054Y-160790223D01*
X140463241Y-160835642D01*
X140426056Y-160891294D01*
X140391295Y-160926055D01*
X140335642Y-160963241D01*
X140290225Y-160982053D01*
X140221876Y-160995649D01*
X140212171Y-160997579D01*
X140187590Y-161000000D01*
X140062410Y-161000000D01*
X140037829Y-160997579D01*
X140028124Y-160995649D01*
X139959775Y-160982053D01*
X139914358Y-160963241D01*
X139858705Y-160926055D01*
X139823944Y-160891294D01*
X139786759Y-160835642D01*
X139767946Y-160790223D01*
X139752421Y-160712171D01*
X139750000Y-160687590D01*
X139750000Y-16250000D01*
X137000000Y-16250000D01*
X137000000Y-160687590D01*
X136997579Y-160712171D01*
X136982054Y-160790223D01*
X136963241Y-160835642D01*
X136926056Y-160891294D01*
X136891295Y-160926055D01*
X136835642Y-160963241D01*
X136790225Y-160982053D01*
X136721876Y-160995649D01*
X136712171Y-160997579D01*
X136687590Y-161000000D01*
X136562410Y-161000000D01*
X136537829Y-160997579D01*
X136528124Y-160995649D01*
X136459775Y-160982053D01*
X136414358Y-160963241D01*
X136358705Y-160926055D01*
X136323944Y-160891294D01*
X136286759Y-160835642D01*
X136267946Y-160790223D01*
X136252421Y-160712171D01*
X136250000Y-160687590D01*
X136250000Y-16250000D01*
X133500000Y-16250000D01*
X133500000Y-160687590D01*
X133497579Y-160712171D01*
X133482054Y-160790223D01*
X133463241Y-160835642D01*
X133426056Y-160891294D01*
X133391295Y-160926055D01*
X133335642Y-160963241D01*
X133290225Y-160982053D01*
X133221876Y-160995649D01*
X133212171Y-160997579D01*
X133187590Y-161000000D01*
X133062410Y-161000000D01*
X133037829Y-160997579D01*
X133028124Y-160995649D01*
X132959775Y-160982053D01*
X132914358Y-160963241D01*
X132858705Y-160926055D01*
X132823944Y-160891294D01*
X132786759Y-160835642D01*
X132767946Y-160790223D01*
X132752421Y-160712171D01*
X132750000Y-160687590D01*
X132750000Y-16250000D01*
X130000000Y-16250000D01*
X130000000Y-160687590D01*
X129997579Y-160712171D01*
X129982054Y-160790223D01*
X129963241Y-160835642D01*
X129926056Y-160891294D01*
X129891295Y-160926055D01*
X129835642Y-160963241D01*
X129790225Y-160982053D01*
X129721876Y-160995649D01*
X129712171Y-160997579D01*
X129687590Y-161000000D01*
X129562410Y-161000000D01*
X129537829Y-160997579D01*
X129528124Y-160995649D01*
X129459775Y-160982053D01*
X129414358Y-160963241D01*
X129358705Y-160926055D01*
X129323944Y-160891294D01*
X129286759Y-160835642D01*
X129267946Y-160790223D01*
X129252421Y-160712171D01*
X129250000Y-160687590D01*
X129250000Y-16250000D01*
X126500000Y-16250000D01*
X126500000Y-160687590D01*
X126497579Y-160712171D01*
X126482054Y-160790223D01*
X126463241Y-160835642D01*
X126426056Y-160891294D01*
X126391295Y-160926055D01*
X126335642Y-160963241D01*
X126290225Y-160982053D01*
X126221876Y-160995649D01*
X126212171Y-160997579D01*
X126187590Y-161000000D01*
X126062410Y-161000000D01*
X126037829Y-160997579D01*
X126028124Y-160995649D01*
X125959775Y-160982053D01*
X125914358Y-160963241D01*
X125858705Y-160926055D01*
X125823944Y-160891294D01*
X125786759Y-160835642D01*
X125767946Y-160790223D01*
X125752421Y-160712171D01*
X125750000Y-160687590D01*
X125750000Y-16250000D01*
X123000000Y-16250000D01*
X123000000Y-160687590D01*
X122997579Y-160712171D01*
X122982054Y-160790223D01*
X122963241Y-160835642D01*
X122926056Y-160891294D01*
X122891295Y-160926055D01*
X122835642Y-160963241D01*
X122790225Y-160982053D01*
X122721876Y-160995649D01*
X122712171Y-160997579D01*
X122687590Y-161000000D01*
X122562410Y-161000000D01*
X122537829Y-160997579D01*
X122528124Y-160995649D01*
X122459775Y-160982053D01*
X122414358Y-160963241D01*
X122358705Y-160926055D01*
X122323944Y-160891294D01*
X122286759Y-160835642D01*
X122267946Y-160790223D01*
X122252421Y-160712171D01*
X122250000Y-160687590D01*
X122250000Y-16250000D01*
X119500000Y-16250000D01*
X119500000Y-160687590D01*
X119497579Y-160712171D01*
X119482054Y-160790223D01*
X119463241Y-160835642D01*
X119426056Y-160891294D01*
X119391295Y-160926055D01*
X119335642Y-160963241D01*
X119290225Y-160982053D01*
X119221876Y-160995649D01*
X119212171Y-160997579D01*
X119187590Y-161000000D01*
X119062410Y-161000000D01*
X119037829Y-160997579D01*
X119028124Y-160995649D01*
X118959775Y-160982053D01*
X118914358Y-160963241D01*
X118858705Y-160926055D01*
X118823944Y-160891294D01*
X118786759Y-160835642D01*
X118767946Y-160790223D01*
X118752421Y-160712171D01*
X118750000Y-160687590D01*
X118750000Y-16250000D01*
X116000000Y-16250000D01*
X116000000Y-160687590D01*
X115997579Y-160712171D01*
X115982054Y-160790223D01*
X115963241Y-160835642D01*
X115926056Y-160891294D01*
X115891295Y-160926055D01*
X115835642Y-160963241D01*
X115790225Y-160982053D01*
X115721876Y-160995649D01*
X115712171Y-160997579D01*
X115687590Y-161000000D01*
X115562410Y-161000000D01*
X115537829Y-160997579D01*
X115528124Y-160995649D01*
X115459775Y-160982053D01*
X115414358Y-160963241D01*
X115358705Y-160926055D01*
X115323944Y-160891294D01*
X115286759Y-160835642D01*
X115267946Y-160790223D01*
X115252421Y-160712171D01*
X115250000Y-160687590D01*
X115250000Y-16250000D01*
X112500000Y-16250000D01*
X112500000Y-160687590D01*
X112497579Y-160712171D01*
X112482054Y-160790223D01*
X112463241Y-160835642D01*
X112426056Y-160891294D01*
X112391295Y-160926055D01*
X112335642Y-160963241D01*
X112290225Y-160982053D01*
X112221876Y-160995649D01*
X112212171Y-160997579D01*
X112187590Y-161000000D01*
X112062410Y-161000000D01*
X112037829Y-160997579D01*
X112028124Y-160995649D01*
X111959775Y-160982053D01*
X111914358Y-160963241D01*
X111858705Y-160926055D01*
X111823944Y-160891294D01*
X111786759Y-160835642D01*
X111767946Y-160790223D01*
X111752421Y-160712171D01*
X111750000Y-160687590D01*
X111750000Y-16250000D01*
X109000000Y-16250000D01*
X109000000Y-160687590D01*
X108997579Y-160712171D01*
X108982054Y-160790223D01*
X108963241Y-160835642D01*
X108926056Y-160891294D01*
X108891295Y-160926055D01*
X108835642Y-160963241D01*
X108790225Y-160982053D01*
X108721876Y-160995649D01*
X108712171Y-160997579D01*
X108687590Y-161000000D01*
X108562410Y-161000000D01*
X108537829Y-160997579D01*
X108528124Y-160995649D01*
X108459775Y-160982053D01*
X108414358Y-160963241D01*
X108358705Y-160926055D01*
X108323944Y-160891294D01*
X108286759Y-160835642D01*
X108267946Y-160790223D01*
X108252421Y-160712171D01*
X108250000Y-160687590D01*
X108250000Y-16250000D01*
X105500000Y-16250000D01*
X105500000Y-160687590D01*
X105497579Y-160712171D01*
X105482054Y-160790223D01*
X105463241Y-160835642D01*
X105426056Y-160891294D01*
X105391295Y-160926055D01*
X105335642Y-160963241D01*
X105290225Y-160982053D01*
X105221876Y-160995649D01*
X105212171Y-160997579D01*
X105187590Y-161000000D01*
X105062410Y-161000000D01*
X105037829Y-160997579D01*
X105028124Y-160995649D01*
X104959775Y-160982053D01*
X104914358Y-160963241D01*
X104858705Y-160926055D01*
X104823944Y-160891294D01*
X104786759Y-160835642D01*
X104767946Y-160790223D01*
X104752421Y-160712171D01*
X104750000Y-160687590D01*
X104750000Y-16250000D01*
X102000000Y-16250000D01*
X102000000Y-160687590D01*
X101997579Y-160712171D01*
X101982054Y-160790223D01*
X101963241Y-160835642D01*
X101926056Y-160891294D01*
X101891295Y-160926055D01*
X101835642Y-160963241D01*
X101790225Y-160982053D01*
X101721876Y-160995649D01*
X101712171Y-160997579D01*
X101687590Y-161000000D01*
X101562410Y-161000000D01*
X101537829Y-160997579D01*
X101528124Y-160995649D01*
X101459775Y-160982053D01*
X101414358Y-160963241D01*
X101358705Y-160926055D01*
X101323944Y-160891294D01*
X101286759Y-160835642D01*
X101267946Y-160790223D01*
X101252421Y-160712171D01*
X101250000Y-160687590D01*
X101250000Y-16250000D01*
X98500000Y-16250000D01*
X98500000Y-160687590D01*
X98497579Y-160712171D01*
X98482054Y-160790223D01*
X98463241Y-160835642D01*
X98426056Y-160891294D01*
X98391295Y-160926055D01*
X98335642Y-160963241D01*
X98290225Y-160982053D01*
X98221876Y-160995649D01*
X98212171Y-160997579D01*
X98187590Y-161000000D01*
X98062410Y-161000000D01*
X98037829Y-160997579D01*
X98028124Y-160995649D01*
X97959775Y-160982053D01*
X97914358Y-160963241D01*
X97858705Y-160926055D01*
X97823944Y-160891294D01*
X97786759Y-160835642D01*
X97767946Y-160790223D01*
X97752421Y-160712171D01*
X97750000Y-160687590D01*
X97750000Y-16250000D01*
X95000000Y-16250000D01*
X95000000Y-160687590D01*
X94997579Y-160712171D01*
X94982054Y-160790223D01*
X94963241Y-160835642D01*
X94926056Y-160891294D01*
X94891295Y-160926055D01*
X94835642Y-160963241D01*
X94790225Y-160982053D01*
X94721876Y-160995649D01*
X94712171Y-160997579D01*
X94687590Y-161000000D01*
X94562410Y-161000000D01*
X94537829Y-160997579D01*
X94528124Y-160995649D01*
X94459775Y-160982053D01*
X94414358Y-160963241D01*
X94358705Y-160926055D01*
X94323944Y-160891294D01*
X94286759Y-160835642D01*
X94267946Y-160790223D01*
X94252421Y-160712171D01*
X94250000Y-160687590D01*
X94250000Y-16250000D01*
X91500000Y-16250000D01*
X91500000Y-160687590D01*
X91497579Y-160712171D01*
X91482054Y-160790223D01*
X91463241Y-160835642D01*
X91426056Y-160891294D01*
X91391295Y-160926055D01*
X91335642Y-160963241D01*
X91290225Y-160982053D01*
X91221876Y-160995649D01*
X91212171Y-160997579D01*
X91187590Y-161000000D01*
X91062410Y-161000000D01*
X91037829Y-160997579D01*
X91028124Y-160995649D01*
X90959775Y-160982053D01*
X90914358Y-160963241D01*
X90858705Y-160926055D01*
X90823944Y-160891294D01*
X90786759Y-160835642D01*
X90767946Y-160790223D01*
X90752421Y-160712171D01*
X90750000Y-160687590D01*
X90750000Y-16250000D01*
X88000000Y-16250000D01*
X88000000Y-160687590D01*
X87997579Y-160712171D01*
X87982054Y-160790223D01*
X87963241Y-160835642D01*
X87926056Y-160891294D01*
X87891295Y-160926055D01*
X87835642Y-160963241D01*
X87790225Y-160982053D01*
X87721876Y-160995649D01*
X87712171Y-160997579D01*
X87687590Y-161000000D01*
X87562410Y-161000000D01*
X87537829Y-160997579D01*
X87528124Y-160995649D01*
X87459775Y-160982053D01*
X87414358Y-160963241D01*
X87358705Y-160926055D01*
X87323944Y-160891294D01*
X87286759Y-160835642D01*
X87267946Y-160790223D01*
X87252421Y-160712171D01*
X87250000Y-160687590D01*
X87250000Y-16250000D01*
X84500000Y-16250000D01*
X84500000Y-160687590D01*
X84497579Y-160712171D01*
X84482054Y-160790223D01*
X84463241Y-160835642D01*
X84426056Y-160891294D01*
X84391295Y-160926055D01*
X84335642Y-160963241D01*
X84290225Y-160982053D01*
X84221876Y-160995649D01*
X84212171Y-160997579D01*
X84187590Y-161000000D01*
X84062410Y-161000000D01*
X84037829Y-160997579D01*
X84028124Y-160995649D01*
X83959775Y-160982053D01*
X83914358Y-160963241D01*
X83858705Y-160926055D01*
X83823944Y-160891294D01*
X83786759Y-160835642D01*
X83767946Y-160790223D01*
X83752421Y-160712171D01*
X83750000Y-160687590D01*
X83750000Y-16250000D01*
X81000000Y-16250000D01*
X81000000Y-160687590D01*
X80997579Y-160712171D01*
X80982054Y-160790223D01*
X80963241Y-160835642D01*
X80926056Y-160891294D01*
X80891295Y-160926055D01*
X80835642Y-160963241D01*
X80790225Y-160982053D01*
X80721876Y-160995649D01*
X80712171Y-160997579D01*
X80687590Y-161000000D01*
X80562410Y-161000000D01*
X80537829Y-160997579D01*
X80528124Y-160995649D01*
X80459775Y-160982053D01*
X80414358Y-160963241D01*
X80358705Y-160926055D01*
X80323944Y-160891294D01*
X80286759Y-160835642D01*
X80267946Y-160790223D01*
X80252421Y-160712171D01*
X80250000Y-160687590D01*
X80250000Y-16250000D01*
X77500000Y-16250000D01*
X77500000Y-160687590D01*
X77497579Y-160712171D01*
X77482054Y-160790223D01*
X77463241Y-160835642D01*
X77426056Y-160891294D01*
X77391295Y-160926055D01*
X77335642Y-160963241D01*
X77290225Y-160982053D01*
X77221876Y-160995649D01*
X77212171Y-160997579D01*
X77187590Y-161000000D01*
X77062410Y-161000000D01*
X77037829Y-160997579D01*
X77028124Y-160995649D01*
X76959775Y-160982053D01*
X76914358Y-160963241D01*
X76858705Y-160926055D01*
X76823944Y-160891294D01*
X76786759Y-160835642D01*
X76767946Y-160790223D01*
X76752421Y-160712171D01*
X76750000Y-160687590D01*
X76750000Y-16250000D01*
X74000000Y-16250000D01*
X74000000Y-160687590D01*
X73997579Y-160712171D01*
X73982054Y-160790223D01*
X73963241Y-160835642D01*
X73926056Y-160891294D01*
X73891295Y-160926055D01*
X73835642Y-160963241D01*
X73790225Y-160982053D01*
X73721876Y-160995649D01*
X73712171Y-160997579D01*
X73687590Y-161000000D01*
X73562410Y-161000000D01*
X73537829Y-160997579D01*
X73528124Y-160995649D01*
X73459775Y-160982053D01*
X73414358Y-160963241D01*
X73358705Y-160926055D01*
X73323944Y-160891294D01*
X73286759Y-160835642D01*
X73267946Y-160790223D01*
X73252421Y-160712171D01*
X73250000Y-160687590D01*
X73250000Y-16250000D01*
X70500000Y-16250000D01*
X70500000Y-160687590D01*
X70497579Y-160712171D01*
X70482054Y-160790223D01*
X70463241Y-160835642D01*
X70426056Y-160891294D01*
X70391295Y-160926055D01*
X70335642Y-160963241D01*
X70290225Y-160982053D01*
X70221876Y-160995649D01*
X70212171Y-160997579D01*
X70187590Y-161000000D01*
X70062410Y-161000000D01*
X70037829Y-160997579D01*
X70028124Y-160995649D01*
X69959775Y-160982053D01*
X69914358Y-160963241D01*
X69858705Y-160926055D01*
X69823944Y-160891294D01*
X69786759Y-160835642D01*
X69767946Y-160790223D01*
X69752421Y-160712171D01*
X69750000Y-160687590D01*
X69750000Y-16250000D01*
X67000000Y-16250000D01*
X67000000Y-160687590D01*
X66997579Y-160712171D01*
X66982054Y-160790223D01*
X66963241Y-160835642D01*
X66926056Y-160891294D01*
X66891295Y-160926055D01*
X66835642Y-160963241D01*
X66790225Y-160982053D01*
X66721876Y-160995649D01*
X66712171Y-160997579D01*
X66687590Y-161000000D01*
X66562410Y-161000000D01*
X66537829Y-160997579D01*
X66528124Y-160995649D01*
X66459775Y-160982053D01*
X66414358Y-160963241D01*
X66358705Y-160926055D01*
X66323944Y-160891294D01*
X66286759Y-160835642D01*
X66267946Y-160790223D01*
X66252421Y-160712171D01*
X66250000Y-160687590D01*
X66250000Y-16250000D01*
X63500000Y-16250000D01*
X63500000Y-160687590D01*
X63497579Y-160712171D01*
X63482054Y-160790223D01*
X63463241Y-160835642D01*
X63426056Y-160891294D01*
X63391295Y-160926055D01*
X63335642Y-160963241D01*
X63290225Y-160982053D01*
X63221876Y-160995649D01*
X63212171Y-160997579D01*
X63187590Y-161000000D01*
X63062410Y-161000000D01*
X63037829Y-160997579D01*
X63028124Y-160995649D01*
X62959775Y-160982053D01*
X62914358Y-160963241D01*
X62858705Y-160926055D01*
X62823944Y-160891294D01*
X62786759Y-160835642D01*
X62767946Y-160790223D01*
X62752421Y-160712171D01*
X62750000Y-160687590D01*
X62750000Y-16250000D01*
X60000000Y-16250000D01*
X60000000Y-160687590D01*
X59997579Y-160712171D01*
X59982054Y-160790223D01*
X59963241Y-160835642D01*
X59926056Y-160891294D01*
X59891295Y-160926055D01*
X59835642Y-160963241D01*
X59790225Y-160982053D01*
X59721876Y-160995649D01*
X59712171Y-160997579D01*
X59687590Y-161000000D01*
X59562410Y-161000000D01*
X59537829Y-160997579D01*
X59528124Y-160995649D01*
X59459775Y-160982053D01*
X59414358Y-160963241D01*
X59358705Y-160926055D01*
X59323944Y-160891294D01*
X59286759Y-160835642D01*
X59267946Y-160790223D01*
X59252421Y-160712171D01*
X59250000Y-160687590D01*
X59250000Y-16250000D01*
X56500000Y-16250000D01*
X56500000Y-160687590D01*
X56497579Y-160712171D01*
X56482054Y-160790223D01*
X56463241Y-160835642D01*
X56426056Y-160891294D01*
X56391295Y-160926055D01*
X56335642Y-160963241D01*
X56290225Y-160982053D01*
X56221876Y-160995649D01*
X56212171Y-160997579D01*
X56187590Y-161000000D01*
X56062410Y-161000000D01*
X56037829Y-160997579D01*
X56028124Y-160995649D01*
X55959775Y-160982053D01*
X55914358Y-160963241D01*
X55858705Y-160926055D01*
X55823944Y-160891294D01*
X55786759Y-160835642D01*
X55767946Y-160790223D01*
X55752421Y-160712171D01*
X55750000Y-160687590D01*
X55750000Y-16250000D01*
X53000000Y-16250000D01*
X53000000Y-160687590D01*
X52997579Y-160712171D01*
X52982054Y-160790223D01*
X52963241Y-160835642D01*
X52926056Y-160891294D01*
X52891295Y-160926055D01*
X52835642Y-160963241D01*
X52790225Y-160982053D01*
X52721876Y-160995649D01*
X52712171Y-160997579D01*
X52687590Y-161000000D01*
X52562410Y-161000000D01*
X52537829Y-160997579D01*
X52528124Y-160995649D01*
X52459775Y-160982053D01*
X52414358Y-160963241D01*
X52358705Y-160926055D01*
X52323944Y-160891294D01*
X52286759Y-160835642D01*
X52267946Y-160790223D01*
X52252421Y-160712171D01*
X52250000Y-160687590D01*
X52250000Y-16250000D01*
X49500000Y-16250000D01*
X49500000Y-160687590D01*
X49497579Y-160712171D01*
X49482054Y-160790223D01*
X49463241Y-160835642D01*
X49426056Y-160891294D01*
X49391295Y-160926055D01*
X49335642Y-160963241D01*
X49290225Y-160982053D01*
X49221876Y-160995649D01*
X49212171Y-160997579D01*
X49187590Y-161000000D01*
X49062410Y-161000000D01*
X49037829Y-160997579D01*
X49028124Y-160995649D01*
X48959775Y-160982053D01*
X48914358Y-160963241D01*
X48858705Y-160926055D01*
X48823944Y-160891294D01*
X48786759Y-160835642D01*
X48767946Y-160790223D01*
X48752421Y-160712171D01*
X48750000Y-160687590D01*
X48750000Y-16250000D01*
X46000000Y-16250000D01*
X46000000Y-160687590D01*
X45997579Y-160712171D01*
X45982054Y-160790223D01*
X45963241Y-160835642D01*
X45926056Y-160891294D01*
X45891295Y-160926055D01*
X45835642Y-160963241D01*
X45790225Y-160982053D01*
X45721876Y-160995649D01*
X45712171Y-160997579D01*
X45687590Y-161000000D01*
X45562410Y-161000000D01*
X45537829Y-160997579D01*
X45528124Y-160995649D01*
X45459775Y-160982053D01*
X45414358Y-160963241D01*
X45358705Y-160926055D01*
X45323944Y-160891294D01*
X45286759Y-160835642D01*
X45267946Y-160790223D01*
X45252421Y-160712171D01*
X45250000Y-160687590D01*
X45250000Y-16250000D01*
X42500000Y-16250000D01*
X42500000Y-160687590D01*
X42497579Y-160712171D01*
X42482054Y-160790223D01*
X42463241Y-160835642D01*
X42426056Y-160891294D01*
X42391295Y-160926055D01*
X42335642Y-160963241D01*
X42290225Y-160982053D01*
X42221876Y-160995649D01*
X42212171Y-160997579D01*
X42187590Y-161000000D01*
X42062410Y-161000000D01*
X42037829Y-160997579D01*
X42028124Y-160995649D01*
X41959775Y-160982053D01*
X41914358Y-160963241D01*
X41858705Y-160926055D01*
X41823944Y-160891294D01*
X41786759Y-160835642D01*
X41767946Y-160790223D01*
X41752421Y-160712171D01*
X41750000Y-160687590D01*
X41750000Y-16250000D01*
X39000000Y-16250000D01*
X39000000Y-160687590D01*
X38997579Y-160712171D01*
X38982054Y-160790223D01*
X38963241Y-160835642D01*
X38926056Y-160891294D01*
X38891295Y-160926055D01*
X38835642Y-160963241D01*
X38790225Y-160982053D01*
X38721876Y-160995649D01*
X38712171Y-160997579D01*
X38687590Y-161000000D01*
X38562410Y-161000000D01*
X38537829Y-160997579D01*
X38528124Y-160995649D01*
X38459775Y-160982053D01*
X38414358Y-160963241D01*
X38358705Y-160926055D01*
X38323944Y-160891294D01*
X38286759Y-160835642D01*
X38267946Y-160790223D01*
X38252421Y-160712171D01*
X38250000Y-160687590D01*
X38250000Y-16250000D01*
X35500000Y-16250000D01*
X35500000Y-160687590D01*
X35497579Y-160712171D01*
X35482054Y-160790223D01*
X35463241Y-160835642D01*
X35426056Y-160891294D01*
X35391295Y-160926055D01*
X35335642Y-160963241D01*
X35290225Y-160982053D01*
X35221876Y-160995649D01*
X35212171Y-160997579D01*
X35187590Y-161000000D01*
X35062410Y-161000000D01*
X35037829Y-160997579D01*
X35028124Y-160995649D01*
X34959775Y-160982053D01*
X34914358Y-160963241D01*
X34858705Y-160926055D01*
X34823944Y-160891294D01*
X34786759Y-160835642D01*
X34767946Y-160790223D01*
X34752421Y-160712171D01*
X34750000Y-160687590D01*
X34750000Y-16250000D01*
X32000000Y-16250000D01*
X32000000Y-160687590D01*
X31997579Y-160712171D01*
X31982054Y-160790223D01*
X31963241Y-160835642D01*
X31926056Y-160891294D01*
X31891295Y-160926055D01*
X31835642Y-160963241D01*
X31790225Y-160982053D01*
X31721876Y-160995649D01*
X31712171Y-160997579D01*
X31687590Y-161000000D01*
X31562410Y-161000000D01*
X31537829Y-160997579D01*
X31528124Y-160995649D01*
X31459775Y-160982053D01*
X31414358Y-160963241D01*
X31358705Y-160926055D01*
X31323944Y-160891294D01*
X31286759Y-160835642D01*
X31267946Y-160790223D01*
X31252421Y-160712171D01*
X31250000Y-160687590D01*
X31250000Y-16250000D01*
X28500000Y-16250000D01*
X28500000Y-160687590D01*
X28497579Y-160712171D01*
X28482054Y-160790223D01*
X28463241Y-160835642D01*
X28426056Y-160891294D01*
X28391295Y-160926055D01*
X28335642Y-160963241D01*
X28290225Y-160982053D01*
X28221876Y-160995649D01*
X28212171Y-160997579D01*
X28187590Y-161000000D01*
X28062410Y-161000000D01*
X28037829Y-160997579D01*
X28028124Y-160995649D01*
X27959775Y-160982053D01*
X27914358Y-160963241D01*
X27858705Y-160926055D01*
X27823944Y-160891294D01*
X27786759Y-160835642D01*
X27767946Y-160790223D01*
X27752421Y-160712171D01*
X27750000Y-160687590D01*
X27750000Y-16250000D01*
X25000000Y-16250000D01*
X25000000Y-160687590D01*
X24997579Y-160712171D01*
X24982054Y-160790223D01*
X24963241Y-160835642D01*
X24926056Y-160891294D01*
X24891295Y-160926055D01*
X24835642Y-160963241D01*
X24790225Y-160982053D01*
X24721876Y-160995649D01*
X24712171Y-160997579D01*
X24687590Y-161000000D01*
X24562410Y-161000000D01*
X24537829Y-160997579D01*
X24528124Y-160995649D01*
X24459775Y-160982053D01*
X24414358Y-160963241D01*
X24358705Y-160926055D01*
X24323944Y-160891294D01*
X24286759Y-160835642D01*
X24267946Y-160790223D01*
X24252421Y-160712171D01*
X24250000Y-160687590D01*
X24250000Y-16250000D01*
X21500000Y-16250000D01*
X21500000Y-160687590D01*
X21497579Y-160712171D01*
X21482054Y-160790223D01*
X21463241Y-160835642D01*
X21426056Y-160891294D01*
X21391295Y-160926055D01*
X21335642Y-160963241D01*
X21290225Y-160982053D01*
X21221876Y-160995649D01*
X21212171Y-160997579D01*
X21187590Y-161000000D01*
X21062410Y-161000000D01*
X21037829Y-160997579D01*
X21028124Y-160995649D01*
X20959775Y-160982053D01*
X20914358Y-160963241D01*
X20858705Y-160926055D01*
X20823944Y-160891294D01*
X20786759Y-160835642D01*
X20767946Y-160790223D01*
X20752421Y-160712171D01*
X20750000Y-160687590D01*
X20750000Y-16250000D01*
X18000000Y-16250000D01*
X18000000Y-160687590D01*
X17997579Y-160712171D01*
X17982054Y-160790223D01*
X17963241Y-160835642D01*
X17926056Y-160891294D01*
X17891295Y-160926055D01*
X17835642Y-160963241D01*
X17790225Y-160982053D01*
X17721876Y-160995649D01*
X17712171Y-160997579D01*
X17687590Y-161000000D01*
X17562410Y-161000000D01*
X17537829Y-160997579D01*
X17528124Y-160995649D01*
X17459775Y-160982053D01*
X17414358Y-160963241D01*
X17358705Y-160926055D01*
X17323944Y-160891294D01*
X17286759Y-160835642D01*
X17267946Y-160790223D01*
X17252421Y-160712171D01*
X17250000Y-160687590D01*
X17250000Y-16250000D01*
X15812410Y-16250000D01*
X15787829Y-16247579D01*
X15778124Y-16245649D01*
X15709775Y-16232053D01*
X15664358Y-16213241D01*
X15608705Y-16176055D01*
X15573944Y-16141294D01*
X15536759Y-16085642D01*
X15517946Y-16040223D01*
X15502421Y-15962171D01*
X15500000Y-15937590D01*
X15500000Y-15812410D01*
X15502421Y-15787829D01*
X15517946Y-15709777D01*
X15536759Y-15664358D01*
X15573945Y-15608705D01*
X15608705Y-15573945D01*
X15664358Y-15536759D01*
X15709775Y-15517947D01*
X15787828Y-15502421D01*
X15812410Y-15500000D01*
X224187590Y-15500000D01*
X224212172Y-15502421D01*
G37*
G04 #@! TD.AperFunction*
G04 #@! TA.AperFunction,Conductor*
G36*
X15962172Y-17002421D02*
G01*
X16040225Y-17017947D01*
X16085642Y-17036759D01*
X16141295Y-17073945D01*
X16176055Y-17108705D01*
X16213241Y-17164358D01*
X16232054Y-17209777D01*
X16247579Y-17287829D01*
X16250000Y-17312410D01*
X16250000Y-162000000D01*
X19000000Y-162000000D01*
X19000000Y-17312410D01*
X19002421Y-17287829D01*
X19017946Y-17209777D01*
X19036759Y-17164358D01*
X19073945Y-17108705D01*
X19108705Y-17073945D01*
X19164358Y-17036759D01*
X19209775Y-17017947D01*
X19287828Y-17002421D01*
X19312410Y-17000000D01*
X19437590Y-17000000D01*
X19462172Y-17002421D01*
X19540225Y-17017947D01*
X19585642Y-17036759D01*
X19641295Y-17073945D01*
X19676055Y-17108705D01*
X19713241Y-17164358D01*
X19732054Y-17209777D01*
X19747579Y-17287829D01*
X19750000Y-17312410D01*
X19750000Y-162000000D01*
X22500000Y-162000000D01*
X22500000Y-17312410D01*
X22502421Y-17287829D01*
X22517946Y-17209777D01*
X22536759Y-17164358D01*
X22573945Y-17108705D01*
X22608705Y-17073945D01*
X22664358Y-17036759D01*
X22709775Y-17017947D01*
X22787828Y-17002421D01*
X22812410Y-17000000D01*
X22937590Y-17000000D01*
X22962172Y-17002421D01*
X23040225Y-17017947D01*
X23085642Y-17036759D01*
X23141295Y-17073945D01*
X23176055Y-17108705D01*
X23213241Y-17164358D01*
X23232054Y-17209777D01*
X23247579Y-17287829D01*
X23250000Y-17312410D01*
X23250000Y-162000000D01*
X26000000Y-162000000D01*
X26000000Y-17312410D01*
X26002421Y-17287829D01*
X26017946Y-17209777D01*
X26036759Y-17164358D01*
X26073945Y-17108705D01*
X26108705Y-17073945D01*
X26164358Y-17036759D01*
X26209775Y-17017947D01*
X26287828Y-17002421D01*
X26312410Y-17000000D01*
X26437590Y-17000000D01*
X26462172Y-17002421D01*
X26540225Y-17017947D01*
X26585642Y-17036759D01*
X26641295Y-17073945D01*
X26676055Y-17108705D01*
X26713241Y-17164358D01*
X26732054Y-17209777D01*
X26747579Y-17287829D01*
X26750000Y-17312410D01*
X26750000Y-162000000D01*
X29500000Y-162000000D01*
X29500000Y-17312410D01*
X29502421Y-17287829D01*
X29517946Y-17209777D01*
X29536759Y-17164358D01*
X29573945Y-17108705D01*
X29608705Y-17073945D01*
X29664358Y-17036759D01*
X29709775Y-17017947D01*
X29787828Y-17002421D01*
X29812410Y-17000000D01*
X29937590Y-17000000D01*
X29962172Y-17002421D01*
X30040225Y-17017947D01*
X30085642Y-17036759D01*
X30141295Y-17073945D01*
X30176055Y-17108705D01*
X30213241Y-17164358D01*
X30232054Y-17209777D01*
X30247579Y-17287829D01*
X30250000Y-17312410D01*
X30250000Y-162000000D01*
X33000000Y-162000000D01*
X33000000Y-17312410D01*
X33002421Y-17287829D01*
X33017946Y-17209777D01*
X33036759Y-17164358D01*
X33073945Y-17108705D01*
X33108705Y-17073945D01*
X33164358Y-17036759D01*
X33209775Y-17017947D01*
X33287828Y-17002421D01*
X33312410Y-17000000D01*
X33437590Y-17000000D01*
X33462172Y-17002421D01*
X33540225Y-17017947D01*
X33585642Y-17036759D01*
X33641295Y-17073945D01*
X33676055Y-17108705D01*
X33713241Y-17164358D01*
X33732054Y-17209777D01*
X33747579Y-17287829D01*
X33750000Y-17312410D01*
X33750000Y-162000000D01*
X36500000Y-162000000D01*
X36500000Y-17312410D01*
X36502421Y-17287829D01*
X36517946Y-17209777D01*
X36536759Y-17164358D01*
X36573945Y-17108705D01*
X36608705Y-17073945D01*
X36664358Y-17036759D01*
X36709775Y-17017947D01*
X36787828Y-17002421D01*
X36812410Y-17000000D01*
X36937590Y-17000000D01*
X36962172Y-17002421D01*
X37040225Y-17017947D01*
X37085642Y-17036759D01*
X37141295Y-17073945D01*
X37176055Y-17108705D01*
X37213241Y-17164358D01*
X37232054Y-17209777D01*
X37247579Y-17287829D01*
X37250000Y-17312410D01*
X37250000Y-162000000D01*
X40000000Y-162000000D01*
X40000000Y-17312410D01*
X40002421Y-17287829D01*
X40017946Y-17209777D01*
X40036759Y-17164358D01*
X40073945Y-17108705D01*
X40108705Y-17073945D01*
X40164358Y-17036759D01*
X40209775Y-17017947D01*
X40287828Y-17002421D01*
X40312410Y-17000000D01*
X40437590Y-17000000D01*
X40462172Y-17002421D01*
X40540225Y-17017947D01*
X40585642Y-17036759D01*
X40641295Y-17073945D01*
X40676055Y-17108705D01*
X40713241Y-17164358D01*
X40732054Y-17209777D01*
X40747579Y-17287829D01*
X40750000Y-17312410D01*
X40750000Y-162000000D01*
X43500000Y-162000000D01*
X43500000Y-17312410D01*
X43502421Y-17287829D01*
X43517946Y-17209777D01*
X43536759Y-17164358D01*
X43573945Y-17108705D01*
X43608705Y-17073945D01*
X43664358Y-17036759D01*
X43709775Y-17017947D01*
X43787828Y-17002421D01*
X43812410Y-17000000D01*
X43937590Y-17000000D01*
X43962172Y-17002421D01*
X44040225Y-17017947D01*
X44085642Y-17036759D01*
X44141295Y-17073945D01*
X44176055Y-17108705D01*
X44213241Y-17164358D01*
X44232054Y-17209777D01*
X44247579Y-17287829D01*
X44250000Y-17312410D01*
X44250000Y-162000000D01*
X47000000Y-162000000D01*
X47000000Y-17312410D01*
X47002421Y-17287829D01*
X47017946Y-17209777D01*
X47036759Y-17164358D01*
X47073945Y-17108705D01*
X47108705Y-17073945D01*
X47164358Y-17036759D01*
X47209775Y-17017947D01*
X47287828Y-17002421D01*
X47312410Y-17000000D01*
X47437590Y-17000000D01*
X47462172Y-17002421D01*
X47540225Y-17017947D01*
X47585642Y-17036759D01*
X47641295Y-17073945D01*
X47676055Y-17108705D01*
X47713241Y-17164358D01*
X47732054Y-17209777D01*
X47747579Y-17287829D01*
X47750000Y-17312410D01*
X47750000Y-162000000D01*
X50500000Y-162000000D01*
X50500000Y-17312410D01*
X50502421Y-17287829D01*
X50517946Y-17209777D01*
X50536759Y-17164358D01*
X50573945Y-17108705D01*
X50608705Y-17073945D01*
X50664358Y-17036759D01*
X50709775Y-17017947D01*
X50787828Y-17002421D01*
X50812410Y-17000000D01*
X50937590Y-17000000D01*
X50962172Y-17002421D01*
X51040225Y-17017947D01*
X51085642Y-17036759D01*
X51141295Y-17073945D01*
X51176055Y-17108705D01*
X51213241Y-17164358D01*
X51232054Y-17209777D01*
X51247579Y-17287829D01*
X51250000Y-17312410D01*
X51250000Y-162000000D01*
X54000000Y-162000000D01*
X54000000Y-17312410D01*
X54002421Y-17287829D01*
X54017946Y-17209777D01*
X54036759Y-17164358D01*
X54073945Y-17108705D01*
X54108705Y-17073945D01*
X54164358Y-17036759D01*
X54209775Y-17017947D01*
X54287828Y-17002421D01*
X54312410Y-17000000D01*
X54437590Y-17000000D01*
X54462172Y-17002421D01*
X54540225Y-17017947D01*
X54585642Y-17036759D01*
X54641295Y-17073945D01*
X54676055Y-17108705D01*
X54713241Y-17164358D01*
X54732054Y-17209777D01*
X54747579Y-17287829D01*
X54750000Y-17312410D01*
X54750000Y-162000000D01*
X57500000Y-162000000D01*
X57500000Y-17312410D01*
X57502421Y-17287829D01*
X57517946Y-17209777D01*
X57536759Y-17164358D01*
X57573945Y-17108705D01*
X57608705Y-17073945D01*
X57664358Y-17036759D01*
X57709775Y-17017947D01*
X57787828Y-17002421D01*
X57812410Y-17000000D01*
X57937590Y-17000000D01*
X57962172Y-17002421D01*
X58040225Y-17017947D01*
X58085642Y-17036759D01*
X58141295Y-17073945D01*
X58176055Y-17108705D01*
X58213241Y-17164358D01*
X58232054Y-17209777D01*
X58247579Y-17287829D01*
X58250000Y-17312410D01*
X58250000Y-162000000D01*
X61000000Y-162000000D01*
X61000000Y-17312410D01*
X61002421Y-17287829D01*
X61017946Y-17209777D01*
X61036759Y-17164358D01*
X61073945Y-17108705D01*
X61108705Y-17073945D01*
X61164358Y-17036759D01*
X61209775Y-17017947D01*
X61287828Y-17002421D01*
X61312410Y-17000000D01*
X61437590Y-17000000D01*
X61462172Y-17002421D01*
X61540225Y-17017947D01*
X61585642Y-17036759D01*
X61641295Y-17073945D01*
X61676055Y-17108705D01*
X61713241Y-17164358D01*
X61732054Y-17209777D01*
X61747579Y-17287829D01*
X61750000Y-17312410D01*
X61750000Y-162000000D01*
X64500000Y-162000000D01*
X64500000Y-17312410D01*
X64502421Y-17287829D01*
X64517946Y-17209777D01*
X64536759Y-17164358D01*
X64573945Y-17108705D01*
X64608705Y-17073945D01*
X64664358Y-17036759D01*
X64709775Y-17017947D01*
X64787828Y-17002421D01*
X64812410Y-17000000D01*
X64937590Y-17000000D01*
X64962172Y-17002421D01*
X65040225Y-17017947D01*
X65085642Y-17036759D01*
X65141295Y-17073945D01*
X65176055Y-17108705D01*
X65213241Y-17164358D01*
X65232054Y-17209777D01*
X65247579Y-17287829D01*
X65250000Y-17312410D01*
X65250000Y-162000000D01*
X68000000Y-162000000D01*
X68000000Y-17312410D01*
X68002421Y-17287829D01*
X68017946Y-17209777D01*
X68036759Y-17164358D01*
X68073945Y-17108705D01*
X68108705Y-17073945D01*
X68164358Y-17036759D01*
X68209775Y-17017947D01*
X68287828Y-17002421D01*
X68312410Y-17000000D01*
X68437590Y-17000000D01*
X68462172Y-17002421D01*
X68540225Y-17017947D01*
X68585642Y-17036759D01*
X68641295Y-17073945D01*
X68676055Y-17108705D01*
X68713241Y-17164358D01*
X68732054Y-17209777D01*
X68747579Y-17287829D01*
X68750000Y-17312410D01*
X68750000Y-162000000D01*
X71500000Y-162000000D01*
X71500000Y-17312410D01*
X71502421Y-17287829D01*
X71517946Y-17209777D01*
X71536759Y-17164358D01*
X71573945Y-17108705D01*
X71608705Y-17073945D01*
X71664358Y-17036759D01*
X71709775Y-17017947D01*
X71787828Y-17002421D01*
X71812410Y-17000000D01*
X71937590Y-17000000D01*
X71962172Y-17002421D01*
X72040225Y-17017947D01*
X72085642Y-17036759D01*
X72141295Y-17073945D01*
X72176055Y-17108705D01*
X72213241Y-17164358D01*
X72232054Y-17209777D01*
X72247579Y-17287829D01*
X72250000Y-17312410D01*
X72250000Y-162000000D01*
X75000000Y-162000000D01*
X75000000Y-17312410D01*
X75002421Y-17287829D01*
X75017946Y-17209777D01*
X75036759Y-17164358D01*
X75073945Y-17108705D01*
X75108705Y-17073945D01*
X75164358Y-17036759D01*
X75209775Y-17017947D01*
X75287828Y-17002421D01*
X75312410Y-17000000D01*
X75437590Y-17000000D01*
X75462172Y-17002421D01*
X75540225Y-17017947D01*
X75585642Y-17036759D01*
X75641295Y-17073945D01*
X75676055Y-17108705D01*
X75713241Y-17164358D01*
X75732054Y-17209777D01*
X75747579Y-17287829D01*
X75750000Y-17312410D01*
X75750000Y-162000000D01*
X78500000Y-162000000D01*
X78500000Y-17312410D01*
X78502421Y-17287829D01*
X78517946Y-17209777D01*
X78536759Y-17164358D01*
X78573945Y-17108705D01*
X78608705Y-17073945D01*
X78664358Y-17036759D01*
X78709775Y-17017947D01*
X78787828Y-17002421D01*
X78812410Y-17000000D01*
X78937590Y-17000000D01*
X78962172Y-17002421D01*
X79040225Y-17017947D01*
X79085642Y-17036759D01*
X79141295Y-17073945D01*
X79176055Y-17108705D01*
X79213241Y-17164358D01*
X79232054Y-17209777D01*
X79247579Y-17287829D01*
X79250000Y-17312410D01*
X79250000Y-162000000D01*
X82000000Y-162000000D01*
X82000000Y-17312410D01*
X82002421Y-17287829D01*
X82017946Y-17209777D01*
X82036759Y-17164358D01*
X82073945Y-17108705D01*
X82108705Y-17073945D01*
X82164358Y-17036759D01*
X82209775Y-17017947D01*
X82287828Y-17002421D01*
X82312410Y-17000000D01*
X82437590Y-17000000D01*
X82462172Y-17002421D01*
X82540225Y-17017947D01*
X82585642Y-17036759D01*
X82641295Y-17073945D01*
X82676055Y-17108705D01*
X82713241Y-17164358D01*
X82732054Y-17209777D01*
X82747579Y-17287829D01*
X82750000Y-17312410D01*
X82750000Y-162000000D01*
X85500000Y-162000000D01*
X85500000Y-17312410D01*
X85502421Y-17287829D01*
X85517946Y-17209777D01*
X85536759Y-17164358D01*
X85573945Y-17108705D01*
X85608705Y-17073945D01*
X85664358Y-17036759D01*
X85709775Y-17017947D01*
X85787828Y-17002421D01*
X85812410Y-17000000D01*
X85937590Y-17000000D01*
X85962172Y-17002421D01*
X86040225Y-17017947D01*
X86085642Y-17036759D01*
X86141295Y-17073945D01*
X86176055Y-17108705D01*
X86213241Y-17164358D01*
X86232054Y-17209777D01*
X86247579Y-17287829D01*
X86250000Y-17312410D01*
X86250000Y-162000000D01*
X89000000Y-162000000D01*
X89000000Y-17312410D01*
X89002421Y-17287829D01*
X89017946Y-17209777D01*
X89036759Y-17164358D01*
X89073945Y-17108705D01*
X89108705Y-17073945D01*
X89164358Y-17036759D01*
X89209775Y-17017947D01*
X89287828Y-17002421D01*
X89312410Y-17000000D01*
X89437590Y-17000000D01*
X89462172Y-17002421D01*
X89540225Y-17017947D01*
X89585642Y-17036759D01*
X89641295Y-17073945D01*
X89676055Y-17108705D01*
X89713241Y-17164358D01*
X89732054Y-17209777D01*
X89747579Y-17287829D01*
X89750000Y-17312410D01*
X89750000Y-162000000D01*
X92500000Y-162000000D01*
X92500000Y-17312410D01*
X92502421Y-17287829D01*
X92517946Y-17209777D01*
X92536759Y-17164358D01*
X92573945Y-17108705D01*
X92608705Y-17073945D01*
X92664358Y-17036759D01*
X92709775Y-17017947D01*
X92787828Y-17002421D01*
X92812410Y-17000000D01*
X92937590Y-17000000D01*
X92962172Y-17002421D01*
X93040225Y-17017947D01*
X93085642Y-17036759D01*
X93141295Y-17073945D01*
X93176055Y-17108705D01*
X93213241Y-17164358D01*
X93232054Y-17209777D01*
X93247579Y-17287829D01*
X93250000Y-17312410D01*
X93250000Y-162000000D01*
X96000000Y-162000000D01*
X96000000Y-17312410D01*
X96002421Y-17287829D01*
X96017946Y-17209777D01*
X96036759Y-17164358D01*
X96073945Y-17108705D01*
X96108705Y-17073945D01*
X96164358Y-17036759D01*
X96209775Y-17017947D01*
X96287828Y-17002421D01*
X96312410Y-17000000D01*
X96437590Y-17000000D01*
X96462172Y-17002421D01*
X96540225Y-17017947D01*
X96585642Y-17036759D01*
X96641295Y-17073945D01*
X96676055Y-17108705D01*
X96713241Y-17164358D01*
X96732054Y-17209777D01*
X96747579Y-17287829D01*
X96750000Y-17312410D01*
X96750000Y-162000000D01*
X99500000Y-162000000D01*
X99500000Y-17312410D01*
X99502421Y-17287829D01*
X99517946Y-17209777D01*
X99536759Y-17164358D01*
X99573945Y-17108705D01*
X99608705Y-17073945D01*
X99664358Y-17036759D01*
X99709775Y-17017947D01*
X99787828Y-17002421D01*
X99812410Y-17000000D01*
X99937590Y-17000000D01*
X99962172Y-17002421D01*
X100040225Y-17017947D01*
X100085642Y-17036759D01*
X100141295Y-17073945D01*
X100176055Y-17108705D01*
X100213241Y-17164358D01*
X100232054Y-17209777D01*
X100247579Y-17287829D01*
X100250000Y-17312410D01*
X100250000Y-162000000D01*
X103000000Y-162000000D01*
X103000000Y-17312410D01*
X103002421Y-17287829D01*
X103017946Y-17209777D01*
X103036759Y-17164358D01*
X103073945Y-17108705D01*
X103108705Y-17073945D01*
X103164358Y-17036759D01*
X103209775Y-17017947D01*
X103287828Y-17002421D01*
X103312410Y-17000000D01*
X103437590Y-17000000D01*
X103462172Y-17002421D01*
X103540225Y-17017947D01*
X103585642Y-17036759D01*
X103641295Y-17073945D01*
X103676055Y-17108705D01*
X103713241Y-17164358D01*
X103732054Y-17209777D01*
X103747579Y-17287829D01*
X103750000Y-17312410D01*
X103750000Y-162000000D01*
X106500000Y-162000000D01*
X106500000Y-17312410D01*
X106502421Y-17287829D01*
X106517946Y-17209777D01*
X106536759Y-17164358D01*
X106573945Y-17108705D01*
X106608705Y-17073945D01*
X106664358Y-17036759D01*
X106709775Y-17017947D01*
X106787828Y-17002421D01*
X106812410Y-17000000D01*
X106937590Y-17000000D01*
X106962172Y-17002421D01*
X107040225Y-17017947D01*
X107085642Y-17036759D01*
X107141295Y-17073945D01*
X107176055Y-17108705D01*
X107213241Y-17164358D01*
X107232054Y-17209777D01*
X107247579Y-17287829D01*
X107250000Y-17312410D01*
X107250000Y-162000000D01*
X110000000Y-162000000D01*
X110000000Y-17312410D01*
X110002421Y-17287829D01*
X110017946Y-17209777D01*
X110036759Y-17164358D01*
X110073945Y-17108705D01*
X110108705Y-17073945D01*
X110164358Y-17036759D01*
X110209775Y-17017947D01*
X110287828Y-17002421D01*
X110312410Y-17000000D01*
X110437590Y-17000000D01*
X110462172Y-17002421D01*
X110540225Y-17017947D01*
X110585642Y-17036759D01*
X110641295Y-17073945D01*
X110676055Y-17108705D01*
X110713241Y-17164358D01*
X110732054Y-17209777D01*
X110747579Y-17287829D01*
X110750000Y-17312410D01*
X110750000Y-162000000D01*
X113500000Y-162000000D01*
X113500000Y-17312410D01*
X113502421Y-17287829D01*
X113517946Y-17209777D01*
X113536759Y-17164358D01*
X113573945Y-17108705D01*
X113608705Y-17073945D01*
X113664358Y-17036759D01*
X113709775Y-17017947D01*
X113787828Y-17002421D01*
X113812410Y-17000000D01*
X113937590Y-17000000D01*
X113962172Y-17002421D01*
X114040225Y-17017947D01*
X114085642Y-17036759D01*
X114141295Y-17073945D01*
X114176055Y-17108705D01*
X114213241Y-17164358D01*
X114232054Y-17209777D01*
X114247579Y-17287829D01*
X114250000Y-17312410D01*
X114250000Y-162000000D01*
X117000000Y-162000000D01*
X117000000Y-17312410D01*
X117002421Y-17287829D01*
X117017946Y-17209777D01*
X117036759Y-17164358D01*
X117073945Y-17108705D01*
X117108705Y-17073945D01*
X117164358Y-17036759D01*
X117209775Y-17017947D01*
X117287828Y-17002421D01*
X117312410Y-17000000D01*
X117437590Y-17000000D01*
X117462172Y-17002421D01*
X117540225Y-17017947D01*
X117585642Y-17036759D01*
X117641295Y-17073945D01*
X117676055Y-17108705D01*
X117713241Y-17164358D01*
X117732054Y-17209777D01*
X117747579Y-17287829D01*
X117750000Y-17312410D01*
X117750000Y-162000000D01*
X120500000Y-162000000D01*
X120500000Y-17312410D01*
X120502421Y-17287829D01*
X120517946Y-17209777D01*
X120536759Y-17164358D01*
X120573945Y-17108705D01*
X120608705Y-17073945D01*
X120664358Y-17036759D01*
X120709775Y-17017947D01*
X120787828Y-17002421D01*
X120812410Y-17000000D01*
X120937590Y-17000000D01*
X120962172Y-17002421D01*
X121040225Y-17017947D01*
X121085642Y-17036759D01*
X121141295Y-17073945D01*
X121176055Y-17108705D01*
X121213241Y-17164358D01*
X121232054Y-17209777D01*
X121247579Y-17287829D01*
X121250000Y-17312410D01*
X121250000Y-162000000D01*
X124000000Y-162000000D01*
X124000000Y-17312410D01*
X124002421Y-17287829D01*
X124017946Y-17209777D01*
X124036759Y-17164358D01*
X124073945Y-17108705D01*
X124108705Y-17073945D01*
X124164358Y-17036759D01*
X124209775Y-17017947D01*
X124287828Y-17002421D01*
X124312410Y-17000000D01*
X124437590Y-17000000D01*
X124462172Y-17002421D01*
X124540225Y-17017947D01*
X124585642Y-17036759D01*
X124641295Y-17073945D01*
X124676055Y-17108705D01*
X124713241Y-17164358D01*
X124732054Y-17209777D01*
X124747579Y-17287829D01*
X124750000Y-17312410D01*
X124750000Y-162000000D01*
X127500000Y-162000000D01*
X127500000Y-17312410D01*
X127502421Y-17287829D01*
X127517946Y-17209777D01*
X127536759Y-17164358D01*
X127573945Y-17108705D01*
X127608705Y-17073945D01*
X127664358Y-17036759D01*
X127709775Y-17017947D01*
X127787828Y-17002421D01*
X127812410Y-17000000D01*
X127937590Y-17000000D01*
X127962172Y-17002421D01*
X128040225Y-17017947D01*
X128085642Y-17036759D01*
X128141295Y-17073945D01*
X128176055Y-17108705D01*
X128213241Y-17164358D01*
X128232054Y-17209777D01*
X128247579Y-17287829D01*
X128250000Y-17312410D01*
X128250000Y-162000000D01*
X131000000Y-162000000D01*
X131000000Y-17312410D01*
X131002421Y-17287829D01*
X131017946Y-17209777D01*
X131036759Y-17164358D01*
X131073945Y-17108705D01*
X131108705Y-17073945D01*
X131164358Y-17036759D01*
X131209775Y-17017947D01*
X131287828Y-17002421D01*
X131312410Y-17000000D01*
X131437590Y-17000000D01*
X131462172Y-17002421D01*
X131540225Y-17017947D01*
X131585642Y-17036759D01*
X131641295Y-17073945D01*
X131676055Y-17108705D01*
X131713241Y-17164358D01*
X131732054Y-17209777D01*
X131747579Y-17287829D01*
X131750000Y-17312410D01*
X131750000Y-162000000D01*
X134500000Y-162000000D01*
X134500000Y-17312410D01*
X134502421Y-17287829D01*
X134517946Y-17209777D01*
X134536759Y-17164358D01*
X134573945Y-17108705D01*
X134608705Y-17073945D01*
X134664358Y-17036759D01*
X134709775Y-17017947D01*
X134787828Y-17002421D01*
X134812410Y-17000000D01*
X134937590Y-17000000D01*
X134962172Y-17002421D01*
X135040225Y-17017947D01*
X135085642Y-17036759D01*
X135141295Y-17073945D01*
X135176055Y-17108705D01*
X135213241Y-17164358D01*
X135232054Y-17209777D01*
X135247579Y-17287829D01*
X135250000Y-17312410D01*
X135250000Y-162000000D01*
X138000000Y-162000000D01*
X138000000Y-17312410D01*
X138002421Y-17287829D01*
X138017946Y-17209777D01*
X138036759Y-17164358D01*
X138073945Y-17108705D01*
X138108705Y-17073945D01*
X138164358Y-17036759D01*
X138209775Y-17017947D01*
X138287828Y-17002421D01*
X138312410Y-17000000D01*
X138437590Y-17000000D01*
X138462172Y-17002421D01*
X138540225Y-17017947D01*
X138585642Y-17036759D01*
X138641295Y-17073945D01*
X138676055Y-17108705D01*
X138713241Y-17164358D01*
X138732054Y-17209777D01*
X138747579Y-17287829D01*
X138750000Y-17312410D01*
X138750000Y-162000000D01*
X141500000Y-162000000D01*
X141500000Y-17312410D01*
X141502421Y-17287829D01*
X141517946Y-17209777D01*
X141536759Y-17164358D01*
X141573945Y-17108705D01*
X141608705Y-17073945D01*
X141664358Y-17036759D01*
X141709775Y-17017947D01*
X141787828Y-17002421D01*
X141812410Y-17000000D01*
X141937590Y-17000000D01*
X141962172Y-17002421D01*
X142040225Y-17017947D01*
X142085642Y-17036759D01*
X142141295Y-17073945D01*
X142176055Y-17108705D01*
X142213241Y-17164358D01*
X142232054Y-17209777D01*
X142247579Y-17287829D01*
X142250000Y-17312410D01*
X142250000Y-162000000D01*
X145000000Y-162000000D01*
X145000000Y-17312410D01*
X145002421Y-17287829D01*
X145017946Y-17209777D01*
X145036759Y-17164358D01*
X145073945Y-17108705D01*
X145108705Y-17073945D01*
X145164358Y-17036759D01*
X145209775Y-17017947D01*
X145287828Y-17002421D01*
X145312410Y-17000000D01*
X145437590Y-17000000D01*
X145462172Y-17002421D01*
X145540225Y-17017947D01*
X145585642Y-17036759D01*
X145641295Y-17073945D01*
X145676055Y-17108705D01*
X145713241Y-17164358D01*
X145732054Y-17209777D01*
X145747579Y-17287829D01*
X145750000Y-17312410D01*
X145750000Y-162000000D01*
X148500000Y-162000000D01*
X148500000Y-17312410D01*
X148502421Y-17287829D01*
X148517946Y-17209777D01*
X148536759Y-17164358D01*
X148573945Y-17108705D01*
X148608705Y-17073945D01*
X148664358Y-17036759D01*
X148709775Y-17017947D01*
X148787828Y-17002421D01*
X148812410Y-17000000D01*
X148937590Y-17000000D01*
X148962172Y-17002421D01*
X149040225Y-17017947D01*
X149085642Y-17036759D01*
X149141295Y-17073945D01*
X149176055Y-17108705D01*
X149213241Y-17164358D01*
X149232054Y-17209777D01*
X149247579Y-17287829D01*
X149250000Y-17312410D01*
X149250000Y-162000000D01*
X152000000Y-162000000D01*
X152000000Y-17312410D01*
X152002421Y-17287829D01*
X152017946Y-17209777D01*
X152036759Y-17164358D01*
X152073945Y-17108705D01*
X152108705Y-17073945D01*
X152164358Y-17036759D01*
X152209775Y-17017947D01*
X152287828Y-17002421D01*
X152312410Y-17000000D01*
X152437590Y-17000000D01*
X152462172Y-17002421D01*
X152540225Y-17017947D01*
X152585642Y-17036759D01*
X152641295Y-17073945D01*
X152676055Y-17108705D01*
X152713241Y-17164358D01*
X152732054Y-17209777D01*
X152747579Y-17287829D01*
X152750000Y-17312410D01*
X152750000Y-162000000D01*
X155500000Y-162000000D01*
X155500000Y-17312410D01*
X155502421Y-17287829D01*
X155517946Y-17209777D01*
X155536759Y-17164358D01*
X155573945Y-17108705D01*
X155608705Y-17073945D01*
X155664358Y-17036759D01*
X155709775Y-17017947D01*
X155787828Y-17002421D01*
X155812410Y-17000000D01*
X155937590Y-17000000D01*
X155962172Y-17002421D01*
X156040225Y-17017947D01*
X156085642Y-17036759D01*
X156141295Y-17073945D01*
X156176055Y-17108705D01*
X156213241Y-17164358D01*
X156232054Y-17209777D01*
X156247579Y-17287829D01*
X156250000Y-17312410D01*
X156250000Y-162000000D01*
X159000000Y-162000000D01*
X159000000Y-17312410D01*
X159002421Y-17287829D01*
X159017946Y-17209777D01*
X159036759Y-17164358D01*
X159073945Y-17108705D01*
X159108705Y-17073945D01*
X159164358Y-17036759D01*
X159209775Y-17017947D01*
X159287828Y-17002421D01*
X159312410Y-17000000D01*
X159437590Y-17000000D01*
X159462172Y-17002421D01*
X159540225Y-17017947D01*
X159585642Y-17036759D01*
X159641295Y-17073945D01*
X159676055Y-17108705D01*
X159713241Y-17164358D01*
X159732054Y-17209777D01*
X159747579Y-17287829D01*
X159750000Y-17312410D01*
X159750000Y-162000000D01*
X162500000Y-162000000D01*
X162500000Y-17312410D01*
X162502421Y-17287829D01*
X162517946Y-17209777D01*
X162536759Y-17164358D01*
X162573945Y-17108705D01*
X162608705Y-17073945D01*
X162664358Y-17036759D01*
X162709775Y-17017947D01*
X162787828Y-17002421D01*
X162812410Y-17000000D01*
X162937590Y-17000000D01*
X162962172Y-17002421D01*
X163040225Y-17017947D01*
X163085642Y-17036759D01*
X163141295Y-17073945D01*
X163176055Y-17108705D01*
X163213241Y-17164358D01*
X163232054Y-17209777D01*
X163247579Y-17287829D01*
X163250000Y-17312410D01*
X163250000Y-162000000D01*
X166000000Y-162000000D01*
X166000000Y-17312410D01*
X166002421Y-17287829D01*
X166017946Y-17209777D01*
X166036759Y-17164358D01*
X166073945Y-17108705D01*
X166108705Y-17073945D01*
X166164358Y-17036759D01*
X166209775Y-17017947D01*
X166287828Y-17002421D01*
X166312410Y-17000000D01*
X166437590Y-17000000D01*
X166462172Y-17002421D01*
X166540225Y-17017947D01*
X166585642Y-17036759D01*
X166641295Y-17073945D01*
X166676055Y-17108705D01*
X166713241Y-17164358D01*
X166732054Y-17209777D01*
X166747579Y-17287829D01*
X166750000Y-17312410D01*
X166750000Y-162000000D01*
X169500000Y-162000000D01*
X169500000Y-17312410D01*
X169502421Y-17287829D01*
X169517946Y-17209777D01*
X169536759Y-17164358D01*
X169573945Y-17108705D01*
X169608705Y-17073945D01*
X169664358Y-17036759D01*
X169709775Y-17017947D01*
X169787828Y-17002421D01*
X169812410Y-17000000D01*
X169937590Y-17000000D01*
X169962172Y-17002421D01*
X170040225Y-17017947D01*
X170085642Y-17036759D01*
X170141295Y-17073945D01*
X170176055Y-17108705D01*
X170213241Y-17164358D01*
X170232054Y-17209777D01*
X170247579Y-17287829D01*
X170250000Y-17312410D01*
X170250000Y-162000000D01*
X173000000Y-162000000D01*
X173000000Y-17312410D01*
X173002421Y-17287829D01*
X173017946Y-17209777D01*
X173036759Y-17164358D01*
X173073945Y-17108705D01*
X173108705Y-17073945D01*
X173164358Y-17036759D01*
X173209775Y-17017947D01*
X173287828Y-17002421D01*
X173312410Y-17000000D01*
X173437590Y-17000000D01*
X173462172Y-17002421D01*
X173540225Y-17017947D01*
X173585642Y-17036759D01*
X173641295Y-17073945D01*
X173676055Y-17108705D01*
X173713241Y-17164358D01*
X173732054Y-17209777D01*
X173747579Y-17287829D01*
X173750000Y-17312410D01*
X173750000Y-162000000D01*
X176500000Y-162000000D01*
X176500000Y-17312410D01*
X176502421Y-17287829D01*
X176517946Y-17209777D01*
X176536759Y-17164358D01*
X176573945Y-17108705D01*
X176608705Y-17073945D01*
X176664358Y-17036759D01*
X176709775Y-17017947D01*
X176787828Y-17002421D01*
X176812410Y-17000000D01*
X176937590Y-17000000D01*
X176962172Y-17002421D01*
X177040225Y-17017947D01*
X177085642Y-17036759D01*
X177141295Y-17073945D01*
X177176055Y-17108705D01*
X177213241Y-17164358D01*
X177232054Y-17209777D01*
X177247579Y-17287829D01*
X177250000Y-17312410D01*
X177250000Y-162000000D01*
X180000000Y-162000000D01*
X180000000Y-17312410D01*
X180002421Y-17287829D01*
X180017946Y-17209777D01*
X180036759Y-17164358D01*
X180073945Y-17108705D01*
X180108705Y-17073945D01*
X180164358Y-17036759D01*
X180209775Y-17017947D01*
X180287828Y-17002421D01*
X180312410Y-17000000D01*
X180437590Y-17000000D01*
X180462172Y-17002421D01*
X180540225Y-17017947D01*
X180585642Y-17036759D01*
X180641295Y-17073945D01*
X180676055Y-17108705D01*
X180713241Y-17164358D01*
X180732054Y-17209777D01*
X180747579Y-17287829D01*
X180750000Y-17312410D01*
X180750000Y-162000000D01*
X183500000Y-162000000D01*
X183500000Y-17312410D01*
X183502421Y-17287829D01*
X183517946Y-17209777D01*
X183536759Y-17164358D01*
X183573945Y-17108705D01*
X183608705Y-17073945D01*
X183664358Y-17036759D01*
X183709775Y-17017947D01*
X183787828Y-17002421D01*
X183812410Y-17000000D01*
X183937590Y-17000000D01*
X183962172Y-17002421D01*
X184040225Y-17017947D01*
X184085642Y-17036759D01*
X184141295Y-17073945D01*
X184176055Y-17108705D01*
X184213241Y-17164358D01*
X184232054Y-17209777D01*
X184247579Y-17287829D01*
X184250000Y-17312410D01*
X184250000Y-162000000D01*
X187000000Y-162000000D01*
X187000000Y-17312410D01*
X187002421Y-17287829D01*
X187017946Y-17209777D01*
X187036759Y-17164358D01*
X187073945Y-17108705D01*
X187108705Y-17073945D01*
X187164358Y-17036759D01*
X187209775Y-17017947D01*
X187287828Y-17002421D01*
X187312410Y-17000000D01*
X187437590Y-17000000D01*
X187462172Y-17002421D01*
X187540225Y-17017947D01*
X187585642Y-17036759D01*
X187641295Y-17073945D01*
X187676055Y-17108705D01*
X187713241Y-17164358D01*
X187732054Y-17209777D01*
X187747579Y-17287829D01*
X187750000Y-17312410D01*
X187750000Y-162000000D01*
X190500000Y-162000000D01*
X190500000Y-17312410D01*
X190502421Y-17287829D01*
X190517946Y-17209777D01*
X190536759Y-17164358D01*
X190573945Y-17108705D01*
X190608705Y-17073945D01*
X190664358Y-17036759D01*
X190709775Y-17017947D01*
X190787828Y-17002421D01*
X190812410Y-17000000D01*
X190937590Y-17000000D01*
X190962172Y-17002421D01*
X191040225Y-17017947D01*
X191085642Y-17036759D01*
X191141295Y-17073945D01*
X191176055Y-17108705D01*
X191213241Y-17164358D01*
X191232054Y-17209777D01*
X191247579Y-17287829D01*
X191250000Y-17312410D01*
X191250000Y-162000000D01*
X194000000Y-162000000D01*
X194000000Y-17312410D01*
X194002421Y-17287829D01*
X194017946Y-17209777D01*
X194036759Y-17164358D01*
X194073945Y-17108705D01*
X194108705Y-17073945D01*
X194164358Y-17036759D01*
X194209775Y-17017947D01*
X194287828Y-17002421D01*
X194312410Y-17000000D01*
X194437590Y-17000000D01*
X194462172Y-17002421D01*
X194540225Y-17017947D01*
X194585642Y-17036759D01*
X194641295Y-17073945D01*
X194676055Y-17108705D01*
X194713241Y-17164358D01*
X194732054Y-17209777D01*
X194747579Y-17287829D01*
X194750000Y-17312410D01*
X194750000Y-162000000D01*
X197500000Y-162000000D01*
X197500000Y-17312410D01*
X197502421Y-17287829D01*
X197517946Y-17209777D01*
X197536759Y-17164358D01*
X197573945Y-17108705D01*
X197608705Y-17073945D01*
X197664358Y-17036759D01*
X197709775Y-17017947D01*
X197787828Y-17002421D01*
X197812410Y-17000000D01*
X197937590Y-17000000D01*
X197962172Y-17002421D01*
X198040225Y-17017947D01*
X198085642Y-17036759D01*
X198141295Y-17073945D01*
X198176055Y-17108705D01*
X198213241Y-17164358D01*
X198232054Y-17209777D01*
X198247579Y-17287829D01*
X198250000Y-17312410D01*
X198250000Y-162000000D01*
X201000000Y-162000000D01*
X201000000Y-17312410D01*
X201002421Y-17287829D01*
X201017946Y-17209777D01*
X201036759Y-17164358D01*
X201073945Y-17108705D01*
X201108705Y-17073945D01*
X201164358Y-17036759D01*
X201209775Y-17017947D01*
X201287828Y-17002421D01*
X201312410Y-17000000D01*
X201437590Y-17000000D01*
X201462172Y-17002421D01*
X201540225Y-17017947D01*
X201585642Y-17036759D01*
X201641295Y-17073945D01*
X201676055Y-17108705D01*
X201713241Y-17164358D01*
X201732054Y-17209777D01*
X201747579Y-17287829D01*
X201750000Y-17312410D01*
X201750000Y-162000000D01*
X204500000Y-162000000D01*
X204500000Y-17312410D01*
X204502421Y-17287829D01*
X204517946Y-17209777D01*
X204536759Y-17164358D01*
X204573945Y-17108705D01*
X204608705Y-17073945D01*
X204664358Y-17036759D01*
X204709775Y-17017947D01*
X204787828Y-17002421D01*
X204812410Y-17000000D01*
X204937590Y-17000000D01*
X204962172Y-17002421D01*
X205040225Y-17017947D01*
X205085642Y-17036759D01*
X205141295Y-17073945D01*
X205176055Y-17108705D01*
X205213241Y-17164358D01*
X205232054Y-17209777D01*
X205247579Y-17287829D01*
X205250000Y-17312410D01*
X205250000Y-162000000D01*
X208000000Y-162000000D01*
X208000000Y-17312410D01*
X208002421Y-17287829D01*
X208017946Y-17209777D01*
X208036759Y-17164358D01*
X208073945Y-17108705D01*
X208108705Y-17073945D01*
X208164358Y-17036759D01*
X208209775Y-17017947D01*
X208287828Y-17002421D01*
X208312410Y-17000000D01*
X208437590Y-17000000D01*
X208462172Y-17002421D01*
X208540225Y-17017947D01*
X208585642Y-17036759D01*
X208641295Y-17073945D01*
X208676055Y-17108705D01*
X208713241Y-17164358D01*
X208732054Y-17209777D01*
X208747579Y-17287829D01*
X208750000Y-17312410D01*
X208750000Y-162000000D01*
X211500000Y-162000000D01*
X211500000Y-17312410D01*
X211502421Y-17287829D01*
X211517946Y-17209777D01*
X211536759Y-17164358D01*
X211573945Y-17108705D01*
X211608705Y-17073945D01*
X211664358Y-17036759D01*
X211709775Y-17017947D01*
X211787828Y-17002421D01*
X211812410Y-17000000D01*
X211937590Y-17000000D01*
X211962172Y-17002421D01*
X212040225Y-17017947D01*
X212085642Y-17036759D01*
X212141295Y-17073945D01*
X212176055Y-17108705D01*
X212213241Y-17164358D01*
X212232054Y-17209777D01*
X212247579Y-17287829D01*
X212250000Y-17312410D01*
X212250000Y-162000000D01*
X215000000Y-162000000D01*
X215000000Y-17312410D01*
X215002421Y-17287829D01*
X215017946Y-17209777D01*
X215036759Y-17164358D01*
X215073945Y-17108705D01*
X215108705Y-17073945D01*
X215164358Y-17036759D01*
X215209775Y-17017947D01*
X215287828Y-17002421D01*
X215312410Y-17000000D01*
X215437590Y-17000000D01*
X215462172Y-17002421D01*
X215540225Y-17017947D01*
X215585642Y-17036759D01*
X215641295Y-17073945D01*
X215676055Y-17108705D01*
X215713241Y-17164358D01*
X215732054Y-17209777D01*
X215747579Y-17287829D01*
X215750000Y-17312410D01*
X215750000Y-162000000D01*
X218500000Y-162000000D01*
X218500000Y-17312410D01*
X218502421Y-17287829D01*
X218517946Y-17209777D01*
X218536759Y-17164358D01*
X218573945Y-17108705D01*
X218608705Y-17073945D01*
X218664358Y-17036759D01*
X218709775Y-17017947D01*
X218787828Y-17002421D01*
X218812410Y-17000000D01*
X218937590Y-17000000D01*
X218962172Y-17002421D01*
X219040225Y-17017947D01*
X219085642Y-17036759D01*
X219141295Y-17073945D01*
X219176055Y-17108705D01*
X219213241Y-17164358D01*
X219232054Y-17209777D01*
X219247579Y-17287829D01*
X219250000Y-17312410D01*
X219250000Y-162000000D01*
X222000000Y-162000000D01*
X222000000Y-17312410D01*
X222002421Y-17287829D01*
X222017946Y-17209777D01*
X222036759Y-17164358D01*
X222073945Y-17108705D01*
X222108705Y-17073945D01*
X222164358Y-17036759D01*
X222209775Y-17017947D01*
X222287828Y-17002421D01*
X222312410Y-17000000D01*
X222437590Y-17000000D01*
X222462172Y-17002421D01*
X222540225Y-17017947D01*
X222585642Y-17036759D01*
X222641295Y-17073945D01*
X222676055Y-17108705D01*
X222713241Y-17164358D01*
X222732054Y-17209777D01*
X222747579Y-17287829D01*
X222750000Y-17312410D01*
X222750000Y-162000000D01*
X224237590Y-162000000D01*
X224262170Y-162002421D01*
X224286073Y-162007175D01*
X224321091Y-162014141D01*
X224366510Y-162032954D01*
X224386329Y-162046196D01*
X224405939Y-162059300D01*
X224440700Y-162094061D01*
X224467045Y-162133488D01*
X224485859Y-162178907D01*
X224495111Y-162225419D01*
X224495111Y-162274579D01*
X224485859Y-162321093D01*
X224467045Y-162366512D01*
X224440700Y-162405939D01*
X224405939Y-162440700D01*
X224386329Y-162453804D01*
X224366510Y-162467046D01*
X224321091Y-162485859D01*
X224286073Y-162492825D01*
X224262170Y-162497579D01*
X224237590Y-162500000D01*
X15812410Y-162500000D01*
X15787829Y-162497579D01*
X15778124Y-162495649D01*
X15709775Y-162482053D01*
X15664358Y-162463241D01*
X15608705Y-162426055D01*
X15573944Y-162391294D01*
X15536759Y-162335642D01*
X15517946Y-162290223D01*
X15509946Y-162250000D01*
X15502421Y-162212171D01*
X15500000Y-162187590D01*
X15500000Y-17312410D01*
X15502421Y-17287829D01*
X15517946Y-17209777D01*
X15536759Y-17164358D01*
X15573945Y-17108705D01*
X15608705Y-17073945D01*
X15664358Y-17036759D01*
X15709775Y-17017947D01*
X15787828Y-17002421D01*
X15812410Y-17000000D01*
X15937590Y-17000000D01*
X15962172Y-17002421D01*
G37*
G04 #@! TD.AperFunction*
M02*
