G04 #@! TF.GenerationSoftware,KiCad,Pcbnew,5.0.1*
G04 #@! TF.CreationDate,2019-02-24T21:27:12+01:00*
G04 #@! TF.ProjectId,Statikplatte,53746174696B706C617474652E6B6963,rev?*
G04 #@! TF.SameCoordinates,Original*
G04 #@! TF.FileFunction,Legend,Bot*
G04 #@! TF.FilePolarity,Positive*
%FSLAX46Y46*%
G04 Gerber Fmt 4.6, Leading zero omitted, Abs format (unit mm)*
G04 Created by KiCad (PCBNEW 5.0.1) date So 24 Feb 2019 21:27:12 CET*
%MOMM*%
%LPD*%
G01*
G04 APERTURE LIST*
%ADD10C,0.400000*%
%ADD11C,0.300000*%
%ADD12C,0.120000*%
%ADD13C,0.150000*%
G04 APERTURE END LIST*
D10*
X156357142Y-72815714D02*
X155357142Y-72815714D01*
X154928571Y-74387142D02*
X156357142Y-74387142D01*
X156357142Y-71387142D01*
X154928571Y-71387142D01*
X153214285Y-74387142D02*
X153500000Y-74244285D01*
X153642857Y-73958571D01*
X153642857Y-71387142D01*
X150928571Y-74244285D02*
X151214285Y-74387142D01*
X151785714Y-74387142D01*
X152071428Y-74244285D01*
X152214285Y-73958571D01*
X152214285Y-72815714D01*
X152071428Y-72530000D01*
X151785714Y-72387142D01*
X151214285Y-72387142D01*
X150928571Y-72530000D01*
X150785714Y-72815714D01*
X150785714Y-73101428D01*
X152214285Y-73387142D01*
X148214285Y-74244285D02*
X148500000Y-74387142D01*
X149071428Y-74387142D01*
X149357142Y-74244285D01*
X149500000Y-74101428D01*
X149642857Y-73815714D01*
X149642857Y-72958571D01*
X149500000Y-72672857D01*
X149357142Y-72530000D01*
X149071428Y-72387142D01*
X148500000Y-72387142D01*
X148214285Y-72530000D01*
X147357142Y-72387142D02*
X146214285Y-72387142D01*
X146928571Y-71387142D02*
X146928571Y-73958571D01*
X146785714Y-74244285D01*
X146500000Y-74387142D01*
X146214285Y-74387142D01*
X145214285Y-74387142D02*
X145214285Y-72387142D01*
X145214285Y-72958571D02*
X145071428Y-72672857D01*
X144928571Y-72530000D01*
X144642857Y-72387142D01*
X144357142Y-72387142D01*
X142928571Y-74387142D02*
X143214285Y-74244285D01*
X143357142Y-74101428D01*
X143500000Y-73815714D01*
X143500000Y-72958571D01*
X143357142Y-72672857D01*
X143214285Y-72530000D01*
X142928571Y-72387142D01*
X142500000Y-72387142D01*
X142214285Y-72530000D01*
X142071428Y-72672857D01*
X141928571Y-72958571D01*
X141928571Y-73815714D01*
X142071428Y-74101428D01*
X142214285Y-74244285D01*
X142500000Y-74387142D01*
X142928571Y-74387142D01*
X140785714Y-74244285D02*
X140500000Y-74387142D01*
X139928571Y-74387142D01*
X139642857Y-74244285D01*
X139500000Y-73958571D01*
X139500000Y-73815714D01*
X139642857Y-73530000D01*
X139928571Y-73387142D01*
X140357142Y-73387142D01*
X140642857Y-73244285D01*
X140785714Y-72958571D01*
X140785714Y-72815714D01*
X140642857Y-72530000D01*
X140357142Y-72387142D01*
X139928571Y-72387142D01*
X139642857Y-72530000D01*
X138642857Y-72387142D02*
X137500000Y-72387142D01*
X138214285Y-71387142D02*
X138214285Y-73958571D01*
X138071428Y-74244285D01*
X137785714Y-74387142D01*
X137500000Y-74387142D01*
X135214285Y-74387142D02*
X135214285Y-72815714D01*
X135357142Y-72530000D01*
X135642857Y-72387142D01*
X136214285Y-72387142D01*
X136500000Y-72530000D01*
X135214285Y-74244285D02*
X135500000Y-74387142D01*
X136214285Y-74387142D01*
X136500000Y-74244285D01*
X136642857Y-73958571D01*
X136642857Y-73672857D01*
X136500000Y-73387142D01*
X136214285Y-73244285D01*
X135500000Y-73244285D01*
X135214285Y-73101428D01*
X134214285Y-72387142D02*
X133071428Y-72387142D01*
X133785714Y-71387142D02*
X133785714Y-73958571D01*
X133642857Y-74244285D01*
X133357142Y-74387142D01*
X133071428Y-74387142D01*
X132071428Y-74387142D02*
X132071428Y-72387142D01*
X132071428Y-71387142D02*
X132214285Y-71530000D01*
X132071428Y-71672857D01*
X131928571Y-71530000D01*
X132071428Y-71387142D01*
X132071428Y-71672857D01*
X129357142Y-74244285D02*
X129642857Y-74387142D01*
X130214285Y-74387142D01*
X130499999Y-74244285D01*
X130642857Y-74101428D01*
X130785714Y-73815714D01*
X130785714Y-72958571D01*
X130642857Y-72672857D01*
X130499999Y-72530000D01*
X130214285Y-72387142D01*
X129642857Y-72387142D01*
X129357142Y-72530000D01*
X124499999Y-74387142D02*
X124499999Y-72815714D01*
X124642857Y-72530000D01*
X124928571Y-72387142D01*
X125499999Y-72387142D01*
X125785714Y-72530000D01*
X124499999Y-74244285D02*
X124785714Y-74387142D01*
X125499999Y-74387142D01*
X125785714Y-74244285D01*
X125928571Y-73958571D01*
X125928571Y-73672857D01*
X125785714Y-73387142D01*
X125499999Y-73244285D01*
X124785714Y-73244285D01*
X124499999Y-73101428D01*
X121785714Y-74387142D02*
X121785714Y-71387142D01*
X121785714Y-74244285D02*
X122071428Y-74387142D01*
X122642857Y-74387142D01*
X122928571Y-74244285D01*
X123071428Y-74101428D01*
X123214285Y-73815714D01*
X123214285Y-72958571D01*
X123071428Y-72672857D01*
X122928571Y-72530000D01*
X122642857Y-72387142D01*
X122071428Y-72387142D01*
X121785714Y-72530000D01*
X120357142Y-74387142D02*
X120357142Y-71387142D01*
X119071428Y-74387142D02*
X119071428Y-72815714D01*
X119214285Y-72530000D01*
X119499999Y-72387142D01*
X119928571Y-72387142D01*
X120214285Y-72530000D01*
X120357142Y-72672857D01*
X116499999Y-74244285D02*
X116785714Y-74387142D01*
X117357142Y-74387142D01*
X117642857Y-74244285D01*
X117785714Y-73958571D01*
X117785714Y-72815714D01*
X117642857Y-72530000D01*
X117357142Y-72387142D01*
X116785714Y-72387142D01*
X116499999Y-72530000D01*
X116357142Y-72815714D01*
X116357142Y-73101428D01*
X117785714Y-73387142D01*
X115214285Y-74244285D02*
X114928571Y-74387142D01*
X114357142Y-74387142D01*
X114071428Y-74244285D01*
X113928571Y-73958571D01*
X113928571Y-73815714D01*
X114071428Y-73530000D01*
X114357142Y-73387142D01*
X114785714Y-73387142D01*
X115071428Y-73244285D01*
X115214285Y-72958571D01*
X115214285Y-72815714D01*
X115071428Y-72530000D01*
X114785714Y-72387142D01*
X114357142Y-72387142D01*
X114071428Y-72530000D01*
X112642857Y-74387142D02*
X112642857Y-72387142D01*
X112642857Y-71387142D02*
X112785714Y-71530000D01*
X112642857Y-71672857D01*
X112499999Y-71530000D01*
X112642857Y-71387142D01*
X112642857Y-71672857D01*
X110785714Y-74387142D02*
X111071428Y-74244285D01*
X111214285Y-74101428D01*
X111357142Y-73815714D01*
X111357142Y-72958571D01*
X111214285Y-72672857D01*
X111071428Y-72530000D01*
X110785714Y-72387142D01*
X110357142Y-72387142D01*
X110071428Y-72530000D01*
X109928571Y-72672857D01*
X109785714Y-72958571D01*
X109785714Y-73815714D01*
X109928571Y-74101428D01*
X110071428Y-74244285D01*
X110357142Y-74387142D01*
X110785714Y-74387142D01*
X108499999Y-72387142D02*
X108499999Y-74387142D01*
X108499999Y-72672857D02*
X108357142Y-72530000D01*
X108071428Y-72387142D01*
X107642857Y-72387142D01*
X107357142Y-72530000D01*
X107214285Y-72815714D01*
X107214285Y-74387142D01*
X103499999Y-72387142D02*
X103499999Y-75387142D01*
X103499999Y-72530000D02*
X103214285Y-72387142D01*
X102642857Y-72387142D01*
X102357142Y-72530000D01*
X102214285Y-72672857D01*
X102071428Y-72958571D01*
X102071428Y-73815714D01*
X102214285Y-74101428D01*
X102357142Y-74244285D01*
X102642857Y-74387142D01*
X103214285Y-74387142D01*
X103499999Y-74244285D01*
X100357142Y-74387142D02*
X100642857Y-74244285D01*
X100785714Y-73958571D01*
X100785714Y-71387142D01*
X97928571Y-74387142D02*
X97928571Y-72815714D01*
X98071428Y-72530000D01*
X98357142Y-72387142D01*
X98928571Y-72387142D01*
X99214285Y-72530000D01*
X97928571Y-74244285D02*
X98214285Y-74387142D01*
X98928571Y-74387142D01*
X99214285Y-74244285D01*
X99357142Y-73958571D01*
X99357142Y-73672857D01*
X99214285Y-73387142D01*
X98928571Y-73244285D01*
X98214285Y-73244285D01*
X97928571Y-73101428D01*
X96928571Y-72387142D02*
X95785714Y-72387142D01*
X96499999Y-71387142D02*
X96499999Y-73958571D01*
X96357142Y-74244285D01*
X96071428Y-74387142D01*
X95785714Y-74387142D01*
X93642857Y-74244285D02*
X93928571Y-74387142D01*
X94499999Y-74387142D01*
X94785714Y-74244285D01*
X94928571Y-73958571D01*
X94928571Y-72815714D01*
X94785714Y-72530000D01*
X94499999Y-72387142D01*
X93928571Y-72387142D01*
X93642857Y-72530000D01*
X93499999Y-72815714D01*
X93499999Y-73101428D01*
X94928571Y-73387142D01*
D11*
X211142857Y-73250000D02*
X211285714Y-73178571D01*
X211500000Y-73178571D01*
X211714285Y-73250000D01*
X211857142Y-73392857D01*
X211928571Y-73535714D01*
X212000000Y-73821428D01*
X212000000Y-74035714D01*
X211928571Y-74321428D01*
X211857142Y-74464285D01*
X211714285Y-74607142D01*
X211500000Y-74678571D01*
X211357142Y-74678571D01*
X211142857Y-74607142D01*
X211071428Y-74535714D01*
X211071428Y-74035714D01*
X211357142Y-74035714D01*
X210428571Y-74678571D02*
X210428571Y-73178571D01*
X209571428Y-74678571D01*
X209571428Y-73178571D01*
X208857142Y-74678571D02*
X208857142Y-73178571D01*
X208500000Y-73178571D01*
X208285714Y-73250000D01*
X208142857Y-73392857D01*
X208071428Y-73535714D01*
X208000000Y-73821428D01*
X208000000Y-74035714D01*
X208071428Y-74321428D01*
X208142857Y-74464285D01*
X208285714Y-74607142D01*
X208500000Y-74678571D01*
X208857142Y-74678571D01*
X31142857Y-73250000D02*
X31285714Y-73178571D01*
X31500000Y-73178571D01*
X31714285Y-73250000D01*
X31857142Y-73392857D01*
X31928571Y-73535714D01*
X32000000Y-73821428D01*
X32000000Y-74035714D01*
X31928571Y-74321428D01*
X31857142Y-74464285D01*
X31714285Y-74607142D01*
X31500000Y-74678571D01*
X31357142Y-74678571D01*
X31142857Y-74607142D01*
X31071428Y-74535714D01*
X31071428Y-74035714D01*
X31357142Y-74035714D01*
X30428571Y-74678571D02*
X30428571Y-73178571D01*
X29571428Y-74678571D01*
X29571428Y-73178571D01*
X28857142Y-74678571D02*
X28857142Y-73178571D01*
X28500000Y-73178571D01*
X28285714Y-73250000D01*
X28142857Y-73392857D01*
X28071428Y-73535714D01*
X28000000Y-73821428D01*
X28000000Y-74035714D01*
X28071428Y-74321428D01*
X28142857Y-74464285D01*
X28285714Y-74607142D01*
X28500000Y-74678571D01*
X28857142Y-74678571D01*
X106142857Y-148250000D02*
X106285714Y-148178571D01*
X106500000Y-148178571D01*
X106714285Y-148250000D01*
X106857142Y-148392857D01*
X106928571Y-148535714D01*
X107000000Y-148821428D01*
X107000000Y-149035714D01*
X106928571Y-149321428D01*
X106857142Y-149464285D01*
X106714285Y-149607142D01*
X106500000Y-149678571D01*
X106357142Y-149678571D01*
X106142857Y-149607142D01*
X106071428Y-149535714D01*
X106071428Y-149035714D01*
X106357142Y-149035714D01*
X105428571Y-149678571D02*
X105428571Y-148178571D01*
X104571428Y-149678571D01*
X104571428Y-148178571D01*
X103857142Y-149678571D02*
X103857142Y-148178571D01*
X103500000Y-148178571D01*
X103285714Y-148250000D01*
X103142857Y-148392857D01*
X103071428Y-148535714D01*
X103000000Y-148821428D01*
X103000000Y-149035714D01*
X103071428Y-149321428D01*
X103142857Y-149464285D01*
X103285714Y-149607142D01*
X103500000Y-149678571D01*
X103857142Y-149678571D01*
X106142857Y-28250000D02*
X106285714Y-28178571D01*
X106500000Y-28178571D01*
X106714285Y-28250000D01*
X106857142Y-28392857D01*
X106928571Y-28535714D01*
X107000000Y-28821428D01*
X107000000Y-29035714D01*
X106928571Y-29321428D01*
X106857142Y-29464285D01*
X106714285Y-29607142D01*
X106500000Y-29678571D01*
X106357142Y-29678571D01*
X106142857Y-29607142D01*
X106071428Y-29535714D01*
X106071428Y-29035714D01*
X106357142Y-29035714D01*
X105428571Y-29678571D02*
X105428571Y-28178571D01*
X104571428Y-29678571D01*
X104571428Y-28178571D01*
X103857142Y-29678571D02*
X103857142Y-28178571D01*
X103500000Y-28178571D01*
X103285714Y-28250000D01*
X103142857Y-28392857D01*
X103071428Y-28535714D01*
X103000000Y-28821428D01*
X103000000Y-29035714D01*
X103071428Y-29321428D01*
X103142857Y-29464285D01*
X103285714Y-29607142D01*
X103500000Y-29678571D01*
X103857142Y-29678571D01*
X136071428Y-29678571D02*
X136071428Y-28178571D01*
X136071428Y-28892857D02*
X135214285Y-28892857D01*
X135214285Y-29678571D02*
X135214285Y-28178571D01*
X134714285Y-28178571D02*
X134214285Y-29678571D01*
X133714285Y-28178571D01*
X136071428Y-149678571D02*
X136071428Y-148178571D01*
X136071428Y-148892857D02*
X135214285Y-148892857D01*
X135214285Y-149678571D02*
X135214285Y-148178571D01*
X134714285Y-148178571D02*
X134214285Y-149678571D01*
X133714285Y-148178571D01*
X211071428Y-104678571D02*
X211071428Y-103178571D01*
X211071428Y-103892857D02*
X210214285Y-103892857D01*
X210214285Y-104678571D02*
X210214285Y-103178571D01*
X209714285Y-103178571D02*
X209214285Y-104678571D01*
X208714285Y-103178571D01*
X31071428Y-104678571D02*
X31071428Y-103178571D01*
X31071428Y-103892857D02*
X30214285Y-103892857D01*
X30214285Y-104678571D02*
X30214285Y-103178571D01*
X29714285Y-103178571D02*
X29214285Y-104678571D01*
X28714285Y-103178571D01*
X152392857Y-77953571D02*
X152392857Y-76453571D01*
X152035714Y-76453571D01*
X151821428Y-76525000D01*
X151678571Y-76667857D01*
X151607142Y-76810714D01*
X151535714Y-77096428D01*
X151535714Y-77310714D01*
X151607142Y-77596428D01*
X151678571Y-77739285D01*
X151821428Y-77882142D01*
X152035714Y-77953571D01*
X152392857Y-77953571D01*
X150321428Y-77882142D02*
X150464285Y-77953571D01*
X150750000Y-77953571D01*
X150892857Y-77882142D01*
X150964285Y-77739285D01*
X150964285Y-77167857D01*
X150892857Y-77025000D01*
X150750000Y-76953571D01*
X150464285Y-76953571D01*
X150321428Y-77025000D01*
X150250000Y-77167857D01*
X150250000Y-77310714D01*
X150964285Y-77453571D01*
X149678571Y-77882142D02*
X149535714Y-77953571D01*
X149250000Y-77953571D01*
X149107142Y-77882142D01*
X149035714Y-77739285D01*
X149035714Y-77667857D01*
X149107142Y-77525000D01*
X149250000Y-77453571D01*
X149464285Y-77453571D01*
X149607142Y-77382142D01*
X149678571Y-77239285D01*
X149678571Y-77167857D01*
X149607142Y-77025000D01*
X149464285Y-76953571D01*
X149250000Y-76953571D01*
X149107142Y-77025000D01*
X148392857Y-77953571D02*
X148392857Y-76953571D01*
X148392857Y-76453571D02*
X148464285Y-76525000D01*
X148392857Y-76596428D01*
X148321428Y-76525000D01*
X148392857Y-76453571D01*
X148392857Y-76596428D01*
X147035714Y-76953571D02*
X147035714Y-78167857D01*
X147107142Y-78310714D01*
X147178571Y-78382142D01*
X147321428Y-78453571D01*
X147535714Y-78453571D01*
X147678571Y-78382142D01*
X147035714Y-77882142D02*
X147178571Y-77953571D01*
X147464285Y-77953571D01*
X147607142Y-77882142D01*
X147678571Y-77810714D01*
X147750000Y-77667857D01*
X147750000Y-77239285D01*
X147678571Y-77096428D01*
X147607142Y-77025000D01*
X147464285Y-76953571D01*
X147178571Y-76953571D01*
X147035714Y-77025000D01*
X146321428Y-76953571D02*
X146321428Y-77953571D01*
X146321428Y-77096428D02*
X146250000Y-77025000D01*
X146107142Y-76953571D01*
X145892857Y-76953571D01*
X145750000Y-77025000D01*
X145678571Y-77167857D01*
X145678571Y-77953571D01*
X143821428Y-77953571D02*
X143821428Y-76453571D01*
X143821428Y-77025000D02*
X143678571Y-76953571D01*
X143392857Y-76953571D01*
X143250000Y-77025000D01*
X143178571Y-77096428D01*
X143107142Y-77239285D01*
X143107142Y-77667857D01*
X143178571Y-77810714D01*
X143250000Y-77882142D01*
X143392857Y-77953571D01*
X143678571Y-77953571D01*
X143821428Y-77882142D01*
X142607142Y-76953571D02*
X142250000Y-77953571D01*
X141892857Y-76953571D02*
X142250000Y-77953571D01*
X142392857Y-78310714D01*
X142464285Y-78382142D01*
X142607142Y-78453571D01*
X139750000Y-76453571D02*
X139750000Y-77525000D01*
X139821428Y-77739285D01*
X139964285Y-77882142D01*
X140178571Y-77953571D01*
X140321428Y-77953571D01*
X138392857Y-77953571D02*
X138392857Y-77167857D01*
X138464285Y-77025000D01*
X138607142Y-76953571D01*
X138892857Y-76953571D01*
X139035714Y-77025000D01*
X138392857Y-77882142D02*
X138535714Y-77953571D01*
X138892857Y-77953571D01*
X139035714Y-77882142D01*
X139107142Y-77739285D01*
X139107142Y-77596428D01*
X139035714Y-77453571D01*
X138892857Y-77382142D01*
X138535714Y-77382142D01*
X138392857Y-77310714D01*
X137678571Y-76953571D02*
X137678571Y-77953571D01*
X137678571Y-77096428D02*
X137607142Y-77025000D01*
X137464285Y-76953571D01*
X137250000Y-76953571D01*
X137107142Y-77025000D01*
X137035714Y-77167857D01*
X137035714Y-77953571D01*
X135178571Y-77953571D02*
X135178571Y-76453571D01*
X135178571Y-77167857D02*
X134321428Y-77167857D01*
X134321428Y-77953571D02*
X134321428Y-76453571D01*
X133035714Y-77882142D02*
X133178571Y-77953571D01*
X133464285Y-77953571D01*
X133607142Y-77882142D01*
X133678571Y-77739285D01*
X133678571Y-77167857D01*
X133607142Y-77025000D01*
X133464285Y-76953571D01*
X133178571Y-76953571D01*
X133035714Y-77025000D01*
X132964285Y-77167857D01*
X132964285Y-77310714D01*
X133678571Y-77453571D01*
X132321428Y-76953571D02*
X132321428Y-77953571D01*
X132321428Y-77096428D02*
X132250000Y-77025000D01*
X132107142Y-76953571D01*
X131892857Y-76953571D01*
X131750000Y-77025000D01*
X131678571Y-77167857D01*
X131678571Y-77953571D01*
X130964285Y-77953571D02*
X130964285Y-76953571D01*
X130964285Y-77239285D02*
X130892857Y-77096428D01*
X130821428Y-77025000D01*
X130678571Y-76953571D01*
X130535714Y-76953571D01*
X130035714Y-77953571D02*
X130035714Y-76953571D01*
X130035714Y-76453571D02*
X130107142Y-76525000D01*
X130035714Y-76596428D01*
X129964285Y-76525000D01*
X130035714Y-76453571D01*
X130035714Y-76596428D01*
X129321428Y-77953571D02*
X129321428Y-76453571D01*
X129178571Y-77382142D02*
X128750000Y-77953571D01*
X128750000Y-76953571D02*
X129321428Y-77525000D01*
X126964285Y-77953571D02*
X126964285Y-76453571D01*
X126964285Y-77167857D02*
X126107142Y-77167857D01*
X126107142Y-77953571D02*
X126107142Y-76453571D01*
X124821428Y-77882142D02*
X124964285Y-77953571D01*
X125250000Y-77953571D01*
X125392857Y-77882142D01*
X125464285Y-77739285D01*
X125464285Y-77167857D01*
X125392857Y-77025000D01*
X125250000Y-76953571D01*
X124964285Y-76953571D01*
X124821428Y-77025000D01*
X124750000Y-77167857D01*
X124750000Y-77310714D01*
X125464285Y-77453571D01*
X124107142Y-77953571D02*
X124107142Y-76953571D01*
X124107142Y-77096428D02*
X124035714Y-77025000D01*
X123892857Y-76953571D01*
X123678571Y-76953571D01*
X123535714Y-77025000D01*
X123464285Y-77167857D01*
X123464285Y-77953571D01*
X123464285Y-77167857D02*
X123392857Y-77025000D01*
X123250000Y-76953571D01*
X123035714Y-76953571D01*
X122892857Y-77025000D01*
X122821428Y-77167857D01*
X122821428Y-77953571D01*
X122178571Y-77882142D02*
X122035714Y-77953571D01*
X121750000Y-77953571D01*
X121607142Y-77882142D01*
X121535714Y-77739285D01*
X121535714Y-77667857D01*
X121607142Y-77525000D01*
X121750000Y-77453571D01*
X121964285Y-77453571D01*
X122107142Y-77382142D01*
X122178571Y-77239285D01*
X122178571Y-77167857D01*
X122107142Y-77025000D01*
X121964285Y-76953571D01*
X121750000Y-76953571D01*
X121607142Y-77025000D01*
X120892857Y-77953571D02*
X120892857Y-76953571D01*
X120892857Y-76453571D02*
X120964285Y-76525000D01*
X120892857Y-76596428D01*
X120821428Y-76525000D01*
X120892857Y-76453571D01*
X120892857Y-76596428D01*
X120178571Y-76953571D02*
X120178571Y-77953571D01*
X120178571Y-77096428D02*
X120107142Y-77025000D01*
X119964285Y-76953571D01*
X119750000Y-76953571D01*
X119607142Y-77025000D01*
X119535714Y-77167857D01*
X119535714Y-77953571D01*
X118178571Y-76953571D02*
X118178571Y-78167857D01*
X118250000Y-78310714D01*
X118321428Y-78382142D01*
X118464285Y-78453571D01*
X118678571Y-78453571D01*
X118821428Y-78382142D01*
X118178571Y-77882142D02*
X118321428Y-77953571D01*
X118607142Y-77953571D01*
X118750000Y-77882142D01*
X118821428Y-77810714D01*
X118892857Y-77667857D01*
X118892857Y-77239285D01*
X118821428Y-77096428D01*
X118750000Y-77025000D01*
X118607142Y-76953571D01*
X118321428Y-76953571D01*
X118178571Y-77025000D01*
X115678571Y-77953571D02*
X115678571Y-77167857D01*
X115750000Y-77025000D01*
X115892857Y-76953571D01*
X116178571Y-76953571D01*
X116321428Y-77025000D01*
X115678571Y-77882142D02*
X115821428Y-77953571D01*
X116178571Y-77953571D01*
X116321428Y-77882142D01*
X116392857Y-77739285D01*
X116392857Y-77596428D01*
X116321428Y-77453571D01*
X116178571Y-77382142D01*
X115821428Y-77382142D01*
X115678571Y-77310714D01*
X114964285Y-76953571D02*
X114964285Y-77953571D01*
X114964285Y-77096428D02*
X114892857Y-77025000D01*
X114750000Y-76953571D01*
X114535714Y-76953571D01*
X114392857Y-77025000D01*
X114321428Y-77167857D01*
X114321428Y-77953571D01*
X112964285Y-77953571D02*
X112964285Y-76453571D01*
X112964285Y-77882142D02*
X113107142Y-77953571D01*
X113392857Y-77953571D01*
X113535714Y-77882142D01*
X113607142Y-77810714D01*
X113678571Y-77667857D01*
X113678571Y-77239285D01*
X113607142Y-77096428D01*
X113535714Y-77025000D01*
X113392857Y-76953571D01*
X113107142Y-76953571D01*
X112964285Y-77025000D01*
X111107142Y-77953571D02*
X111107142Y-76453571D01*
X110250000Y-77953571D01*
X110250000Y-76453571D01*
X109535714Y-77953571D02*
X109535714Y-76953571D01*
X109535714Y-76453571D02*
X109607142Y-76525000D01*
X109535714Y-76596428D01*
X109464285Y-76525000D01*
X109535714Y-76453571D01*
X109535714Y-76596428D01*
X108821428Y-77953571D02*
X108821428Y-76453571D01*
X108678571Y-77382142D02*
X108250000Y-77953571D01*
X108250000Y-76953571D02*
X108821428Y-77525000D01*
X107392857Y-77953571D02*
X107535714Y-77882142D01*
X107607142Y-77739285D01*
X107607142Y-76453571D01*
X106178571Y-77953571D02*
X106178571Y-77167857D01*
X106250000Y-77025000D01*
X106392857Y-76953571D01*
X106678571Y-76953571D01*
X106821428Y-77025000D01*
X106178571Y-77882142D02*
X106321428Y-77953571D01*
X106678571Y-77953571D01*
X106821428Y-77882142D01*
X106892857Y-77739285D01*
X106892857Y-77596428D01*
X106821428Y-77453571D01*
X106678571Y-77382142D01*
X106321428Y-77382142D01*
X106178571Y-77310714D01*
X105535714Y-77882142D02*
X105392857Y-77953571D01*
X105107142Y-77953571D01*
X104964285Y-77882142D01*
X104892857Y-77739285D01*
X104892857Y-77667857D01*
X104964285Y-77525000D01*
X105107142Y-77453571D01*
X105321428Y-77453571D01*
X105464285Y-77382142D01*
X105535714Y-77239285D01*
X105535714Y-77167857D01*
X105464285Y-77025000D01*
X105321428Y-76953571D01*
X105107142Y-76953571D01*
X104964285Y-77025000D01*
X102607142Y-77167857D02*
X103107142Y-77167857D01*
X103107142Y-77953571D02*
X103107142Y-76453571D01*
X102392857Y-76453571D01*
X101178571Y-77953571D02*
X101178571Y-77167857D01*
X101250000Y-77025000D01*
X101392857Y-76953571D01*
X101678571Y-76953571D01*
X101821428Y-77025000D01*
X101178571Y-77882142D02*
X101321428Y-77953571D01*
X101678571Y-77953571D01*
X101821428Y-77882142D01*
X101892857Y-77739285D01*
X101892857Y-77596428D01*
X101821428Y-77453571D01*
X101678571Y-77382142D01*
X101321428Y-77382142D01*
X101178571Y-77310714D01*
X99821428Y-76953571D02*
X99821428Y-77953571D01*
X100464285Y-76953571D02*
X100464285Y-77739285D01*
X100392857Y-77882142D01*
X100250000Y-77953571D01*
X100035714Y-77953571D01*
X99892857Y-77882142D01*
X99821428Y-77810714D01*
X99321428Y-76953571D02*
X98750000Y-76953571D01*
X99107142Y-76453571D02*
X99107142Y-77739285D01*
X99035714Y-77882142D01*
X98892857Y-77953571D01*
X98750000Y-77953571D01*
X98250000Y-77953571D02*
X98250000Y-76453571D01*
X97607142Y-77953571D02*
X97607142Y-77167857D01*
X97678571Y-77025000D01*
X97821428Y-76953571D01*
X98035714Y-76953571D01*
X98178571Y-77025000D01*
X98250000Y-77096428D01*
X70142857Y-86178571D02*
X69642857Y-87678571D01*
X69142857Y-86178571D01*
X68642857Y-87678571D02*
X68642857Y-86178571D01*
X67928571Y-87678571D02*
X67928571Y-86178571D01*
X67071428Y-87678571D01*
X67071428Y-86178571D01*
X69642857Y-90250000D02*
X69785714Y-90178571D01*
X70000000Y-90178571D01*
X70214285Y-90250000D01*
X70357142Y-90392857D01*
X70428571Y-90535714D01*
X70500000Y-90821428D01*
X70500000Y-91035714D01*
X70428571Y-91321428D01*
X70357142Y-91464285D01*
X70214285Y-91607142D01*
X70000000Y-91678571D01*
X69857142Y-91678571D01*
X69642857Y-91607142D01*
X69571428Y-91535714D01*
X69571428Y-91035714D01*
X69857142Y-91035714D01*
X68928571Y-91678571D02*
X68928571Y-90178571D01*
X68071428Y-91678571D01*
X68071428Y-90178571D01*
X67357142Y-91678571D02*
X67357142Y-90178571D01*
X67000000Y-90178571D01*
X66785714Y-90250000D01*
X66642857Y-90392857D01*
X66571428Y-90535714D01*
X66500000Y-90821428D01*
X66500000Y-91035714D01*
X66571428Y-91321428D01*
X66642857Y-91464285D01*
X66785714Y-91607142D01*
X67000000Y-91678571D01*
X67357142Y-91678571D01*
D12*
G04 #@! TO.C,R2*
X90790000Y-96052064D02*
X90790000Y-91947936D01*
X94210000Y-96052064D02*
X94210000Y-91947936D01*
D13*
G04 #@! TO.C,J3*
X84500000Y-85000000D02*
X72500000Y-85000000D01*
X72500000Y-93000000D02*
X84500000Y-93000000D01*
X72500000Y-85000000D02*
X72500000Y-85750000D01*
X84500000Y-85000000D02*
X84500000Y-85750000D01*
X84500000Y-88250000D02*
X84500000Y-89750000D01*
X84500000Y-92250000D02*
X84500000Y-93000000D01*
X72500000Y-92250000D02*
X72500000Y-93000000D01*
X72500000Y-88250000D02*
X72500000Y-89750000D01*
G04 #@! TO.C,D1*
X99100000Y-87575000D02*
X101900000Y-87575000D01*
X99100000Y-87475000D02*
X101900000Y-87475000D01*
X99100000Y-87275000D02*
X101900000Y-87275000D01*
X99100000Y-87375000D02*
X101900000Y-87375000D01*
X101900000Y-87175000D02*
X101900000Y-90825000D01*
X99100000Y-87175000D02*
X101900000Y-87175000D01*
X99100000Y-90825000D02*
X99100000Y-87175000D01*
X101900000Y-90825000D02*
X99100000Y-90825000D01*
D12*
G04 #@! TO.C,R1*
X165652064Y-96710000D02*
X161547936Y-96710000D01*
X165652064Y-93290000D02*
X161547936Y-93290000D01*
G04 #@! TO.C,C1*
X98886252Y-84710000D02*
X96113748Y-84710000D01*
X98886252Y-81290000D02*
X96113748Y-81290000D01*
D13*
G04 #@! TO.C,D9*
X147100000Y-87575000D02*
X149900000Y-87575000D01*
X147100000Y-87475000D02*
X149900000Y-87475000D01*
X147100000Y-87275000D02*
X149900000Y-87275000D01*
X147100000Y-87375000D02*
X149900000Y-87375000D01*
X149900000Y-87175000D02*
X149900000Y-90825000D01*
X147100000Y-87175000D02*
X149900000Y-87175000D01*
X147100000Y-90825000D02*
X147100000Y-87175000D01*
X149900000Y-90825000D02*
X147100000Y-90825000D01*
G04 #@! TO.C,D8*
X143900000Y-90425000D02*
X141100000Y-90425000D01*
X143900000Y-90525000D02*
X141100000Y-90525000D01*
X143900000Y-90725000D02*
X141100000Y-90725000D01*
X143900000Y-90625000D02*
X141100000Y-90625000D01*
X141100000Y-90825000D02*
X141100000Y-87175000D01*
X143900000Y-90825000D02*
X141100000Y-90825000D01*
X143900000Y-87175000D02*
X143900000Y-90825000D01*
X141100000Y-87175000D02*
X143900000Y-87175000D01*
G04 #@! TO.C,D7*
X135100000Y-87575001D02*
X137900000Y-87575001D01*
X135100000Y-87475001D02*
X137900000Y-87475001D01*
X135100000Y-87275001D02*
X137900000Y-87275001D01*
X135100000Y-87375001D02*
X137900000Y-87375001D01*
X137900000Y-87175001D02*
X137900000Y-90825001D01*
X135100000Y-87175001D02*
X137900000Y-87175001D01*
X135100000Y-90825001D02*
X135100000Y-87175001D01*
X137900000Y-90825001D02*
X135100000Y-90825001D01*
G04 #@! TO.C,D6*
X131900000Y-90424999D02*
X129100000Y-90424999D01*
X131900000Y-90524999D02*
X129100000Y-90524999D01*
X131900000Y-90724999D02*
X129100000Y-90724999D01*
X131900000Y-90624999D02*
X129100000Y-90624999D01*
X129100000Y-90824999D02*
X129100000Y-87174999D01*
X131900000Y-90824999D02*
X129100000Y-90824999D01*
X131900000Y-87174999D02*
X131900000Y-90824999D01*
X129100000Y-87174999D02*
X131900000Y-87174999D01*
G04 #@! TO.C,D5*
X123100000Y-87575000D02*
X125900000Y-87575000D01*
X123100000Y-87475000D02*
X125900000Y-87475000D01*
X123100000Y-87275000D02*
X125900000Y-87275000D01*
X123100000Y-87375000D02*
X125900000Y-87375000D01*
X125900000Y-87175000D02*
X125900000Y-90825000D01*
X123100000Y-87175000D02*
X125900000Y-87175000D01*
X123100000Y-90825000D02*
X123100000Y-87175000D01*
X125900000Y-90825000D02*
X123100000Y-90825000D01*
G04 #@! TO.C,D4*
X119900000Y-90425000D02*
X117100000Y-90425000D01*
X119900000Y-90525000D02*
X117100000Y-90525000D01*
X119900000Y-90725000D02*
X117100000Y-90725000D01*
X119900000Y-90625000D02*
X117100000Y-90625000D01*
X117100000Y-90825000D02*
X117100000Y-87175000D01*
X119900000Y-90825000D02*
X117100000Y-90825000D01*
X119900000Y-87175000D02*
X119900000Y-90825000D01*
X117100000Y-87175000D02*
X119900000Y-87175000D01*
G04 #@! TO.C,D3*
X111100000Y-87575000D02*
X113900000Y-87575000D01*
X111100000Y-87475000D02*
X113900000Y-87475000D01*
X111100000Y-87275000D02*
X113900000Y-87275000D01*
X111100000Y-87375000D02*
X113900000Y-87375000D01*
X113900000Y-87175000D02*
X113900000Y-90825000D01*
X111100000Y-87175000D02*
X113900000Y-87175000D01*
X111100000Y-90825000D02*
X111100000Y-87175000D01*
X113900000Y-90825000D02*
X111100000Y-90825000D01*
G04 #@! TO.C,D2*
X107900000Y-90424999D02*
X105100000Y-90424999D01*
X107900000Y-90524999D02*
X105100000Y-90524999D01*
X107900000Y-90724999D02*
X105100000Y-90724999D01*
X107900000Y-90624999D02*
X105100000Y-90624999D01*
X105100000Y-90824999D02*
X105100000Y-87174999D01*
X107900000Y-90824999D02*
X105100000Y-90824999D01*
X107900000Y-87174999D02*
X107900000Y-90824999D01*
X105100000Y-87174999D02*
X107900000Y-87174999D01*
G04 #@! TO.C,D10*
X155900000Y-90425000D02*
X153100000Y-90425000D01*
X155900000Y-90525000D02*
X153100000Y-90525000D01*
X155900000Y-90725000D02*
X153100000Y-90725000D01*
X155900000Y-90625000D02*
X153100000Y-90625000D01*
X153100000Y-90825000D02*
X153100000Y-87175000D01*
X155900000Y-90825000D02*
X153100000Y-90825000D01*
X155900000Y-87175000D02*
X155900000Y-90825000D01*
X153100000Y-87175000D02*
X155900000Y-87175000D01*
D12*
G04 #@! TO.C,C10*
X152748752Y-96710000D02*
X149976248Y-96710000D01*
X152748752Y-93290000D02*
X149976248Y-93290000D01*
G04 #@! TO.C,C9*
X146886252Y-84710000D02*
X144113748Y-84710000D01*
X146886252Y-81290000D02*
X144113748Y-81290000D01*
G04 #@! TO.C,C8*
X140886252Y-96710000D02*
X138113748Y-96710000D01*
X140886252Y-93290000D02*
X138113748Y-93290000D01*
G04 #@! TO.C,C7*
X134886252Y-84710000D02*
X132113748Y-84710000D01*
X134886252Y-81290000D02*
X132113748Y-81290000D01*
G04 #@! TO.C,C6*
X128748752Y-96710000D02*
X125976248Y-96710000D01*
X128748752Y-93290000D02*
X125976248Y-93290000D01*
G04 #@! TO.C,C5*
X122886252Y-84710000D02*
X120113748Y-84710000D01*
X122886252Y-81290000D02*
X120113748Y-81290000D01*
G04 #@! TO.C,C4*
X116886252Y-96710000D02*
X114113748Y-96710000D01*
X116886252Y-93290000D02*
X114113748Y-93290000D01*
G04 #@! TO.C,C3*
X110886252Y-84710000D02*
X108113748Y-84710000D01*
X110886252Y-81290000D02*
X108113748Y-81290000D01*
G04 #@! TO.C,C2*
X104886252Y-96710000D02*
X102113748Y-96710000D01*
X104886252Y-93290000D02*
X102113748Y-93290000D01*
G04 #@! TO.C,R2*
D13*
X95952380Y-93833333D02*
X95476190Y-93500000D01*
X95952380Y-93261904D02*
X94952380Y-93261904D01*
X94952380Y-93642857D01*
X95000000Y-93738095D01*
X95047619Y-93785714D01*
X95142857Y-93833333D01*
X95285714Y-93833333D01*
X95380952Y-93785714D01*
X95428571Y-93738095D01*
X95476190Y-93642857D01*
X95476190Y-93261904D01*
X95047619Y-94214285D02*
X95000000Y-94261904D01*
X94952380Y-94357142D01*
X94952380Y-94595238D01*
X95000000Y-94690476D01*
X95047619Y-94738095D01*
X95142857Y-94785714D01*
X95238095Y-94785714D01*
X95380952Y-94738095D01*
X95952380Y-94166666D01*
X95952380Y-94785714D01*
G04 #@! TO.C,J3*
X79833333Y-88352380D02*
X79833333Y-89066666D01*
X79880952Y-89209523D01*
X79976190Y-89304761D01*
X80119047Y-89352380D01*
X80214285Y-89352380D01*
X79452380Y-88352380D02*
X78833333Y-88352380D01*
X79166666Y-88733333D01*
X79023809Y-88733333D01*
X78928571Y-88780952D01*
X78880952Y-88828571D01*
X78833333Y-88923809D01*
X78833333Y-89161904D01*
X78880952Y-89257142D01*
X78928571Y-89304761D01*
X79023809Y-89352380D01*
X79309523Y-89352380D01*
X79404761Y-89304761D01*
X79452380Y-89257142D01*
G04 #@! TO.C,D1*
X98952380Y-88261904D02*
X97952380Y-88261904D01*
X97952380Y-88500000D01*
X98000000Y-88642857D01*
X98095238Y-88738095D01*
X98190476Y-88785714D01*
X98380952Y-88833333D01*
X98523809Y-88833333D01*
X98714285Y-88785714D01*
X98809523Y-88738095D01*
X98904761Y-88642857D01*
X98952380Y-88500000D01*
X98952380Y-88261904D01*
X98952380Y-89785714D02*
X98952380Y-89214285D01*
X98952380Y-89500000D02*
X97952380Y-89500000D01*
X98095238Y-89404761D01*
X98190476Y-89309523D01*
X98238095Y-89214285D01*
G04 #@! TO.C,R1*
X163766666Y-98452380D02*
X164100000Y-97976190D01*
X164338095Y-98452380D02*
X164338095Y-97452380D01*
X163957142Y-97452380D01*
X163861904Y-97500000D01*
X163814285Y-97547619D01*
X163766666Y-97642857D01*
X163766666Y-97785714D01*
X163814285Y-97880952D01*
X163861904Y-97928571D01*
X163957142Y-97976190D01*
X164338095Y-97976190D01*
X162814285Y-98452380D02*
X163385714Y-98452380D01*
X163100000Y-98452380D02*
X163100000Y-97452380D01*
X163195238Y-97595238D01*
X163290476Y-97690476D01*
X163385714Y-97738095D01*
G04 #@! TO.C,C1*
X97666666Y-80707142D02*
X97714285Y-80754761D01*
X97857142Y-80802380D01*
X97952380Y-80802380D01*
X98095238Y-80754761D01*
X98190476Y-80659523D01*
X98238095Y-80564285D01*
X98285714Y-80373809D01*
X98285714Y-80230952D01*
X98238095Y-80040476D01*
X98190476Y-79945238D01*
X98095238Y-79850000D01*
X97952380Y-79802380D01*
X97857142Y-79802380D01*
X97714285Y-79850000D01*
X97666666Y-79897619D01*
X96714285Y-80802380D02*
X97285714Y-80802380D01*
X97000000Y-80802380D02*
X97000000Y-79802380D01*
X97095238Y-79945238D01*
X97190476Y-80040476D01*
X97285714Y-80088095D01*
G04 #@! TO.C,D9*
X146952380Y-88261904D02*
X145952380Y-88261904D01*
X145952380Y-88500000D01*
X146000000Y-88642857D01*
X146095238Y-88738095D01*
X146190476Y-88785714D01*
X146380952Y-88833333D01*
X146523809Y-88833333D01*
X146714285Y-88785714D01*
X146809523Y-88738095D01*
X146904761Y-88642857D01*
X146952380Y-88500000D01*
X146952380Y-88261904D01*
X146952380Y-89309523D02*
X146952380Y-89500000D01*
X146904761Y-89595238D01*
X146857142Y-89642857D01*
X146714285Y-89738095D01*
X146523809Y-89785714D01*
X146142857Y-89785714D01*
X146047619Y-89738095D01*
X146000000Y-89690476D01*
X145952380Y-89595238D01*
X145952380Y-89404761D01*
X146000000Y-89309523D01*
X146047619Y-89261904D01*
X146142857Y-89214285D01*
X146380952Y-89214285D01*
X146476190Y-89261904D01*
X146523809Y-89309523D01*
X146571428Y-89404761D01*
X146571428Y-89595238D01*
X146523809Y-89690476D01*
X146476190Y-89738095D01*
X146380952Y-89785714D01*
G04 #@! TO.C,D8*
X144952380Y-88261904D02*
X143952380Y-88261904D01*
X143952380Y-88500000D01*
X144000000Y-88642857D01*
X144095238Y-88738095D01*
X144190476Y-88785714D01*
X144380952Y-88833333D01*
X144523809Y-88833333D01*
X144714285Y-88785714D01*
X144809523Y-88738095D01*
X144904761Y-88642857D01*
X144952380Y-88500000D01*
X144952380Y-88261904D01*
X144380952Y-89404761D02*
X144333333Y-89309523D01*
X144285714Y-89261904D01*
X144190476Y-89214285D01*
X144142857Y-89214285D01*
X144047619Y-89261904D01*
X144000000Y-89309523D01*
X143952380Y-89404761D01*
X143952380Y-89595238D01*
X144000000Y-89690476D01*
X144047619Y-89738095D01*
X144142857Y-89785714D01*
X144190476Y-89785714D01*
X144285714Y-89738095D01*
X144333333Y-89690476D01*
X144380952Y-89595238D01*
X144380952Y-89404761D01*
X144428571Y-89309523D01*
X144476190Y-89261904D01*
X144571428Y-89214285D01*
X144761904Y-89214285D01*
X144857142Y-89261904D01*
X144904761Y-89309523D01*
X144952380Y-89404761D01*
X144952380Y-89595238D01*
X144904761Y-89690476D01*
X144857142Y-89738095D01*
X144761904Y-89785714D01*
X144571428Y-89785714D01*
X144476190Y-89738095D01*
X144428571Y-89690476D01*
X144380952Y-89595238D01*
G04 #@! TO.C,D7*
X134952380Y-88261904D02*
X133952380Y-88261904D01*
X133952380Y-88500000D01*
X134000000Y-88642857D01*
X134095238Y-88738095D01*
X134190476Y-88785714D01*
X134380952Y-88833333D01*
X134523809Y-88833333D01*
X134714285Y-88785714D01*
X134809523Y-88738095D01*
X134904761Y-88642857D01*
X134952380Y-88500000D01*
X134952380Y-88261904D01*
X133952380Y-89166666D02*
X133952380Y-89833333D01*
X134952380Y-89404761D01*
G04 #@! TO.C,D6*
X132952380Y-88261904D02*
X131952380Y-88261904D01*
X131952380Y-88500000D01*
X132000000Y-88642857D01*
X132095238Y-88738095D01*
X132190476Y-88785714D01*
X132380952Y-88833333D01*
X132523809Y-88833333D01*
X132714285Y-88785714D01*
X132809523Y-88738095D01*
X132904761Y-88642857D01*
X132952380Y-88500000D01*
X132952380Y-88261904D01*
X131952380Y-89690476D02*
X131952380Y-89500000D01*
X132000000Y-89404761D01*
X132047619Y-89357142D01*
X132190476Y-89261904D01*
X132380952Y-89214285D01*
X132761904Y-89214285D01*
X132857142Y-89261904D01*
X132904761Y-89309523D01*
X132952380Y-89404761D01*
X132952380Y-89595238D01*
X132904761Y-89690476D01*
X132857142Y-89738095D01*
X132761904Y-89785714D01*
X132523809Y-89785714D01*
X132428571Y-89738095D01*
X132380952Y-89690476D01*
X132333333Y-89595238D01*
X132333333Y-89404761D01*
X132380952Y-89309523D01*
X132428571Y-89261904D01*
X132523809Y-89214285D01*
G04 #@! TO.C,D5*
X122952380Y-88261904D02*
X121952380Y-88261904D01*
X121952380Y-88500000D01*
X122000000Y-88642857D01*
X122095238Y-88738095D01*
X122190476Y-88785714D01*
X122380952Y-88833333D01*
X122523809Y-88833333D01*
X122714285Y-88785714D01*
X122809523Y-88738095D01*
X122904761Y-88642857D01*
X122952380Y-88500000D01*
X122952380Y-88261904D01*
X121952380Y-89738095D02*
X121952380Y-89261904D01*
X122428571Y-89214285D01*
X122380952Y-89261904D01*
X122333333Y-89357142D01*
X122333333Y-89595238D01*
X122380952Y-89690476D01*
X122428571Y-89738095D01*
X122523809Y-89785714D01*
X122761904Y-89785714D01*
X122857142Y-89738095D01*
X122904761Y-89690476D01*
X122952380Y-89595238D01*
X122952380Y-89357142D01*
X122904761Y-89261904D01*
X122857142Y-89214285D01*
G04 #@! TO.C,D4*
X120952380Y-88261904D02*
X119952380Y-88261904D01*
X119952380Y-88500000D01*
X120000000Y-88642857D01*
X120095238Y-88738095D01*
X120190476Y-88785714D01*
X120380952Y-88833333D01*
X120523809Y-88833333D01*
X120714285Y-88785714D01*
X120809523Y-88738095D01*
X120904761Y-88642857D01*
X120952380Y-88500000D01*
X120952380Y-88261904D01*
X120285714Y-89690476D02*
X120952380Y-89690476D01*
X119904761Y-89452380D02*
X120619047Y-89214285D01*
X120619047Y-89833333D01*
G04 #@! TO.C,D3*
X110952380Y-88261904D02*
X109952380Y-88261904D01*
X109952380Y-88500000D01*
X110000000Y-88642857D01*
X110095238Y-88738095D01*
X110190476Y-88785714D01*
X110380952Y-88833333D01*
X110523809Y-88833333D01*
X110714285Y-88785714D01*
X110809523Y-88738095D01*
X110904761Y-88642857D01*
X110952380Y-88500000D01*
X110952380Y-88261904D01*
X109952380Y-89166666D02*
X109952380Y-89785714D01*
X110333333Y-89452380D01*
X110333333Y-89595238D01*
X110380952Y-89690476D01*
X110428571Y-89738095D01*
X110523809Y-89785714D01*
X110761904Y-89785714D01*
X110857142Y-89738095D01*
X110904761Y-89690476D01*
X110952380Y-89595238D01*
X110952380Y-89309523D01*
X110904761Y-89214285D01*
X110857142Y-89166666D01*
G04 #@! TO.C,D2*
X108952380Y-88261904D02*
X107952380Y-88261904D01*
X107952380Y-88500000D01*
X108000000Y-88642857D01*
X108095238Y-88738095D01*
X108190476Y-88785714D01*
X108380952Y-88833333D01*
X108523809Y-88833333D01*
X108714285Y-88785714D01*
X108809523Y-88738095D01*
X108904761Y-88642857D01*
X108952380Y-88500000D01*
X108952380Y-88261904D01*
X108047619Y-89214285D02*
X108000000Y-89261904D01*
X107952380Y-89357142D01*
X107952380Y-89595238D01*
X108000000Y-89690476D01*
X108047619Y-89738095D01*
X108142857Y-89785714D01*
X108238095Y-89785714D01*
X108380952Y-89738095D01*
X108952380Y-89166666D01*
X108952380Y-89785714D01*
G04 #@! TO.C,D10*
X156952380Y-87785714D02*
X155952380Y-87785714D01*
X155952380Y-88023809D01*
X156000000Y-88166666D01*
X156095238Y-88261904D01*
X156190476Y-88309523D01*
X156380952Y-88357142D01*
X156523809Y-88357142D01*
X156714285Y-88309523D01*
X156809523Y-88261904D01*
X156904761Y-88166666D01*
X156952380Y-88023809D01*
X156952380Y-87785714D01*
X156952380Y-89309523D02*
X156952380Y-88738095D01*
X156952380Y-89023809D02*
X155952380Y-89023809D01*
X156095238Y-88928571D01*
X156190476Y-88833333D01*
X156238095Y-88738095D01*
X155952380Y-89928571D02*
X155952380Y-90023809D01*
X156000000Y-90119047D01*
X156047619Y-90166666D01*
X156142857Y-90214285D01*
X156333333Y-90261904D01*
X156571428Y-90261904D01*
X156761904Y-90214285D01*
X156857142Y-90166666D01*
X156904761Y-90119047D01*
X156952380Y-90023809D01*
X156952380Y-89928571D01*
X156904761Y-89833333D01*
X156857142Y-89785714D01*
X156761904Y-89738095D01*
X156571428Y-89690476D01*
X156333333Y-89690476D01*
X156142857Y-89738095D01*
X156047619Y-89785714D01*
X156000000Y-89833333D01*
X155952380Y-89928571D01*
G04 #@! TO.C,C10*
X152005357Y-98357142D02*
X152052976Y-98404761D01*
X152195833Y-98452380D01*
X152291071Y-98452380D01*
X152433928Y-98404761D01*
X152529166Y-98309523D01*
X152576785Y-98214285D01*
X152624404Y-98023809D01*
X152624404Y-97880952D01*
X152576785Y-97690476D01*
X152529166Y-97595238D01*
X152433928Y-97500000D01*
X152291071Y-97452380D01*
X152195833Y-97452380D01*
X152052976Y-97500000D01*
X152005357Y-97547619D01*
X151052976Y-98452380D02*
X151624404Y-98452380D01*
X151338690Y-98452380D02*
X151338690Y-97452380D01*
X151433928Y-97595238D01*
X151529166Y-97690476D01*
X151624404Y-97738095D01*
X150433928Y-97452380D02*
X150338690Y-97452380D01*
X150243452Y-97500000D01*
X150195833Y-97547619D01*
X150148214Y-97642857D01*
X150100595Y-97833333D01*
X150100595Y-98071428D01*
X150148214Y-98261904D01*
X150195833Y-98357142D01*
X150243452Y-98404761D01*
X150338690Y-98452380D01*
X150433928Y-98452380D01*
X150529166Y-98404761D01*
X150576785Y-98357142D01*
X150624404Y-98261904D01*
X150672023Y-98071428D01*
X150672023Y-97833333D01*
X150624404Y-97642857D01*
X150576785Y-97547619D01*
X150529166Y-97500000D01*
X150433928Y-97452380D01*
G04 #@! TO.C,C9*
X145666666Y-80707142D02*
X145714285Y-80754761D01*
X145857142Y-80802380D01*
X145952380Y-80802380D01*
X146095238Y-80754761D01*
X146190476Y-80659523D01*
X146238095Y-80564285D01*
X146285714Y-80373809D01*
X146285714Y-80230952D01*
X146238095Y-80040476D01*
X146190476Y-79945238D01*
X146095238Y-79850000D01*
X145952380Y-79802380D01*
X145857142Y-79802380D01*
X145714285Y-79850000D01*
X145666666Y-79897619D01*
X145190476Y-80802380D02*
X145000000Y-80802380D01*
X144904761Y-80754761D01*
X144857142Y-80707142D01*
X144761904Y-80564285D01*
X144714285Y-80373809D01*
X144714285Y-79992857D01*
X144761904Y-79897619D01*
X144809523Y-79850000D01*
X144904761Y-79802380D01*
X145095238Y-79802380D01*
X145190476Y-79850000D01*
X145238095Y-79897619D01*
X145285714Y-79992857D01*
X145285714Y-80230952D01*
X145238095Y-80326190D01*
X145190476Y-80373809D01*
X145095238Y-80421428D01*
X144904761Y-80421428D01*
X144809523Y-80373809D01*
X144761904Y-80326190D01*
X144714285Y-80230952D01*
G04 #@! TO.C,C8*
X139666666Y-98357142D02*
X139714285Y-98404761D01*
X139857142Y-98452380D01*
X139952380Y-98452380D01*
X140095238Y-98404761D01*
X140190476Y-98309523D01*
X140238095Y-98214285D01*
X140285714Y-98023809D01*
X140285714Y-97880952D01*
X140238095Y-97690476D01*
X140190476Y-97595238D01*
X140095238Y-97500000D01*
X139952380Y-97452380D01*
X139857142Y-97452380D01*
X139714285Y-97500000D01*
X139666666Y-97547619D01*
X139095238Y-97880952D02*
X139190476Y-97833333D01*
X139238095Y-97785714D01*
X139285714Y-97690476D01*
X139285714Y-97642857D01*
X139238095Y-97547619D01*
X139190476Y-97500000D01*
X139095238Y-97452380D01*
X138904761Y-97452380D01*
X138809523Y-97500000D01*
X138761904Y-97547619D01*
X138714285Y-97642857D01*
X138714285Y-97690476D01*
X138761904Y-97785714D01*
X138809523Y-97833333D01*
X138904761Y-97880952D01*
X139095238Y-97880952D01*
X139190476Y-97928571D01*
X139238095Y-97976190D01*
X139285714Y-98071428D01*
X139285714Y-98261904D01*
X139238095Y-98357142D01*
X139190476Y-98404761D01*
X139095238Y-98452380D01*
X138904761Y-98452380D01*
X138809523Y-98404761D01*
X138761904Y-98357142D01*
X138714285Y-98261904D01*
X138714285Y-98071428D01*
X138761904Y-97976190D01*
X138809523Y-97928571D01*
X138904761Y-97880952D01*
G04 #@! TO.C,C7*
X133666666Y-80707142D02*
X133714285Y-80754761D01*
X133857142Y-80802380D01*
X133952380Y-80802380D01*
X134095238Y-80754761D01*
X134190476Y-80659523D01*
X134238095Y-80564285D01*
X134285714Y-80373809D01*
X134285714Y-80230952D01*
X134238095Y-80040476D01*
X134190476Y-79945238D01*
X134095238Y-79850000D01*
X133952380Y-79802380D01*
X133857142Y-79802380D01*
X133714285Y-79850000D01*
X133666666Y-79897619D01*
X133333333Y-79802380D02*
X132666666Y-79802380D01*
X133095238Y-80802380D01*
G04 #@! TO.C,C6*
X127529166Y-98357142D02*
X127576785Y-98404761D01*
X127719642Y-98452380D01*
X127814880Y-98452380D01*
X127957738Y-98404761D01*
X128052976Y-98309523D01*
X128100595Y-98214285D01*
X128148214Y-98023809D01*
X128148214Y-97880952D01*
X128100595Y-97690476D01*
X128052976Y-97595238D01*
X127957738Y-97500000D01*
X127814880Y-97452380D01*
X127719642Y-97452380D01*
X127576785Y-97500000D01*
X127529166Y-97547619D01*
X126672023Y-97452380D02*
X126862500Y-97452380D01*
X126957738Y-97500000D01*
X127005357Y-97547619D01*
X127100595Y-97690476D01*
X127148214Y-97880952D01*
X127148214Y-98261904D01*
X127100595Y-98357142D01*
X127052976Y-98404761D01*
X126957738Y-98452380D01*
X126767261Y-98452380D01*
X126672023Y-98404761D01*
X126624404Y-98357142D01*
X126576785Y-98261904D01*
X126576785Y-98023809D01*
X126624404Y-97928571D01*
X126672023Y-97880952D01*
X126767261Y-97833333D01*
X126957738Y-97833333D01*
X127052976Y-97880952D01*
X127100595Y-97928571D01*
X127148214Y-98023809D01*
G04 #@! TO.C,C5*
X121666666Y-80707142D02*
X121714285Y-80754761D01*
X121857142Y-80802380D01*
X121952380Y-80802380D01*
X122095238Y-80754761D01*
X122190476Y-80659523D01*
X122238095Y-80564285D01*
X122285714Y-80373809D01*
X122285714Y-80230952D01*
X122238095Y-80040476D01*
X122190476Y-79945238D01*
X122095238Y-79850000D01*
X121952380Y-79802380D01*
X121857142Y-79802380D01*
X121714285Y-79850000D01*
X121666666Y-79897619D01*
X120761904Y-79802380D02*
X121238095Y-79802380D01*
X121285714Y-80278571D01*
X121238095Y-80230952D01*
X121142857Y-80183333D01*
X120904761Y-80183333D01*
X120809523Y-80230952D01*
X120761904Y-80278571D01*
X120714285Y-80373809D01*
X120714285Y-80611904D01*
X120761904Y-80707142D01*
X120809523Y-80754761D01*
X120904761Y-80802380D01*
X121142857Y-80802380D01*
X121238095Y-80754761D01*
X121285714Y-80707142D01*
G04 #@! TO.C,C4*
X115666666Y-98357142D02*
X115714285Y-98404761D01*
X115857142Y-98452380D01*
X115952380Y-98452380D01*
X116095238Y-98404761D01*
X116190476Y-98309523D01*
X116238095Y-98214285D01*
X116285714Y-98023809D01*
X116285714Y-97880952D01*
X116238095Y-97690476D01*
X116190476Y-97595238D01*
X116095238Y-97500000D01*
X115952380Y-97452380D01*
X115857142Y-97452380D01*
X115714285Y-97500000D01*
X115666666Y-97547619D01*
X114809523Y-97785714D02*
X114809523Y-98452380D01*
X115047619Y-97404761D02*
X115285714Y-98119047D01*
X114666666Y-98119047D01*
G04 #@! TO.C,C3*
X109666666Y-80707142D02*
X109714285Y-80754761D01*
X109857142Y-80802380D01*
X109952380Y-80802380D01*
X110095238Y-80754761D01*
X110190476Y-80659523D01*
X110238095Y-80564285D01*
X110285714Y-80373809D01*
X110285714Y-80230952D01*
X110238095Y-80040476D01*
X110190476Y-79945238D01*
X110095238Y-79850000D01*
X109952380Y-79802380D01*
X109857142Y-79802380D01*
X109714285Y-79850000D01*
X109666666Y-79897619D01*
X109333333Y-79802380D02*
X108714285Y-79802380D01*
X109047619Y-80183333D01*
X108904761Y-80183333D01*
X108809523Y-80230952D01*
X108761904Y-80278571D01*
X108714285Y-80373809D01*
X108714285Y-80611904D01*
X108761904Y-80707142D01*
X108809523Y-80754761D01*
X108904761Y-80802380D01*
X109190476Y-80802380D01*
X109285714Y-80754761D01*
X109333333Y-80707142D01*
G04 #@! TO.C,C2*
X103666666Y-98357142D02*
X103714285Y-98404761D01*
X103857142Y-98452380D01*
X103952380Y-98452380D01*
X104095238Y-98404761D01*
X104190476Y-98309523D01*
X104238095Y-98214285D01*
X104285714Y-98023809D01*
X104285714Y-97880952D01*
X104238095Y-97690476D01*
X104190476Y-97595238D01*
X104095238Y-97500000D01*
X103952380Y-97452380D01*
X103857142Y-97452380D01*
X103714285Y-97500000D01*
X103666666Y-97547619D01*
X103285714Y-97547619D02*
X103238095Y-97500000D01*
X103142857Y-97452380D01*
X102904761Y-97452380D01*
X102809523Y-97500000D01*
X102761904Y-97547619D01*
X102714285Y-97642857D01*
X102714285Y-97738095D01*
X102761904Y-97880952D01*
X103333333Y-98452380D01*
X102714285Y-98452380D01*
G04 #@! TD*
M02*
