%TF.GenerationSoftware,KiCad,Pcbnew,(6.0.0-rc1-dev-1-g01c5bdfb8)*%
%TF.CreationDate,2019-02-25T13:54:40+01:00*%
%TF.ProjectId,Statikplatte,53746174696B706C617474652E6B6963,rev?*%
%TF.SameCoordinates,Original*%
%TF.FileFunction,Copper,L1,Top,Signal*%
%TF.FilePolarity,Positive*%
%FSLAX46Y46*%
G04 Gerber Fmt 4.6, Leading zero omitted, Abs format (unit mm)*
G04 Created by KiCad (PCBNEW (6.0.0-rc1-dev-1-g01c5bdfb8)) date Mon Feb 25 13:54:40 2019*
%MOMM*%
%LPD*%
G01*
G04 APERTURE LIST*
%ADD10C,0.300000*%
%ADD11C,0.150000*%
%ADD12O,0.900000X0.900000*%
%ADD13C,0.600000*%
G04 APERTURE END LIST*
D10*
X116428571Y-77678571D02*
X115571428Y-77678571D01*
X116000000Y-77678571D02*
X116000000Y-76178571D01*
X115857142Y-76392857D01*
X115714285Y-76535714D01*
X115571428Y-76607142D01*
X118714285Y-76892857D02*
X118214285Y-76892857D01*
X118214285Y-77678571D02*
X118214285Y-76178571D01*
X118928571Y-76178571D01*
X119500000Y-77535714D02*
X119571428Y-77607142D01*
X119500000Y-77678571D01*
X119428571Y-77607142D01*
X119500000Y-77535714D01*
X119500000Y-77678571D01*
X121071428Y-77535714D02*
X121000000Y-77607142D01*
X120785714Y-77678571D01*
X120642857Y-77678571D01*
X120428571Y-77607142D01*
X120285714Y-77464285D01*
X120214285Y-77321428D01*
X120142857Y-77035714D01*
X120142857Y-76821428D01*
X120214285Y-76535714D01*
X120285714Y-76392857D01*
X120428571Y-76250000D01*
X120642857Y-76178571D01*
X120785714Y-76178571D01*
X121000000Y-76250000D01*
X121071428Y-76321428D01*
X122357142Y-76678571D02*
X122357142Y-77678571D01*
X121714285Y-76678571D02*
X121714285Y-77464285D01*
X121785714Y-77607142D01*
X121928571Y-77678571D01*
X122142857Y-77678571D01*
X122285714Y-77607142D01*
X122357142Y-77535714D01*
D11*
X125000000Y-75000000D02*
X175000000Y-75000000D01*
X175000000Y-75000000D02*
X175000000Y-125000000D01*
X125000000Y-125000000D02*
X175000000Y-125000000D01*
X125000000Y-75000000D02*
X125000000Y-125000000D01*
D12*
X151000000Y-99500000D03*
D13*
X174180000Y-114500000D03*
X164900000Y-76500000D03*
X125800000Y-85500000D03*
X125650000Y-107500000D03*
X125650000Y-121500000D03*
M02*
