%TF.GenerationSoftware,KiCad,Pcbnew,(6.0.0-rc1-dev-1-g01c5bdfb8)*%
%TF.CreationDate,2019-02-25T13:54:40+01:00*%
%TF.ProjectId,Statikplatte,53746174696B706C617474652E6B6963,rev?*%
%TF.SameCoordinates,Original*%
%TF.FileFunction,Copper,L3,Inr,Signal*%
%TF.FilePolarity,Positive*%
%FSLAX46Y46*%
G04 Gerber Fmt 4.6, Leading zero omitted, Abs format (unit mm)*
G04 Created by KiCad (PCBNEW (6.0.0-rc1-dev-1-g01c5bdfb8)) date Mon Feb 25 13:54:40 2019*
%MOMM*%
%LPD*%
G01*
G04 APERTURE LIST*
%ADD10C,0.300000*%
%ADD11C,0.150000*%
%ADD12O,0.900000X0.900000*%
%ADD13C,0.600000*%
G04 APERTURE END LIST*
D10*
X114392857Y-80178571D02*
X115321428Y-80178571D01*
X114821428Y-80750000D01*
X115035714Y-80750000D01*
X115178571Y-80821428D01*
X115250000Y-80892857D01*
X115321428Y-81035714D01*
X115321428Y-81392857D01*
X115250000Y-81535714D01*
X115178571Y-81607142D01*
X115035714Y-81678571D01*
X114607142Y-81678571D01*
X114464285Y-81607142D01*
X114392857Y-81535714D01*
X117107142Y-81678571D02*
X117107142Y-80178571D01*
X117821428Y-80678571D02*
X117821428Y-81678571D01*
X117821428Y-80821428D02*
X117892857Y-80750000D01*
X118035714Y-80678571D01*
X118250000Y-80678571D01*
X118392857Y-80750000D01*
X118464285Y-80892857D01*
X118464285Y-81678571D01*
X119107142Y-80321428D02*
X119178571Y-80250000D01*
X119321428Y-80178571D01*
X119678571Y-80178571D01*
X119821428Y-80250000D01*
X119892857Y-80321428D01*
X119964285Y-80464285D01*
X119964285Y-80607142D01*
X119892857Y-80821428D01*
X119035714Y-81678571D01*
X119964285Y-81678571D01*
X120607142Y-81535714D02*
X120678571Y-81607142D01*
X120607142Y-81678571D01*
X120535714Y-81607142D01*
X120607142Y-81535714D01*
X120607142Y-81678571D01*
X122178571Y-81535714D02*
X122107142Y-81607142D01*
X121892857Y-81678571D01*
X121750000Y-81678571D01*
X121535714Y-81607142D01*
X121392857Y-81464285D01*
X121321428Y-81321428D01*
X121250000Y-81035714D01*
X121250000Y-80821428D01*
X121321428Y-80535714D01*
X121392857Y-80392857D01*
X121535714Y-80250000D01*
X121750000Y-80178571D01*
X121892857Y-80178571D01*
X122107142Y-80250000D01*
X122178571Y-80321428D01*
X123464285Y-80678571D02*
X123464285Y-81678571D01*
X122821428Y-80678571D02*
X122821428Y-81464285D01*
X122892857Y-81607142D01*
X123035714Y-81678571D01*
X123250000Y-81678571D01*
X123392857Y-81607142D01*
X123464285Y-81535714D01*
D11*
X125000000Y-75000000D02*
X175000000Y-75000000D01*
X175000000Y-75000000D02*
X175000000Y-125000000D01*
X125000000Y-125000000D02*
X175000000Y-125000000D01*
X125000000Y-75000000D02*
X125000000Y-125000000D01*
D12*
X151000000Y-99500000D03*
D13*
X174180000Y-114500000D03*
X164900000Y-76500000D03*
X125800000Y-85500000D03*
X125650000Y-107500000D03*
X125650000Y-121500000D03*
M02*
