G04 #@! TF.GenerationSoftware,KiCad,Pcbnew,6.0.0-d3dd2cf0fa~116~ubuntu20.04.1*
G04 #@! TF.CreationDate,2022-01-09T22:46:25+01:00*
G04 #@! TF.ProjectId,Statikplatte,53746174-696b-4706-9c61-7474652e6b69,rev?*
G04 #@! TF.SameCoordinates,Original*
G04 #@! TF.FileFunction,Copper,L2,Inr*
G04 #@! TF.FilePolarity,Positive*
%FSLAX46Y46*%
G04 Gerber Fmt 4.6, Leading zero omitted, Abs format (unit mm)*
G04 Created by KiCad (PCBNEW 6.0.0-d3dd2cf0fa~116~ubuntu20.04.1) date 2022-01-09 22:46:25*
%MOMM*%
%LPD*%
G01*
G04 APERTURE LIST*
G04 #@! TA.AperFunction,Profile*
%ADD10C,0.150000*%
G04 #@! TD*
G04 #@! TA.AperFunction,ViaPad*
%ADD11C,0.600000*%
G04 #@! TD*
G04 #@! TA.AperFunction,ViaPad*
%ADD12C,0.800000*%
G04 #@! TD*
G04 APERTURE END LIST*
D10*
X125000000Y-75000000D02*
X175000000Y-75000000D01*
X175000000Y-75000000D02*
X175000000Y-125000000D01*
X125000000Y-125000000D02*
X175000000Y-125000000D01*
X125000000Y-75000000D02*
X125000000Y-125000000D01*
D11*
X173750000Y-115500000D03*
X135000000Y-76250000D03*
X127500000Y-84500000D03*
X135000000Y-121750000D03*
D12*
X171750000Y-84500000D03*
D11*
X133500000Y-109250000D03*
G04 #@! TA.AperFunction,Conductor*
G36*
X126500000Y-75510617D02*
G01*
X126500000Y-75515000D01*
X172695177Y-75515000D01*
X172704726Y-75515940D01*
X172805250Y-75535935D01*
X172822907Y-75543250D01*
X172904028Y-75597453D01*
X172917547Y-75610972D01*
X172967142Y-75685195D01*
X172971750Y-75692092D01*
X172979065Y-75709750D01*
X172999060Y-75810274D01*
X173000000Y-75819823D01*
X173000000Y-76710177D01*
X172999060Y-76719726D01*
X172979065Y-76820250D01*
X172971750Y-76837908D01*
X172917547Y-76919028D01*
X172904028Y-76932547D01*
X172822908Y-76986750D01*
X172805250Y-76994065D01*
X172704726Y-77014060D01*
X172695177Y-77015000D01*
X126500000Y-77015000D01*
X126500000Y-79650000D01*
X172695177Y-79650000D01*
X172704726Y-79650940D01*
X172805250Y-79670935D01*
X172822908Y-79678250D01*
X172904028Y-79732453D01*
X172917547Y-79745972D01*
X172971750Y-79827092D01*
X172979065Y-79844750D01*
X172999060Y-79945274D01*
X173000000Y-79954823D01*
X173000000Y-80845177D01*
X172999060Y-80854726D01*
X172979065Y-80955250D01*
X172971750Y-80972908D01*
X172917547Y-81054028D01*
X172904028Y-81067547D01*
X172822908Y-81121750D01*
X172805250Y-81129065D01*
X172704726Y-81149060D01*
X172695177Y-81150000D01*
X126500000Y-81150000D01*
X126500000Y-83785000D01*
X172695177Y-83785000D01*
X172704726Y-83785940D01*
X172805250Y-83805935D01*
X172822908Y-83813250D01*
X172904028Y-83867453D01*
X172917547Y-83880972D01*
X172971750Y-83962092D01*
X172979065Y-83979750D01*
X172999060Y-84080274D01*
X173000000Y-84089823D01*
X173000000Y-84980177D01*
X172999060Y-84989726D01*
X172979065Y-85090250D01*
X172971750Y-85107908D01*
X172917547Y-85189028D01*
X172904028Y-85202547D01*
X172822908Y-85256750D01*
X172805250Y-85264065D01*
X172704726Y-85284060D01*
X172695177Y-85285000D01*
X126500000Y-85285000D01*
X126500000Y-87920000D01*
X172695177Y-87920000D01*
X172704726Y-87920940D01*
X172805250Y-87940935D01*
X172822908Y-87948250D01*
X172904028Y-88002453D01*
X172917547Y-88015972D01*
X172971750Y-88097092D01*
X172979065Y-88114750D01*
X172999060Y-88215274D01*
X173000000Y-88224823D01*
X173000000Y-89115177D01*
X172999060Y-89124726D01*
X172979065Y-89225250D01*
X172971750Y-89242908D01*
X172917547Y-89324028D01*
X172904028Y-89337547D01*
X172822908Y-89391750D01*
X172805250Y-89399065D01*
X172704726Y-89419060D01*
X172695177Y-89420000D01*
X126500000Y-89420000D01*
X126500000Y-92055000D01*
X172695177Y-92055000D01*
X172704726Y-92055940D01*
X172805250Y-92075935D01*
X172822908Y-92083250D01*
X172904028Y-92137453D01*
X172917547Y-92150972D01*
X172971750Y-92232092D01*
X172979065Y-92249750D01*
X172999060Y-92350274D01*
X173000000Y-92359823D01*
X173000000Y-93250177D01*
X172999060Y-93259726D01*
X172979065Y-93360250D01*
X172971750Y-93377908D01*
X172917547Y-93459028D01*
X172904028Y-93472547D01*
X172822908Y-93526750D01*
X172805250Y-93534065D01*
X172704726Y-93554060D01*
X172695177Y-93555000D01*
X126500000Y-93555000D01*
X126500000Y-96190000D01*
X172695177Y-96190000D01*
X172704726Y-96190940D01*
X172805250Y-96210935D01*
X172822908Y-96218250D01*
X172904028Y-96272453D01*
X172917547Y-96285972D01*
X172971750Y-96367092D01*
X172979065Y-96384750D01*
X172999060Y-96485274D01*
X173000000Y-96494823D01*
X173000000Y-97385177D01*
X172999060Y-97394726D01*
X172979065Y-97495250D01*
X172971750Y-97512908D01*
X172917547Y-97594028D01*
X172904028Y-97607547D01*
X172822908Y-97661750D01*
X172805250Y-97669065D01*
X172704726Y-97689060D01*
X172695177Y-97690000D01*
X126500000Y-97690000D01*
X126500000Y-100325000D01*
X172695177Y-100325000D01*
X172704726Y-100325940D01*
X172805250Y-100345935D01*
X172822908Y-100353250D01*
X172904028Y-100407453D01*
X172917547Y-100420972D01*
X172971750Y-100502092D01*
X172979065Y-100519750D01*
X172999060Y-100620274D01*
X173000000Y-100629823D01*
X173000000Y-101520177D01*
X172999060Y-101529726D01*
X172979065Y-101630250D01*
X172971750Y-101647908D01*
X172917547Y-101729028D01*
X172904028Y-101742547D01*
X172822908Y-101796750D01*
X172805250Y-101804065D01*
X172704726Y-101824060D01*
X172695177Y-101825000D01*
X126500000Y-101825000D01*
X126500000Y-104460000D01*
X172695177Y-104460000D01*
X172704726Y-104460940D01*
X172805250Y-104480935D01*
X172822908Y-104488250D01*
X172904028Y-104542453D01*
X172917547Y-104555972D01*
X172971750Y-104637092D01*
X172979065Y-104654750D01*
X172999060Y-104755274D01*
X173000000Y-104764823D01*
X173000000Y-105655177D01*
X172999060Y-105664726D01*
X172979065Y-105765250D01*
X172971750Y-105782908D01*
X172917547Y-105864028D01*
X172904028Y-105877547D01*
X172822908Y-105931750D01*
X172805250Y-105939065D01*
X172704726Y-105959060D01*
X172695177Y-105960000D01*
X126500000Y-105960000D01*
X126500000Y-108595000D01*
X172695177Y-108595000D01*
X172704726Y-108595940D01*
X172805250Y-108615935D01*
X172822908Y-108623250D01*
X172904028Y-108677453D01*
X172917547Y-108690972D01*
X172971750Y-108772092D01*
X172979065Y-108789750D01*
X172999060Y-108890274D01*
X173000000Y-108899823D01*
X173000000Y-109790177D01*
X172999060Y-109799726D01*
X172979065Y-109900250D01*
X172971750Y-109917908D01*
X172917547Y-109999028D01*
X172904028Y-110012547D01*
X172822908Y-110066750D01*
X172805250Y-110074065D01*
X172704726Y-110094060D01*
X172695177Y-110095000D01*
X126500000Y-110095000D01*
X126500000Y-112730000D01*
X172695177Y-112730000D01*
X172704726Y-112730940D01*
X172805250Y-112750935D01*
X172822908Y-112758250D01*
X172904028Y-112812453D01*
X172917547Y-112825972D01*
X172971750Y-112907092D01*
X172979065Y-112924750D01*
X172999060Y-113025274D01*
X173000000Y-113034823D01*
X173000000Y-113925177D01*
X172999060Y-113934726D01*
X172979065Y-114035250D01*
X172971750Y-114052908D01*
X172917547Y-114134028D01*
X172904028Y-114147547D01*
X172822908Y-114201750D01*
X172805250Y-114209065D01*
X172704726Y-114229060D01*
X172695177Y-114230000D01*
X126500000Y-114230000D01*
X126500000Y-116865000D01*
X172695177Y-116865000D01*
X172704726Y-116865940D01*
X172805250Y-116885935D01*
X172822908Y-116893250D01*
X172904028Y-116947453D01*
X172917547Y-116960972D01*
X172971750Y-117042092D01*
X172979065Y-117059750D01*
X172999060Y-117160274D01*
X173000000Y-117169823D01*
X173000000Y-118060177D01*
X172999060Y-118069726D01*
X172979065Y-118170250D01*
X172971750Y-118187908D01*
X172917547Y-118269028D01*
X172904028Y-118282547D01*
X172822908Y-118336750D01*
X172805250Y-118344065D01*
X172704726Y-118364060D01*
X172695177Y-118365000D01*
X126500000Y-118365000D01*
X126500000Y-121000000D01*
X172695177Y-121000000D01*
X172704726Y-121000940D01*
X172805250Y-121020935D01*
X172822908Y-121028250D01*
X172904028Y-121082453D01*
X172917547Y-121095972D01*
X172971750Y-121177092D01*
X172979065Y-121194750D01*
X172999060Y-121295274D01*
X173000000Y-121304823D01*
X173000000Y-122195177D01*
X172999060Y-122204726D01*
X172979065Y-122305250D01*
X172971750Y-122322908D01*
X172917547Y-122404028D01*
X172904028Y-122417547D01*
X172822908Y-122471750D01*
X172805250Y-122479065D01*
X172704726Y-122499060D01*
X172695177Y-122500000D01*
X126500000Y-122500000D01*
X126500000Y-124195177D01*
X126499060Y-124204726D01*
X126479065Y-124305250D01*
X126471750Y-124322908D01*
X126417547Y-124404028D01*
X126404028Y-124417547D01*
X126322908Y-124471750D01*
X126305250Y-124479065D01*
X126204726Y-124499060D01*
X126195177Y-124500000D01*
X125804823Y-124500000D01*
X125795274Y-124499060D01*
X125694750Y-124479065D01*
X125677092Y-124471750D01*
X125595972Y-124417547D01*
X125582453Y-124404028D01*
X125528250Y-124322908D01*
X125520935Y-124305250D01*
X125500940Y-124204726D01*
X125500000Y-124195177D01*
X125500000Y-75804823D01*
X125500940Y-75795274D01*
X125520935Y-75694750D01*
X125528250Y-75677092D01*
X125582453Y-75595972D01*
X125595972Y-75582453D01*
X125677092Y-75528250D01*
X125694750Y-75520935D01*
X125795274Y-75500940D01*
X125804823Y-75500000D01*
X126474370Y-75500000D01*
X126500000Y-75510617D01*
G37*
G04 #@! TD.AperFunction*
G04 #@! TA.AperFunction,Conductor*
G36*
X174204726Y-75500940D02*
G01*
X174305250Y-75520935D01*
X174322908Y-75528250D01*
X174404028Y-75582453D01*
X174417547Y-75595972D01*
X174471750Y-75677092D01*
X174479065Y-75694750D01*
X174499060Y-75795274D01*
X174500000Y-75804823D01*
X174500000Y-124195177D01*
X174499060Y-124204726D01*
X174479065Y-124305250D01*
X174471750Y-124322908D01*
X174417547Y-124404028D01*
X174404028Y-124417547D01*
X174322908Y-124471750D01*
X174305250Y-124479065D01*
X174204726Y-124499060D01*
X174195177Y-124500000D01*
X173500000Y-124500000D01*
X173500000Y-75804823D01*
X173500940Y-75795274D01*
X173520935Y-75694750D01*
X173528250Y-75677092D01*
X173582453Y-75595972D01*
X173595972Y-75582453D01*
X173677092Y-75528250D01*
X173694750Y-75520935D01*
X173795274Y-75500940D01*
X173804823Y-75500000D01*
X174195177Y-75500000D01*
X174204726Y-75500940D01*
G37*
G04 #@! TD.AperFunction*
G04 #@! TA.AperFunction,Conductor*
G36*
X174500000Y-124195177D02*
G01*
X174499060Y-124204726D01*
X174479065Y-124305250D01*
X174471750Y-124322908D01*
X174417547Y-124404028D01*
X174404028Y-124417547D01*
X174322908Y-124471750D01*
X174305250Y-124479065D01*
X174204726Y-124499060D01*
X174195177Y-124500000D01*
X127304823Y-124500000D01*
X127295274Y-124499060D01*
X127194750Y-124479065D01*
X127177092Y-124471750D01*
X127095972Y-124417547D01*
X127082453Y-124404028D01*
X127028250Y-124322908D01*
X127020935Y-124305250D01*
X127000940Y-124204726D01*
X127000000Y-124195177D01*
X127000000Y-123304823D01*
X127000940Y-123295274D01*
X127020935Y-123194750D01*
X127028250Y-123177092D01*
X127082453Y-123095972D01*
X127095972Y-123082453D01*
X127177092Y-123028250D01*
X127194750Y-123020935D01*
X127295274Y-123000940D01*
X127304823Y-123000000D01*
X174500000Y-123000000D01*
X174500000Y-124195177D01*
G37*
G04 #@! TD.AperFunction*
G04 #@! TA.AperFunction,Conductor*
G36*
X174500000Y-120365000D02*
G01*
X127304823Y-120365000D01*
X127295274Y-120364060D01*
X127194750Y-120344065D01*
X127177092Y-120336750D01*
X127095972Y-120282547D01*
X127082453Y-120269028D01*
X127028250Y-120187908D01*
X127020935Y-120170250D01*
X127000940Y-120069726D01*
X127000000Y-120060177D01*
X127000000Y-119169823D01*
X127000940Y-119160274D01*
X127020935Y-119059750D01*
X127028250Y-119042092D01*
X127082453Y-118960972D01*
X127095972Y-118947453D01*
X127177092Y-118893250D01*
X127194750Y-118885935D01*
X127295274Y-118865940D01*
X127304823Y-118865000D01*
X174500000Y-118865000D01*
X174500000Y-120365000D01*
G37*
G04 #@! TD.AperFunction*
G04 #@! TA.AperFunction,Conductor*
G36*
X174500000Y-116230000D02*
G01*
X127304823Y-116230000D01*
X127295274Y-116229060D01*
X127194750Y-116209065D01*
X127177092Y-116201750D01*
X127095972Y-116147547D01*
X127082453Y-116134028D01*
X127028250Y-116052908D01*
X127020935Y-116035250D01*
X127000940Y-115934726D01*
X127000000Y-115925177D01*
X127000000Y-115034823D01*
X127000940Y-115025274D01*
X127020935Y-114924750D01*
X127028250Y-114907092D01*
X127082453Y-114825972D01*
X127095972Y-114812453D01*
X127177092Y-114758250D01*
X127194750Y-114750935D01*
X127295274Y-114730940D01*
X127304823Y-114730000D01*
X174500000Y-114730000D01*
X174500000Y-116230000D01*
G37*
G04 #@! TD.AperFunction*
G04 #@! TA.AperFunction,Conductor*
G36*
X174500000Y-112095000D02*
G01*
X127304823Y-112095000D01*
X127295274Y-112094060D01*
X127194750Y-112074065D01*
X127177092Y-112066750D01*
X127095972Y-112012547D01*
X127082453Y-111999028D01*
X127028250Y-111917908D01*
X127020935Y-111900250D01*
X127000940Y-111799726D01*
X127000000Y-111790177D01*
X127000000Y-110899823D01*
X127000940Y-110890274D01*
X127020935Y-110789750D01*
X127028250Y-110772092D01*
X127082453Y-110690972D01*
X127095972Y-110677453D01*
X127177092Y-110623250D01*
X127194750Y-110615935D01*
X127295274Y-110595940D01*
X127304823Y-110595000D01*
X174500000Y-110595000D01*
X174500000Y-112095000D01*
G37*
G04 #@! TD.AperFunction*
G04 #@! TA.AperFunction,Conductor*
G36*
X174500000Y-107960000D02*
G01*
X127304823Y-107960000D01*
X127295274Y-107959060D01*
X127194750Y-107939065D01*
X127177092Y-107931750D01*
X127095972Y-107877547D01*
X127082453Y-107864028D01*
X127028250Y-107782908D01*
X127020935Y-107765250D01*
X127000940Y-107664726D01*
X127000000Y-107655177D01*
X127000000Y-106764823D01*
X127000940Y-106755274D01*
X127020935Y-106654750D01*
X127028250Y-106637092D01*
X127082453Y-106555972D01*
X127095972Y-106542453D01*
X127177092Y-106488250D01*
X127194750Y-106480935D01*
X127295274Y-106460940D01*
X127304823Y-106460000D01*
X174500000Y-106460000D01*
X174500000Y-107960000D01*
G37*
G04 #@! TD.AperFunction*
G04 #@! TA.AperFunction,Conductor*
G36*
X174500000Y-103825000D02*
G01*
X127304823Y-103825000D01*
X127295274Y-103824060D01*
X127194750Y-103804065D01*
X127177092Y-103796750D01*
X127095972Y-103742547D01*
X127082453Y-103729028D01*
X127028250Y-103647908D01*
X127020935Y-103630250D01*
X127000940Y-103529726D01*
X127000000Y-103520177D01*
X127000000Y-102629823D01*
X127000940Y-102620274D01*
X127020935Y-102519750D01*
X127028250Y-102502092D01*
X127082453Y-102420972D01*
X127095972Y-102407453D01*
X127177092Y-102353250D01*
X127194750Y-102345935D01*
X127295274Y-102325940D01*
X127304823Y-102325000D01*
X174500000Y-102325000D01*
X174500000Y-103825000D01*
G37*
G04 #@! TD.AperFunction*
G04 #@! TA.AperFunction,Conductor*
G36*
X174500000Y-99690000D02*
G01*
X127304823Y-99690000D01*
X127295274Y-99689060D01*
X127194750Y-99669065D01*
X127177092Y-99661750D01*
X127095972Y-99607547D01*
X127082453Y-99594028D01*
X127028250Y-99512908D01*
X127020935Y-99495250D01*
X127000940Y-99394726D01*
X127000000Y-99385177D01*
X127000000Y-98494823D01*
X127000940Y-98485274D01*
X127020935Y-98384750D01*
X127028250Y-98367092D01*
X127082453Y-98285972D01*
X127095972Y-98272453D01*
X127177092Y-98218250D01*
X127194750Y-98210935D01*
X127295274Y-98190940D01*
X127304823Y-98190000D01*
X174500000Y-98190000D01*
X174500000Y-99690000D01*
G37*
G04 #@! TD.AperFunction*
G04 #@! TA.AperFunction,Conductor*
G36*
X174500000Y-95555000D02*
G01*
X127304823Y-95555000D01*
X127295274Y-95554060D01*
X127194750Y-95534065D01*
X127177092Y-95526750D01*
X127095972Y-95472547D01*
X127082453Y-95459028D01*
X127028250Y-95377908D01*
X127020935Y-95360250D01*
X127000940Y-95259726D01*
X127000000Y-95250177D01*
X127000000Y-94359823D01*
X127000940Y-94350274D01*
X127020935Y-94249750D01*
X127028250Y-94232092D01*
X127082453Y-94150972D01*
X127095972Y-94137453D01*
X127177092Y-94083250D01*
X127194750Y-94075935D01*
X127295274Y-94055940D01*
X127304823Y-94055000D01*
X174500000Y-94055000D01*
X174500000Y-95555000D01*
G37*
G04 #@! TD.AperFunction*
G04 #@! TA.AperFunction,Conductor*
G36*
X174500000Y-91420000D02*
G01*
X127304823Y-91420000D01*
X127295274Y-91419060D01*
X127194750Y-91399065D01*
X127177092Y-91391750D01*
X127095972Y-91337547D01*
X127082453Y-91324028D01*
X127028250Y-91242908D01*
X127020935Y-91225250D01*
X127000940Y-91124726D01*
X127000000Y-91115177D01*
X127000000Y-90224823D01*
X127000940Y-90215274D01*
X127020935Y-90114750D01*
X127028250Y-90097092D01*
X127082453Y-90015972D01*
X127095972Y-90002453D01*
X127177092Y-89948250D01*
X127194750Y-89940935D01*
X127295274Y-89920940D01*
X127304823Y-89920000D01*
X174500000Y-89920000D01*
X174500000Y-91420000D01*
G37*
G04 #@! TD.AperFunction*
G04 #@! TA.AperFunction,Conductor*
G36*
X174500000Y-87285000D02*
G01*
X127304823Y-87285000D01*
X127295274Y-87284060D01*
X127194750Y-87264065D01*
X127177092Y-87256750D01*
X127095972Y-87202547D01*
X127082453Y-87189028D01*
X127028250Y-87107908D01*
X127020935Y-87090250D01*
X127000940Y-86989726D01*
X127000000Y-86980177D01*
X127000000Y-86089823D01*
X127000940Y-86080274D01*
X127020935Y-85979750D01*
X127028250Y-85962092D01*
X127082453Y-85880972D01*
X127095972Y-85867453D01*
X127177092Y-85813250D01*
X127194750Y-85805935D01*
X127295274Y-85785940D01*
X127304823Y-85785000D01*
X174500000Y-85785000D01*
X174500000Y-87285000D01*
G37*
G04 #@! TD.AperFunction*
G04 #@! TA.AperFunction,Conductor*
G36*
X174500000Y-83150000D02*
G01*
X127304823Y-83150000D01*
X127295274Y-83149060D01*
X127194750Y-83129065D01*
X127177092Y-83121750D01*
X127095972Y-83067547D01*
X127082453Y-83054028D01*
X127028250Y-82972908D01*
X127020935Y-82955250D01*
X127000940Y-82854726D01*
X127000000Y-82845177D01*
X127000000Y-81954823D01*
X127000940Y-81945274D01*
X127020935Y-81844750D01*
X127028250Y-81827092D01*
X127082453Y-81745972D01*
X127095972Y-81732453D01*
X127177092Y-81678250D01*
X127194750Y-81670935D01*
X127295274Y-81650940D01*
X127304823Y-81650000D01*
X174500000Y-81650000D01*
X174500000Y-83150000D01*
G37*
G04 #@! TD.AperFunction*
G04 #@! TA.AperFunction,Conductor*
G36*
X174500000Y-79015000D02*
G01*
X127304823Y-79015000D01*
X127295274Y-79014060D01*
X127194750Y-78994065D01*
X127177092Y-78986750D01*
X127095972Y-78932547D01*
X127082453Y-78919028D01*
X127028250Y-78837908D01*
X127020935Y-78820250D01*
X127000940Y-78719726D01*
X127000000Y-78710177D01*
X127000000Y-77819823D01*
X127000940Y-77810274D01*
X127020935Y-77709750D01*
X127028250Y-77692092D01*
X127082453Y-77610972D01*
X127095972Y-77597453D01*
X127177092Y-77543250D01*
X127194750Y-77535935D01*
X127295274Y-77515940D01*
X127304823Y-77515000D01*
X174500000Y-77515000D01*
X174500000Y-79015000D01*
G37*
G04 #@! TD.AperFunction*
M02*
