G04 #@! TF.GenerationSoftware,KiCad,Pcbnew,6.0.0-d3dd2cf0fa~116~ubuntu20.04.1*
G04 #@! TF.CreationDate,2022-01-09T22:46:25+01:00*
G04 #@! TF.ProjectId,Statikplatte,53746174-696b-4706-9c61-7474652e6b69,rev?*
G04 #@! TF.SameCoordinates,Original*
G04 #@! TF.FileFunction,Copper,L4,Bot*
G04 #@! TF.FilePolarity,Positive*
%FSLAX46Y46*%
G04 Gerber Fmt 4.6, Leading zero omitted, Abs format (unit mm)*
G04 Created by KiCad (PCBNEW 6.0.0-d3dd2cf0fa~116~ubuntu20.04.1) date 2022-01-09 22:46:25*
%MOMM*%
%LPD*%
G01*
G04 APERTURE LIST*
G04 Aperture macros list*
%AMRoundRect*
0 Rectangle with rounded corners*
0 $1 Rounding radius*
0 $2 $3 $4 $5 $6 $7 $8 $9 X,Y pos of 4 corners*
0 Add a 4 corners polygon primitive as box body*
4,1,4,$2,$3,$4,$5,$6,$7,$8,$9,$2,$3,0*
0 Add four circle primitives for the rounded corners*
1,1,$1+$1,$2,$3*
1,1,$1+$1,$4,$5*
1,1,$1+$1,$6,$7*
1,1,$1+$1,$8,$9*
0 Add four rect primitives between the rounded corners*
20,1,$1+$1,$2,$3,$4,$5,0*
20,1,$1+$1,$4,$5,$6,$7,0*
20,1,$1+$1,$6,$7,$8,$9,0*
20,1,$1+$1,$8,$9,$2,$3,0*%
G04 Aperture macros list end*
G04 #@! TA.AperFunction,Profile*
%ADD10C,0.150000*%
G04 #@! TD*
G04 #@! TA.AperFunction,SMDPad,CuDef*
%ADD11R,4.000000X4.000000*%
G04 #@! TD*
G04 #@! TA.AperFunction,SMDPad,CuDef*
%ADD12RoundRect,0.250000X1.425000X-0.425000X1.425000X0.425000X-1.425000X0.425000X-1.425000X-0.425000X0*%
G04 #@! TD*
G04 #@! TA.AperFunction,SMDPad,CuDef*
%ADD13RoundRect,0.250000X-0.425000X-1.425000X0.425000X-1.425000X0.425000X1.425000X-0.425000X1.425000X0*%
G04 #@! TD*
G04 #@! TA.AperFunction,SMDPad,CuDef*
%ADD14R,3.500000X2.000000*%
G04 #@! TD*
G04 #@! TA.AperFunction,SMDPad,CuDef*
%ADD15R,6.000000X2.000000*%
G04 #@! TD*
G04 #@! TA.AperFunction,SMDPad,CuDef*
%ADD16RoundRect,0.250000X0.312500X1.450000X-0.312500X1.450000X-0.312500X-1.450000X0.312500X-1.450000X0*%
G04 #@! TD*
G04 #@! TA.AperFunction,SMDPad,CuDef*
%ADD17RoundRect,0.425000X0.425000X-0.825000X0.425000X0.825000X-0.425000X0.825000X-0.425000X-0.825000X0*%
G04 #@! TD*
G04 #@! TA.AperFunction,SMDPad,CuDef*
%ADD18RoundRect,0.425000X-0.425000X0.825000X-0.425000X-0.825000X0.425000X-0.825000X0.425000X0.825000X0*%
G04 #@! TD*
G04 #@! TA.AperFunction,ViaPad*
%ADD19C,0.600000*%
G04 #@! TD*
G04 #@! TA.AperFunction,ViaPad*
%ADD20C,0.800000*%
G04 #@! TD*
G04 #@! TA.AperFunction,Conductor*
%ADD21C,0.600000*%
G04 #@! TD*
G04 APERTURE END LIST*
D10*
X125000000Y-75000000D02*
X175000000Y-75000000D01*
X175000000Y-75000000D02*
X175000000Y-125000000D01*
X125000000Y-125000000D02*
X175000000Y-125000000D01*
X125000000Y-75000000D02*
X125000000Y-125000000D01*
D11*
X135000000Y-122500000D03*
X165000000Y-122500000D03*
X127500000Y-85000000D03*
X135000000Y-77500000D03*
X165000000Y-77500000D03*
X172750000Y-115000000D03*
X127500000Y-115000000D03*
X172750000Y-85000000D03*
D12*
X167000000Y-110600000D03*
X167000000Y-116400000D03*
D13*
X139400000Y-108000000D03*
X133600000Y-108000000D03*
D14*
X137625000Y-98500000D03*
X137625000Y-102500000D03*
D15*
X128375000Y-98500000D03*
X128375000Y-102500000D03*
D16*
X142862500Y-108000000D03*
X147137500Y-108000000D03*
X148862500Y-92000000D03*
X153137500Y-92000000D03*
X154862500Y-108000000D03*
X159137500Y-108000000D03*
X160862500Y-94000000D03*
X165137500Y-94000000D03*
X166725000Y-106000000D03*
X171000000Y-106000000D03*
D17*
X145500000Y-98000000D03*
X145500000Y-102000000D03*
D18*
X156500000Y-102000000D03*
X156500000Y-98000000D03*
D17*
X160000000Y-98000000D03*
X160000000Y-102000000D03*
D18*
X166000000Y-102000000D03*
X166000000Y-98000000D03*
D17*
X169500000Y-98000000D03*
X169500000Y-102000000D03*
D16*
X136862500Y-94000000D03*
X141137500Y-94000000D03*
D18*
X142000000Y-102000000D03*
X142000000Y-98000000D03*
D19*
X173750000Y-115500000D03*
X135000000Y-76250000D03*
X127500000Y-84500000D03*
X135000000Y-121750000D03*
D20*
X171750000Y-84500000D03*
D19*
X133500000Y-109250000D03*
D21*
X171000000Y-108000000D02*
X171000000Y-106500000D01*
X171000000Y-109000000D02*
X171000000Y-108000000D01*
X167000000Y-110600000D02*
X169400000Y-110600000D01*
X169400000Y-110600000D02*
X171000000Y-109000000D01*
X169500000Y-102500000D02*
X169500000Y-102000000D01*
X171000000Y-106000000D02*
X171000000Y-104000000D01*
X171000000Y-104000000D02*
X169500000Y-102500000D01*
X165137500Y-97137500D02*
X166000000Y-98000000D01*
X165137500Y-94000000D02*
X165137500Y-97137500D01*
X166000001Y-97999999D02*
X166000000Y-98000000D01*
X169500000Y-98000000D02*
X166000000Y-98000000D01*
X159137500Y-102862500D02*
X160000000Y-102000000D01*
X159137500Y-106000000D02*
X159137500Y-102862500D01*
X166725000Y-102725000D02*
X166000000Y-102000000D01*
X166725000Y-106000000D02*
X166725000Y-102725000D01*
X166000000Y-102000000D02*
X160000000Y-102000000D01*
X159137500Y-108000000D02*
X159137500Y-105637500D01*
X156500000Y-97000000D02*
X156500000Y-98000000D01*
X153137500Y-92000000D02*
X153137500Y-93637500D01*
X153137500Y-93637500D02*
X156500000Y-97000000D01*
X160862500Y-97137500D02*
X160000000Y-98000000D01*
X160862500Y-94000000D02*
X160862500Y-97137500D01*
X160000000Y-98000000D02*
X156500000Y-98000000D01*
X147137500Y-105637500D02*
X147137500Y-108000000D01*
X145500000Y-102000000D02*
X145500000Y-104000000D01*
X145500000Y-104000000D02*
X147137500Y-105637500D01*
X154862500Y-105637500D02*
X154862500Y-108000000D01*
X156500000Y-102000000D02*
X156500000Y-104000000D01*
X156500000Y-104000000D02*
X154862500Y-105637500D01*
X154862500Y-108000000D02*
X147137500Y-108000000D01*
X145500000Y-97000000D02*
X145500000Y-98000000D01*
X148862500Y-92000000D02*
X148862500Y-93637500D01*
X148862500Y-93637500D02*
X145500000Y-97000000D01*
X141137500Y-97137500D02*
X142000000Y-98000000D01*
X141137500Y-94000000D02*
X141137500Y-97137500D01*
X145500000Y-98000000D02*
X142000000Y-98000000D01*
X132175000Y-102500000D02*
X137625000Y-102500000D01*
X128375000Y-102500000D02*
X132175000Y-102500000D01*
X141500000Y-102500000D02*
X142000000Y-102000000D01*
X137625000Y-102500000D02*
X141500000Y-102500000D01*
X142000000Y-104500000D02*
X142000000Y-102000000D01*
X142862500Y-105362500D02*
X142000000Y-104500000D01*
X139500000Y-108000000D02*
X142862500Y-108000000D01*
X142862500Y-108000000D02*
X142862500Y-105362500D01*
X129000000Y-116500000D02*
X127500000Y-115000000D01*
X172750000Y-115000000D02*
X171250000Y-116500000D01*
X171250000Y-116500000D02*
X129000000Y-116500000D01*
X167000000Y-117700000D02*
X167000000Y-116400000D01*
X165000000Y-122500000D02*
X165000000Y-119700000D01*
X165000000Y-119700000D02*
X167000000Y-117700000D01*
X172750000Y-111250000D02*
X172750000Y-115000000D01*
X173500000Y-110500000D02*
X172750000Y-111250000D01*
X173500000Y-102250000D02*
X173500000Y-110500000D01*
X165000000Y-80100000D02*
X167500000Y-82600000D01*
X165000000Y-77500000D02*
X165000000Y-80100000D01*
X167500000Y-82600000D02*
X167500000Y-89250000D01*
X167500000Y-89250000D02*
X173000000Y-94750000D01*
X173000000Y-94750000D02*
X173000000Y-101750000D01*
X173000000Y-101750000D02*
X173500000Y-102250000D01*
X133600000Y-108000000D02*
X133550000Y-107950000D01*
X135000000Y-122500000D02*
X135000000Y-122174264D01*
X135000000Y-122174264D02*
X135000000Y-121750000D01*
X172750000Y-85000000D02*
X172250000Y-85000000D01*
X172250000Y-85000000D02*
X172149999Y-84899999D01*
X172149999Y-84899999D02*
X171750000Y-84500000D01*
X133500000Y-108100000D02*
X133500000Y-108825736D01*
X133500000Y-108825736D02*
X133500000Y-109250000D01*
X133600000Y-108000000D02*
X133500000Y-108100000D01*
X132175000Y-98500000D02*
X137625000Y-98500000D01*
X128375000Y-98500000D02*
X132175000Y-98500000D01*
X136862500Y-97737500D02*
X137625000Y-98500000D01*
X136862500Y-94000000D02*
X136862500Y-97737500D01*
M02*
