%TF.GenerationSoftware,KiCad,Pcbnew,(6.0.0-rc1-dev-1-g01c5bdfb8)*%
%TF.CreationDate,2019-02-25T13:54:40+01:00*%
%TF.ProjectId,Statikplatte,53746174696B706C617474652E6B6963,rev?*%
%TF.SameCoordinates,Original*%
%TF.FileFunction,Copper,L2,Inr,Signal*%
%TF.FilePolarity,Positive*%
%FSLAX46Y46*%
G04 Gerber Fmt 4.6, Leading zero omitted, Abs format (unit mm)*
G04 Created by KiCad (PCBNEW (6.0.0-rc1-dev-1-g01c5bdfb8)) date Mon Feb 25 13:54:40 2019*
%MOMM*%
%LPD*%
G01*
G04 APERTURE LIST*
%ADD10C,0.300000*%
%ADD11C,0.150000*%
%ADD12O,0.900000X0.900000*%
%ADD13C,0.600000*%
%ADD14C,0.100000*%
G04 APERTURE END LIST*
D10*
X114464285Y-78321428D02*
X114535714Y-78250000D01*
X114678571Y-78178571D01*
X115035714Y-78178571D01*
X115178571Y-78250000D01*
X115250000Y-78321428D01*
X115321428Y-78464285D01*
X115321428Y-78607142D01*
X115250000Y-78821428D01*
X114392857Y-79678571D01*
X115321428Y-79678571D01*
X117107142Y-79678571D02*
X117107142Y-78178571D01*
X117821428Y-78678571D02*
X117821428Y-79678571D01*
X117821428Y-78821428D02*
X117892857Y-78750000D01*
X118035714Y-78678571D01*
X118250000Y-78678571D01*
X118392857Y-78750000D01*
X118464285Y-78892857D01*
X118464285Y-79678571D01*
X119964285Y-79678571D02*
X119107142Y-79678571D01*
X119535714Y-79678571D02*
X119535714Y-78178571D01*
X119392857Y-78392857D01*
X119250000Y-78535714D01*
X119107142Y-78607142D01*
X120607142Y-79535714D02*
X120678571Y-79607142D01*
X120607142Y-79678571D01*
X120535714Y-79607142D01*
X120607142Y-79535714D01*
X120607142Y-79678571D01*
X122178571Y-79535714D02*
X122107142Y-79607142D01*
X121892857Y-79678571D01*
X121750000Y-79678571D01*
X121535714Y-79607142D01*
X121392857Y-79464285D01*
X121321428Y-79321428D01*
X121250000Y-79035714D01*
X121250000Y-78821428D01*
X121321428Y-78535714D01*
X121392857Y-78392857D01*
X121535714Y-78250000D01*
X121750000Y-78178571D01*
X121892857Y-78178571D01*
X122107142Y-78250000D01*
X122178571Y-78321428D01*
X123464285Y-78678571D02*
X123464285Y-79678571D01*
X122821428Y-78678571D02*
X122821428Y-79464285D01*
X122892857Y-79607142D01*
X123035714Y-79678571D01*
X123250000Y-79678571D01*
X123392857Y-79607142D01*
X123464285Y-79535714D01*
D11*
X125000000Y-75000000D02*
X175000000Y-75000000D01*
X175000000Y-75000000D02*
X175000000Y-125000000D01*
X125000000Y-125000000D02*
X175000000Y-125000000D01*
X125000000Y-75000000D02*
X125000000Y-125000000D01*
D12*
X151000000Y-99500000D03*
D13*
X174180000Y-114500000D03*
X164900000Y-76500000D03*
X125800000Y-85500000D03*
X125650000Y-107500000D03*
X125650000Y-121500000D03*
D14*
G36*
X174375001Y-124375000D02*
X126348761Y-124375000D01*
X126359271Y-124359271D01*
X126423839Y-124316128D01*
X126504923Y-124300000D01*
X173750000Y-124300000D01*
X173756526Y-124299572D01*
X173885936Y-124282535D01*
X173898544Y-124279157D01*
X174019134Y-124229207D01*
X174030438Y-124222680D01*
X174133991Y-124143220D01*
X174143220Y-124133991D01*
X174222680Y-124030438D01*
X174229207Y-124019134D01*
X174279157Y-123898544D01*
X174282535Y-123885936D01*
X174299572Y-123756526D01*
X174300000Y-123750000D01*
X174300000Y-123250000D01*
X174299572Y-123243474D01*
X174282535Y-123114064D01*
X174279157Y-123101456D01*
X174229207Y-122980866D01*
X174222680Y-122969562D01*
X174143220Y-122866009D01*
X174133991Y-122856780D01*
X174030438Y-122777320D01*
X174019134Y-122770793D01*
X173898544Y-122720843D01*
X173885936Y-122717465D01*
X173756526Y-122700428D01*
X173750000Y-122700000D01*
X126504923Y-122700000D01*
X126423839Y-122683872D01*
X126359271Y-122640729D01*
X126316128Y-122576161D01*
X126300979Y-122500000D01*
X126316128Y-122423839D01*
X126359271Y-122359271D01*
X126423839Y-122316128D01*
X126504923Y-122300000D01*
X173750000Y-122300000D01*
X173756526Y-122299572D01*
X173885936Y-122282535D01*
X173898544Y-122279157D01*
X174019134Y-122229207D01*
X174030438Y-122222680D01*
X174133991Y-122143220D01*
X174143220Y-122133991D01*
X174222680Y-122030438D01*
X174229207Y-122019134D01*
X174279157Y-121898544D01*
X174282535Y-121885936D01*
X174299572Y-121756526D01*
X174300000Y-121750000D01*
X174300000Y-121250000D01*
X174299572Y-121243474D01*
X174282535Y-121114064D01*
X174279157Y-121101456D01*
X174229207Y-120980866D01*
X174222680Y-120969562D01*
X174143220Y-120866009D01*
X174133991Y-120856780D01*
X174030438Y-120777320D01*
X174019134Y-120770793D01*
X173898544Y-120720843D01*
X173885936Y-120717465D01*
X173756526Y-120700428D01*
X173750000Y-120700000D01*
X126504923Y-120700000D01*
X126423839Y-120683872D01*
X126359271Y-120640729D01*
X126316128Y-120576161D01*
X126300979Y-120500000D01*
X126316128Y-120423839D01*
X126359271Y-120359271D01*
X126423839Y-120316128D01*
X126504923Y-120300000D01*
X173750000Y-120300000D01*
X173756526Y-120299572D01*
X173885936Y-120282535D01*
X173898544Y-120279157D01*
X174019134Y-120229207D01*
X174030438Y-120222680D01*
X174133991Y-120143220D01*
X174143220Y-120133991D01*
X174222680Y-120030438D01*
X174229207Y-120019134D01*
X174279157Y-119898544D01*
X174282535Y-119885936D01*
X174299572Y-119756526D01*
X174300000Y-119750000D01*
X174300000Y-119250000D01*
X174299572Y-119243474D01*
X174282535Y-119114064D01*
X174279157Y-119101456D01*
X174229207Y-118980866D01*
X174222680Y-118969562D01*
X174143220Y-118866009D01*
X174133991Y-118856780D01*
X174030438Y-118777320D01*
X174019134Y-118770793D01*
X173898544Y-118720843D01*
X173885936Y-118717465D01*
X173756526Y-118700428D01*
X173750000Y-118700000D01*
X126504923Y-118700000D01*
X126423839Y-118683872D01*
X126359271Y-118640729D01*
X126316128Y-118576161D01*
X126300979Y-118500000D01*
X126316128Y-118423839D01*
X126359271Y-118359271D01*
X126423839Y-118316128D01*
X126504923Y-118300000D01*
X173750000Y-118300000D01*
X173756526Y-118299572D01*
X173885936Y-118282535D01*
X173898544Y-118279157D01*
X174019134Y-118229207D01*
X174030438Y-118222680D01*
X174133991Y-118143220D01*
X174143220Y-118133991D01*
X174222680Y-118030438D01*
X174229207Y-118019134D01*
X174279157Y-117898544D01*
X174282535Y-117885936D01*
X174299572Y-117756526D01*
X174300000Y-117750000D01*
X174300000Y-117250000D01*
X174299572Y-117243474D01*
X174282535Y-117114064D01*
X174279157Y-117101456D01*
X174229207Y-116980866D01*
X174222680Y-116969562D01*
X174143220Y-116866009D01*
X174133991Y-116856780D01*
X174030438Y-116777320D01*
X174019134Y-116770793D01*
X173898544Y-116720843D01*
X173885936Y-116717465D01*
X173756526Y-116700428D01*
X173750000Y-116700000D01*
X126504923Y-116700000D01*
X126423839Y-116683872D01*
X126359271Y-116640729D01*
X126316128Y-116576161D01*
X126300979Y-116500000D01*
X126316128Y-116423839D01*
X126359271Y-116359271D01*
X126423839Y-116316128D01*
X126504923Y-116300000D01*
X173750000Y-116300000D01*
X173756526Y-116299572D01*
X173885936Y-116282535D01*
X173898544Y-116279157D01*
X174019134Y-116229207D01*
X174030438Y-116222680D01*
X174133991Y-116143220D01*
X174143220Y-116133991D01*
X174222680Y-116030438D01*
X174229207Y-116019134D01*
X174279157Y-115898544D01*
X174282535Y-115885936D01*
X174299572Y-115756526D01*
X174300000Y-115750000D01*
X174300000Y-115250000D01*
X174299572Y-115243474D01*
X174282535Y-115114064D01*
X174279157Y-115101456D01*
X174229207Y-114980866D01*
X174222680Y-114969562D01*
X174143220Y-114866009D01*
X174133991Y-114856780D01*
X174030438Y-114777320D01*
X174019134Y-114770793D01*
X173898544Y-114720843D01*
X173885936Y-114717465D01*
X173756526Y-114700428D01*
X173750000Y-114700000D01*
X126504923Y-114700000D01*
X126423839Y-114683872D01*
X126359271Y-114640729D01*
X126316128Y-114576161D01*
X126300979Y-114500000D01*
X126316128Y-114423839D01*
X126359271Y-114359271D01*
X126423839Y-114316128D01*
X126504923Y-114300000D01*
X173750000Y-114300000D01*
X173756526Y-114299572D01*
X173885936Y-114282535D01*
X173898544Y-114279157D01*
X174019134Y-114229207D01*
X174030438Y-114222680D01*
X174133991Y-114143220D01*
X174143220Y-114133991D01*
X174222680Y-114030438D01*
X174229207Y-114019134D01*
X174279157Y-113898544D01*
X174282535Y-113885936D01*
X174299572Y-113756526D01*
X174300000Y-113750000D01*
X174300000Y-113250000D01*
X174299572Y-113243474D01*
X174282535Y-113114064D01*
X174279157Y-113101456D01*
X174229207Y-112980866D01*
X174222680Y-112969562D01*
X174143220Y-112866009D01*
X174133991Y-112856780D01*
X174030438Y-112777320D01*
X174019134Y-112770793D01*
X173898544Y-112720843D01*
X173885936Y-112717465D01*
X173756526Y-112700428D01*
X173750000Y-112700000D01*
X126504923Y-112700000D01*
X126423839Y-112683872D01*
X126359271Y-112640729D01*
X126316128Y-112576161D01*
X126300979Y-112500000D01*
X126316128Y-112423839D01*
X126359271Y-112359271D01*
X126423839Y-112316128D01*
X126504923Y-112300000D01*
X173750000Y-112300000D01*
X173756526Y-112299572D01*
X173885936Y-112282535D01*
X173898544Y-112279157D01*
X174019134Y-112229207D01*
X174030438Y-112222680D01*
X174133991Y-112143220D01*
X174143220Y-112133991D01*
X174222680Y-112030438D01*
X174229207Y-112019134D01*
X174279157Y-111898544D01*
X174282535Y-111885936D01*
X174299572Y-111756526D01*
X174300000Y-111750000D01*
X174300000Y-111250000D01*
X174299572Y-111243474D01*
X174282535Y-111114064D01*
X174279157Y-111101456D01*
X174229207Y-110980866D01*
X174222680Y-110969562D01*
X174143220Y-110866009D01*
X174133991Y-110856780D01*
X174030438Y-110777320D01*
X174019134Y-110770793D01*
X173898544Y-110720843D01*
X173885936Y-110717465D01*
X173756526Y-110700428D01*
X173750000Y-110700000D01*
X126504923Y-110700000D01*
X126423839Y-110683872D01*
X126359271Y-110640729D01*
X126316128Y-110576161D01*
X126300979Y-110500000D01*
X126316128Y-110423839D01*
X126359271Y-110359271D01*
X126423839Y-110316128D01*
X126504923Y-110300000D01*
X173750000Y-110300000D01*
X173756526Y-110299572D01*
X173885936Y-110282535D01*
X173898544Y-110279157D01*
X174019134Y-110229207D01*
X174030438Y-110222680D01*
X174133991Y-110143220D01*
X174143220Y-110133991D01*
X174222680Y-110030438D01*
X174229207Y-110019134D01*
X174279157Y-109898544D01*
X174282535Y-109885936D01*
X174299572Y-109756526D01*
X174300000Y-109750000D01*
X174300000Y-109250000D01*
X174299572Y-109243474D01*
X174282535Y-109114064D01*
X174279157Y-109101456D01*
X174229207Y-108980866D01*
X174222680Y-108969562D01*
X174143220Y-108866009D01*
X174133991Y-108856780D01*
X174030438Y-108777320D01*
X174019134Y-108770793D01*
X173898544Y-108720843D01*
X173885936Y-108717465D01*
X173756526Y-108700428D01*
X173750000Y-108700000D01*
X126504923Y-108700000D01*
X126423839Y-108683872D01*
X126359271Y-108640729D01*
X126316128Y-108576161D01*
X126300979Y-108500000D01*
X126316128Y-108423839D01*
X126359271Y-108359271D01*
X126423839Y-108316128D01*
X126504923Y-108300000D01*
X173750000Y-108300000D01*
X173756526Y-108299572D01*
X173885936Y-108282535D01*
X173898544Y-108279157D01*
X174019134Y-108229207D01*
X174030438Y-108222680D01*
X174133991Y-108143220D01*
X174143220Y-108133991D01*
X174222680Y-108030438D01*
X174229207Y-108019134D01*
X174279157Y-107898544D01*
X174282535Y-107885936D01*
X174299572Y-107756526D01*
X174300000Y-107750000D01*
X174300000Y-107250000D01*
X174299572Y-107243474D01*
X174282535Y-107114064D01*
X174279157Y-107101456D01*
X174229207Y-106980866D01*
X174222680Y-106969562D01*
X174143220Y-106866009D01*
X174133991Y-106856780D01*
X174030438Y-106777320D01*
X174019134Y-106770793D01*
X173898544Y-106720843D01*
X173885936Y-106717465D01*
X173756526Y-106700428D01*
X173750000Y-106700000D01*
X126504923Y-106700000D01*
X126423839Y-106683872D01*
X126359271Y-106640729D01*
X126316128Y-106576161D01*
X126300979Y-106500000D01*
X126316128Y-106423839D01*
X126359271Y-106359271D01*
X126423839Y-106316128D01*
X126504923Y-106300000D01*
X173750000Y-106300000D01*
X173756526Y-106299572D01*
X173885936Y-106282535D01*
X173898544Y-106279157D01*
X174019134Y-106229207D01*
X174030438Y-106222680D01*
X174133991Y-106143220D01*
X174143220Y-106133991D01*
X174222680Y-106030438D01*
X174229207Y-106019134D01*
X174279157Y-105898544D01*
X174282535Y-105885936D01*
X174299572Y-105756526D01*
X174300000Y-105750000D01*
X174300000Y-105250000D01*
X174299572Y-105243474D01*
X174282535Y-105114064D01*
X174279157Y-105101456D01*
X174229207Y-104980866D01*
X174222680Y-104969562D01*
X174143220Y-104866009D01*
X174133991Y-104856780D01*
X174030438Y-104777320D01*
X174019134Y-104770793D01*
X173898544Y-104720843D01*
X173885936Y-104717465D01*
X173756526Y-104700428D01*
X173750000Y-104700000D01*
X126504923Y-104700000D01*
X126423839Y-104683872D01*
X126359271Y-104640729D01*
X126316128Y-104576161D01*
X126300979Y-104500000D01*
X126316128Y-104423839D01*
X126359271Y-104359271D01*
X126423839Y-104316128D01*
X126504923Y-104300000D01*
X173750000Y-104300000D01*
X173756526Y-104299572D01*
X173885936Y-104282535D01*
X173898544Y-104279157D01*
X174019134Y-104229207D01*
X174030438Y-104222680D01*
X174133991Y-104143220D01*
X174143220Y-104133991D01*
X174222680Y-104030438D01*
X174229207Y-104019134D01*
X174279157Y-103898544D01*
X174282535Y-103885936D01*
X174299572Y-103756526D01*
X174300000Y-103750000D01*
X174300000Y-103250000D01*
X174299572Y-103243474D01*
X174282535Y-103114064D01*
X174279157Y-103101456D01*
X174229207Y-102980866D01*
X174222680Y-102969562D01*
X174143220Y-102866009D01*
X174133991Y-102856780D01*
X174030438Y-102777320D01*
X174019134Y-102770793D01*
X173898544Y-102720843D01*
X173885936Y-102717465D01*
X173756526Y-102700428D01*
X173750000Y-102700000D01*
X126504923Y-102700000D01*
X126423839Y-102683872D01*
X126359271Y-102640729D01*
X126316128Y-102576161D01*
X126300979Y-102500000D01*
X126316128Y-102423839D01*
X126359271Y-102359271D01*
X126423839Y-102316128D01*
X126504923Y-102300000D01*
X173750000Y-102300000D01*
X173756526Y-102299572D01*
X173885936Y-102282535D01*
X173898544Y-102279157D01*
X174019134Y-102229207D01*
X174030438Y-102222680D01*
X174133991Y-102143220D01*
X174143220Y-102133991D01*
X174222680Y-102030438D01*
X174229207Y-102019134D01*
X174279157Y-101898544D01*
X174282535Y-101885936D01*
X174299572Y-101756526D01*
X174300000Y-101750000D01*
X174300000Y-101250000D01*
X174299572Y-101243474D01*
X174282535Y-101114064D01*
X174279157Y-101101456D01*
X174229207Y-100980866D01*
X174222680Y-100969562D01*
X174143220Y-100866009D01*
X174133991Y-100856780D01*
X174030438Y-100777320D01*
X174019134Y-100770793D01*
X173898544Y-100720843D01*
X173885936Y-100717465D01*
X173756526Y-100700428D01*
X173750000Y-100700000D01*
X126504923Y-100700000D01*
X126423839Y-100683872D01*
X126359271Y-100640729D01*
X126316128Y-100576161D01*
X126300979Y-100500000D01*
X126316128Y-100423839D01*
X126359271Y-100359271D01*
X126423839Y-100316128D01*
X126504923Y-100300000D01*
X150398495Y-100300000D01*
X150441742Y-100335492D01*
X150615465Y-100428349D01*
X150803966Y-100485530D01*
X150950880Y-100500000D01*
X151049120Y-100500000D01*
X151196034Y-100485530D01*
X151384535Y-100428349D01*
X151558258Y-100335492D01*
X151601505Y-100300000D01*
X173750000Y-100300000D01*
X173756526Y-100299572D01*
X173885936Y-100282535D01*
X173898544Y-100279157D01*
X174019134Y-100229207D01*
X174030438Y-100222680D01*
X174133991Y-100143220D01*
X174143220Y-100133991D01*
X174222680Y-100030438D01*
X174229207Y-100019134D01*
X174279157Y-99898544D01*
X174282535Y-99885936D01*
X174299572Y-99756526D01*
X174300000Y-99750000D01*
X174300000Y-99250000D01*
X174299572Y-99243474D01*
X174282535Y-99114064D01*
X174279157Y-99101456D01*
X174229207Y-98980866D01*
X174222680Y-98969562D01*
X174143220Y-98866009D01*
X174133991Y-98856780D01*
X174030438Y-98777320D01*
X174019134Y-98770793D01*
X173898544Y-98720843D01*
X173885936Y-98717465D01*
X173756526Y-98700428D01*
X173750000Y-98700000D01*
X151601505Y-98700000D01*
X151558258Y-98664508D01*
X151384535Y-98571651D01*
X151196034Y-98514470D01*
X151049120Y-98500000D01*
X150950880Y-98500000D01*
X150803966Y-98514470D01*
X150615465Y-98571651D01*
X150441742Y-98664508D01*
X150398495Y-98700000D01*
X126504923Y-98700000D01*
X126423839Y-98683872D01*
X126359271Y-98640729D01*
X126316128Y-98576161D01*
X126300979Y-98500000D01*
X126316128Y-98423839D01*
X126359271Y-98359271D01*
X126423839Y-98316128D01*
X126504923Y-98300000D01*
X173750000Y-98300000D01*
X173756526Y-98299572D01*
X173885936Y-98282535D01*
X173898544Y-98279157D01*
X174019134Y-98229207D01*
X174030438Y-98222680D01*
X174133991Y-98143220D01*
X174143220Y-98133991D01*
X174222680Y-98030438D01*
X174229207Y-98019134D01*
X174279157Y-97898544D01*
X174282535Y-97885936D01*
X174299572Y-97756526D01*
X174300000Y-97750000D01*
X174300000Y-97250000D01*
X174299572Y-97243474D01*
X174282535Y-97114064D01*
X174279157Y-97101456D01*
X174229207Y-96980866D01*
X174222680Y-96969562D01*
X174143220Y-96866009D01*
X174133991Y-96856780D01*
X174030438Y-96777320D01*
X174019134Y-96770793D01*
X173898544Y-96720843D01*
X173885936Y-96717465D01*
X173756526Y-96700428D01*
X173750000Y-96700000D01*
X126504923Y-96700000D01*
X126423839Y-96683872D01*
X126359271Y-96640729D01*
X126316128Y-96576161D01*
X126300979Y-96500000D01*
X126316128Y-96423839D01*
X126359271Y-96359271D01*
X126423839Y-96316128D01*
X126504923Y-96300000D01*
X173750000Y-96300000D01*
X173756526Y-96299572D01*
X173885936Y-96282535D01*
X173898544Y-96279157D01*
X174019134Y-96229207D01*
X174030438Y-96222680D01*
X174133991Y-96143220D01*
X174143220Y-96133991D01*
X174222680Y-96030438D01*
X174229207Y-96019134D01*
X174279157Y-95898544D01*
X174282535Y-95885936D01*
X174299572Y-95756526D01*
X174300000Y-95750000D01*
X174300000Y-95250000D01*
X174299572Y-95243474D01*
X174282535Y-95114064D01*
X174279157Y-95101456D01*
X174229207Y-94980866D01*
X174222680Y-94969562D01*
X174143220Y-94866009D01*
X174133991Y-94856780D01*
X174030438Y-94777320D01*
X174019134Y-94770793D01*
X173898544Y-94720843D01*
X173885936Y-94717465D01*
X173756526Y-94700428D01*
X173750000Y-94700000D01*
X126504923Y-94700000D01*
X126423839Y-94683872D01*
X126359271Y-94640729D01*
X126316128Y-94576161D01*
X126300979Y-94500000D01*
X126316128Y-94423839D01*
X126359271Y-94359271D01*
X126423839Y-94316128D01*
X126504923Y-94300000D01*
X173750000Y-94300000D01*
X173756526Y-94299572D01*
X173885936Y-94282535D01*
X173898544Y-94279157D01*
X174019134Y-94229207D01*
X174030438Y-94222680D01*
X174133991Y-94143220D01*
X174143220Y-94133991D01*
X174222680Y-94030438D01*
X174229207Y-94019134D01*
X174279157Y-93898544D01*
X174282535Y-93885936D01*
X174299572Y-93756526D01*
X174300000Y-93750000D01*
X174300000Y-93250000D01*
X174299572Y-93243474D01*
X174282535Y-93114064D01*
X174279157Y-93101456D01*
X174229207Y-92980866D01*
X174222680Y-92969562D01*
X174143220Y-92866009D01*
X174133991Y-92856780D01*
X174030438Y-92777320D01*
X174019134Y-92770793D01*
X173898544Y-92720843D01*
X173885936Y-92717465D01*
X173756526Y-92700428D01*
X173750000Y-92700000D01*
X126504923Y-92700000D01*
X126423839Y-92683872D01*
X126359271Y-92640729D01*
X126316128Y-92576161D01*
X126300979Y-92500000D01*
X126316128Y-92423839D01*
X126359271Y-92359271D01*
X126423839Y-92316128D01*
X126504923Y-92300000D01*
X173750000Y-92300000D01*
X173756526Y-92299572D01*
X173885936Y-92282535D01*
X173898544Y-92279157D01*
X174019134Y-92229207D01*
X174030438Y-92222680D01*
X174133991Y-92143220D01*
X174143220Y-92133991D01*
X174222680Y-92030438D01*
X174229207Y-92019134D01*
X174279157Y-91898544D01*
X174282535Y-91885936D01*
X174299572Y-91756526D01*
X174300000Y-91750000D01*
X174300000Y-91250000D01*
X174299572Y-91243474D01*
X174282535Y-91114064D01*
X174279157Y-91101456D01*
X174229207Y-90980866D01*
X174222680Y-90969562D01*
X174143220Y-90866009D01*
X174133991Y-90856780D01*
X174030438Y-90777320D01*
X174019134Y-90770793D01*
X173898544Y-90720843D01*
X173885936Y-90717465D01*
X173756526Y-90700428D01*
X173750000Y-90700000D01*
X126504923Y-90700000D01*
X126423839Y-90683872D01*
X126359271Y-90640729D01*
X126316128Y-90576161D01*
X126300979Y-90500000D01*
X126316128Y-90423839D01*
X126359271Y-90359271D01*
X126423839Y-90316128D01*
X126504923Y-90300000D01*
X173750000Y-90300000D01*
X173756526Y-90299572D01*
X173885936Y-90282535D01*
X173898544Y-90279157D01*
X174019134Y-90229207D01*
X174030438Y-90222680D01*
X174133991Y-90143220D01*
X174143220Y-90133991D01*
X174222680Y-90030438D01*
X174229207Y-90019134D01*
X174279157Y-89898544D01*
X174282535Y-89885936D01*
X174299572Y-89756526D01*
X174300000Y-89750000D01*
X174300000Y-89250000D01*
X174299572Y-89243474D01*
X174282535Y-89114064D01*
X174279157Y-89101456D01*
X174229207Y-88980866D01*
X174222680Y-88969562D01*
X174143220Y-88866009D01*
X174133991Y-88856780D01*
X174030438Y-88777320D01*
X174019134Y-88770793D01*
X173898544Y-88720843D01*
X173885936Y-88717465D01*
X173756526Y-88700428D01*
X173750000Y-88700000D01*
X126504923Y-88700000D01*
X126423839Y-88683872D01*
X126359271Y-88640729D01*
X126316128Y-88576161D01*
X126300979Y-88500000D01*
X126316128Y-88423839D01*
X126359271Y-88359271D01*
X126423839Y-88316128D01*
X126504923Y-88300000D01*
X173750000Y-88300000D01*
X173756526Y-88299572D01*
X173885936Y-88282535D01*
X173898544Y-88279157D01*
X174019134Y-88229207D01*
X174030438Y-88222680D01*
X174133991Y-88143220D01*
X174143220Y-88133991D01*
X174222680Y-88030438D01*
X174229207Y-88019134D01*
X174279157Y-87898544D01*
X174282535Y-87885936D01*
X174299572Y-87756526D01*
X174300000Y-87750000D01*
X174300000Y-87250000D01*
X174299572Y-87243474D01*
X174282535Y-87114064D01*
X174279157Y-87101456D01*
X174229207Y-86980866D01*
X174222680Y-86969562D01*
X174143220Y-86866009D01*
X174133991Y-86856780D01*
X174030438Y-86777320D01*
X174019134Y-86770793D01*
X173898544Y-86720843D01*
X173885936Y-86717465D01*
X173756526Y-86700428D01*
X173750000Y-86700000D01*
X126504923Y-86700000D01*
X126423839Y-86683872D01*
X126359271Y-86640729D01*
X126316128Y-86576161D01*
X126300979Y-86500000D01*
X126316128Y-86423839D01*
X126359271Y-86359271D01*
X126423839Y-86316128D01*
X126504923Y-86300000D01*
X173750000Y-86300000D01*
X173756526Y-86299572D01*
X173885936Y-86282535D01*
X173898544Y-86279157D01*
X174019134Y-86229207D01*
X174030438Y-86222680D01*
X174133991Y-86143220D01*
X174143220Y-86133991D01*
X174222680Y-86030438D01*
X174229207Y-86019134D01*
X174279157Y-85898544D01*
X174282535Y-85885936D01*
X174299572Y-85756526D01*
X174300000Y-85750000D01*
X174300000Y-85250000D01*
X174299572Y-85243474D01*
X174282535Y-85114064D01*
X174279157Y-85101456D01*
X174229207Y-84980866D01*
X174222680Y-84969562D01*
X174143220Y-84866009D01*
X174133991Y-84856780D01*
X174030438Y-84777320D01*
X174019134Y-84770793D01*
X173898544Y-84720843D01*
X173885936Y-84717465D01*
X173756526Y-84700428D01*
X173750000Y-84700000D01*
X126504923Y-84700000D01*
X126423839Y-84683872D01*
X126359271Y-84640729D01*
X126316128Y-84576161D01*
X126300979Y-84500000D01*
X126316128Y-84423839D01*
X126359271Y-84359271D01*
X126423839Y-84316128D01*
X126504923Y-84300000D01*
X173750000Y-84300000D01*
X173756526Y-84299572D01*
X173885936Y-84282535D01*
X173898544Y-84279157D01*
X174019134Y-84229207D01*
X174030438Y-84222680D01*
X174133991Y-84143220D01*
X174143220Y-84133991D01*
X174222680Y-84030438D01*
X174229207Y-84019134D01*
X174279157Y-83898544D01*
X174282535Y-83885936D01*
X174299572Y-83756526D01*
X174300000Y-83750000D01*
X174300000Y-83250000D01*
X174299572Y-83243474D01*
X174282535Y-83114064D01*
X174279157Y-83101456D01*
X174229207Y-82980866D01*
X174222680Y-82969562D01*
X174143220Y-82866009D01*
X174133991Y-82856780D01*
X174030438Y-82777320D01*
X174019134Y-82770793D01*
X173898544Y-82720843D01*
X173885936Y-82717465D01*
X173756526Y-82700428D01*
X173750000Y-82700000D01*
X126504923Y-82700000D01*
X126423839Y-82683872D01*
X126359271Y-82640729D01*
X126316128Y-82576161D01*
X126300979Y-82500000D01*
X126316128Y-82423839D01*
X126359271Y-82359271D01*
X126423839Y-82316128D01*
X126504923Y-82300000D01*
X173750000Y-82300000D01*
X173756526Y-82299572D01*
X173885936Y-82282535D01*
X173898544Y-82279157D01*
X174019134Y-82229207D01*
X174030438Y-82222680D01*
X174133991Y-82143220D01*
X174143220Y-82133991D01*
X174222680Y-82030438D01*
X174229207Y-82019134D01*
X174279157Y-81898544D01*
X174282535Y-81885936D01*
X174299572Y-81756526D01*
X174300000Y-81750000D01*
X174300000Y-81250000D01*
X174299572Y-81243474D01*
X174282535Y-81114064D01*
X174279157Y-81101456D01*
X174229207Y-80980866D01*
X174222680Y-80969562D01*
X174143220Y-80866009D01*
X174133991Y-80856780D01*
X174030438Y-80777320D01*
X174019134Y-80770793D01*
X173898544Y-80720843D01*
X173885936Y-80717465D01*
X173756526Y-80700428D01*
X173750000Y-80700000D01*
X126504923Y-80700000D01*
X126423839Y-80683872D01*
X126359271Y-80640729D01*
X126316128Y-80576161D01*
X126300979Y-80500000D01*
X126316128Y-80423839D01*
X126359271Y-80359271D01*
X126423839Y-80316128D01*
X126504923Y-80300000D01*
X173750000Y-80300000D01*
X173756526Y-80299572D01*
X173885936Y-80282535D01*
X173898544Y-80279157D01*
X174019134Y-80229207D01*
X174030438Y-80222680D01*
X174133991Y-80143220D01*
X174143220Y-80133991D01*
X174222680Y-80030438D01*
X174229207Y-80019134D01*
X174279157Y-79898544D01*
X174282535Y-79885936D01*
X174299572Y-79756526D01*
X174300000Y-79750000D01*
X174300000Y-79250000D01*
X174299572Y-79243474D01*
X174282535Y-79114064D01*
X174279157Y-79101456D01*
X174229207Y-78980866D01*
X174222680Y-78969562D01*
X174143220Y-78866009D01*
X174133991Y-78856780D01*
X174030438Y-78777320D01*
X174019134Y-78770793D01*
X173898544Y-78720843D01*
X173885936Y-78717465D01*
X173756526Y-78700428D01*
X173750000Y-78700000D01*
X126504923Y-78700000D01*
X126423839Y-78683872D01*
X126359271Y-78640729D01*
X126316128Y-78576161D01*
X126300979Y-78500000D01*
X126316128Y-78423839D01*
X126359271Y-78359271D01*
X126423839Y-78316128D01*
X126504923Y-78300000D01*
X173750000Y-78300000D01*
X173756526Y-78299572D01*
X173885936Y-78282535D01*
X173898544Y-78279157D01*
X174019134Y-78229207D01*
X174030438Y-78222680D01*
X174133991Y-78143220D01*
X174143220Y-78133991D01*
X174222680Y-78030438D01*
X174229207Y-78019134D01*
X174279157Y-77898544D01*
X174282535Y-77885936D01*
X174299572Y-77756526D01*
X174300000Y-77750000D01*
X174300000Y-77250000D01*
X174299572Y-77243474D01*
X174282535Y-77114064D01*
X174279157Y-77101456D01*
X174229207Y-76980866D01*
X174222680Y-76969562D01*
X174143220Y-76866009D01*
X174133991Y-76856780D01*
X174030438Y-76777320D01*
X174019134Y-76770793D01*
X173898544Y-76720843D01*
X173885936Y-76717465D01*
X173756526Y-76700428D01*
X173750000Y-76700000D01*
X126504923Y-76700000D01*
X126423839Y-76683872D01*
X126359271Y-76640729D01*
X126316128Y-76576161D01*
X126300979Y-76500000D01*
X126316128Y-76423839D01*
X126359271Y-76359271D01*
X126423839Y-76316128D01*
X126504923Y-76300000D01*
X173750000Y-76300000D01*
X173756526Y-76299572D01*
X173885936Y-76282535D01*
X173898544Y-76279157D01*
X174019134Y-76229207D01*
X174030438Y-76222680D01*
X174133991Y-76143220D01*
X174143220Y-76133991D01*
X174222680Y-76030438D01*
X174229207Y-76019134D01*
X174279157Y-75898544D01*
X174282535Y-75885936D01*
X174299572Y-75756526D01*
X174300000Y-75750000D01*
X174300000Y-75625000D01*
X174375000Y-75625000D01*
X174375001Y-124375000D01*
X174375001Y-124375000D01*
G37*
X174375001Y-124375000D02*
X126348761Y-124375000D01*
X126359271Y-124359271D01*
X126423839Y-124316128D01*
X126504923Y-124300000D01*
X173750000Y-124300000D01*
X173756526Y-124299572D01*
X173885936Y-124282535D01*
X173898544Y-124279157D01*
X174019134Y-124229207D01*
X174030438Y-124222680D01*
X174133991Y-124143220D01*
X174143220Y-124133991D01*
X174222680Y-124030438D01*
X174229207Y-124019134D01*
X174279157Y-123898544D01*
X174282535Y-123885936D01*
X174299572Y-123756526D01*
X174300000Y-123750000D01*
X174300000Y-123250000D01*
X174299572Y-123243474D01*
X174282535Y-123114064D01*
X174279157Y-123101456D01*
X174229207Y-122980866D01*
X174222680Y-122969562D01*
X174143220Y-122866009D01*
X174133991Y-122856780D01*
X174030438Y-122777320D01*
X174019134Y-122770793D01*
X173898544Y-122720843D01*
X173885936Y-122717465D01*
X173756526Y-122700428D01*
X173750000Y-122700000D01*
X126504923Y-122700000D01*
X126423839Y-122683872D01*
X126359271Y-122640729D01*
X126316128Y-122576161D01*
X126300979Y-122500000D01*
X126316128Y-122423839D01*
X126359271Y-122359271D01*
X126423839Y-122316128D01*
X126504923Y-122300000D01*
X173750000Y-122300000D01*
X173756526Y-122299572D01*
X173885936Y-122282535D01*
X173898544Y-122279157D01*
X174019134Y-122229207D01*
X174030438Y-122222680D01*
X174133991Y-122143220D01*
X174143220Y-122133991D01*
X174222680Y-122030438D01*
X174229207Y-122019134D01*
X174279157Y-121898544D01*
X174282535Y-121885936D01*
X174299572Y-121756526D01*
X174300000Y-121750000D01*
X174300000Y-121250000D01*
X174299572Y-121243474D01*
X174282535Y-121114064D01*
X174279157Y-121101456D01*
X174229207Y-120980866D01*
X174222680Y-120969562D01*
X174143220Y-120866009D01*
X174133991Y-120856780D01*
X174030438Y-120777320D01*
X174019134Y-120770793D01*
X173898544Y-120720843D01*
X173885936Y-120717465D01*
X173756526Y-120700428D01*
X173750000Y-120700000D01*
X126504923Y-120700000D01*
X126423839Y-120683872D01*
X126359271Y-120640729D01*
X126316128Y-120576161D01*
X126300979Y-120500000D01*
X126316128Y-120423839D01*
X126359271Y-120359271D01*
X126423839Y-120316128D01*
X126504923Y-120300000D01*
X173750000Y-120300000D01*
X173756526Y-120299572D01*
X173885936Y-120282535D01*
X173898544Y-120279157D01*
X174019134Y-120229207D01*
X174030438Y-120222680D01*
X174133991Y-120143220D01*
X174143220Y-120133991D01*
X174222680Y-120030438D01*
X174229207Y-120019134D01*
X174279157Y-119898544D01*
X174282535Y-119885936D01*
X174299572Y-119756526D01*
X174300000Y-119750000D01*
X174300000Y-119250000D01*
X174299572Y-119243474D01*
X174282535Y-119114064D01*
X174279157Y-119101456D01*
X174229207Y-118980866D01*
X174222680Y-118969562D01*
X174143220Y-118866009D01*
X174133991Y-118856780D01*
X174030438Y-118777320D01*
X174019134Y-118770793D01*
X173898544Y-118720843D01*
X173885936Y-118717465D01*
X173756526Y-118700428D01*
X173750000Y-118700000D01*
X126504923Y-118700000D01*
X126423839Y-118683872D01*
X126359271Y-118640729D01*
X126316128Y-118576161D01*
X126300979Y-118500000D01*
X126316128Y-118423839D01*
X126359271Y-118359271D01*
X126423839Y-118316128D01*
X126504923Y-118300000D01*
X173750000Y-118300000D01*
X173756526Y-118299572D01*
X173885936Y-118282535D01*
X173898544Y-118279157D01*
X174019134Y-118229207D01*
X174030438Y-118222680D01*
X174133991Y-118143220D01*
X174143220Y-118133991D01*
X174222680Y-118030438D01*
X174229207Y-118019134D01*
X174279157Y-117898544D01*
X174282535Y-117885936D01*
X174299572Y-117756526D01*
X174300000Y-117750000D01*
X174300000Y-117250000D01*
X174299572Y-117243474D01*
X174282535Y-117114064D01*
X174279157Y-117101456D01*
X174229207Y-116980866D01*
X174222680Y-116969562D01*
X174143220Y-116866009D01*
X174133991Y-116856780D01*
X174030438Y-116777320D01*
X174019134Y-116770793D01*
X173898544Y-116720843D01*
X173885936Y-116717465D01*
X173756526Y-116700428D01*
X173750000Y-116700000D01*
X126504923Y-116700000D01*
X126423839Y-116683872D01*
X126359271Y-116640729D01*
X126316128Y-116576161D01*
X126300979Y-116500000D01*
X126316128Y-116423839D01*
X126359271Y-116359271D01*
X126423839Y-116316128D01*
X126504923Y-116300000D01*
X173750000Y-116300000D01*
X173756526Y-116299572D01*
X173885936Y-116282535D01*
X173898544Y-116279157D01*
X174019134Y-116229207D01*
X174030438Y-116222680D01*
X174133991Y-116143220D01*
X174143220Y-116133991D01*
X174222680Y-116030438D01*
X174229207Y-116019134D01*
X174279157Y-115898544D01*
X174282535Y-115885936D01*
X174299572Y-115756526D01*
X174300000Y-115750000D01*
X174300000Y-115250000D01*
X174299572Y-115243474D01*
X174282535Y-115114064D01*
X174279157Y-115101456D01*
X174229207Y-114980866D01*
X174222680Y-114969562D01*
X174143220Y-114866009D01*
X174133991Y-114856780D01*
X174030438Y-114777320D01*
X174019134Y-114770793D01*
X173898544Y-114720843D01*
X173885936Y-114717465D01*
X173756526Y-114700428D01*
X173750000Y-114700000D01*
X126504923Y-114700000D01*
X126423839Y-114683872D01*
X126359271Y-114640729D01*
X126316128Y-114576161D01*
X126300979Y-114500000D01*
X126316128Y-114423839D01*
X126359271Y-114359271D01*
X126423839Y-114316128D01*
X126504923Y-114300000D01*
X173750000Y-114300000D01*
X173756526Y-114299572D01*
X173885936Y-114282535D01*
X173898544Y-114279157D01*
X174019134Y-114229207D01*
X174030438Y-114222680D01*
X174133991Y-114143220D01*
X174143220Y-114133991D01*
X174222680Y-114030438D01*
X174229207Y-114019134D01*
X174279157Y-113898544D01*
X174282535Y-113885936D01*
X174299572Y-113756526D01*
X174300000Y-113750000D01*
X174300000Y-113250000D01*
X174299572Y-113243474D01*
X174282535Y-113114064D01*
X174279157Y-113101456D01*
X174229207Y-112980866D01*
X174222680Y-112969562D01*
X174143220Y-112866009D01*
X174133991Y-112856780D01*
X174030438Y-112777320D01*
X174019134Y-112770793D01*
X173898544Y-112720843D01*
X173885936Y-112717465D01*
X173756526Y-112700428D01*
X173750000Y-112700000D01*
X126504923Y-112700000D01*
X126423839Y-112683872D01*
X126359271Y-112640729D01*
X126316128Y-112576161D01*
X126300979Y-112500000D01*
X126316128Y-112423839D01*
X126359271Y-112359271D01*
X126423839Y-112316128D01*
X126504923Y-112300000D01*
X173750000Y-112300000D01*
X173756526Y-112299572D01*
X173885936Y-112282535D01*
X173898544Y-112279157D01*
X174019134Y-112229207D01*
X174030438Y-112222680D01*
X174133991Y-112143220D01*
X174143220Y-112133991D01*
X174222680Y-112030438D01*
X174229207Y-112019134D01*
X174279157Y-111898544D01*
X174282535Y-111885936D01*
X174299572Y-111756526D01*
X174300000Y-111750000D01*
X174300000Y-111250000D01*
X174299572Y-111243474D01*
X174282535Y-111114064D01*
X174279157Y-111101456D01*
X174229207Y-110980866D01*
X174222680Y-110969562D01*
X174143220Y-110866009D01*
X174133991Y-110856780D01*
X174030438Y-110777320D01*
X174019134Y-110770793D01*
X173898544Y-110720843D01*
X173885936Y-110717465D01*
X173756526Y-110700428D01*
X173750000Y-110700000D01*
X126504923Y-110700000D01*
X126423839Y-110683872D01*
X126359271Y-110640729D01*
X126316128Y-110576161D01*
X126300979Y-110500000D01*
X126316128Y-110423839D01*
X126359271Y-110359271D01*
X126423839Y-110316128D01*
X126504923Y-110300000D01*
X173750000Y-110300000D01*
X173756526Y-110299572D01*
X173885936Y-110282535D01*
X173898544Y-110279157D01*
X174019134Y-110229207D01*
X174030438Y-110222680D01*
X174133991Y-110143220D01*
X174143220Y-110133991D01*
X174222680Y-110030438D01*
X174229207Y-110019134D01*
X174279157Y-109898544D01*
X174282535Y-109885936D01*
X174299572Y-109756526D01*
X174300000Y-109750000D01*
X174300000Y-109250000D01*
X174299572Y-109243474D01*
X174282535Y-109114064D01*
X174279157Y-109101456D01*
X174229207Y-108980866D01*
X174222680Y-108969562D01*
X174143220Y-108866009D01*
X174133991Y-108856780D01*
X174030438Y-108777320D01*
X174019134Y-108770793D01*
X173898544Y-108720843D01*
X173885936Y-108717465D01*
X173756526Y-108700428D01*
X173750000Y-108700000D01*
X126504923Y-108700000D01*
X126423839Y-108683872D01*
X126359271Y-108640729D01*
X126316128Y-108576161D01*
X126300979Y-108500000D01*
X126316128Y-108423839D01*
X126359271Y-108359271D01*
X126423839Y-108316128D01*
X126504923Y-108300000D01*
X173750000Y-108300000D01*
X173756526Y-108299572D01*
X173885936Y-108282535D01*
X173898544Y-108279157D01*
X174019134Y-108229207D01*
X174030438Y-108222680D01*
X174133991Y-108143220D01*
X174143220Y-108133991D01*
X174222680Y-108030438D01*
X174229207Y-108019134D01*
X174279157Y-107898544D01*
X174282535Y-107885936D01*
X174299572Y-107756526D01*
X174300000Y-107750000D01*
X174300000Y-107250000D01*
X174299572Y-107243474D01*
X174282535Y-107114064D01*
X174279157Y-107101456D01*
X174229207Y-106980866D01*
X174222680Y-106969562D01*
X174143220Y-106866009D01*
X174133991Y-106856780D01*
X174030438Y-106777320D01*
X174019134Y-106770793D01*
X173898544Y-106720843D01*
X173885936Y-106717465D01*
X173756526Y-106700428D01*
X173750000Y-106700000D01*
X126504923Y-106700000D01*
X126423839Y-106683872D01*
X126359271Y-106640729D01*
X126316128Y-106576161D01*
X126300979Y-106500000D01*
X126316128Y-106423839D01*
X126359271Y-106359271D01*
X126423839Y-106316128D01*
X126504923Y-106300000D01*
X173750000Y-106300000D01*
X173756526Y-106299572D01*
X173885936Y-106282535D01*
X173898544Y-106279157D01*
X174019134Y-106229207D01*
X174030438Y-106222680D01*
X174133991Y-106143220D01*
X174143220Y-106133991D01*
X174222680Y-106030438D01*
X174229207Y-106019134D01*
X174279157Y-105898544D01*
X174282535Y-105885936D01*
X174299572Y-105756526D01*
X174300000Y-105750000D01*
X174300000Y-105250000D01*
X174299572Y-105243474D01*
X174282535Y-105114064D01*
X174279157Y-105101456D01*
X174229207Y-104980866D01*
X174222680Y-104969562D01*
X174143220Y-104866009D01*
X174133991Y-104856780D01*
X174030438Y-104777320D01*
X174019134Y-104770793D01*
X173898544Y-104720843D01*
X173885936Y-104717465D01*
X173756526Y-104700428D01*
X173750000Y-104700000D01*
X126504923Y-104700000D01*
X126423839Y-104683872D01*
X126359271Y-104640729D01*
X126316128Y-104576161D01*
X126300979Y-104500000D01*
X126316128Y-104423839D01*
X126359271Y-104359271D01*
X126423839Y-104316128D01*
X126504923Y-104300000D01*
X173750000Y-104300000D01*
X173756526Y-104299572D01*
X173885936Y-104282535D01*
X173898544Y-104279157D01*
X174019134Y-104229207D01*
X174030438Y-104222680D01*
X174133991Y-104143220D01*
X174143220Y-104133991D01*
X174222680Y-104030438D01*
X174229207Y-104019134D01*
X174279157Y-103898544D01*
X174282535Y-103885936D01*
X174299572Y-103756526D01*
X174300000Y-103750000D01*
X174300000Y-103250000D01*
X174299572Y-103243474D01*
X174282535Y-103114064D01*
X174279157Y-103101456D01*
X174229207Y-102980866D01*
X174222680Y-102969562D01*
X174143220Y-102866009D01*
X174133991Y-102856780D01*
X174030438Y-102777320D01*
X174019134Y-102770793D01*
X173898544Y-102720843D01*
X173885936Y-102717465D01*
X173756526Y-102700428D01*
X173750000Y-102700000D01*
X126504923Y-102700000D01*
X126423839Y-102683872D01*
X126359271Y-102640729D01*
X126316128Y-102576161D01*
X126300979Y-102500000D01*
X126316128Y-102423839D01*
X126359271Y-102359271D01*
X126423839Y-102316128D01*
X126504923Y-102300000D01*
X173750000Y-102300000D01*
X173756526Y-102299572D01*
X173885936Y-102282535D01*
X173898544Y-102279157D01*
X174019134Y-102229207D01*
X174030438Y-102222680D01*
X174133991Y-102143220D01*
X174143220Y-102133991D01*
X174222680Y-102030438D01*
X174229207Y-102019134D01*
X174279157Y-101898544D01*
X174282535Y-101885936D01*
X174299572Y-101756526D01*
X174300000Y-101750000D01*
X174300000Y-101250000D01*
X174299572Y-101243474D01*
X174282535Y-101114064D01*
X174279157Y-101101456D01*
X174229207Y-100980866D01*
X174222680Y-100969562D01*
X174143220Y-100866009D01*
X174133991Y-100856780D01*
X174030438Y-100777320D01*
X174019134Y-100770793D01*
X173898544Y-100720843D01*
X173885936Y-100717465D01*
X173756526Y-100700428D01*
X173750000Y-100700000D01*
X126504923Y-100700000D01*
X126423839Y-100683872D01*
X126359271Y-100640729D01*
X126316128Y-100576161D01*
X126300979Y-100500000D01*
X126316128Y-100423839D01*
X126359271Y-100359271D01*
X126423839Y-100316128D01*
X126504923Y-100300000D01*
X150398495Y-100300000D01*
X150441742Y-100335492D01*
X150615465Y-100428349D01*
X150803966Y-100485530D01*
X150950880Y-100500000D01*
X151049120Y-100500000D01*
X151196034Y-100485530D01*
X151384535Y-100428349D01*
X151558258Y-100335492D01*
X151601505Y-100300000D01*
X173750000Y-100300000D01*
X173756526Y-100299572D01*
X173885936Y-100282535D01*
X173898544Y-100279157D01*
X174019134Y-100229207D01*
X174030438Y-100222680D01*
X174133991Y-100143220D01*
X174143220Y-100133991D01*
X174222680Y-100030438D01*
X174229207Y-100019134D01*
X174279157Y-99898544D01*
X174282535Y-99885936D01*
X174299572Y-99756526D01*
X174300000Y-99750000D01*
X174300000Y-99250000D01*
X174299572Y-99243474D01*
X174282535Y-99114064D01*
X174279157Y-99101456D01*
X174229207Y-98980866D01*
X174222680Y-98969562D01*
X174143220Y-98866009D01*
X174133991Y-98856780D01*
X174030438Y-98777320D01*
X174019134Y-98770793D01*
X173898544Y-98720843D01*
X173885936Y-98717465D01*
X173756526Y-98700428D01*
X173750000Y-98700000D01*
X151601505Y-98700000D01*
X151558258Y-98664508D01*
X151384535Y-98571651D01*
X151196034Y-98514470D01*
X151049120Y-98500000D01*
X150950880Y-98500000D01*
X150803966Y-98514470D01*
X150615465Y-98571651D01*
X150441742Y-98664508D01*
X150398495Y-98700000D01*
X126504923Y-98700000D01*
X126423839Y-98683872D01*
X126359271Y-98640729D01*
X126316128Y-98576161D01*
X126300979Y-98500000D01*
X126316128Y-98423839D01*
X126359271Y-98359271D01*
X126423839Y-98316128D01*
X126504923Y-98300000D01*
X173750000Y-98300000D01*
X173756526Y-98299572D01*
X173885936Y-98282535D01*
X173898544Y-98279157D01*
X174019134Y-98229207D01*
X174030438Y-98222680D01*
X174133991Y-98143220D01*
X174143220Y-98133991D01*
X174222680Y-98030438D01*
X174229207Y-98019134D01*
X174279157Y-97898544D01*
X174282535Y-97885936D01*
X174299572Y-97756526D01*
X174300000Y-97750000D01*
X174300000Y-97250000D01*
X174299572Y-97243474D01*
X174282535Y-97114064D01*
X174279157Y-97101456D01*
X174229207Y-96980866D01*
X174222680Y-96969562D01*
X174143220Y-96866009D01*
X174133991Y-96856780D01*
X174030438Y-96777320D01*
X174019134Y-96770793D01*
X173898544Y-96720843D01*
X173885936Y-96717465D01*
X173756526Y-96700428D01*
X173750000Y-96700000D01*
X126504923Y-96700000D01*
X126423839Y-96683872D01*
X126359271Y-96640729D01*
X126316128Y-96576161D01*
X126300979Y-96500000D01*
X126316128Y-96423839D01*
X126359271Y-96359271D01*
X126423839Y-96316128D01*
X126504923Y-96300000D01*
X173750000Y-96300000D01*
X173756526Y-96299572D01*
X173885936Y-96282535D01*
X173898544Y-96279157D01*
X174019134Y-96229207D01*
X174030438Y-96222680D01*
X174133991Y-96143220D01*
X174143220Y-96133991D01*
X174222680Y-96030438D01*
X174229207Y-96019134D01*
X174279157Y-95898544D01*
X174282535Y-95885936D01*
X174299572Y-95756526D01*
X174300000Y-95750000D01*
X174300000Y-95250000D01*
X174299572Y-95243474D01*
X174282535Y-95114064D01*
X174279157Y-95101456D01*
X174229207Y-94980866D01*
X174222680Y-94969562D01*
X174143220Y-94866009D01*
X174133991Y-94856780D01*
X174030438Y-94777320D01*
X174019134Y-94770793D01*
X173898544Y-94720843D01*
X173885936Y-94717465D01*
X173756526Y-94700428D01*
X173750000Y-94700000D01*
X126504923Y-94700000D01*
X126423839Y-94683872D01*
X126359271Y-94640729D01*
X126316128Y-94576161D01*
X126300979Y-94500000D01*
X126316128Y-94423839D01*
X126359271Y-94359271D01*
X126423839Y-94316128D01*
X126504923Y-94300000D01*
X173750000Y-94300000D01*
X173756526Y-94299572D01*
X173885936Y-94282535D01*
X173898544Y-94279157D01*
X174019134Y-94229207D01*
X174030438Y-94222680D01*
X174133991Y-94143220D01*
X174143220Y-94133991D01*
X174222680Y-94030438D01*
X174229207Y-94019134D01*
X174279157Y-93898544D01*
X174282535Y-93885936D01*
X174299572Y-93756526D01*
X174300000Y-93750000D01*
X174300000Y-93250000D01*
X174299572Y-93243474D01*
X174282535Y-93114064D01*
X174279157Y-93101456D01*
X174229207Y-92980866D01*
X174222680Y-92969562D01*
X174143220Y-92866009D01*
X174133991Y-92856780D01*
X174030438Y-92777320D01*
X174019134Y-92770793D01*
X173898544Y-92720843D01*
X173885936Y-92717465D01*
X173756526Y-92700428D01*
X173750000Y-92700000D01*
X126504923Y-92700000D01*
X126423839Y-92683872D01*
X126359271Y-92640729D01*
X126316128Y-92576161D01*
X126300979Y-92500000D01*
X126316128Y-92423839D01*
X126359271Y-92359271D01*
X126423839Y-92316128D01*
X126504923Y-92300000D01*
X173750000Y-92300000D01*
X173756526Y-92299572D01*
X173885936Y-92282535D01*
X173898544Y-92279157D01*
X174019134Y-92229207D01*
X174030438Y-92222680D01*
X174133991Y-92143220D01*
X174143220Y-92133991D01*
X174222680Y-92030438D01*
X174229207Y-92019134D01*
X174279157Y-91898544D01*
X174282535Y-91885936D01*
X174299572Y-91756526D01*
X174300000Y-91750000D01*
X174300000Y-91250000D01*
X174299572Y-91243474D01*
X174282535Y-91114064D01*
X174279157Y-91101456D01*
X174229207Y-90980866D01*
X174222680Y-90969562D01*
X174143220Y-90866009D01*
X174133991Y-90856780D01*
X174030438Y-90777320D01*
X174019134Y-90770793D01*
X173898544Y-90720843D01*
X173885936Y-90717465D01*
X173756526Y-90700428D01*
X173750000Y-90700000D01*
X126504923Y-90700000D01*
X126423839Y-90683872D01*
X126359271Y-90640729D01*
X126316128Y-90576161D01*
X126300979Y-90500000D01*
X126316128Y-90423839D01*
X126359271Y-90359271D01*
X126423839Y-90316128D01*
X126504923Y-90300000D01*
X173750000Y-90300000D01*
X173756526Y-90299572D01*
X173885936Y-90282535D01*
X173898544Y-90279157D01*
X174019134Y-90229207D01*
X174030438Y-90222680D01*
X174133991Y-90143220D01*
X174143220Y-90133991D01*
X174222680Y-90030438D01*
X174229207Y-90019134D01*
X174279157Y-89898544D01*
X174282535Y-89885936D01*
X174299572Y-89756526D01*
X174300000Y-89750000D01*
X174300000Y-89250000D01*
X174299572Y-89243474D01*
X174282535Y-89114064D01*
X174279157Y-89101456D01*
X174229207Y-88980866D01*
X174222680Y-88969562D01*
X174143220Y-88866009D01*
X174133991Y-88856780D01*
X174030438Y-88777320D01*
X174019134Y-88770793D01*
X173898544Y-88720843D01*
X173885936Y-88717465D01*
X173756526Y-88700428D01*
X173750000Y-88700000D01*
X126504923Y-88700000D01*
X126423839Y-88683872D01*
X126359271Y-88640729D01*
X126316128Y-88576161D01*
X126300979Y-88500000D01*
X126316128Y-88423839D01*
X126359271Y-88359271D01*
X126423839Y-88316128D01*
X126504923Y-88300000D01*
X173750000Y-88300000D01*
X173756526Y-88299572D01*
X173885936Y-88282535D01*
X173898544Y-88279157D01*
X174019134Y-88229207D01*
X174030438Y-88222680D01*
X174133991Y-88143220D01*
X174143220Y-88133991D01*
X174222680Y-88030438D01*
X174229207Y-88019134D01*
X174279157Y-87898544D01*
X174282535Y-87885936D01*
X174299572Y-87756526D01*
X174300000Y-87750000D01*
X174300000Y-87250000D01*
X174299572Y-87243474D01*
X174282535Y-87114064D01*
X174279157Y-87101456D01*
X174229207Y-86980866D01*
X174222680Y-86969562D01*
X174143220Y-86866009D01*
X174133991Y-86856780D01*
X174030438Y-86777320D01*
X174019134Y-86770793D01*
X173898544Y-86720843D01*
X173885936Y-86717465D01*
X173756526Y-86700428D01*
X173750000Y-86700000D01*
X126504923Y-86700000D01*
X126423839Y-86683872D01*
X126359271Y-86640729D01*
X126316128Y-86576161D01*
X126300979Y-86500000D01*
X126316128Y-86423839D01*
X126359271Y-86359271D01*
X126423839Y-86316128D01*
X126504923Y-86300000D01*
X173750000Y-86300000D01*
X173756526Y-86299572D01*
X173885936Y-86282535D01*
X173898544Y-86279157D01*
X174019134Y-86229207D01*
X174030438Y-86222680D01*
X174133991Y-86143220D01*
X174143220Y-86133991D01*
X174222680Y-86030438D01*
X174229207Y-86019134D01*
X174279157Y-85898544D01*
X174282535Y-85885936D01*
X174299572Y-85756526D01*
X174300000Y-85750000D01*
X174300000Y-85250000D01*
X174299572Y-85243474D01*
X174282535Y-85114064D01*
X174279157Y-85101456D01*
X174229207Y-84980866D01*
X174222680Y-84969562D01*
X174143220Y-84866009D01*
X174133991Y-84856780D01*
X174030438Y-84777320D01*
X174019134Y-84770793D01*
X173898544Y-84720843D01*
X173885936Y-84717465D01*
X173756526Y-84700428D01*
X173750000Y-84700000D01*
X126504923Y-84700000D01*
X126423839Y-84683872D01*
X126359271Y-84640729D01*
X126316128Y-84576161D01*
X126300979Y-84500000D01*
X126316128Y-84423839D01*
X126359271Y-84359271D01*
X126423839Y-84316128D01*
X126504923Y-84300000D01*
X173750000Y-84300000D01*
X173756526Y-84299572D01*
X173885936Y-84282535D01*
X173898544Y-84279157D01*
X174019134Y-84229207D01*
X174030438Y-84222680D01*
X174133991Y-84143220D01*
X174143220Y-84133991D01*
X174222680Y-84030438D01*
X174229207Y-84019134D01*
X174279157Y-83898544D01*
X174282535Y-83885936D01*
X174299572Y-83756526D01*
X174300000Y-83750000D01*
X174300000Y-83250000D01*
X174299572Y-83243474D01*
X174282535Y-83114064D01*
X174279157Y-83101456D01*
X174229207Y-82980866D01*
X174222680Y-82969562D01*
X174143220Y-82866009D01*
X174133991Y-82856780D01*
X174030438Y-82777320D01*
X174019134Y-82770793D01*
X173898544Y-82720843D01*
X173885936Y-82717465D01*
X173756526Y-82700428D01*
X173750000Y-82700000D01*
X126504923Y-82700000D01*
X126423839Y-82683872D01*
X126359271Y-82640729D01*
X126316128Y-82576161D01*
X126300979Y-82500000D01*
X126316128Y-82423839D01*
X126359271Y-82359271D01*
X126423839Y-82316128D01*
X126504923Y-82300000D01*
X173750000Y-82300000D01*
X173756526Y-82299572D01*
X173885936Y-82282535D01*
X173898544Y-82279157D01*
X174019134Y-82229207D01*
X174030438Y-82222680D01*
X174133991Y-82143220D01*
X174143220Y-82133991D01*
X174222680Y-82030438D01*
X174229207Y-82019134D01*
X174279157Y-81898544D01*
X174282535Y-81885936D01*
X174299572Y-81756526D01*
X174300000Y-81750000D01*
X174300000Y-81250000D01*
X174299572Y-81243474D01*
X174282535Y-81114064D01*
X174279157Y-81101456D01*
X174229207Y-80980866D01*
X174222680Y-80969562D01*
X174143220Y-80866009D01*
X174133991Y-80856780D01*
X174030438Y-80777320D01*
X174019134Y-80770793D01*
X173898544Y-80720843D01*
X173885936Y-80717465D01*
X173756526Y-80700428D01*
X173750000Y-80700000D01*
X126504923Y-80700000D01*
X126423839Y-80683872D01*
X126359271Y-80640729D01*
X126316128Y-80576161D01*
X126300979Y-80500000D01*
X126316128Y-80423839D01*
X126359271Y-80359271D01*
X126423839Y-80316128D01*
X126504923Y-80300000D01*
X173750000Y-80300000D01*
X173756526Y-80299572D01*
X173885936Y-80282535D01*
X173898544Y-80279157D01*
X174019134Y-80229207D01*
X174030438Y-80222680D01*
X174133991Y-80143220D01*
X174143220Y-80133991D01*
X174222680Y-80030438D01*
X174229207Y-80019134D01*
X174279157Y-79898544D01*
X174282535Y-79885936D01*
X174299572Y-79756526D01*
X174300000Y-79750000D01*
X174300000Y-79250000D01*
X174299572Y-79243474D01*
X174282535Y-79114064D01*
X174279157Y-79101456D01*
X174229207Y-78980866D01*
X174222680Y-78969562D01*
X174143220Y-78866009D01*
X174133991Y-78856780D01*
X174030438Y-78777320D01*
X174019134Y-78770793D01*
X173898544Y-78720843D01*
X173885936Y-78717465D01*
X173756526Y-78700428D01*
X173750000Y-78700000D01*
X126504923Y-78700000D01*
X126423839Y-78683872D01*
X126359271Y-78640729D01*
X126316128Y-78576161D01*
X126300979Y-78500000D01*
X126316128Y-78423839D01*
X126359271Y-78359271D01*
X126423839Y-78316128D01*
X126504923Y-78300000D01*
X173750000Y-78300000D01*
X173756526Y-78299572D01*
X173885936Y-78282535D01*
X173898544Y-78279157D01*
X174019134Y-78229207D01*
X174030438Y-78222680D01*
X174133991Y-78143220D01*
X174143220Y-78133991D01*
X174222680Y-78030438D01*
X174229207Y-78019134D01*
X174279157Y-77898544D01*
X174282535Y-77885936D01*
X174299572Y-77756526D01*
X174300000Y-77750000D01*
X174300000Y-77250000D01*
X174299572Y-77243474D01*
X174282535Y-77114064D01*
X174279157Y-77101456D01*
X174229207Y-76980866D01*
X174222680Y-76969562D01*
X174143220Y-76866009D01*
X174133991Y-76856780D01*
X174030438Y-76777320D01*
X174019134Y-76770793D01*
X173898544Y-76720843D01*
X173885936Y-76717465D01*
X173756526Y-76700428D01*
X173750000Y-76700000D01*
X126504923Y-76700000D01*
X126423839Y-76683872D01*
X126359271Y-76640729D01*
X126316128Y-76576161D01*
X126300979Y-76500000D01*
X126316128Y-76423839D01*
X126359271Y-76359271D01*
X126423839Y-76316128D01*
X126504923Y-76300000D01*
X173750000Y-76300000D01*
X173756526Y-76299572D01*
X173885936Y-76282535D01*
X173898544Y-76279157D01*
X174019134Y-76229207D01*
X174030438Y-76222680D01*
X174133991Y-76143220D01*
X174143220Y-76133991D01*
X174222680Y-76030438D01*
X174229207Y-76019134D01*
X174279157Y-75898544D01*
X174282535Y-75885936D01*
X174299572Y-75756526D01*
X174300000Y-75750000D01*
X174300000Y-75625000D01*
X174375000Y-75625000D01*
X174375001Y-124375000D01*
G36*
X173640729Y-75640729D02*
X173576161Y-75683872D01*
X173495077Y-75700000D01*
X165189786Y-75700000D01*
X165147936Y-75682665D01*
X164983718Y-75650000D01*
X164816282Y-75650000D01*
X164652064Y-75682665D01*
X164610214Y-75700000D01*
X126050000Y-75700000D01*
X126040246Y-75700961D01*
X125925441Y-75723797D01*
X125916061Y-75726642D01*
X125907416Y-75731263D01*
X125810089Y-75796295D01*
X125802513Y-75802513D01*
X125796295Y-75810089D01*
X125731263Y-75907416D01*
X125726642Y-75916061D01*
X125723797Y-75925441D01*
X125700961Y-76040246D01*
X125700000Y-76050000D01*
X125700000Y-76950000D01*
X125700961Y-76959754D01*
X125723797Y-77074559D01*
X125726642Y-77083939D01*
X125731263Y-77092584D01*
X125796295Y-77189911D01*
X125802513Y-77197487D01*
X125810089Y-77203705D01*
X125907416Y-77268737D01*
X125916061Y-77273358D01*
X125925441Y-77276203D01*
X126040246Y-77299039D01*
X126050000Y-77300000D01*
X164610214Y-77300000D01*
X164652064Y-77317335D01*
X164816282Y-77350000D01*
X164983718Y-77350000D01*
X165147936Y-77317335D01*
X165189786Y-77300000D01*
X173495077Y-77300000D01*
X173576161Y-77316128D01*
X173640729Y-77359271D01*
X173683872Y-77423839D01*
X173699021Y-77500000D01*
X173683872Y-77576161D01*
X173640729Y-77640729D01*
X173576161Y-77683872D01*
X173495077Y-77700000D01*
X126050000Y-77700000D01*
X126040246Y-77700961D01*
X125925441Y-77723797D01*
X125916061Y-77726642D01*
X125907416Y-77731263D01*
X125810089Y-77796295D01*
X125802513Y-77802513D01*
X125796295Y-77810089D01*
X125731263Y-77907416D01*
X125726642Y-77916061D01*
X125723797Y-77925441D01*
X125700961Y-78040246D01*
X125700000Y-78050000D01*
X125700000Y-78950000D01*
X125700961Y-78959754D01*
X125723797Y-79074559D01*
X125726642Y-79083939D01*
X125731263Y-79092584D01*
X125796295Y-79189911D01*
X125802513Y-79197487D01*
X125810089Y-79203705D01*
X125907416Y-79268737D01*
X125916061Y-79273358D01*
X125925441Y-79276203D01*
X126040246Y-79299039D01*
X126050000Y-79300000D01*
X173495077Y-79300000D01*
X173576161Y-79316128D01*
X173640729Y-79359271D01*
X173683872Y-79423839D01*
X173699021Y-79500000D01*
X173683872Y-79576161D01*
X173640729Y-79640729D01*
X173576161Y-79683872D01*
X173495077Y-79700000D01*
X126050000Y-79700000D01*
X126040246Y-79700961D01*
X125925441Y-79723797D01*
X125916061Y-79726642D01*
X125907416Y-79731263D01*
X125810089Y-79796295D01*
X125802513Y-79802513D01*
X125796295Y-79810089D01*
X125731263Y-79907416D01*
X125726642Y-79916061D01*
X125723797Y-79925441D01*
X125700961Y-80040246D01*
X125700000Y-80050000D01*
X125700000Y-80950000D01*
X125700961Y-80959754D01*
X125723797Y-81074559D01*
X125726642Y-81083939D01*
X125731263Y-81092584D01*
X125796295Y-81189911D01*
X125802513Y-81197487D01*
X125810089Y-81203705D01*
X125907416Y-81268737D01*
X125916061Y-81273358D01*
X125925441Y-81276203D01*
X126040246Y-81299039D01*
X126050000Y-81300000D01*
X173495077Y-81300000D01*
X173576161Y-81316128D01*
X173640729Y-81359271D01*
X173683872Y-81423839D01*
X173699021Y-81500000D01*
X173683872Y-81576161D01*
X173640729Y-81640729D01*
X173576161Y-81683872D01*
X173495077Y-81700000D01*
X126050000Y-81700000D01*
X126040246Y-81700961D01*
X125925441Y-81723797D01*
X125916061Y-81726642D01*
X125907416Y-81731263D01*
X125810089Y-81796295D01*
X125802513Y-81802513D01*
X125796295Y-81810089D01*
X125731263Y-81907416D01*
X125726642Y-81916061D01*
X125723797Y-81925441D01*
X125700961Y-82040246D01*
X125700000Y-82050000D01*
X125700000Y-82950000D01*
X125700961Y-82959754D01*
X125723797Y-83074559D01*
X125726642Y-83083939D01*
X125731263Y-83092584D01*
X125796295Y-83189911D01*
X125802513Y-83197487D01*
X125810089Y-83203705D01*
X125907416Y-83268737D01*
X125916061Y-83273358D01*
X125925441Y-83276203D01*
X126040246Y-83299039D01*
X126050000Y-83300000D01*
X173495077Y-83300000D01*
X173576161Y-83316128D01*
X173640729Y-83359271D01*
X173683872Y-83423839D01*
X173699021Y-83500000D01*
X173683872Y-83576161D01*
X173640729Y-83640729D01*
X173576161Y-83683872D01*
X173495077Y-83700000D01*
X126050000Y-83700000D01*
X126040246Y-83700961D01*
X125925441Y-83723797D01*
X125916061Y-83726642D01*
X125907416Y-83731263D01*
X125810089Y-83796295D01*
X125802513Y-83802513D01*
X125796295Y-83810089D01*
X125731263Y-83907416D01*
X125726642Y-83916061D01*
X125723797Y-83925441D01*
X125700961Y-84040246D01*
X125700000Y-84050000D01*
X125700000Y-84950000D01*
X125700961Y-84959754D01*
X125723797Y-85074559D01*
X125726642Y-85083939D01*
X125731263Y-85092584D01*
X125796295Y-85189911D01*
X125802513Y-85197487D01*
X125810089Y-85203705D01*
X125907416Y-85268737D01*
X125916061Y-85273358D01*
X125925441Y-85276203D01*
X126040246Y-85299039D01*
X126050000Y-85300000D01*
X173495077Y-85300000D01*
X173576161Y-85316128D01*
X173640729Y-85359271D01*
X173683872Y-85423839D01*
X173699021Y-85500000D01*
X173683872Y-85576161D01*
X173640729Y-85640729D01*
X173576161Y-85683872D01*
X173495077Y-85700000D01*
X126050000Y-85700000D01*
X126040246Y-85700961D01*
X125925441Y-85723797D01*
X125916061Y-85726642D01*
X125907416Y-85731263D01*
X125810089Y-85796295D01*
X125802513Y-85802513D01*
X125796295Y-85810089D01*
X125731263Y-85907416D01*
X125726642Y-85916061D01*
X125723797Y-85925441D01*
X125700961Y-86040246D01*
X125700000Y-86050000D01*
X125700000Y-86950000D01*
X125700961Y-86959754D01*
X125723797Y-87074559D01*
X125726642Y-87083939D01*
X125731263Y-87092584D01*
X125796295Y-87189911D01*
X125802513Y-87197487D01*
X125810089Y-87203705D01*
X125907416Y-87268737D01*
X125916061Y-87273358D01*
X125925441Y-87276203D01*
X126040246Y-87299039D01*
X126050000Y-87300000D01*
X173495077Y-87300000D01*
X173576161Y-87316128D01*
X173640729Y-87359271D01*
X173683872Y-87423839D01*
X173699021Y-87500000D01*
X173683872Y-87576161D01*
X173640729Y-87640729D01*
X173576161Y-87683872D01*
X173495077Y-87700000D01*
X126050000Y-87700000D01*
X126040246Y-87700961D01*
X125925441Y-87723797D01*
X125916061Y-87726642D01*
X125907416Y-87731263D01*
X125810089Y-87796295D01*
X125802513Y-87802513D01*
X125796295Y-87810089D01*
X125731263Y-87907416D01*
X125726642Y-87916061D01*
X125723797Y-87925441D01*
X125700961Y-88040246D01*
X125700000Y-88050000D01*
X125700000Y-88950000D01*
X125700961Y-88959754D01*
X125723797Y-89074559D01*
X125726642Y-89083939D01*
X125731263Y-89092584D01*
X125796295Y-89189911D01*
X125802513Y-89197487D01*
X125810089Y-89203705D01*
X125907416Y-89268737D01*
X125916061Y-89273358D01*
X125925441Y-89276203D01*
X126040246Y-89299039D01*
X126050000Y-89300000D01*
X173495077Y-89300000D01*
X173576161Y-89316128D01*
X173640729Y-89359271D01*
X173683872Y-89423839D01*
X173699021Y-89500000D01*
X173683872Y-89576161D01*
X173640729Y-89640729D01*
X173576161Y-89683872D01*
X173495077Y-89700000D01*
X126050000Y-89700000D01*
X126040246Y-89700961D01*
X125925441Y-89723797D01*
X125916061Y-89726642D01*
X125907416Y-89731263D01*
X125810089Y-89796295D01*
X125802513Y-89802513D01*
X125796295Y-89810089D01*
X125731263Y-89907416D01*
X125726642Y-89916061D01*
X125723797Y-89925441D01*
X125700961Y-90040246D01*
X125700000Y-90050000D01*
X125700000Y-90950000D01*
X125700961Y-90959754D01*
X125723797Y-91074559D01*
X125726642Y-91083939D01*
X125731263Y-91092584D01*
X125796295Y-91189911D01*
X125802513Y-91197487D01*
X125810089Y-91203705D01*
X125907416Y-91268737D01*
X125916061Y-91273358D01*
X125925441Y-91276203D01*
X126040246Y-91299039D01*
X126050000Y-91300000D01*
X173495077Y-91300000D01*
X173576161Y-91316128D01*
X173640729Y-91359271D01*
X173683872Y-91423839D01*
X173699021Y-91500000D01*
X173683872Y-91576161D01*
X173640729Y-91640729D01*
X173576161Y-91683872D01*
X173495077Y-91700000D01*
X126050000Y-91700000D01*
X126040246Y-91700961D01*
X125925441Y-91723797D01*
X125916061Y-91726642D01*
X125907416Y-91731263D01*
X125810089Y-91796295D01*
X125802513Y-91802513D01*
X125796295Y-91810089D01*
X125731263Y-91907416D01*
X125726642Y-91916061D01*
X125723797Y-91925441D01*
X125700961Y-92040246D01*
X125700000Y-92050000D01*
X125700000Y-92950000D01*
X125700961Y-92959754D01*
X125723797Y-93074559D01*
X125726642Y-93083939D01*
X125731263Y-93092584D01*
X125796295Y-93189911D01*
X125802513Y-93197487D01*
X125810089Y-93203705D01*
X125907416Y-93268737D01*
X125916061Y-93273358D01*
X125925441Y-93276203D01*
X126040246Y-93299039D01*
X126050000Y-93300000D01*
X173495077Y-93300000D01*
X173576161Y-93316128D01*
X173640729Y-93359271D01*
X173683872Y-93423839D01*
X173699021Y-93500000D01*
X173683872Y-93576161D01*
X173640729Y-93640729D01*
X173576161Y-93683872D01*
X173495077Y-93700000D01*
X126050000Y-93700000D01*
X126040246Y-93700961D01*
X125925441Y-93723797D01*
X125916061Y-93726642D01*
X125907416Y-93731263D01*
X125810089Y-93796295D01*
X125802513Y-93802513D01*
X125796295Y-93810089D01*
X125731263Y-93907416D01*
X125726642Y-93916061D01*
X125723797Y-93925441D01*
X125700961Y-94040246D01*
X125700000Y-94050000D01*
X125700000Y-94950000D01*
X125700961Y-94959754D01*
X125723797Y-95074559D01*
X125726642Y-95083939D01*
X125731263Y-95092584D01*
X125796295Y-95189911D01*
X125802513Y-95197487D01*
X125810089Y-95203705D01*
X125907416Y-95268737D01*
X125916061Y-95273358D01*
X125925441Y-95276203D01*
X126040246Y-95299039D01*
X126050000Y-95300000D01*
X173495077Y-95300000D01*
X173576161Y-95316128D01*
X173640729Y-95359271D01*
X173683872Y-95423839D01*
X173699021Y-95500000D01*
X173683872Y-95576161D01*
X173640729Y-95640729D01*
X173576161Y-95683872D01*
X173495077Y-95700000D01*
X126050000Y-95700000D01*
X126040246Y-95700961D01*
X125925441Y-95723797D01*
X125916061Y-95726642D01*
X125907416Y-95731263D01*
X125810089Y-95796295D01*
X125802513Y-95802513D01*
X125796295Y-95810089D01*
X125731263Y-95907416D01*
X125726642Y-95916061D01*
X125723797Y-95925441D01*
X125700961Y-96040246D01*
X125700000Y-96050000D01*
X125700000Y-96950000D01*
X125700961Y-96959754D01*
X125723797Y-97074559D01*
X125726642Y-97083939D01*
X125731263Y-97092584D01*
X125796295Y-97189911D01*
X125802513Y-97197487D01*
X125810089Y-97203705D01*
X125907416Y-97268737D01*
X125916061Y-97273358D01*
X125925441Y-97276203D01*
X126040246Y-97299039D01*
X126050000Y-97300000D01*
X173495077Y-97300000D01*
X173576161Y-97316128D01*
X173640729Y-97359271D01*
X173683872Y-97423839D01*
X173699021Y-97500000D01*
X173683872Y-97576161D01*
X173640729Y-97640729D01*
X173576161Y-97683872D01*
X173495077Y-97700000D01*
X126050000Y-97700000D01*
X126040246Y-97700961D01*
X125925441Y-97723797D01*
X125916061Y-97726642D01*
X125907416Y-97731263D01*
X125810089Y-97796295D01*
X125802513Y-97802513D01*
X125796295Y-97810089D01*
X125731263Y-97907416D01*
X125726642Y-97916061D01*
X125723797Y-97925441D01*
X125700961Y-98040246D01*
X125700000Y-98050000D01*
X125700000Y-98950000D01*
X125700961Y-98959754D01*
X125723797Y-99074559D01*
X125726642Y-99083939D01*
X125731263Y-99092584D01*
X125796295Y-99189911D01*
X125802513Y-99197487D01*
X125810089Y-99203705D01*
X125907416Y-99268737D01*
X125916061Y-99273358D01*
X125925441Y-99276203D01*
X126040246Y-99299039D01*
X126050000Y-99300000D01*
X173495077Y-99300000D01*
X173576161Y-99316128D01*
X173640729Y-99359271D01*
X173683872Y-99423839D01*
X173699021Y-99500000D01*
X173683872Y-99576161D01*
X173640729Y-99640729D01*
X173576161Y-99683872D01*
X173495077Y-99700000D01*
X126050000Y-99700000D01*
X126040246Y-99700961D01*
X125925441Y-99723797D01*
X125916061Y-99726642D01*
X125907416Y-99731263D01*
X125810089Y-99796295D01*
X125802513Y-99802513D01*
X125796295Y-99810089D01*
X125731263Y-99907416D01*
X125726642Y-99916061D01*
X125723797Y-99925441D01*
X125700961Y-100040246D01*
X125700000Y-100050000D01*
X125700000Y-100950000D01*
X125700961Y-100959754D01*
X125723797Y-101074559D01*
X125726642Y-101083939D01*
X125731263Y-101092584D01*
X125796295Y-101189911D01*
X125802513Y-101197487D01*
X125810089Y-101203705D01*
X125907416Y-101268737D01*
X125916061Y-101273358D01*
X125925441Y-101276203D01*
X126040246Y-101299039D01*
X126050000Y-101300000D01*
X173495077Y-101300000D01*
X173576161Y-101316128D01*
X173640729Y-101359271D01*
X173683872Y-101423839D01*
X173699021Y-101500000D01*
X173683872Y-101576161D01*
X173640729Y-101640729D01*
X173576161Y-101683872D01*
X173495077Y-101700000D01*
X126050000Y-101700000D01*
X126040246Y-101700961D01*
X125925441Y-101723797D01*
X125916061Y-101726642D01*
X125907416Y-101731263D01*
X125810089Y-101796295D01*
X125802513Y-101802513D01*
X125796295Y-101810089D01*
X125731263Y-101907416D01*
X125726642Y-101916061D01*
X125723797Y-101925441D01*
X125700961Y-102040246D01*
X125700000Y-102050000D01*
X125700000Y-102950000D01*
X125700961Y-102959754D01*
X125723797Y-103074559D01*
X125726642Y-103083939D01*
X125731263Y-103092584D01*
X125796295Y-103189911D01*
X125802513Y-103197487D01*
X125810089Y-103203705D01*
X125907416Y-103268737D01*
X125916061Y-103273358D01*
X125925441Y-103276203D01*
X126040246Y-103299039D01*
X126050000Y-103300000D01*
X173495077Y-103300000D01*
X173576161Y-103316128D01*
X173640729Y-103359271D01*
X173683872Y-103423839D01*
X173699021Y-103500000D01*
X173683872Y-103576161D01*
X173640729Y-103640729D01*
X173576161Y-103683872D01*
X173495077Y-103700000D01*
X126050000Y-103700000D01*
X126040246Y-103700961D01*
X125925441Y-103723797D01*
X125916061Y-103726642D01*
X125907416Y-103731263D01*
X125810089Y-103796295D01*
X125802513Y-103802513D01*
X125796295Y-103810089D01*
X125731263Y-103907416D01*
X125726642Y-103916061D01*
X125723797Y-103925441D01*
X125700961Y-104040246D01*
X125700000Y-104050000D01*
X125700000Y-104950000D01*
X125700961Y-104959754D01*
X125723797Y-105074559D01*
X125726642Y-105083939D01*
X125731263Y-105092584D01*
X125796295Y-105189911D01*
X125802513Y-105197487D01*
X125810089Y-105203705D01*
X125907416Y-105268737D01*
X125916061Y-105273358D01*
X125925441Y-105276203D01*
X126040246Y-105299039D01*
X126050000Y-105300000D01*
X173495077Y-105300000D01*
X173576161Y-105316128D01*
X173640729Y-105359271D01*
X173683872Y-105423839D01*
X173699021Y-105500000D01*
X173683872Y-105576161D01*
X173640729Y-105640729D01*
X173576161Y-105683872D01*
X173495077Y-105700000D01*
X126050000Y-105700000D01*
X126040246Y-105700961D01*
X125925441Y-105723797D01*
X125916061Y-105726642D01*
X125907416Y-105731263D01*
X125810089Y-105796295D01*
X125802513Y-105802513D01*
X125796295Y-105810089D01*
X125731263Y-105907416D01*
X125726642Y-105916061D01*
X125723797Y-105925441D01*
X125700961Y-106040246D01*
X125700000Y-106050000D01*
X125700000Y-106950000D01*
X125700961Y-106959754D01*
X125723797Y-107074559D01*
X125726642Y-107083939D01*
X125731263Y-107092584D01*
X125796295Y-107189911D01*
X125802513Y-107197487D01*
X125810089Y-107203705D01*
X125907416Y-107268737D01*
X125916061Y-107273358D01*
X125925441Y-107276203D01*
X126040246Y-107299039D01*
X126050000Y-107300000D01*
X173495077Y-107300000D01*
X173576161Y-107316128D01*
X173640729Y-107359271D01*
X173683872Y-107423839D01*
X173699021Y-107500000D01*
X173683872Y-107576161D01*
X173640729Y-107640729D01*
X173576161Y-107683872D01*
X173495077Y-107700000D01*
X126050000Y-107700000D01*
X126040246Y-107700961D01*
X125925441Y-107723797D01*
X125916061Y-107726642D01*
X125907416Y-107731263D01*
X125810089Y-107796295D01*
X125802513Y-107802513D01*
X125796295Y-107810089D01*
X125731263Y-107907416D01*
X125726642Y-107916061D01*
X125723797Y-107925441D01*
X125700961Y-108040246D01*
X125700000Y-108050000D01*
X125700000Y-108950000D01*
X125700961Y-108959754D01*
X125723797Y-109074559D01*
X125726642Y-109083939D01*
X125731263Y-109092584D01*
X125796295Y-109189911D01*
X125802513Y-109197487D01*
X125810089Y-109203705D01*
X125907416Y-109268737D01*
X125916061Y-109273358D01*
X125925441Y-109276203D01*
X126040246Y-109299039D01*
X126050000Y-109300000D01*
X173495077Y-109300000D01*
X173576161Y-109316128D01*
X173640729Y-109359271D01*
X173683872Y-109423839D01*
X173699021Y-109500000D01*
X173683872Y-109576161D01*
X173640729Y-109640729D01*
X173576161Y-109683872D01*
X173495077Y-109700000D01*
X126050000Y-109700000D01*
X126040246Y-109700961D01*
X125925441Y-109723797D01*
X125916061Y-109726642D01*
X125907416Y-109731263D01*
X125810089Y-109796295D01*
X125802513Y-109802513D01*
X125796295Y-109810089D01*
X125731263Y-109907416D01*
X125726642Y-109916061D01*
X125723797Y-109925441D01*
X125700961Y-110040246D01*
X125700000Y-110050000D01*
X125700000Y-110950000D01*
X125700961Y-110959754D01*
X125723797Y-111074559D01*
X125726642Y-111083939D01*
X125731263Y-111092584D01*
X125796295Y-111189911D01*
X125802513Y-111197487D01*
X125810089Y-111203705D01*
X125907416Y-111268737D01*
X125916061Y-111273358D01*
X125925441Y-111276203D01*
X126040246Y-111299039D01*
X126050000Y-111300000D01*
X173495077Y-111300000D01*
X173576161Y-111316128D01*
X173640729Y-111359271D01*
X173683872Y-111423839D01*
X173699021Y-111500000D01*
X173683872Y-111576161D01*
X173640729Y-111640729D01*
X173576161Y-111683872D01*
X173495077Y-111700000D01*
X126050000Y-111700000D01*
X126040246Y-111700961D01*
X125925441Y-111723797D01*
X125916061Y-111726642D01*
X125907416Y-111731263D01*
X125810089Y-111796295D01*
X125802513Y-111802513D01*
X125796295Y-111810089D01*
X125731263Y-111907416D01*
X125726642Y-111916061D01*
X125723797Y-111925441D01*
X125700961Y-112040246D01*
X125700000Y-112050000D01*
X125700000Y-112950000D01*
X125700961Y-112959754D01*
X125723797Y-113074559D01*
X125726642Y-113083939D01*
X125731263Y-113092584D01*
X125796295Y-113189911D01*
X125802513Y-113197487D01*
X125810089Y-113203705D01*
X125907416Y-113268737D01*
X125916061Y-113273358D01*
X125925441Y-113276203D01*
X126040246Y-113299039D01*
X126050000Y-113300000D01*
X173495077Y-113300000D01*
X173576161Y-113316128D01*
X173640729Y-113359271D01*
X173683872Y-113423839D01*
X173699021Y-113500000D01*
X173683872Y-113576161D01*
X173640729Y-113640729D01*
X173576161Y-113683872D01*
X173495077Y-113700000D01*
X126050000Y-113700000D01*
X126040246Y-113700961D01*
X125925441Y-113723797D01*
X125916061Y-113726642D01*
X125907416Y-113731263D01*
X125810089Y-113796295D01*
X125802513Y-113802513D01*
X125796295Y-113810089D01*
X125731263Y-113907416D01*
X125726642Y-113916061D01*
X125723797Y-113925441D01*
X125700961Y-114040246D01*
X125700000Y-114050000D01*
X125700000Y-114950000D01*
X125700961Y-114959754D01*
X125723797Y-115074559D01*
X125726642Y-115083939D01*
X125731263Y-115092584D01*
X125796295Y-115189911D01*
X125802513Y-115197487D01*
X125810089Y-115203705D01*
X125907416Y-115268737D01*
X125916061Y-115273358D01*
X125925441Y-115276203D01*
X126040246Y-115299039D01*
X126050000Y-115300000D01*
X173495077Y-115300000D01*
X173576161Y-115316128D01*
X173640729Y-115359271D01*
X173683872Y-115423839D01*
X173699021Y-115500000D01*
X173683872Y-115576161D01*
X173640729Y-115640729D01*
X173576161Y-115683872D01*
X173495077Y-115700000D01*
X126050000Y-115700000D01*
X126040246Y-115700961D01*
X125925441Y-115723797D01*
X125916061Y-115726642D01*
X125907416Y-115731263D01*
X125810089Y-115796295D01*
X125802513Y-115802513D01*
X125796295Y-115810089D01*
X125731263Y-115907416D01*
X125726642Y-115916061D01*
X125723797Y-115925441D01*
X125700961Y-116040246D01*
X125700000Y-116050000D01*
X125700000Y-116950000D01*
X125700961Y-116959754D01*
X125723797Y-117074559D01*
X125726642Y-117083939D01*
X125731263Y-117092584D01*
X125796295Y-117189911D01*
X125802513Y-117197487D01*
X125810089Y-117203705D01*
X125907416Y-117268737D01*
X125916061Y-117273358D01*
X125925441Y-117276203D01*
X126040246Y-117299039D01*
X126050000Y-117300000D01*
X173495077Y-117300000D01*
X173576161Y-117316128D01*
X173640729Y-117359271D01*
X173683872Y-117423839D01*
X173699021Y-117500000D01*
X173683872Y-117576161D01*
X173640729Y-117640729D01*
X173576161Y-117683872D01*
X173495077Y-117700000D01*
X126050000Y-117700000D01*
X126040246Y-117700961D01*
X125925441Y-117723797D01*
X125916061Y-117726642D01*
X125907416Y-117731263D01*
X125810089Y-117796295D01*
X125802513Y-117802513D01*
X125796295Y-117810089D01*
X125731263Y-117907416D01*
X125726642Y-117916061D01*
X125723797Y-117925441D01*
X125700961Y-118040246D01*
X125700000Y-118050000D01*
X125700000Y-118950000D01*
X125700961Y-118959754D01*
X125723797Y-119074559D01*
X125726642Y-119083939D01*
X125731263Y-119092584D01*
X125796295Y-119189911D01*
X125802513Y-119197487D01*
X125810089Y-119203705D01*
X125907416Y-119268737D01*
X125916061Y-119273358D01*
X125925441Y-119276203D01*
X126040246Y-119299039D01*
X126050000Y-119300000D01*
X173495077Y-119300000D01*
X173576161Y-119316128D01*
X173640729Y-119359271D01*
X173683872Y-119423839D01*
X173699021Y-119500000D01*
X173683872Y-119576161D01*
X173640729Y-119640729D01*
X173576161Y-119683872D01*
X173495077Y-119700000D01*
X126050000Y-119700000D01*
X126040246Y-119700961D01*
X125925441Y-119723797D01*
X125916061Y-119726642D01*
X125907416Y-119731263D01*
X125810089Y-119796295D01*
X125802513Y-119802513D01*
X125796295Y-119810089D01*
X125731263Y-119907416D01*
X125726642Y-119916061D01*
X125723797Y-119925441D01*
X125700961Y-120040246D01*
X125700000Y-120050000D01*
X125700000Y-120950000D01*
X125700961Y-120959754D01*
X125723797Y-121074559D01*
X125726642Y-121083939D01*
X125731263Y-121092584D01*
X125796295Y-121189911D01*
X125802513Y-121197487D01*
X125810089Y-121203705D01*
X125907416Y-121268737D01*
X125916061Y-121273358D01*
X125925441Y-121276203D01*
X126040246Y-121299039D01*
X126050000Y-121300000D01*
X173495077Y-121300000D01*
X173576161Y-121316128D01*
X173640729Y-121359271D01*
X173683872Y-121423839D01*
X173699021Y-121500000D01*
X173683872Y-121576161D01*
X173640729Y-121640729D01*
X173576161Y-121683872D01*
X173495077Y-121700000D01*
X126050000Y-121700000D01*
X126040246Y-121700961D01*
X125925441Y-121723797D01*
X125916061Y-121726642D01*
X125907416Y-121731263D01*
X125810089Y-121796295D01*
X125802513Y-121802513D01*
X125796295Y-121810089D01*
X125731263Y-121907416D01*
X125726642Y-121916061D01*
X125723797Y-121925441D01*
X125700961Y-122040246D01*
X125700000Y-122050000D01*
X125700000Y-122950000D01*
X125700961Y-122959754D01*
X125723797Y-123074559D01*
X125726642Y-123083939D01*
X125731263Y-123092584D01*
X125796295Y-123189911D01*
X125802513Y-123197487D01*
X125810089Y-123203705D01*
X125907416Y-123268737D01*
X125916061Y-123273358D01*
X125925441Y-123276203D01*
X126040246Y-123299039D01*
X126050000Y-123300000D01*
X173495077Y-123300000D01*
X173576161Y-123316128D01*
X173640729Y-123359271D01*
X173683872Y-123423839D01*
X173699021Y-123500000D01*
X173683872Y-123576161D01*
X173640729Y-123640729D01*
X173576161Y-123683872D01*
X173495077Y-123700000D01*
X126050000Y-123700000D01*
X126040246Y-123700961D01*
X125925441Y-123723797D01*
X125916061Y-123726642D01*
X125907416Y-123731263D01*
X125810089Y-123796295D01*
X125802513Y-123802513D01*
X125796295Y-123810089D01*
X125731263Y-123907416D01*
X125726642Y-123916061D01*
X125723797Y-123925441D01*
X125700961Y-124040246D01*
X125700000Y-124050000D01*
X125700000Y-124375000D01*
X125625000Y-124375000D01*
X125625000Y-75625000D01*
X173651239Y-75625000D01*
X173640729Y-75640729D01*
X173640729Y-75640729D01*
G37*
X173640729Y-75640729D02*
X173576161Y-75683872D01*
X173495077Y-75700000D01*
X165189786Y-75700000D01*
X165147936Y-75682665D01*
X164983718Y-75650000D01*
X164816282Y-75650000D01*
X164652064Y-75682665D01*
X164610214Y-75700000D01*
X126050000Y-75700000D01*
X126040246Y-75700961D01*
X125925441Y-75723797D01*
X125916061Y-75726642D01*
X125907416Y-75731263D01*
X125810089Y-75796295D01*
X125802513Y-75802513D01*
X125796295Y-75810089D01*
X125731263Y-75907416D01*
X125726642Y-75916061D01*
X125723797Y-75925441D01*
X125700961Y-76040246D01*
X125700000Y-76050000D01*
X125700000Y-76950000D01*
X125700961Y-76959754D01*
X125723797Y-77074559D01*
X125726642Y-77083939D01*
X125731263Y-77092584D01*
X125796295Y-77189911D01*
X125802513Y-77197487D01*
X125810089Y-77203705D01*
X125907416Y-77268737D01*
X125916061Y-77273358D01*
X125925441Y-77276203D01*
X126040246Y-77299039D01*
X126050000Y-77300000D01*
X164610214Y-77300000D01*
X164652064Y-77317335D01*
X164816282Y-77350000D01*
X164983718Y-77350000D01*
X165147936Y-77317335D01*
X165189786Y-77300000D01*
X173495077Y-77300000D01*
X173576161Y-77316128D01*
X173640729Y-77359271D01*
X173683872Y-77423839D01*
X173699021Y-77500000D01*
X173683872Y-77576161D01*
X173640729Y-77640729D01*
X173576161Y-77683872D01*
X173495077Y-77700000D01*
X126050000Y-77700000D01*
X126040246Y-77700961D01*
X125925441Y-77723797D01*
X125916061Y-77726642D01*
X125907416Y-77731263D01*
X125810089Y-77796295D01*
X125802513Y-77802513D01*
X125796295Y-77810089D01*
X125731263Y-77907416D01*
X125726642Y-77916061D01*
X125723797Y-77925441D01*
X125700961Y-78040246D01*
X125700000Y-78050000D01*
X125700000Y-78950000D01*
X125700961Y-78959754D01*
X125723797Y-79074559D01*
X125726642Y-79083939D01*
X125731263Y-79092584D01*
X125796295Y-79189911D01*
X125802513Y-79197487D01*
X125810089Y-79203705D01*
X125907416Y-79268737D01*
X125916061Y-79273358D01*
X125925441Y-79276203D01*
X126040246Y-79299039D01*
X126050000Y-79300000D01*
X173495077Y-79300000D01*
X173576161Y-79316128D01*
X173640729Y-79359271D01*
X173683872Y-79423839D01*
X173699021Y-79500000D01*
X173683872Y-79576161D01*
X173640729Y-79640729D01*
X173576161Y-79683872D01*
X173495077Y-79700000D01*
X126050000Y-79700000D01*
X126040246Y-79700961D01*
X125925441Y-79723797D01*
X125916061Y-79726642D01*
X125907416Y-79731263D01*
X125810089Y-79796295D01*
X125802513Y-79802513D01*
X125796295Y-79810089D01*
X125731263Y-79907416D01*
X125726642Y-79916061D01*
X125723797Y-79925441D01*
X125700961Y-80040246D01*
X125700000Y-80050000D01*
X125700000Y-80950000D01*
X125700961Y-80959754D01*
X125723797Y-81074559D01*
X125726642Y-81083939D01*
X125731263Y-81092584D01*
X125796295Y-81189911D01*
X125802513Y-81197487D01*
X125810089Y-81203705D01*
X125907416Y-81268737D01*
X125916061Y-81273358D01*
X125925441Y-81276203D01*
X126040246Y-81299039D01*
X126050000Y-81300000D01*
X173495077Y-81300000D01*
X173576161Y-81316128D01*
X173640729Y-81359271D01*
X173683872Y-81423839D01*
X173699021Y-81500000D01*
X173683872Y-81576161D01*
X173640729Y-81640729D01*
X173576161Y-81683872D01*
X173495077Y-81700000D01*
X126050000Y-81700000D01*
X126040246Y-81700961D01*
X125925441Y-81723797D01*
X125916061Y-81726642D01*
X125907416Y-81731263D01*
X125810089Y-81796295D01*
X125802513Y-81802513D01*
X125796295Y-81810089D01*
X125731263Y-81907416D01*
X125726642Y-81916061D01*
X125723797Y-81925441D01*
X125700961Y-82040246D01*
X125700000Y-82050000D01*
X125700000Y-82950000D01*
X125700961Y-82959754D01*
X125723797Y-83074559D01*
X125726642Y-83083939D01*
X125731263Y-83092584D01*
X125796295Y-83189911D01*
X125802513Y-83197487D01*
X125810089Y-83203705D01*
X125907416Y-83268737D01*
X125916061Y-83273358D01*
X125925441Y-83276203D01*
X126040246Y-83299039D01*
X126050000Y-83300000D01*
X173495077Y-83300000D01*
X173576161Y-83316128D01*
X173640729Y-83359271D01*
X173683872Y-83423839D01*
X173699021Y-83500000D01*
X173683872Y-83576161D01*
X173640729Y-83640729D01*
X173576161Y-83683872D01*
X173495077Y-83700000D01*
X126050000Y-83700000D01*
X126040246Y-83700961D01*
X125925441Y-83723797D01*
X125916061Y-83726642D01*
X125907416Y-83731263D01*
X125810089Y-83796295D01*
X125802513Y-83802513D01*
X125796295Y-83810089D01*
X125731263Y-83907416D01*
X125726642Y-83916061D01*
X125723797Y-83925441D01*
X125700961Y-84040246D01*
X125700000Y-84050000D01*
X125700000Y-84950000D01*
X125700961Y-84959754D01*
X125723797Y-85074559D01*
X125726642Y-85083939D01*
X125731263Y-85092584D01*
X125796295Y-85189911D01*
X125802513Y-85197487D01*
X125810089Y-85203705D01*
X125907416Y-85268737D01*
X125916061Y-85273358D01*
X125925441Y-85276203D01*
X126040246Y-85299039D01*
X126050000Y-85300000D01*
X173495077Y-85300000D01*
X173576161Y-85316128D01*
X173640729Y-85359271D01*
X173683872Y-85423839D01*
X173699021Y-85500000D01*
X173683872Y-85576161D01*
X173640729Y-85640729D01*
X173576161Y-85683872D01*
X173495077Y-85700000D01*
X126050000Y-85700000D01*
X126040246Y-85700961D01*
X125925441Y-85723797D01*
X125916061Y-85726642D01*
X125907416Y-85731263D01*
X125810089Y-85796295D01*
X125802513Y-85802513D01*
X125796295Y-85810089D01*
X125731263Y-85907416D01*
X125726642Y-85916061D01*
X125723797Y-85925441D01*
X125700961Y-86040246D01*
X125700000Y-86050000D01*
X125700000Y-86950000D01*
X125700961Y-86959754D01*
X125723797Y-87074559D01*
X125726642Y-87083939D01*
X125731263Y-87092584D01*
X125796295Y-87189911D01*
X125802513Y-87197487D01*
X125810089Y-87203705D01*
X125907416Y-87268737D01*
X125916061Y-87273358D01*
X125925441Y-87276203D01*
X126040246Y-87299039D01*
X126050000Y-87300000D01*
X173495077Y-87300000D01*
X173576161Y-87316128D01*
X173640729Y-87359271D01*
X173683872Y-87423839D01*
X173699021Y-87500000D01*
X173683872Y-87576161D01*
X173640729Y-87640729D01*
X173576161Y-87683872D01*
X173495077Y-87700000D01*
X126050000Y-87700000D01*
X126040246Y-87700961D01*
X125925441Y-87723797D01*
X125916061Y-87726642D01*
X125907416Y-87731263D01*
X125810089Y-87796295D01*
X125802513Y-87802513D01*
X125796295Y-87810089D01*
X125731263Y-87907416D01*
X125726642Y-87916061D01*
X125723797Y-87925441D01*
X125700961Y-88040246D01*
X125700000Y-88050000D01*
X125700000Y-88950000D01*
X125700961Y-88959754D01*
X125723797Y-89074559D01*
X125726642Y-89083939D01*
X125731263Y-89092584D01*
X125796295Y-89189911D01*
X125802513Y-89197487D01*
X125810089Y-89203705D01*
X125907416Y-89268737D01*
X125916061Y-89273358D01*
X125925441Y-89276203D01*
X126040246Y-89299039D01*
X126050000Y-89300000D01*
X173495077Y-89300000D01*
X173576161Y-89316128D01*
X173640729Y-89359271D01*
X173683872Y-89423839D01*
X173699021Y-89500000D01*
X173683872Y-89576161D01*
X173640729Y-89640729D01*
X173576161Y-89683872D01*
X173495077Y-89700000D01*
X126050000Y-89700000D01*
X126040246Y-89700961D01*
X125925441Y-89723797D01*
X125916061Y-89726642D01*
X125907416Y-89731263D01*
X125810089Y-89796295D01*
X125802513Y-89802513D01*
X125796295Y-89810089D01*
X125731263Y-89907416D01*
X125726642Y-89916061D01*
X125723797Y-89925441D01*
X125700961Y-90040246D01*
X125700000Y-90050000D01*
X125700000Y-90950000D01*
X125700961Y-90959754D01*
X125723797Y-91074559D01*
X125726642Y-91083939D01*
X125731263Y-91092584D01*
X125796295Y-91189911D01*
X125802513Y-91197487D01*
X125810089Y-91203705D01*
X125907416Y-91268737D01*
X125916061Y-91273358D01*
X125925441Y-91276203D01*
X126040246Y-91299039D01*
X126050000Y-91300000D01*
X173495077Y-91300000D01*
X173576161Y-91316128D01*
X173640729Y-91359271D01*
X173683872Y-91423839D01*
X173699021Y-91500000D01*
X173683872Y-91576161D01*
X173640729Y-91640729D01*
X173576161Y-91683872D01*
X173495077Y-91700000D01*
X126050000Y-91700000D01*
X126040246Y-91700961D01*
X125925441Y-91723797D01*
X125916061Y-91726642D01*
X125907416Y-91731263D01*
X125810089Y-91796295D01*
X125802513Y-91802513D01*
X125796295Y-91810089D01*
X125731263Y-91907416D01*
X125726642Y-91916061D01*
X125723797Y-91925441D01*
X125700961Y-92040246D01*
X125700000Y-92050000D01*
X125700000Y-92950000D01*
X125700961Y-92959754D01*
X125723797Y-93074559D01*
X125726642Y-93083939D01*
X125731263Y-93092584D01*
X125796295Y-93189911D01*
X125802513Y-93197487D01*
X125810089Y-93203705D01*
X125907416Y-93268737D01*
X125916061Y-93273358D01*
X125925441Y-93276203D01*
X126040246Y-93299039D01*
X126050000Y-93300000D01*
X173495077Y-93300000D01*
X173576161Y-93316128D01*
X173640729Y-93359271D01*
X173683872Y-93423839D01*
X173699021Y-93500000D01*
X173683872Y-93576161D01*
X173640729Y-93640729D01*
X173576161Y-93683872D01*
X173495077Y-93700000D01*
X126050000Y-93700000D01*
X126040246Y-93700961D01*
X125925441Y-93723797D01*
X125916061Y-93726642D01*
X125907416Y-93731263D01*
X125810089Y-93796295D01*
X125802513Y-93802513D01*
X125796295Y-93810089D01*
X125731263Y-93907416D01*
X125726642Y-93916061D01*
X125723797Y-93925441D01*
X125700961Y-94040246D01*
X125700000Y-94050000D01*
X125700000Y-94950000D01*
X125700961Y-94959754D01*
X125723797Y-95074559D01*
X125726642Y-95083939D01*
X125731263Y-95092584D01*
X125796295Y-95189911D01*
X125802513Y-95197487D01*
X125810089Y-95203705D01*
X125907416Y-95268737D01*
X125916061Y-95273358D01*
X125925441Y-95276203D01*
X126040246Y-95299039D01*
X126050000Y-95300000D01*
X173495077Y-95300000D01*
X173576161Y-95316128D01*
X173640729Y-95359271D01*
X173683872Y-95423839D01*
X173699021Y-95500000D01*
X173683872Y-95576161D01*
X173640729Y-95640729D01*
X173576161Y-95683872D01*
X173495077Y-95700000D01*
X126050000Y-95700000D01*
X126040246Y-95700961D01*
X125925441Y-95723797D01*
X125916061Y-95726642D01*
X125907416Y-95731263D01*
X125810089Y-95796295D01*
X125802513Y-95802513D01*
X125796295Y-95810089D01*
X125731263Y-95907416D01*
X125726642Y-95916061D01*
X125723797Y-95925441D01*
X125700961Y-96040246D01*
X125700000Y-96050000D01*
X125700000Y-96950000D01*
X125700961Y-96959754D01*
X125723797Y-97074559D01*
X125726642Y-97083939D01*
X125731263Y-97092584D01*
X125796295Y-97189911D01*
X125802513Y-97197487D01*
X125810089Y-97203705D01*
X125907416Y-97268737D01*
X125916061Y-97273358D01*
X125925441Y-97276203D01*
X126040246Y-97299039D01*
X126050000Y-97300000D01*
X173495077Y-97300000D01*
X173576161Y-97316128D01*
X173640729Y-97359271D01*
X173683872Y-97423839D01*
X173699021Y-97500000D01*
X173683872Y-97576161D01*
X173640729Y-97640729D01*
X173576161Y-97683872D01*
X173495077Y-97700000D01*
X126050000Y-97700000D01*
X126040246Y-97700961D01*
X125925441Y-97723797D01*
X125916061Y-97726642D01*
X125907416Y-97731263D01*
X125810089Y-97796295D01*
X125802513Y-97802513D01*
X125796295Y-97810089D01*
X125731263Y-97907416D01*
X125726642Y-97916061D01*
X125723797Y-97925441D01*
X125700961Y-98040246D01*
X125700000Y-98050000D01*
X125700000Y-98950000D01*
X125700961Y-98959754D01*
X125723797Y-99074559D01*
X125726642Y-99083939D01*
X125731263Y-99092584D01*
X125796295Y-99189911D01*
X125802513Y-99197487D01*
X125810089Y-99203705D01*
X125907416Y-99268737D01*
X125916061Y-99273358D01*
X125925441Y-99276203D01*
X126040246Y-99299039D01*
X126050000Y-99300000D01*
X173495077Y-99300000D01*
X173576161Y-99316128D01*
X173640729Y-99359271D01*
X173683872Y-99423839D01*
X173699021Y-99500000D01*
X173683872Y-99576161D01*
X173640729Y-99640729D01*
X173576161Y-99683872D01*
X173495077Y-99700000D01*
X126050000Y-99700000D01*
X126040246Y-99700961D01*
X125925441Y-99723797D01*
X125916061Y-99726642D01*
X125907416Y-99731263D01*
X125810089Y-99796295D01*
X125802513Y-99802513D01*
X125796295Y-99810089D01*
X125731263Y-99907416D01*
X125726642Y-99916061D01*
X125723797Y-99925441D01*
X125700961Y-100040246D01*
X125700000Y-100050000D01*
X125700000Y-100950000D01*
X125700961Y-100959754D01*
X125723797Y-101074559D01*
X125726642Y-101083939D01*
X125731263Y-101092584D01*
X125796295Y-101189911D01*
X125802513Y-101197487D01*
X125810089Y-101203705D01*
X125907416Y-101268737D01*
X125916061Y-101273358D01*
X125925441Y-101276203D01*
X126040246Y-101299039D01*
X126050000Y-101300000D01*
X173495077Y-101300000D01*
X173576161Y-101316128D01*
X173640729Y-101359271D01*
X173683872Y-101423839D01*
X173699021Y-101500000D01*
X173683872Y-101576161D01*
X173640729Y-101640729D01*
X173576161Y-101683872D01*
X173495077Y-101700000D01*
X126050000Y-101700000D01*
X126040246Y-101700961D01*
X125925441Y-101723797D01*
X125916061Y-101726642D01*
X125907416Y-101731263D01*
X125810089Y-101796295D01*
X125802513Y-101802513D01*
X125796295Y-101810089D01*
X125731263Y-101907416D01*
X125726642Y-101916061D01*
X125723797Y-101925441D01*
X125700961Y-102040246D01*
X125700000Y-102050000D01*
X125700000Y-102950000D01*
X125700961Y-102959754D01*
X125723797Y-103074559D01*
X125726642Y-103083939D01*
X125731263Y-103092584D01*
X125796295Y-103189911D01*
X125802513Y-103197487D01*
X125810089Y-103203705D01*
X125907416Y-103268737D01*
X125916061Y-103273358D01*
X125925441Y-103276203D01*
X126040246Y-103299039D01*
X126050000Y-103300000D01*
X173495077Y-103300000D01*
X173576161Y-103316128D01*
X173640729Y-103359271D01*
X173683872Y-103423839D01*
X173699021Y-103500000D01*
X173683872Y-103576161D01*
X173640729Y-103640729D01*
X173576161Y-103683872D01*
X173495077Y-103700000D01*
X126050000Y-103700000D01*
X126040246Y-103700961D01*
X125925441Y-103723797D01*
X125916061Y-103726642D01*
X125907416Y-103731263D01*
X125810089Y-103796295D01*
X125802513Y-103802513D01*
X125796295Y-103810089D01*
X125731263Y-103907416D01*
X125726642Y-103916061D01*
X125723797Y-103925441D01*
X125700961Y-104040246D01*
X125700000Y-104050000D01*
X125700000Y-104950000D01*
X125700961Y-104959754D01*
X125723797Y-105074559D01*
X125726642Y-105083939D01*
X125731263Y-105092584D01*
X125796295Y-105189911D01*
X125802513Y-105197487D01*
X125810089Y-105203705D01*
X125907416Y-105268737D01*
X125916061Y-105273358D01*
X125925441Y-105276203D01*
X126040246Y-105299039D01*
X126050000Y-105300000D01*
X173495077Y-105300000D01*
X173576161Y-105316128D01*
X173640729Y-105359271D01*
X173683872Y-105423839D01*
X173699021Y-105500000D01*
X173683872Y-105576161D01*
X173640729Y-105640729D01*
X173576161Y-105683872D01*
X173495077Y-105700000D01*
X126050000Y-105700000D01*
X126040246Y-105700961D01*
X125925441Y-105723797D01*
X125916061Y-105726642D01*
X125907416Y-105731263D01*
X125810089Y-105796295D01*
X125802513Y-105802513D01*
X125796295Y-105810089D01*
X125731263Y-105907416D01*
X125726642Y-105916061D01*
X125723797Y-105925441D01*
X125700961Y-106040246D01*
X125700000Y-106050000D01*
X125700000Y-106950000D01*
X125700961Y-106959754D01*
X125723797Y-107074559D01*
X125726642Y-107083939D01*
X125731263Y-107092584D01*
X125796295Y-107189911D01*
X125802513Y-107197487D01*
X125810089Y-107203705D01*
X125907416Y-107268737D01*
X125916061Y-107273358D01*
X125925441Y-107276203D01*
X126040246Y-107299039D01*
X126050000Y-107300000D01*
X173495077Y-107300000D01*
X173576161Y-107316128D01*
X173640729Y-107359271D01*
X173683872Y-107423839D01*
X173699021Y-107500000D01*
X173683872Y-107576161D01*
X173640729Y-107640729D01*
X173576161Y-107683872D01*
X173495077Y-107700000D01*
X126050000Y-107700000D01*
X126040246Y-107700961D01*
X125925441Y-107723797D01*
X125916061Y-107726642D01*
X125907416Y-107731263D01*
X125810089Y-107796295D01*
X125802513Y-107802513D01*
X125796295Y-107810089D01*
X125731263Y-107907416D01*
X125726642Y-107916061D01*
X125723797Y-107925441D01*
X125700961Y-108040246D01*
X125700000Y-108050000D01*
X125700000Y-108950000D01*
X125700961Y-108959754D01*
X125723797Y-109074559D01*
X125726642Y-109083939D01*
X125731263Y-109092584D01*
X125796295Y-109189911D01*
X125802513Y-109197487D01*
X125810089Y-109203705D01*
X125907416Y-109268737D01*
X125916061Y-109273358D01*
X125925441Y-109276203D01*
X126040246Y-109299039D01*
X126050000Y-109300000D01*
X173495077Y-109300000D01*
X173576161Y-109316128D01*
X173640729Y-109359271D01*
X173683872Y-109423839D01*
X173699021Y-109500000D01*
X173683872Y-109576161D01*
X173640729Y-109640729D01*
X173576161Y-109683872D01*
X173495077Y-109700000D01*
X126050000Y-109700000D01*
X126040246Y-109700961D01*
X125925441Y-109723797D01*
X125916061Y-109726642D01*
X125907416Y-109731263D01*
X125810089Y-109796295D01*
X125802513Y-109802513D01*
X125796295Y-109810089D01*
X125731263Y-109907416D01*
X125726642Y-109916061D01*
X125723797Y-109925441D01*
X125700961Y-110040246D01*
X125700000Y-110050000D01*
X125700000Y-110950000D01*
X125700961Y-110959754D01*
X125723797Y-111074559D01*
X125726642Y-111083939D01*
X125731263Y-111092584D01*
X125796295Y-111189911D01*
X125802513Y-111197487D01*
X125810089Y-111203705D01*
X125907416Y-111268737D01*
X125916061Y-111273358D01*
X125925441Y-111276203D01*
X126040246Y-111299039D01*
X126050000Y-111300000D01*
X173495077Y-111300000D01*
X173576161Y-111316128D01*
X173640729Y-111359271D01*
X173683872Y-111423839D01*
X173699021Y-111500000D01*
X173683872Y-111576161D01*
X173640729Y-111640729D01*
X173576161Y-111683872D01*
X173495077Y-111700000D01*
X126050000Y-111700000D01*
X126040246Y-111700961D01*
X125925441Y-111723797D01*
X125916061Y-111726642D01*
X125907416Y-111731263D01*
X125810089Y-111796295D01*
X125802513Y-111802513D01*
X125796295Y-111810089D01*
X125731263Y-111907416D01*
X125726642Y-111916061D01*
X125723797Y-111925441D01*
X125700961Y-112040246D01*
X125700000Y-112050000D01*
X125700000Y-112950000D01*
X125700961Y-112959754D01*
X125723797Y-113074559D01*
X125726642Y-113083939D01*
X125731263Y-113092584D01*
X125796295Y-113189911D01*
X125802513Y-113197487D01*
X125810089Y-113203705D01*
X125907416Y-113268737D01*
X125916061Y-113273358D01*
X125925441Y-113276203D01*
X126040246Y-113299039D01*
X126050000Y-113300000D01*
X173495077Y-113300000D01*
X173576161Y-113316128D01*
X173640729Y-113359271D01*
X173683872Y-113423839D01*
X173699021Y-113500000D01*
X173683872Y-113576161D01*
X173640729Y-113640729D01*
X173576161Y-113683872D01*
X173495077Y-113700000D01*
X126050000Y-113700000D01*
X126040246Y-113700961D01*
X125925441Y-113723797D01*
X125916061Y-113726642D01*
X125907416Y-113731263D01*
X125810089Y-113796295D01*
X125802513Y-113802513D01*
X125796295Y-113810089D01*
X125731263Y-113907416D01*
X125726642Y-113916061D01*
X125723797Y-113925441D01*
X125700961Y-114040246D01*
X125700000Y-114050000D01*
X125700000Y-114950000D01*
X125700961Y-114959754D01*
X125723797Y-115074559D01*
X125726642Y-115083939D01*
X125731263Y-115092584D01*
X125796295Y-115189911D01*
X125802513Y-115197487D01*
X125810089Y-115203705D01*
X125907416Y-115268737D01*
X125916061Y-115273358D01*
X125925441Y-115276203D01*
X126040246Y-115299039D01*
X126050000Y-115300000D01*
X173495077Y-115300000D01*
X173576161Y-115316128D01*
X173640729Y-115359271D01*
X173683872Y-115423839D01*
X173699021Y-115500000D01*
X173683872Y-115576161D01*
X173640729Y-115640729D01*
X173576161Y-115683872D01*
X173495077Y-115700000D01*
X126050000Y-115700000D01*
X126040246Y-115700961D01*
X125925441Y-115723797D01*
X125916061Y-115726642D01*
X125907416Y-115731263D01*
X125810089Y-115796295D01*
X125802513Y-115802513D01*
X125796295Y-115810089D01*
X125731263Y-115907416D01*
X125726642Y-115916061D01*
X125723797Y-115925441D01*
X125700961Y-116040246D01*
X125700000Y-116050000D01*
X125700000Y-116950000D01*
X125700961Y-116959754D01*
X125723797Y-117074559D01*
X125726642Y-117083939D01*
X125731263Y-117092584D01*
X125796295Y-117189911D01*
X125802513Y-117197487D01*
X125810089Y-117203705D01*
X125907416Y-117268737D01*
X125916061Y-117273358D01*
X125925441Y-117276203D01*
X126040246Y-117299039D01*
X126050000Y-117300000D01*
X173495077Y-117300000D01*
X173576161Y-117316128D01*
X173640729Y-117359271D01*
X173683872Y-117423839D01*
X173699021Y-117500000D01*
X173683872Y-117576161D01*
X173640729Y-117640729D01*
X173576161Y-117683872D01*
X173495077Y-117700000D01*
X126050000Y-117700000D01*
X126040246Y-117700961D01*
X125925441Y-117723797D01*
X125916061Y-117726642D01*
X125907416Y-117731263D01*
X125810089Y-117796295D01*
X125802513Y-117802513D01*
X125796295Y-117810089D01*
X125731263Y-117907416D01*
X125726642Y-117916061D01*
X125723797Y-117925441D01*
X125700961Y-118040246D01*
X125700000Y-118050000D01*
X125700000Y-118950000D01*
X125700961Y-118959754D01*
X125723797Y-119074559D01*
X125726642Y-119083939D01*
X125731263Y-119092584D01*
X125796295Y-119189911D01*
X125802513Y-119197487D01*
X125810089Y-119203705D01*
X125907416Y-119268737D01*
X125916061Y-119273358D01*
X125925441Y-119276203D01*
X126040246Y-119299039D01*
X126050000Y-119300000D01*
X173495077Y-119300000D01*
X173576161Y-119316128D01*
X173640729Y-119359271D01*
X173683872Y-119423839D01*
X173699021Y-119500000D01*
X173683872Y-119576161D01*
X173640729Y-119640729D01*
X173576161Y-119683872D01*
X173495077Y-119700000D01*
X126050000Y-119700000D01*
X126040246Y-119700961D01*
X125925441Y-119723797D01*
X125916061Y-119726642D01*
X125907416Y-119731263D01*
X125810089Y-119796295D01*
X125802513Y-119802513D01*
X125796295Y-119810089D01*
X125731263Y-119907416D01*
X125726642Y-119916061D01*
X125723797Y-119925441D01*
X125700961Y-120040246D01*
X125700000Y-120050000D01*
X125700000Y-120950000D01*
X125700961Y-120959754D01*
X125723797Y-121074559D01*
X125726642Y-121083939D01*
X125731263Y-121092584D01*
X125796295Y-121189911D01*
X125802513Y-121197487D01*
X125810089Y-121203705D01*
X125907416Y-121268737D01*
X125916061Y-121273358D01*
X125925441Y-121276203D01*
X126040246Y-121299039D01*
X126050000Y-121300000D01*
X173495077Y-121300000D01*
X173576161Y-121316128D01*
X173640729Y-121359271D01*
X173683872Y-121423839D01*
X173699021Y-121500000D01*
X173683872Y-121576161D01*
X173640729Y-121640729D01*
X173576161Y-121683872D01*
X173495077Y-121700000D01*
X126050000Y-121700000D01*
X126040246Y-121700961D01*
X125925441Y-121723797D01*
X125916061Y-121726642D01*
X125907416Y-121731263D01*
X125810089Y-121796295D01*
X125802513Y-121802513D01*
X125796295Y-121810089D01*
X125731263Y-121907416D01*
X125726642Y-121916061D01*
X125723797Y-121925441D01*
X125700961Y-122040246D01*
X125700000Y-122050000D01*
X125700000Y-122950000D01*
X125700961Y-122959754D01*
X125723797Y-123074559D01*
X125726642Y-123083939D01*
X125731263Y-123092584D01*
X125796295Y-123189911D01*
X125802513Y-123197487D01*
X125810089Y-123203705D01*
X125907416Y-123268737D01*
X125916061Y-123273358D01*
X125925441Y-123276203D01*
X126040246Y-123299039D01*
X126050000Y-123300000D01*
X173495077Y-123300000D01*
X173576161Y-123316128D01*
X173640729Y-123359271D01*
X173683872Y-123423839D01*
X173699021Y-123500000D01*
X173683872Y-123576161D01*
X173640729Y-123640729D01*
X173576161Y-123683872D01*
X173495077Y-123700000D01*
X126050000Y-123700000D01*
X126040246Y-123700961D01*
X125925441Y-123723797D01*
X125916061Y-123726642D01*
X125907416Y-123731263D01*
X125810089Y-123796295D01*
X125802513Y-123802513D01*
X125796295Y-123810089D01*
X125731263Y-123907416D01*
X125726642Y-123916061D01*
X125723797Y-123925441D01*
X125700961Y-124040246D01*
X125700000Y-124050000D01*
X125700000Y-124375000D01*
X125625000Y-124375000D01*
X125625000Y-75625000D01*
X173651239Y-75625000D01*
X173640729Y-75640729D01*
G36*
X125576161Y-75316128D02*
X125640729Y-75359271D01*
X125683872Y-75423839D01*
X125700000Y-75504923D01*
X125700000Y-124495077D01*
X125683872Y-124576161D01*
X125640729Y-124640729D01*
X125576161Y-124683872D01*
X125500000Y-124699021D01*
X125423839Y-124683872D01*
X125359271Y-124640729D01*
X125316128Y-124576161D01*
X125300000Y-124495077D01*
X125300000Y-75504923D01*
X125316128Y-75423839D01*
X125359271Y-75359271D01*
X125423839Y-75316128D01*
X125500000Y-75300979D01*
X125576161Y-75316128D01*
X125576161Y-75316128D01*
G37*
X125576161Y-75316128D02*
X125640729Y-75359271D01*
X125683872Y-75423839D01*
X125700000Y-75504923D01*
X125700000Y-124495077D01*
X125683872Y-124576161D01*
X125640729Y-124640729D01*
X125576161Y-124683872D01*
X125500000Y-124699021D01*
X125423839Y-124683872D01*
X125359271Y-124640729D01*
X125316128Y-124576161D01*
X125300000Y-124495077D01*
X125300000Y-75504923D01*
X125316128Y-75423839D01*
X125359271Y-75359271D01*
X125423839Y-75316128D01*
X125500000Y-75300979D01*
X125576161Y-75316128D01*
G36*
X174576161Y-75316128D02*
X174640729Y-75359271D01*
X174683872Y-75423839D01*
X174700000Y-75504923D01*
X174700000Y-124495077D01*
X174683872Y-124576161D01*
X174640729Y-124640729D01*
X174576161Y-124683872D01*
X174500000Y-124699021D01*
X174423839Y-124683872D01*
X174359271Y-124640729D01*
X174316128Y-124576161D01*
X174300000Y-124495077D01*
X174300000Y-75504923D01*
X174316128Y-75423839D01*
X174359271Y-75359271D01*
X174423839Y-75316128D01*
X174500000Y-75300979D01*
X174576161Y-75316128D01*
X174576161Y-75316128D01*
G37*
X174576161Y-75316128D02*
X174640729Y-75359271D01*
X174683872Y-75423839D01*
X174700000Y-75504923D01*
X174700000Y-124495077D01*
X174683872Y-124576161D01*
X174640729Y-124640729D01*
X174576161Y-124683872D01*
X174500000Y-124699021D01*
X174423839Y-124683872D01*
X174359271Y-124640729D01*
X174316128Y-124576161D01*
X174300000Y-124495077D01*
X174300000Y-75504923D01*
X174316128Y-75423839D01*
X174359271Y-75359271D01*
X174423839Y-75316128D01*
X174500000Y-75300979D01*
X174576161Y-75316128D01*
G36*
X173576161Y-75316128D02*
X173640729Y-75359271D01*
X173683872Y-75423839D01*
X173699021Y-75500000D01*
X173683872Y-75576161D01*
X173640729Y-75640729D01*
X173576161Y-75683872D01*
X173495077Y-75700000D01*
X165602711Y-75700000D01*
X165515803Y-75685897D01*
X165161996Y-75567961D01*
X165154194Y-75566041D01*
X165059326Y-75550646D01*
X165051317Y-75550000D01*
X126240139Y-75550000D01*
X126227977Y-75551502D01*
X126148504Y-75571431D01*
X126139276Y-75574735D01*
X126130871Y-75579776D01*
X126127059Y-75582908D01*
X126015011Y-75684623D01*
X125953689Y-75700000D01*
X125504923Y-75700000D01*
X125423839Y-75683872D01*
X125359271Y-75640729D01*
X125316128Y-75576161D01*
X125300979Y-75500000D01*
X125316128Y-75423839D01*
X125359271Y-75359271D01*
X125423839Y-75316128D01*
X125504923Y-75300000D01*
X173495077Y-75300000D01*
X173576161Y-75316128D01*
X173576161Y-75316128D01*
G37*
X173576161Y-75316128D02*
X173640729Y-75359271D01*
X173683872Y-75423839D01*
X173699021Y-75500000D01*
X173683872Y-75576161D01*
X173640729Y-75640729D01*
X173576161Y-75683872D01*
X173495077Y-75700000D01*
X165602711Y-75700000D01*
X165515803Y-75685897D01*
X165161996Y-75567961D01*
X165154194Y-75566041D01*
X165059326Y-75550646D01*
X165051317Y-75550000D01*
X126240139Y-75550000D01*
X126227977Y-75551502D01*
X126148504Y-75571431D01*
X126139276Y-75574735D01*
X126130871Y-75579776D01*
X126127059Y-75582908D01*
X126015011Y-75684623D01*
X125953689Y-75700000D01*
X125504923Y-75700000D01*
X125423839Y-75683872D01*
X125359271Y-75640729D01*
X125316128Y-75576161D01*
X125300979Y-75500000D01*
X125316128Y-75423839D01*
X125359271Y-75359271D01*
X125423839Y-75316128D01*
X125504923Y-75300000D01*
X173495077Y-75300000D01*
X173576161Y-75316128D01*
G36*
X174576161Y-124316128D02*
X174640729Y-124359271D01*
X174683872Y-124423839D01*
X174699021Y-124500000D01*
X174683872Y-124576161D01*
X174640729Y-124640729D01*
X174576161Y-124683872D01*
X174495077Y-124700000D01*
X126504923Y-124700000D01*
X126423839Y-124683872D01*
X126359271Y-124640729D01*
X126316128Y-124576161D01*
X126300979Y-124500000D01*
X126316128Y-124423839D01*
X126359271Y-124359271D01*
X126423839Y-124316128D01*
X126504923Y-124300000D01*
X174495077Y-124300000D01*
X174576161Y-124316128D01*
X174576161Y-124316128D01*
G37*
X174576161Y-124316128D02*
X174640729Y-124359271D01*
X174683872Y-124423839D01*
X174699021Y-124500000D01*
X174683872Y-124576161D01*
X174640729Y-124640729D01*
X174576161Y-124683872D01*
X174495077Y-124700000D01*
X126504923Y-124700000D01*
X126423839Y-124683872D01*
X126359271Y-124640729D01*
X126316128Y-124576161D01*
X126300979Y-124500000D01*
X126316128Y-124423839D01*
X126359271Y-124359271D01*
X126423839Y-124316128D01*
X126504923Y-124300000D01*
X174495077Y-124300000D01*
X174576161Y-124316128D01*
M02*
