G04 #@! TF.GenerationSoftware,KiCad,Pcbnew,6.0.0-d3dd2cf0fa~116~ubuntu20.04.1*
G04 #@! TF.CreationDate,2022-01-09T22:46:25+01:00*
G04 #@! TF.ProjectId,Statikplatte,53746174-696b-4706-9c61-7474652e6b69,rev?*
G04 #@! TF.SameCoordinates,Original*
G04 #@! TF.FileFunction,Paste,Bot*
G04 #@! TF.FilePolarity,Positive*
%FSLAX46Y46*%
G04 Gerber Fmt 4.6, Leading zero omitted, Abs format (unit mm)*
G04 Created by KiCad (PCBNEW 6.0.0-d3dd2cf0fa~116~ubuntu20.04.1) date 2022-01-09 22:46:25*
%MOMM*%
%LPD*%
G01*
G04 APERTURE LIST*
G04 Aperture macros list*
%AMRoundRect*
0 Rectangle with rounded corners*
0 $1 Rounding radius*
0 $2 $3 $4 $5 $6 $7 $8 $9 X,Y pos of 4 corners*
0 Add a 4 corners polygon primitive as box body*
4,1,4,$2,$3,$4,$5,$6,$7,$8,$9,$2,$3,0*
0 Add four circle primitives for the rounded corners*
1,1,$1+$1,$2,$3*
1,1,$1+$1,$4,$5*
1,1,$1+$1,$6,$7*
1,1,$1+$1,$8,$9*
0 Add four rect primitives between the rounded corners*
20,1,$1+$1,$2,$3,$4,$5,0*
20,1,$1+$1,$4,$5,$6,$7,0*
20,1,$1+$1,$6,$7,$8,$9,0*
20,1,$1+$1,$8,$9,$2,$3,0*%
G04 Aperture macros list end*
G04 #@! TA.AperFunction,Profile*
%ADD10C,0.150000*%
G04 #@! TD*
%ADD11RoundRect,0.250000X1.425000X-0.425000X1.425000X0.425000X-1.425000X0.425000X-1.425000X-0.425000X0*%
%ADD12RoundRect,0.250000X-0.425000X-1.425000X0.425000X-1.425000X0.425000X1.425000X-0.425000X1.425000X0*%
%ADD13R,3.500000X2.000000*%
%ADD14R,6.000000X2.000000*%
%ADD15RoundRect,0.250000X0.312500X1.450000X-0.312500X1.450000X-0.312500X-1.450000X0.312500X-1.450000X0*%
%ADD16RoundRect,0.425000X0.425000X-0.825000X0.425000X0.825000X-0.425000X0.825000X-0.425000X-0.825000X0*%
%ADD17RoundRect,0.425000X-0.425000X0.825000X-0.425000X-0.825000X0.425000X-0.825000X0.425000X0.825000X0*%
G04 APERTURE END LIST*
D10*
X125000000Y-75000000D02*
X175000000Y-75000000D01*
X175000000Y-75000000D02*
X175000000Y-125000000D01*
X125000000Y-125000000D02*
X175000000Y-125000000D01*
X125000000Y-75000000D02*
X125000000Y-125000000D01*
D11*
X167000000Y-110600000D03*
X167000000Y-116400000D03*
D12*
X139400000Y-108000000D03*
X133600000Y-108000000D03*
D13*
X137625000Y-98500000D03*
X137625000Y-102500000D03*
D14*
X128375000Y-98500000D03*
X128375000Y-102500000D03*
D15*
X142862500Y-108000000D03*
X147137500Y-108000000D03*
X148862500Y-92000000D03*
X153137500Y-92000000D03*
X154862500Y-108000000D03*
X159137500Y-108000000D03*
X160862500Y-94000000D03*
X165137500Y-94000000D03*
X166725000Y-106000000D03*
X171000000Y-106000000D03*
D16*
X145500000Y-98000000D03*
X145500000Y-102000000D03*
D17*
X156500000Y-102000000D03*
X156500000Y-98000000D03*
D16*
X160000000Y-98000000D03*
X160000000Y-102000000D03*
D17*
X166000000Y-102000000D03*
X166000000Y-98000000D03*
D16*
X169500000Y-98000000D03*
X169500000Y-102000000D03*
D15*
X136862500Y-94000000D03*
X141137500Y-94000000D03*
D17*
X142000000Y-102000000D03*
X142000000Y-98000000D03*
M02*
