%TF.GenerationSoftware,KiCad,Pcbnew,(6.0.0-rc1-dev-1-g01c5bdfb8)*%
%TF.CreationDate,2019-02-25T13:54:40+01:00*%
%TF.ProjectId,Statikplatte,53746174696B706C617474652E6B6963,rev?*%
%TF.SameCoordinates,Original*%
%TF.FileFunction,Legend,Bot*%
%TF.FilePolarity,Positive*%
%FSLAX46Y46*%
G04 Gerber Fmt 4.6, Leading zero omitted, Abs format (unit mm)*
G04 Created by KiCad (PCBNEW (6.0.0-rc1-dev-1-g01c5bdfb8)) date Mon Feb 25 13:54:40 2019*
%MOMM*%
%LPD*%
G01*
G04 APERTURE LIST*
%ADD10C,0.150000*%
%ADD11C,0.300000*%
%ADD12C,0.120000*%
G04 APERTURE END LIST*
D10*
X158238095Y-86252380D02*
X158714285Y-86252380D01*
X158761904Y-86728571D01*
X158714285Y-86680952D01*
X158619047Y-86633333D01*
X158380952Y-86633333D01*
X158285714Y-86680952D01*
X158238095Y-86728571D01*
X158190476Y-86823809D01*
X158190476Y-87061904D01*
X158238095Y-87157142D01*
X158285714Y-87204761D01*
X158380952Y-87252380D01*
X158619047Y-87252380D01*
X158714285Y-87204761D01*
X158761904Y-87157142D01*
X157571428Y-86252380D02*
X157476190Y-86252380D01*
X157380952Y-86300000D01*
X157333333Y-86347619D01*
X157285714Y-86442857D01*
X157238095Y-86633333D01*
X157238095Y-86871428D01*
X157285714Y-87061904D01*
X157333333Y-87157142D01*
X157380952Y-87204761D01*
X157476190Y-87252380D01*
X157571428Y-87252380D01*
X157666666Y-87204761D01*
X157714285Y-87157142D01*
X157761904Y-87061904D01*
X157809523Y-86871428D01*
X157809523Y-86633333D01*
X157761904Y-86442857D01*
X157714285Y-86347619D01*
X157666666Y-86300000D01*
X157571428Y-86252380D01*
X156666666Y-86252380D02*
X156666666Y-86490476D01*
X156904761Y-86395238D02*
X156666666Y-86490476D01*
X156428571Y-86395238D01*
X156809523Y-86680952D02*
X156666666Y-86490476D01*
X156523809Y-86680952D01*
X155571428Y-86252380D02*
X156047619Y-86252380D01*
X156095238Y-86728571D01*
X156047619Y-86680952D01*
X155952380Y-86633333D01*
X155714285Y-86633333D01*
X155619047Y-86680952D01*
X155571428Y-86728571D01*
X155523809Y-86823809D01*
X155523809Y-87061904D01*
X155571428Y-87157142D01*
X155619047Y-87204761D01*
X155714285Y-87252380D01*
X155952380Y-87252380D01*
X156047619Y-87204761D01*
X156095238Y-87157142D01*
X154904761Y-86252380D02*
X154809523Y-86252380D01*
X154714285Y-86300000D01*
X154666666Y-86347619D01*
X154619047Y-86442857D01*
X154571428Y-86633333D01*
X154571428Y-86871428D01*
X154619047Y-87061904D01*
X154666666Y-87157142D01*
X154714285Y-87204761D01*
X154809523Y-87252380D01*
X154904761Y-87252380D01*
X155000000Y-87204761D01*
X155047619Y-87157142D01*
X155095238Y-87061904D01*
X155142857Y-86871428D01*
X155142857Y-86633333D01*
X155095238Y-86442857D01*
X155047619Y-86347619D01*
X155000000Y-86300000D01*
X154904761Y-86252380D01*
X154142857Y-87252380D02*
X154142857Y-86585714D01*
X154142857Y-86680952D02*
X154095238Y-86633333D01*
X154000000Y-86585714D01*
X153857142Y-86585714D01*
X153761904Y-86633333D01*
X153714285Y-86728571D01*
X153714285Y-87252380D01*
X153714285Y-86728571D02*
X153666666Y-86633333D01*
X153571428Y-86585714D01*
X153428571Y-86585714D01*
X153333333Y-86633333D01*
X153285714Y-86728571D01*
X153285714Y-87252380D01*
X152809523Y-87252380D02*
X152809523Y-86585714D01*
X152809523Y-86680952D02*
X152761904Y-86633333D01*
X152666666Y-86585714D01*
X152523809Y-86585714D01*
X152428571Y-86633333D01*
X152380952Y-86728571D01*
X152380952Y-87252380D01*
X152380952Y-86728571D02*
X152333333Y-86633333D01*
X152238095Y-86585714D01*
X152095238Y-86585714D01*
X152000000Y-86633333D01*
X151952380Y-86728571D01*
X151952380Y-87252380D01*
X150476190Y-87585714D02*
X150476190Y-86157142D01*
X148809523Y-86252380D02*
X148714285Y-86252380D01*
X148619047Y-86300000D01*
X148571428Y-86347619D01*
X148523809Y-86442857D01*
X148476190Y-86633333D01*
X148476190Y-86871428D01*
X148523809Y-87061904D01*
X148571428Y-87157142D01*
X148619047Y-87204761D01*
X148714285Y-87252380D01*
X148809523Y-87252380D01*
X148904761Y-87204761D01*
X148952380Y-87157142D01*
X149000000Y-87061904D01*
X149047619Y-86871428D01*
X149047619Y-86633333D01*
X149000000Y-86442857D01*
X148952380Y-86347619D01*
X148904761Y-86300000D01*
X148809523Y-86252380D01*
X148047619Y-87157142D02*
X148000000Y-87204761D01*
X148047619Y-87252380D01*
X148095238Y-87204761D01*
X148047619Y-87157142D01*
X148047619Y-87252380D01*
X147095238Y-86252380D02*
X147571428Y-86252380D01*
X147619047Y-86728571D01*
X147571428Y-86680952D01*
X147476190Y-86633333D01*
X147238095Y-86633333D01*
X147142857Y-86680952D01*
X147095238Y-86728571D01*
X147047619Y-86823809D01*
X147047619Y-87061904D01*
X147095238Y-87157142D01*
X147142857Y-87204761D01*
X147238095Y-87252380D01*
X147476190Y-87252380D01*
X147571428Y-87204761D01*
X147619047Y-87157142D01*
X146476190Y-86252380D02*
X146476190Y-86490476D01*
X146714285Y-86395238D02*
X146476190Y-86490476D01*
X146238095Y-86395238D01*
X146619047Y-86680952D02*
X146476190Y-86490476D01*
X146333333Y-86680952D01*
X145666666Y-86252380D02*
X145571428Y-86252380D01*
X145476190Y-86300000D01*
X145428571Y-86347619D01*
X145380952Y-86442857D01*
X145333333Y-86633333D01*
X145333333Y-86871428D01*
X145380952Y-87061904D01*
X145428571Y-87157142D01*
X145476190Y-87204761D01*
X145571428Y-87252380D01*
X145666666Y-87252380D01*
X145761904Y-87204761D01*
X145809523Y-87157142D01*
X145857142Y-87061904D01*
X145904761Y-86871428D01*
X145904761Y-86633333D01*
X145857142Y-86442857D01*
X145809523Y-86347619D01*
X145761904Y-86300000D01*
X145666666Y-86252380D01*
X144904761Y-87157142D02*
X144857142Y-87204761D01*
X144904761Y-87252380D01*
X144952380Y-87204761D01*
X144904761Y-87157142D01*
X144904761Y-87252380D01*
X143952380Y-86252380D02*
X144428571Y-86252380D01*
X144476190Y-86728571D01*
X144428571Y-86680952D01*
X144333333Y-86633333D01*
X144095238Y-86633333D01*
X144000000Y-86680952D01*
X143952380Y-86728571D01*
X143904761Y-86823809D01*
X143904761Y-87061904D01*
X143952380Y-87157142D01*
X144000000Y-87204761D01*
X144095238Y-87252380D01*
X144333333Y-87252380D01*
X144428571Y-87204761D01*
X144476190Y-87157142D01*
X143476190Y-87252380D02*
X143476190Y-86585714D01*
X143476190Y-86680952D02*
X143428571Y-86633333D01*
X143333333Y-86585714D01*
X143190476Y-86585714D01*
X143095238Y-86633333D01*
X143047619Y-86728571D01*
X143047619Y-87252380D01*
X143047619Y-86728571D02*
X143000000Y-86633333D01*
X142904761Y-86585714D01*
X142761904Y-86585714D01*
X142666666Y-86633333D01*
X142619047Y-86728571D01*
X142619047Y-87252380D01*
X142142857Y-87252380D02*
X142142857Y-86585714D01*
X142142857Y-86680952D02*
X142095238Y-86633333D01*
X142000000Y-86585714D01*
X141857142Y-86585714D01*
X141761904Y-86633333D01*
X141714285Y-86728571D01*
X141714285Y-87252380D01*
X141714285Y-86728571D02*
X141666666Y-86633333D01*
X141571428Y-86585714D01*
X141428571Y-86585714D01*
X141333333Y-86633333D01*
X141285714Y-86728571D01*
X141285714Y-87252380D01*
X161404761Y-88802380D02*
X161404761Y-87802380D01*
X161166666Y-87802380D01*
X161023809Y-87850000D01*
X160928571Y-87945238D01*
X160880952Y-88040476D01*
X160833333Y-88230952D01*
X160833333Y-88373809D01*
X160880952Y-88564285D01*
X160928571Y-88659523D01*
X161023809Y-88754761D01*
X161166666Y-88802380D01*
X161404761Y-88802380D01*
X160023809Y-88754761D02*
X160119047Y-88802380D01*
X160309523Y-88802380D01*
X160404761Y-88754761D01*
X160452380Y-88659523D01*
X160452380Y-88278571D01*
X160404761Y-88183333D01*
X160309523Y-88135714D01*
X160119047Y-88135714D01*
X160023809Y-88183333D01*
X159976190Y-88278571D01*
X159976190Y-88373809D01*
X160452380Y-88469047D01*
X159595238Y-88754761D02*
X159500000Y-88802380D01*
X159309523Y-88802380D01*
X159214285Y-88754761D01*
X159166666Y-88659523D01*
X159166666Y-88611904D01*
X159214285Y-88516666D01*
X159309523Y-88469047D01*
X159452380Y-88469047D01*
X159547619Y-88421428D01*
X159595238Y-88326190D01*
X159595238Y-88278571D01*
X159547619Y-88183333D01*
X159452380Y-88135714D01*
X159309523Y-88135714D01*
X159214285Y-88183333D01*
X158738095Y-88802380D02*
X158738095Y-88135714D01*
X158738095Y-87802380D02*
X158785714Y-87850000D01*
X158738095Y-87897619D01*
X158690476Y-87850000D01*
X158738095Y-87802380D01*
X158738095Y-87897619D01*
X157833333Y-88135714D02*
X157833333Y-88945238D01*
X157880952Y-89040476D01*
X157928571Y-89088095D01*
X158023809Y-89135714D01*
X158166666Y-89135714D01*
X158261904Y-89088095D01*
X157833333Y-88754761D02*
X157928571Y-88802380D01*
X158119047Y-88802380D01*
X158214285Y-88754761D01*
X158261904Y-88707142D01*
X158309523Y-88611904D01*
X158309523Y-88326190D01*
X158261904Y-88230952D01*
X158214285Y-88183333D01*
X158119047Y-88135714D01*
X157928571Y-88135714D01*
X157833333Y-88183333D01*
X157357142Y-88135714D02*
X157357142Y-88802380D01*
X157357142Y-88230952D02*
X157309523Y-88183333D01*
X157214285Y-88135714D01*
X157071428Y-88135714D01*
X156976190Y-88183333D01*
X156928571Y-88278571D01*
X156928571Y-88802380D01*
X155690476Y-88802380D02*
X155690476Y-87802380D01*
X155690476Y-88183333D02*
X155595238Y-88135714D01*
X155404761Y-88135714D01*
X155309523Y-88183333D01*
X155261904Y-88230952D01*
X155214285Y-88326190D01*
X155214285Y-88611904D01*
X155261904Y-88707142D01*
X155309523Y-88754761D01*
X155404761Y-88802380D01*
X155595238Y-88802380D01*
X155690476Y-88754761D01*
X154880952Y-88135714D02*
X154642857Y-88802380D01*
X154404761Y-88135714D02*
X154642857Y-88802380D01*
X154738095Y-89040476D01*
X154785714Y-89088095D01*
X154880952Y-89135714D01*
X152976190Y-87802380D02*
X152976190Y-88516666D01*
X153023809Y-88659523D01*
X153119047Y-88754761D01*
X153261904Y-88802380D01*
X153357142Y-88802380D01*
X152071428Y-88802380D02*
X152071428Y-88278571D01*
X152119047Y-88183333D01*
X152214285Y-88135714D01*
X152404761Y-88135714D01*
X152500000Y-88183333D01*
X152071428Y-88754761D02*
X152166666Y-88802380D01*
X152404761Y-88802380D01*
X152500000Y-88754761D01*
X152547619Y-88659523D01*
X152547619Y-88564285D01*
X152500000Y-88469047D01*
X152404761Y-88421428D01*
X152166666Y-88421428D01*
X152071428Y-88373809D01*
X151595238Y-88135714D02*
X151595238Y-88802380D01*
X151595238Y-88230952D02*
X151547619Y-88183333D01*
X151452380Y-88135714D01*
X151309523Y-88135714D01*
X151214285Y-88183333D01*
X151166666Y-88278571D01*
X151166666Y-88802380D01*
X149928571Y-88802380D02*
X149928571Y-87802380D01*
X149928571Y-88278571D02*
X149357142Y-88278571D01*
X149357142Y-88802380D02*
X149357142Y-87802380D01*
X148500000Y-88754761D02*
X148595238Y-88802380D01*
X148785714Y-88802380D01*
X148880952Y-88754761D01*
X148928571Y-88659523D01*
X148928571Y-88278571D01*
X148880952Y-88183333D01*
X148785714Y-88135714D01*
X148595238Y-88135714D01*
X148500000Y-88183333D01*
X148452380Y-88278571D01*
X148452380Y-88373809D01*
X148928571Y-88469047D01*
X148023809Y-88135714D02*
X148023809Y-88802380D01*
X148023809Y-88230952D02*
X147976190Y-88183333D01*
X147880952Y-88135714D01*
X147738095Y-88135714D01*
X147642857Y-88183333D01*
X147595238Y-88278571D01*
X147595238Y-88802380D01*
X147119047Y-88802380D02*
X147119047Y-88135714D01*
X147119047Y-88326190D02*
X147071428Y-88230952D01*
X147023809Y-88183333D01*
X146928571Y-88135714D01*
X146833333Y-88135714D01*
X146500000Y-88802380D02*
X146500000Y-88135714D01*
X146500000Y-87802380D02*
X146547619Y-87850000D01*
X146500000Y-87897619D01*
X146452380Y-87850000D01*
X146500000Y-87802380D01*
X146500000Y-87897619D01*
X146023809Y-88802380D02*
X146023809Y-87802380D01*
X145928571Y-88421428D02*
X145642857Y-88802380D01*
X145642857Y-88135714D02*
X146023809Y-88516666D01*
X144452380Y-88802380D02*
X144452380Y-87802380D01*
X144452380Y-88278571D02*
X143880952Y-88278571D01*
X143880952Y-88802380D02*
X143880952Y-87802380D01*
X143023809Y-88754761D02*
X143119047Y-88802380D01*
X143309523Y-88802380D01*
X143404761Y-88754761D01*
X143452380Y-88659523D01*
X143452380Y-88278571D01*
X143404761Y-88183333D01*
X143309523Y-88135714D01*
X143119047Y-88135714D01*
X143023809Y-88183333D01*
X142976190Y-88278571D01*
X142976190Y-88373809D01*
X143452380Y-88469047D01*
X142547619Y-88802380D02*
X142547619Y-88135714D01*
X142547619Y-88230952D02*
X142500000Y-88183333D01*
X142404761Y-88135714D01*
X142261904Y-88135714D01*
X142166666Y-88183333D01*
X142119047Y-88278571D01*
X142119047Y-88802380D01*
X142119047Y-88278571D02*
X142071428Y-88183333D01*
X141976190Y-88135714D01*
X141833333Y-88135714D01*
X141738095Y-88183333D01*
X141690476Y-88278571D01*
X141690476Y-88802380D01*
X141261904Y-88754761D02*
X141166666Y-88802380D01*
X140976190Y-88802380D01*
X140880952Y-88754761D01*
X140833333Y-88659523D01*
X140833333Y-88611904D01*
X140880952Y-88516666D01*
X140976190Y-88469047D01*
X141119047Y-88469047D01*
X141214285Y-88421428D01*
X141261904Y-88326190D01*
X141261904Y-88278571D01*
X141214285Y-88183333D01*
X141119047Y-88135714D01*
X140976190Y-88135714D01*
X140880952Y-88183333D01*
X140404761Y-88802380D02*
X140404761Y-88135714D01*
X140404761Y-87802380D02*
X140452380Y-87850000D01*
X140404761Y-87897619D01*
X140357142Y-87850000D01*
X140404761Y-87802380D01*
X140404761Y-87897619D01*
X139928571Y-88135714D02*
X139928571Y-88802380D01*
X139928571Y-88230952D02*
X139880952Y-88183333D01*
X139785714Y-88135714D01*
X139642857Y-88135714D01*
X139547619Y-88183333D01*
X139500000Y-88278571D01*
X139500000Y-88802380D01*
X138595238Y-88135714D02*
X138595238Y-88945238D01*
X138642857Y-89040476D01*
X138690476Y-89088095D01*
X138785714Y-89135714D01*
X138928571Y-89135714D01*
X139023809Y-89088095D01*
X138595238Y-88754761D02*
X138690476Y-88802380D01*
X138880952Y-88802380D01*
X138976190Y-88754761D01*
X139023809Y-88707142D01*
X139071428Y-88611904D01*
X139071428Y-88326190D01*
X139023809Y-88230952D01*
X138976190Y-88183333D01*
X138880952Y-88135714D01*
X138690476Y-88135714D01*
X138595238Y-88183333D01*
D11*
X173642857Y-87750000D02*
X173785714Y-87678571D01*
X174000000Y-87678571D01*
X174214285Y-87750000D01*
X174357142Y-87892857D01*
X174428571Y-88035714D01*
X174500000Y-88321428D01*
X174500000Y-88535714D01*
X174428571Y-88821428D01*
X174357142Y-88964285D01*
X174214285Y-89107142D01*
X174000000Y-89178571D01*
X173857142Y-89178571D01*
X173642857Y-89107142D01*
X173571428Y-89035714D01*
X173571428Y-88535714D01*
X173857142Y-88535714D01*
X172928571Y-89178571D02*
X172928571Y-87678571D01*
X172071428Y-89178571D01*
X172071428Y-87678571D01*
X171357142Y-89178571D02*
X171357142Y-87678571D01*
X171000000Y-87678571D01*
X170785714Y-87750000D01*
X170642857Y-87892857D01*
X170571428Y-88035714D01*
X170500000Y-88321428D01*
X170500000Y-88535714D01*
X170571428Y-88821428D01*
X170642857Y-88964285D01*
X170785714Y-89107142D01*
X171000000Y-89178571D01*
X171357142Y-89178571D01*
X128642857Y-87750000D02*
X128785714Y-87678571D01*
X129000000Y-87678571D01*
X129214285Y-87750000D01*
X129357142Y-87892857D01*
X129428571Y-88035714D01*
X129500000Y-88321428D01*
X129500000Y-88535714D01*
X129428571Y-88821428D01*
X129357142Y-88964285D01*
X129214285Y-89107142D01*
X129000000Y-89178571D01*
X128857142Y-89178571D01*
X128642857Y-89107142D01*
X128571428Y-89035714D01*
X128571428Y-88535714D01*
X128857142Y-88535714D01*
X127928571Y-89178571D02*
X127928571Y-87678571D01*
X127071428Y-89178571D01*
X127071428Y-87678571D01*
X126357142Y-89178571D02*
X126357142Y-87678571D01*
X126000000Y-87678571D01*
X125785714Y-87750000D01*
X125642857Y-87892857D01*
X125571428Y-88035714D01*
X125500000Y-88321428D01*
X125500000Y-88535714D01*
X125571428Y-88821428D01*
X125642857Y-88964285D01*
X125785714Y-89107142D01*
X126000000Y-89178571D01*
X126357142Y-89178571D01*
X141142857Y-121250000D02*
X141285714Y-121178571D01*
X141500000Y-121178571D01*
X141714285Y-121250000D01*
X141857142Y-121392857D01*
X141928571Y-121535714D01*
X142000000Y-121821428D01*
X142000000Y-122035714D01*
X141928571Y-122321428D01*
X141857142Y-122464285D01*
X141714285Y-122607142D01*
X141500000Y-122678571D01*
X141357142Y-122678571D01*
X141142857Y-122607142D01*
X141071428Y-122535714D01*
X141071428Y-122035714D01*
X141357142Y-122035714D01*
X140428571Y-122678571D02*
X140428571Y-121178571D01*
X139571428Y-122678571D01*
X139571428Y-121178571D01*
X138857142Y-122678571D02*
X138857142Y-121178571D01*
X138500000Y-121178571D01*
X138285714Y-121250000D01*
X138142857Y-121392857D01*
X138071428Y-121535714D01*
X138000000Y-121821428D01*
X138000000Y-122035714D01*
X138071428Y-122321428D01*
X138142857Y-122464285D01*
X138285714Y-122607142D01*
X138500000Y-122678571D01*
X138857142Y-122678571D01*
X141142857Y-76750000D02*
X141285714Y-76678571D01*
X141500000Y-76678571D01*
X141714285Y-76750000D01*
X141857142Y-76892857D01*
X141928571Y-77035714D01*
X142000000Y-77321428D01*
X142000000Y-77535714D01*
X141928571Y-77821428D01*
X141857142Y-77964285D01*
X141714285Y-78107142D01*
X141500000Y-78178571D01*
X141357142Y-78178571D01*
X141142857Y-78107142D01*
X141071428Y-78035714D01*
X141071428Y-77535714D01*
X141357142Y-77535714D01*
X140428571Y-78178571D02*
X140428571Y-76678571D01*
X139571428Y-78178571D01*
X139571428Y-76678571D01*
X138857142Y-78178571D02*
X138857142Y-76678571D01*
X138500000Y-76678571D01*
X138285714Y-76750000D01*
X138142857Y-76892857D01*
X138071428Y-77035714D01*
X138000000Y-77321428D01*
X138000000Y-77535714D01*
X138071428Y-77821428D01*
X138142857Y-77964285D01*
X138285714Y-78107142D01*
X138500000Y-78178571D01*
X138857142Y-78178571D01*
X162071428Y-78178571D02*
X162071428Y-76678571D01*
X162071428Y-77392857D02*
X161214285Y-77392857D01*
X161214285Y-78178571D02*
X161214285Y-76678571D01*
X160714285Y-76678571D02*
X160214285Y-78178571D01*
X159714285Y-76678571D01*
X162071428Y-122678571D02*
X162071428Y-121178571D01*
X162071428Y-121892857D02*
X161214285Y-121892857D01*
X161214285Y-122678571D02*
X161214285Y-121178571D01*
X160714285Y-121178571D02*
X160214285Y-122678571D01*
X159714285Y-121178571D01*
X173571428Y-112178571D02*
X173571428Y-110678571D01*
X173571428Y-111392857D02*
X172714285Y-111392857D01*
X172714285Y-112178571D02*
X172714285Y-110678571D01*
X172214285Y-110678571D02*
X171714285Y-112178571D01*
X171214285Y-110678571D01*
X128571428Y-112178571D02*
X128571428Y-110678571D01*
X128571428Y-111392857D02*
X127714285Y-111392857D01*
X127714285Y-112178571D02*
X127714285Y-110678571D01*
X127214285Y-110678571D02*
X126714285Y-112178571D01*
X126214285Y-110678571D01*
X165678571Y-84892857D02*
X165178571Y-84892857D01*
X164964285Y-85678571D02*
X165678571Y-85678571D01*
X165678571Y-84178571D01*
X164964285Y-84178571D01*
X164107142Y-85678571D02*
X164250000Y-85607142D01*
X164321428Y-85464285D01*
X164321428Y-84178571D01*
X162964285Y-85607142D02*
X163107142Y-85678571D01*
X163392857Y-85678571D01*
X163535714Y-85607142D01*
X163607142Y-85464285D01*
X163607142Y-84892857D01*
X163535714Y-84750000D01*
X163392857Y-84678571D01*
X163107142Y-84678571D01*
X162964285Y-84750000D01*
X162892857Y-84892857D01*
X162892857Y-85035714D01*
X163607142Y-85178571D01*
X161607142Y-85607142D02*
X161750000Y-85678571D01*
X162035714Y-85678571D01*
X162178571Y-85607142D01*
X162250000Y-85535714D01*
X162321428Y-85392857D01*
X162321428Y-84964285D01*
X162250000Y-84821428D01*
X162178571Y-84750000D01*
X162035714Y-84678571D01*
X161750000Y-84678571D01*
X161607142Y-84750000D01*
X161178571Y-84678571D02*
X160607142Y-84678571D01*
X160964285Y-84178571D02*
X160964285Y-85464285D01*
X160892857Y-85607142D01*
X160750000Y-85678571D01*
X160607142Y-85678571D01*
X160107142Y-85678571D02*
X160107142Y-84678571D01*
X160107142Y-84964285D02*
X160035714Y-84821428D01*
X159964285Y-84750000D01*
X159821428Y-84678571D01*
X159678571Y-84678571D01*
X158964285Y-85678571D02*
X159107142Y-85607142D01*
X159178571Y-85535714D01*
X159250000Y-85392857D01*
X159250000Y-84964285D01*
X159178571Y-84821428D01*
X159107142Y-84750000D01*
X158964285Y-84678571D01*
X158750000Y-84678571D01*
X158607142Y-84750000D01*
X158535714Y-84821428D01*
X158464285Y-84964285D01*
X158464285Y-85392857D01*
X158535714Y-85535714D01*
X158607142Y-85607142D01*
X158750000Y-85678571D01*
X158964285Y-85678571D01*
X157892857Y-85607142D02*
X157750000Y-85678571D01*
X157464285Y-85678571D01*
X157321428Y-85607142D01*
X157250000Y-85464285D01*
X157250000Y-85392857D01*
X157321428Y-85250000D01*
X157464285Y-85178571D01*
X157678571Y-85178571D01*
X157821428Y-85107142D01*
X157892857Y-84964285D01*
X157892857Y-84892857D01*
X157821428Y-84750000D01*
X157678571Y-84678571D01*
X157464285Y-84678571D01*
X157321428Y-84750000D01*
X156821428Y-84678571D02*
X156250000Y-84678571D01*
X156607142Y-84178571D02*
X156607142Y-85464285D01*
X156535714Y-85607142D01*
X156392857Y-85678571D01*
X156250000Y-85678571D01*
X155107142Y-85678571D02*
X155107142Y-84892857D01*
X155178571Y-84750000D01*
X155321428Y-84678571D01*
X155607142Y-84678571D01*
X155750000Y-84750000D01*
X155107142Y-85607142D02*
X155250000Y-85678571D01*
X155607142Y-85678571D01*
X155750000Y-85607142D01*
X155821428Y-85464285D01*
X155821428Y-85321428D01*
X155750000Y-85178571D01*
X155607142Y-85107142D01*
X155250000Y-85107142D01*
X155107142Y-85035714D01*
X154607142Y-84678571D02*
X154035714Y-84678571D01*
X154392857Y-84178571D02*
X154392857Y-85464285D01*
X154321428Y-85607142D01*
X154178571Y-85678571D01*
X154035714Y-85678571D01*
X153535714Y-85678571D02*
X153535714Y-84678571D01*
X153535714Y-84178571D02*
X153607142Y-84250000D01*
X153535714Y-84321428D01*
X153464285Y-84250000D01*
X153535714Y-84178571D01*
X153535714Y-84321428D01*
X152178571Y-85607142D02*
X152321428Y-85678571D01*
X152607142Y-85678571D01*
X152750000Y-85607142D01*
X152821428Y-85535714D01*
X152892857Y-85392857D01*
X152892857Y-84964285D01*
X152821428Y-84821428D01*
X152750000Y-84750000D01*
X152607142Y-84678571D01*
X152321428Y-84678571D01*
X152178571Y-84750000D01*
X149750000Y-85678571D02*
X149750000Y-84892857D01*
X149821428Y-84750000D01*
X149964285Y-84678571D01*
X150250000Y-84678571D01*
X150392857Y-84750000D01*
X149750000Y-85607142D02*
X149892857Y-85678571D01*
X150250000Y-85678571D01*
X150392857Y-85607142D01*
X150464285Y-85464285D01*
X150464285Y-85321428D01*
X150392857Y-85178571D01*
X150250000Y-85107142D01*
X149892857Y-85107142D01*
X149750000Y-85035714D01*
X148392857Y-85678571D02*
X148392857Y-84178571D01*
X148392857Y-85607142D02*
X148535714Y-85678571D01*
X148821428Y-85678571D01*
X148964285Y-85607142D01*
X149035714Y-85535714D01*
X149107142Y-85392857D01*
X149107142Y-84964285D01*
X149035714Y-84821428D01*
X148964285Y-84750000D01*
X148821428Y-84678571D01*
X148535714Y-84678571D01*
X148392857Y-84750000D01*
X147678571Y-85678571D02*
X147678571Y-84178571D01*
X147035714Y-85678571D02*
X147035714Y-84892857D01*
X147107142Y-84750000D01*
X147250000Y-84678571D01*
X147464285Y-84678571D01*
X147607142Y-84750000D01*
X147678571Y-84821428D01*
X145750000Y-85607142D02*
X145892857Y-85678571D01*
X146178571Y-85678571D01*
X146321428Y-85607142D01*
X146392857Y-85464285D01*
X146392857Y-84892857D01*
X146321428Y-84750000D01*
X146178571Y-84678571D01*
X145892857Y-84678571D01*
X145750000Y-84750000D01*
X145678571Y-84892857D01*
X145678571Y-85035714D01*
X146392857Y-85178571D01*
X145107142Y-85607142D02*
X144964285Y-85678571D01*
X144678571Y-85678571D01*
X144535714Y-85607142D01*
X144464285Y-85464285D01*
X144464285Y-85392857D01*
X144535714Y-85250000D01*
X144678571Y-85178571D01*
X144892857Y-85178571D01*
X145035714Y-85107142D01*
X145107142Y-84964285D01*
X145107142Y-84892857D01*
X145035714Y-84750000D01*
X144892857Y-84678571D01*
X144678571Y-84678571D01*
X144535714Y-84750000D01*
X143821428Y-85678571D02*
X143821428Y-84678571D01*
X143821428Y-84178571D02*
X143892857Y-84250000D01*
X143821428Y-84321428D01*
X143750000Y-84250000D01*
X143821428Y-84178571D01*
X143821428Y-84321428D01*
X142892857Y-85678571D02*
X143035714Y-85607142D01*
X143107142Y-85535714D01*
X143178571Y-85392857D01*
X143178571Y-84964285D01*
X143107142Y-84821428D01*
X143035714Y-84750000D01*
X142892857Y-84678571D01*
X142678571Y-84678571D01*
X142535714Y-84750000D01*
X142464285Y-84821428D01*
X142392857Y-84964285D01*
X142392857Y-85392857D01*
X142464285Y-85535714D01*
X142535714Y-85607142D01*
X142678571Y-85678571D01*
X142892857Y-85678571D01*
X141750000Y-84678571D02*
X141750000Y-85678571D01*
X141750000Y-84821428D02*
X141678571Y-84750000D01*
X141535714Y-84678571D01*
X141321428Y-84678571D01*
X141178571Y-84750000D01*
X141107142Y-84892857D01*
X141107142Y-85678571D01*
X139250000Y-84678571D02*
X139250000Y-86178571D01*
X139250000Y-84750000D02*
X139107142Y-84678571D01*
X138821428Y-84678571D01*
X138678571Y-84750000D01*
X138607142Y-84821428D01*
X138535714Y-84964285D01*
X138535714Y-85392857D01*
X138607142Y-85535714D01*
X138678571Y-85607142D01*
X138821428Y-85678571D01*
X139107142Y-85678571D01*
X139250000Y-85607142D01*
X137678571Y-85678571D02*
X137821428Y-85607142D01*
X137892857Y-85464285D01*
X137892857Y-84178571D01*
X136464285Y-85678571D02*
X136464285Y-84892857D01*
X136535714Y-84750000D01*
X136678571Y-84678571D01*
X136964285Y-84678571D01*
X137107142Y-84750000D01*
X136464285Y-85607142D02*
X136607142Y-85678571D01*
X136964285Y-85678571D01*
X137107142Y-85607142D01*
X137178571Y-85464285D01*
X137178571Y-85321428D01*
X137107142Y-85178571D01*
X136964285Y-85107142D01*
X136607142Y-85107142D01*
X136464285Y-85035714D01*
X135964285Y-84678571D02*
X135392857Y-84678571D01*
X135750000Y-84178571D02*
X135750000Y-85464285D01*
X135678571Y-85607142D01*
X135535714Y-85678571D01*
X135392857Y-85678571D01*
X134321428Y-85607142D02*
X134464285Y-85678571D01*
X134750000Y-85678571D01*
X134892857Y-85607142D01*
X134964285Y-85464285D01*
X134964285Y-84892857D01*
X134892857Y-84750000D01*
X134750000Y-84678571D01*
X134464285Y-84678571D01*
X134321428Y-84750000D01*
X134250000Y-84892857D01*
X134250000Y-85035714D01*
X134964285Y-85178571D01*
X129642857Y-94178571D02*
X129142857Y-95678571D01*
X128642857Y-94178571D01*
X128142857Y-95678571D02*
X128142857Y-94178571D01*
X127428571Y-95678571D02*
X127428571Y-94178571D01*
X126571428Y-95678571D01*
X126571428Y-94178571D01*
X129142857Y-105250000D02*
X129285714Y-105178571D01*
X129500000Y-105178571D01*
X129714285Y-105250000D01*
X129857142Y-105392857D01*
X129928571Y-105535714D01*
X130000000Y-105821428D01*
X130000000Y-106035714D01*
X129928571Y-106321428D01*
X129857142Y-106464285D01*
X129714285Y-106607142D01*
X129500000Y-106678571D01*
X129357142Y-106678571D01*
X129142857Y-106607142D01*
X129071428Y-106535714D01*
X129071428Y-106035714D01*
X129357142Y-106035714D01*
X128428571Y-106678571D02*
X128428571Y-105178571D01*
X127571428Y-106678571D01*
X127571428Y-105178571D01*
X126857142Y-106678571D02*
X126857142Y-105178571D01*
X126500000Y-105178571D01*
X126285714Y-105250000D01*
X126142857Y-105392857D01*
X126071428Y-105535714D01*
X126000000Y-105821428D01*
X126000000Y-106035714D01*
X126071428Y-106321428D01*
X126142857Y-106464285D01*
X126285714Y-106607142D01*
X126500000Y-106678571D01*
X126857142Y-106678571D01*
D10*
X125000000Y-75000000D02*
X175000000Y-75000000D01*
X175000000Y-75000000D02*
X175000000Y-125000000D01*
X125000000Y-125000000D02*
X175000000Y-125000000D01*
X125000000Y-75000000D02*
X125000000Y-125000000D01*
D12*
X137200000Y-120300000D02*
X132800000Y-120300000D01*
X137200000Y-124700000D02*
X137200000Y-120300000D01*
X132800000Y-124700000D02*
X137200000Y-124700000D01*
X132800000Y-120300000D02*
X132800000Y-124700000D01*
X167200000Y-120300000D02*
X162800000Y-120300000D01*
X167200000Y-124700000D02*
X167200000Y-120300000D01*
X162800000Y-124700000D02*
X167200000Y-124700000D01*
X162800000Y-120300000D02*
X162800000Y-124700000D01*
X129700000Y-87200000D02*
X129700000Y-82800000D01*
X125300000Y-87200000D02*
X129700000Y-87200000D01*
X125300000Y-82800000D02*
X125300000Y-87200000D01*
X129700000Y-82800000D02*
X125300000Y-82800000D01*
X137200000Y-75300000D02*
X132800000Y-75300000D01*
X137200000Y-79700000D02*
X137200000Y-75300000D01*
X132800000Y-79700000D02*
X137200000Y-79700000D01*
X132800000Y-75300000D02*
X132800000Y-79700000D01*
X167200000Y-75300000D02*
X162800000Y-75300000D01*
X167200000Y-79700000D02*
X167200000Y-75300000D01*
X162800000Y-79700000D02*
X167200000Y-79700000D01*
X162800000Y-75300000D02*
X162800000Y-79700000D01*
X174950000Y-117200000D02*
X174950000Y-112800000D01*
X170550000Y-117200000D02*
X174950000Y-117200000D01*
X170550000Y-112800000D02*
X170550000Y-117200000D01*
X174950000Y-112800000D02*
X170550000Y-112800000D01*
X129700000Y-117200000D02*
X129700000Y-112800000D01*
X125300000Y-117200000D02*
X129700000Y-117200000D01*
X125300000Y-112800000D02*
X125300000Y-117200000D01*
X129700000Y-112800000D02*
X125300000Y-112800000D01*
X174950000Y-87200000D02*
X174950000Y-82800000D01*
X170550000Y-87200000D02*
X174950000Y-87200000D01*
X170550000Y-82800000D02*
X170550000Y-87200000D01*
X174950000Y-82800000D02*
X170550000Y-82800000D01*
X165290000Y-115552064D02*
X165290000Y-111447936D01*
X168710000Y-115552064D02*
X168710000Y-111447936D01*
X134447936Y-106290000D02*
X138552064Y-106290000D01*
X134447936Y-109710000D02*
X138552064Y-109710000D01*
D10*
X126000000Y-99750000D02*
X126000000Y-101250000D01*
X126000000Y-103750000D02*
X126000000Y-104500000D01*
X138000000Y-103750000D02*
X138000000Y-104500000D01*
X138000000Y-99750000D02*
X138000000Y-101250000D01*
X138000000Y-96500000D02*
X138000000Y-97250000D01*
X126000000Y-96500000D02*
X126000000Y-97250000D01*
X126000000Y-104500000D02*
X138000000Y-104500000D01*
X138000000Y-96500000D02*
X126000000Y-96500000D01*
D12*
X146386252Y-109710000D02*
X143613748Y-109710000D01*
X146386252Y-106290000D02*
X143613748Y-106290000D01*
X152386252Y-93710000D02*
X149613748Y-93710000D01*
X152386252Y-90290000D02*
X149613748Y-90290000D01*
X158386252Y-109710000D02*
X155613748Y-109710000D01*
X158386252Y-106290000D02*
X155613748Y-106290000D01*
X164386252Y-95710000D02*
X161613748Y-95710000D01*
X164386252Y-92290000D02*
X161613748Y-92290000D01*
X170248752Y-107710000D02*
X167476248Y-107710000D01*
X170248752Y-104290000D02*
X167476248Y-104290000D01*
D10*
X146900000Y-101425000D02*
X144100000Y-101425000D01*
X146900000Y-101525000D02*
X144100000Y-101525000D01*
X146900000Y-101725000D02*
X144100000Y-101725000D01*
X146900000Y-101625000D02*
X144100000Y-101625000D01*
X144100000Y-101825000D02*
X144100000Y-98175000D01*
X146900000Y-101825000D02*
X144100000Y-101825000D01*
X146900000Y-98175000D02*
X146900000Y-101825000D01*
X144100000Y-98175000D02*
X146900000Y-98175000D01*
X155100000Y-98575000D02*
X157900000Y-98575000D01*
X155100000Y-98475000D02*
X157900000Y-98475000D01*
X155100000Y-98275000D02*
X157900000Y-98275000D01*
X155100000Y-98375000D02*
X157900000Y-98375000D01*
X157900000Y-98175000D02*
X157900000Y-101825000D01*
X155100000Y-98175000D02*
X157900000Y-98175000D01*
X155100000Y-101825000D02*
X155100000Y-98175000D01*
X157900000Y-101825000D02*
X155100000Y-101825000D01*
X161400000Y-101425000D02*
X158600000Y-101425000D01*
X161400000Y-101525000D02*
X158600000Y-101525000D01*
X161400000Y-101725000D02*
X158600000Y-101725000D01*
X161400000Y-101625000D02*
X158600000Y-101625000D01*
X158600000Y-101825000D02*
X158600000Y-98175000D01*
X161400000Y-101825000D02*
X158600000Y-101825000D01*
X161400000Y-98175000D02*
X161400000Y-101825000D01*
X158600000Y-98175000D02*
X161400000Y-98175000D01*
X164600000Y-98575000D02*
X167400000Y-98575000D01*
X164600000Y-98475000D02*
X167400000Y-98475000D01*
X164600000Y-98275000D02*
X167400000Y-98275000D01*
X164600000Y-98375000D02*
X167400000Y-98375000D01*
X167400000Y-98175000D02*
X167400000Y-101825000D01*
X164600000Y-98175000D02*
X167400000Y-98175000D01*
X164600000Y-101825000D02*
X164600000Y-98175000D01*
X167400000Y-101825000D02*
X164600000Y-101825000D01*
X170900000Y-101425000D02*
X168100000Y-101425000D01*
X170900000Y-101525000D02*
X168100000Y-101525000D01*
X170900000Y-101725000D02*
X168100000Y-101725000D01*
X170900000Y-101625000D02*
X168100000Y-101625000D01*
X168100000Y-101825000D02*
X168100000Y-98175000D01*
X170900000Y-101825000D02*
X168100000Y-101825000D01*
X170900000Y-98175000D02*
X170900000Y-101825000D01*
X168100000Y-98175000D02*
X170900000Y-98175000D01*
D12*
X140386252Y-95710000D02*
X137613748Y-95710000D01*
X140386252Y-92290000D02*
X137613748Y-92290000D01*
D10*
X140600000Y-98575000D02*
X143400000Y-98575000D01*
X140600000Y-98475000D02*
X143400000Y-98475000D01*
X140600000Y-98275000D02*
X143400000Y-98275000D01*
X140600000Y-98375000D02*
X143400000Y-98375000D01*
X143400000Y-98175000D02*
X143400000Y-101825000D01*
X140600000Y-98175000D02*
X143400000Y-98175000D01*
X140600000Y-101825000D02*
X140600000Y-98175000D01*
X143400000Y-101825000D02*
X140600000Y-101825000D01*
X164452380Y-113333333D02*
X163976190Y-113000000D01*
X164452380Y-112761904D02*
X163452380Y-112761904D01*
X163452380Y-113142857D01*
X163500000Y-113238095D01*
X163547619Y-113285714D01*
X163642857Y-113333333D01*
X163785714Y-113333333D01*
X163880952Y-113285714D01*
X163928571Y-113238095D01*
X163976190Y-113142857D01*
X163976190Y-112761904D01*
X164452380Y-114285714D02*
X164452380Y-113714285D01*
X164452380Y-114000000D02*
X163452380Y-114000000D01*
X163595238Y-113904761D01*
X163690476Y-113809523D01*
X163738095Y-113714285D01*
X136666666Y-111072380D02*
X137000000Y-110596190D01*
X137238095Y-111072380D02*
X137238095Y-110072380D01*
X136857142Y-110072380D01*
X136761904Y-110120000D01*
X136714285Y-110167619D01*
X136666666Y-110262857D01*
X136666666Y-110405714D01*
X136714285Y-110500952D01*
X136761904Y-110548571D01*
X136857142Y-110596190D01*
X137238095Y-110596190D01*
X136285714Y-110167619D02*
X136238095Y-110120000D01*
X136142857Y-110072380D01*
X135904761Y-110072380D01*
X135809523Y-110120000D01*
X135761904Y-110167619D01*
X135714285Y-110262857D01*
X135714285Y-110358095D01*
X135761904Y-110500952D01*
X136333333Y-111072380D01*
X135714285Y-111072380D01*
X133333333Y-99852380D02*
X133333333Y-100566666D01*
X133380952Y-100709523D01*
X133476190Y-100804761D01*
X133619047Y-100852380D01*
X133714285Y-100852380D01*
X132952380Y-99852380D02*
X132333333Y-99852380D01*
X132666666Y-100233333D01*
X132523809Y-100233333D01*
X132428571Y-100280952D01*
X132380952Y-100328571D01*
X132333333Y-100423809D01*
X132333333Y-100661904D01*
X132380952Y-100757142D01*
X132428571Y-100804761D01*
X132523809Y-100852380D01*
X132809523Y-100852380D01*
X132904761Y-100804761D01*
X132952380Y-100757142D01*
X145166666Y-111357142D02*
X145214285Y-111404761D01*
X145357142Y-111452380D01*
X145452380Y-111452380D01*
X145595238Y-111404761D01*
X145690476Y-111309523D01*
X145738095Y-111214285D01*
X145785714Y-111023809D01*
X145785714Y-110880952D01*
X145738095Y-110690476D01*
X145690476Y-110595238D01*
X145595238Y-110500000D01*
X145452380Y-110452380D01*
X145357142Y-110452380D01*
X145214285Y-110500000D01*
X145166666Y-110547619D01*
X144785714Y-110547619D02*
X144738095Y-110500000D01*
X144642857Y-110452380D01*
X144404761Y-110452380D01*
X144309523Y-110500000D01*
X144261904Y-110547619D01*
X144214285Y-110642857D01*
X144214285Y-110738095D01*
X144261904Y-110880952D01*
X144833333Y-111452380D01*
X144214285Y-111452380D01*
X151166666Y-95357142D02*
X151214285Y-95404761D01*
X151357142Y-95452380D01*
X151452380Y-95452380D01*
X151595238Y-95404761D01*
X151690476Y-95309523D01*
X151738095Y-95214285D01*
X151785714Y-95023809D01*
X151785714Y-94880952D01*
X151738095Y-94690476D01*
X151690476Y-94595238D01*
X151595238Y-94500000D01*
X151452380Y-94452380D01*
X151357142Y-94452380D01*
X151214285Y-94500000D01*
X151166666Y-94547619D01*
X150833333Y-94452380D02*
X150214285Y-94452380D01*
X150547619Y-94833333D01*
X150404761Y-94833333D01*
X150309523Y-94880952D01*
X150261904Y-94928571D01*
X150214285Y-95023809D01*
X150214285Y-95261904D01*
X150261904Y-95357142D01*
X150309523Y-95404761D01*
X150404761Y-95452380D01*
X150690476Y-95452380D01*
X150785714Y-95404761D01*
X150833333Y-95357142D01*
X157166666Y-111357142D02*
X157214285Y-111404761D01*
X157357142Y-111452380D01*
X157452380Y-111452380D01*
X157595238Y-111404761D01*
X157690476Y-111309523D01*
X157738095Y-111214285D01*
X157785714Y-111023809D01*
X157785714Y-110880952D01*
X157738095Y-110690476D01*
X157690476Y-110595238D01*
X157595238Y-110500000D01*
X157452380Y-110452380D01*
X157357142Y-110452380D01*
X157214285Y-110500000D01*
X157166666Y-110547619D01*
X156309523Y-110785714D02*
X156309523Y-111452380D01*
X156547619Y-110404761D02*
X156785714Y-111119047D01*
X156166666Y-111119047D01*
X163166666Y-91707142D02*
X163214285Y-91754761D01*
X163357142Y-91802380D01*
X163452380Y-91802380D01*
X163595238Y-91754761D01*
X163690476Y-91659523D01*
X163738095Y-91564285D01*
X163785714Y-91373809D01*
X163785714Y-91230952D01*
X163738095Y-91040476D01*
X163690476Y-90945238D01*
X163595238Y-90850000D01*
X163452380Y-90802380D01*
X163357142Y-90802380D01*
X163214285Y-90850000D01*
X163166666Y-90897619D01*
X162261904Y-90802380D02*
X162738095Y-90802380D01*
X162785714Y-91278571D01*
X162738095Y-91230952D01*
X162642857Y-91183333D01*
X162404761Y-91183333D01*
X162309523Y-91230952D01*
X162261904Y-91278571D01*
X162214285Y-91373809D01*
X162214285Y-91611904D01*
X162261904Y-91707142D01*
X162309523Y-91754761D01*
X162404761Y-91802380D01*
X162642857Y-91802380D01*
X162738095Y-91754761D01*
X162785714Y-91707142D01*
X169029166Y-109357142D02*
X169076785Y-109404761D01*
X169219642Y-109452380D01*
X169314880Y-109452380D01*
X169457738Y-109404761D01*
X169552976Y-109309523D01*
X169600595Y-109214285D01*
X169648214Y-109023809D01*
X169648214Y-108880952D01*
X169600595Y-108690476D01*
X169552976Y-108595238D01*
X169457738Y-108500000D01*
X169314880Y-108452380D01*
X169219642Y-108452380D01*
X169076785Y-108500000D01*
X169029166Y-108547619D01*
X168172023Y-108452380D02*
X168362500Y-108452380D01*
X168457738Y-108500000D01*
X168505357Y-108547619D01*
X168600595Y-108690476D01*
X168648214Y-108880952D01*
X168648214Y-109261904D01*
X168600595Y-109357142D01*
X168552976Y-109404761D01*
X168457738Y-109452380D01*
X168267261Y-109452380D01*
X168172023Y-109404761D01*
X168124404Y-109357142D01*
X168076785Y-109261904D01*
X168076785Y-109023809D01*
X168124404Y-108928571D01*
X168172023Y-108880952D01*
X168267261Y-108833333D01*
X168457738Y-108833333D01*
X168552976Y-108880952D01*
X168600595Y-108928571D01*
X168648214Y-109023809D01*
X147952380Y-99261905D02*
X146952380Y-99261905D01*
X146952380Y-99500001D01*
X147000000Y-99642858D01*
X147095238Y-99738096D01*
X147190476Y-99785715D01*
X147380952Y-99833334D01*
X147523809Y-99833334D01*
X147714285Y-99785715D01*
X147809523Y-99738096D01*
X147904761Y-99642858D01*
X147952380Y-99500001D01*
X147952380Y-99261905D01*
X147047619Y-100214286D02*
X147000000Y-100261905D01*
X146952380Y-100357143D01*
X146952380Y-100595239D01*
X147000000Y-100690477D01*
X147047619Y-100738096D01*
X147142857Y-100785715D01*
X147238095Y-100785715D01*
X147380952Y-100738096D01*
X147952380Y-100166667D01*
X147952380Y-100785715D01*
X154952380Y-99261904D02*
X153952380Y-99261904D01*
X153952380Y-99500000D01*
X154000000Y-99642857D01*
X154095238Y-99738095D01*
X154190476Y-99785714D01*
X154380952Y-99833333D01*
X154523809Y-99833333D01*
X154714285Y-99785714D01*
X154809523Y-99738095D01*
X154904761Y-99642857D01*
X154952380Y-99500000D01*
X154952380Y-99261904D01*
X153952380Y-100166666D02*
X153952380Y-100785714D01*
X154333333Y-100452380D01*
X154333333Y-100595238D01*
X154380952Y-100690476D01*
X154428571Y-100738095D01*
X154523809Y-100785714D01*
X154761904Y-100785714D01*
X154857142Y-100738095D01*
X154904761Y-100690476D01*
X154952380Y-100595238D01*
X154952380Y-100309523D01*
X154904761Y-100214285D01*
X154857142Y-100166666D01*
X162452380Y-99261904D02*
X161452380Y-99261904D01*
X161452380Y-99500000D01*
X161500000Y-99642857D01*
X161595238Y-99738095D01*
X161690476Y-99785714D01*
X161880952Y-99833333D01*
X162023809Y-99833333D01*
X162214285Y-99785714D01*
X162309523Y-99738095D01*
X162404761Y-99642857D01*
X162452380Y-99500000D01*
X162452380Y-99261904D01*
X161785714Y-100690476D02*
X162452380Y-100690476D01*
X161404761Y-100452380D02*
X162119047Y-100214285D01*
X162119047Y-100833333D01*
X164452380Y-99261904D02*
X163452380Y-99261904D01*
X163452380Y-99500000D01*
X163500000Y-99642857D01*
X163595238Y-99738095D01*
X163690476Y-99785714D01*
X163880952Y-99833333D01*
X164023809Y-99833333D01*
X164214285Y-99785714D01*
X164309523Y-99738095D01*
X164404761Y-99642857D01*
X164452380Y-99500000D01*
X164452380Y-99261904D01*
X163452380Y-100738095D02*
X163452380Y-100261904D01*
X163928571Y-100214285D01*
X163880952Y-100261904D01*
X163833333Y-100357142D01*
X163833333Y-100595238D01*
X163880952Y-100690476D01*
X163928571Y-100738095D01*
X164023809Y-100785714D01*
X164261904Y-100785714D01*
X164357142Y-100738095D01*
X164404761Y-100690476D01*
X164452380Y-100595238D01*
X164452380Y-100357142D01*
X164404761Y-100261904D01*
X164357142Y-100214285D01*
X171952380Y-99261905D02*
X170952380Y-99261905D01*
X170952380Y-99500001D01*
X171000000Y-99642858D01*
X171095238Y-99738096D01*
X171190476Y-99785715D01*
X171380952Y-99833334D01*
X171523809Y-99833334D01*
X171714285Y-99785715D01*
X171809523Y-99738096D01*
X171904761Y-99642858D01*
X171952380Y-99500001D01*
X171952380Y-99261905D01*
X170952380Y-100690477D02*
X170952380Y-100500001D01*
X171000000Y-100404762D01*
X171047619Y-100357143D01*
X171190476Y-100261905D01*
X171380952Y-100214286D01*
X171761904Y-100214286D01*
X171857142Y-100261905D01*
X171904761Y-100309524D01*
X171952380Y-100404762D01*
X171952380Y-100595239D01*
X171904761Y-100690477D01*
X171857142Y-100738096D01*
X171761904Y-100785715D01*
X171523809Y-100785715D01*
X171428571Y-100738096D01*
X171380952Y-100690477D01*
X171333333Y-100595239D01*
X171333333Y-100404762D01*
X171380952Y-100309524D01*
X171428571Y-100261905D01*
X171523809Y-100214286D01*
X139166666Y-91707142D02*
X139214285Y-91754761D01*
X139357142Y-91802380D01*
X139452380Y-91802380D01*
X139595238Y-91754761D01*
X139690476Y-91659523D01*
X139738095Y-91564285D01*
X139785714Y-91373809D01*
X139785714Y-91230952D01*
X139738095Y-91040476D01*
X139690476Y-90945238D01*
X139595238Y-90850000D01*
X139452380Y-90802380D01*
X139357142Y-90802380D01*
X139214285Y-90850000D01*
X139166666Y-90897619D01*
X138214285Y-91802380D02*
X138785714Y-91802380D01*
X138500000Y-91802380D02*
X138500000Y-90802380D01*
X138595238Y-90945238D01*
X138690476Y-91040476D01*
X138785714Y-91088095D01*
X140452380Y-99261904D02*
X139452380Y-99261904D01*
X139452380Y-99500000D01*
X139500000Y-99642857D01*
X139595238Y-99738095D01*
X139690476Y-99785714D01*
X139880952Y-99833333D01*
X140023809Y-99833333D01*
X140214285Y-99785714D01*
X140309523Y-99738095D01*
X140404761Y-99642857D01*
X140452380Y-99500000D01*
X140452380Y-99261904D01*
X140452380Y-100785714D02*
X140452380Y-100214285D01*
X140452380Y-100500000D02*
X139452380Y-100500000D01*
X139595238Y-100404761D01*
X139690476Y-100309523D01*
X139738095Y-100214285D01*
M02*
