G04 #@! TF.GenerationSoftware,KiCad,Pcbnew,5.0.1*
G04 #@! TF.CreationDate,2019-01-23T19:28:01+01:00*
G04 #@! TF.ProjectId,Statikplatte,53746174696B706C617474652E6B6963,rev?*
G04 #@! TF.SameCoordinates,Original*
G04 #@! TF.FileFunction,Soldermask,Bot*
G04 #@! TF.FilePolarity,Negative*
%FSLAX46Y46*%
G04 Gerber Fmt 4.6, Leading zero omitted, Abs format (unit mm)*
G04 Created by KiCad (PCBNEW 5.0.1) date Mi 23 Jan 2019 19:28:01 CET*
%MOMM*%
%LPD*%
G01*
G04 APERTURE LIST*
%ADD10C,0.100000*%
G04 APERTURE END LIST*
D10*
G36*
X166301000Y-150051000D02*
X163699000Y-150051000D01*
X163699000Y-147449000D01*
X166301000Y-147449000D01*
X166301000Y-150051000D01*
X166301000Y-150051000D01*
G37*
G36*
X136301000Y-150051000D02*
X133699000Y-150051000D01*
X133699000Y-147449000D01*
X136301000Y-147449000D01*
X136301000Y-150051000D01*
X136301000Y-150051000D01*
G37*
G36*
X200051000Y-116301000D02*
X197449000Y-116301000D01*
X197449000Y-113699000D01*
X200051000Y-113699000D01*
X200051000Y-116301000D01*
X200051000Y-116301000D01*
G37*
G36*
X102551000Y-116301000D02*
X99949000Y-116301000D01*
X99949000Y-113699000D01*
X102551000Y-113699000D01*
X102551000Y-116301000D01*
X102551000Y-116301000D01*
G37*
G36*
X176449808Y-104253498D02*
X176487817Y-104265028D01*
X176522848Y-104283753D01*
X176553550Y-104308950D01*
X176578747Y-104339652D01*
X176597472Y-104374683D01*
X176609002Y-104412692D01*
X176613500Y-104458362D01*
X176613500Y-107541638D01*
X176609002Y-107587308D01*
X176597472Y-107625317D01*
X176578747Y-107660348D01*
X176553550Y-107691050D01*
X176522848Y-107716247D01*
X176487817Y-107734972D01*
X176449808Y-107746502D01*
X176404138Y-107751000D01*
X175595862Y-107751000D01*
X175550192Y-107746502D01*
X175512183Y-107734972D01*
X175477152Y-107716247D01*
X175446450Y-107691050D01*
X175421253Y-107660348D01*
X175402528Y-107625317D01*
X175390998Y-107587308D01*
X175386500Y-107541638D01*
X175386500Y-104458362D01*
X175390998Y-104412692D01*
X175402528Y-104374683D01*
X175421253Y-104339652D01*
X175446450Y-104308950D01*
X175477152Y-104283753D01*
X175512183Y-104265028D01*
X175550192Y-104253498D01*
X175595862Y-104249000D01*
X176404138Y-104249000D01*
X176449808Y-104253498D01*
X176449808Y-104253498D01*
G37*
G36*
X172174808Y-104253498D02*
X172212817Y-104265028D01*
X172247848Y-104283753D01*
X172278550Y-104308950D01*
X172303747Y-104339652D01*
X172322472Y-104374683D01*
X172334002Y-104412692D01*
X172338500Y-104458362D01*
X172338500Y-107541638D01*
X172334002Y-107587308D01*
X172322472Y-107625317D01*
X172303747Y-107660348D01*
X172278550Y-107691050D01*
X172247848Y-107716247D01*
X172212817Y-107734972D01*
X172174808Y-107746502D01*
X172129138Y-107751000D01*
X171320862Y-107751000D01*
X171275192Y-107746502D01*
X171237183Y-107734972D01*
X171202152Y-107716247D01*
X171171450Y-107691050D01*
X171146253Y-107660348D01*
X171127528Y-107625317D01*
X171115998Y-107587308D01*
X171111500Y-107541638D01*
X171111500Y-104458362D01*
X171115998Y-104412692D01*
X171127528Y-104374683D01*
X171146253Y-104339652D01*
X171171450Y-104308950D01*
X171202152Y-104283753D01*
X171237183Y-104265028D01*
X171275192Y-104253498D01*
X171320862Y-104249000D01*
X172129138Y-104249000D01*
X172174808Y-104253498D01*
X172174808Y-104253498D01*
G37*
G36*
X164587308Y-104253498D02*
X164625317Y-104265028D01*
X164660348Y-104283753D01*
X164691050Y-104308950D01*
X164716247Y-104339652D01*
X164734972Y-104374683D01*
X164746502Y-104412692D01*
X164751000Y-104458362D01*
X164751000Y-107541638D01*
X164746502Y-107587308D01*
X164734972Y-107625317D01*
X164716247Y-107660348D01*
X164691050Y-107691050D01*
X164660348Y-107716247D01*
X164625317Y-107734972D01*
X164587308Y-107746502D01*
X164541638Y-107751000D01*
X163733362Y-107751000D01*
X163687692Y-107746502D01*
X163649683Y-107734972D01*
X163614652Y-107716247D01*
X163583950Y-107691050D01*
X163558753Y-107660348D01*
X163540028Y-107625317D01*
X163528498Y-107587308D01*
X163524000Y-107541638D01*
X163524000Y-104458362D01*
X163528498Y-104412692D01*
X163540028Y-104374683D01*
X163558753Y-104339652D01*
X163583950Y-104308950D01*
X163614652Y-104283753D01*
X163649683Y-104265028D01*
X163687692Y-104253498D01*
X163733362Y-104249000D01*
X164541638Y-104249000D01*
X164587308Y-104253498D01*
X164587308Y-104253498D01*
G37*
G36*
X160312308Y-104253498D02*
X160350317Y-104265028D01*
X160385348Y-104283753D01*
X160416050Y-104308950D01*
X160441247Y-104339652D01*
X160459972Y-104374683D01*
X160471502Y-104412692D01*
X160476000Y-104458362D01*
X160476000Y-107541638D01*
X160471502Y-107587308D01*
X160459972Y-107625317D01*
X160441247Y-107660348D01*
X160416050Y-107691050D01*
X160385348Y-107716247D01*
X160350317Y-107734972D01*
X160312308Y-107746502D01*
X160266638Y-107751000D01*
X159458362Y-107751000D01*
X159412692Y-107746502D01*
X159374683Y-107734972D01*
X159339652Y-107716247D01*
X159308950Y-107691050D01*
X159283753Y-107660348D01*
X159265028Y-107625317D01*
X159253498Y-107587308D01*
X159249000Y-107541638D01*
X159249000Y-104458362D01*
X159253498Y-104412692D01*
X159265028Y-104374683D01*
X159283753Y-104339652D01*
X159308950Y-104308950D01*
X159339652Y-104283753D01*
X159374683Y-104265028D01*
X159412692Y-104253498D01*
X159458362Y-104249000D01*
X160266638Y-104249000D01*
X160312308Y-104253498D01*
X160312308Y-104253498D01*
G37*
G36*
X152449808Y-104253498D02*
X152487817Y-104265028D01*
X152522848Y-104283753D01*
X152553550Y-104308950D01*
X152578747Y-104339652D01*
X152597472Y-104374683D01*
X152609002Y-104412692D01*
X152613500Y-104458362D01*
X152613500Y-107541638D01*
X152609002Y-107587308D01*
X152597472Y-107625317D01*
X152578747Y-107660348D01*
X152553550Y-107691050D01*
X152522848Y-107716247D01*
X152487817Y-107734972D01*
X152449808Y-107746502D01*
X152404138Y-107751000D01*
X151595862Y-107751000D01*
X151550192Y-107746502D01*
X151512183Y-107734972D01*
X151477152Y-107716247D01*
X151446450Y-107691050D01*
X151421253Y-107660348D01*
X151402528Y-107625317D01*
X151390998Y-107587308D01*
X151386500Y-107541638D01*
X151386500Y-104458362D01*
X151390998Y-104412692D01*
X151402528Y-104374683D01*
X151421253Y-104339652D01*
X151446450Y-104308950D01*
X151477152Y-104283753D01*
X151512183Y-104265028D01*
X151550192Y-104253498D01*
X151595862Y-104249000D01*
X152404138Y-104249000D01*
X152449808Y-104253498D01*
X152449808Y-104253498D01*
G37*
G36*
X148174808Y-104253498D02*
X148212817Y-104265028D01*
X148247848Y-104283753D01*
X148278550Y-104308950D01*
X148303747Y-104339652D01*
X148322472Y-104374683D01*
X148334002Y-104412692D01*
X148338500Y-104458362D01*
X148338500Y-107541638D01*
X148334002Y-107587308D01*
X148322472Y-107625317D01*
X148303747Y-107660348D01*
X148278550Y-107691050D01*
X148247848Y-107716247D01*
X148212817Y-107734972D01*
X148174808Y-107746502D01*
X148129138Y-107751000D01*
X147320862Y-107751000D01*
X147275192Y-107746502D01*
X147237183Y-107734972D01*
X147202152Y-107716247D01*
X147171450Y-107691050D01*
X147146253Y-107660348D01*
X147127528Y-107625317D01*
X147115998Y-107587308D01*
X147111500Y-107541638D01*
X147111500Y-104458362D01*
X147115998Y-104412692D01*
X147127528Y-104374683D01*
X147146253Y-104339652D01*
X147171450Y-104308950D01*
X147202152Y-104283753D01*
X147237183Y-104265028D01*
X147275192Y-104253498D01*
X147320862Y-104249000D01*
X148129138Y-104249000D01*
X148174808Y-104253498D01*
X148174808Y-104253498D01*
G37*
G36*
X140587308Y-104253498D02*
X140625317Y-104265028D01*
X140660348Y-104283753D01*
X140691050Y-104308950D01*
X140716247Y-104339652D01*
X140734972Y-104374683D01*
X140746502Y-104412692D01*
X140751000Y-104458362D01*
X140751000Y-107541638D01*
X140746502Y-107587308D01*
X140734972Y-107625317D01*
X140716247Y-107660348D01*
X140691050Y-107691050D01*
X140660348Y-107716247D01*
X140625317Y-107734972D01*
X140587308Y-107746502D01*
X140541638Y-107751000D01*
X139733362Y-107751000D01*
X139687692Y-107746502D01*
X139649683Y-107734972D01*
X139614652Y-107716247D01*
X139583950Y-107691050D01*
X139558753Y-107660348D01*
X139540028Y-107625317D01*
X139528498Y-107587308D01*
X139524000Y-107541638D01*
X139524000Y-104458362D01*
X139528498Y-104412692D01*
X139540028Y-104374683D01*
X139558753Y-104339652D01*
X139583950Y-104308950D01*
X139614652Y-104283753D01*
X139649683Y-104265028D01*
X139687692Y-104253498D01*
X139733362Y-104249000D01*
X140541638Y-104249000D01*
X140587308Y-104253498D01*
X140587308Y-104253498D01*
G37*
G36*
X136312308Y-104253498D02*
X136350317Y-104265028D01*
X136385348Y-104283753D01*
X136416050Y-104308950D01*
X136441247Y-104339652D01*
X136459972Y-104374683D01*
X136471502Y-104412692D01*
X136476000Y-104458362D01*
X136476000Y-107541638D01*
X136471502Y-107587308D01*
X136459972Y-107625317D01*
X136441247Y-107660348D01*
X136416050Y-107691050D01*
X136385348Y-107716247D01*
X136350317Y-107734972D01*
X136312308Y-107746502D01*
X136266638Y-107751000D01*
X135458362Y-107751000D01*
X135412692Y-107746502D01*
X135374683Y-107734972D01*
X135339652Y-107716247D01*
X135308950Y-107691050D01*
X135283753Y-107660348D01*
X135265028Y-107625317D01*
X135253498Y-107587308D01*
X135249000Y-107541638D01*
X135249000Y-104458362D01*
X135253498Y-104412692D01*
X135265028Y-104374683D01*
X135283753Y-104339652D01*
X135308950Y-104308950D01*
X135339652Y-104283753D01*
X135374683Y-104265028D01*
X135412692Y-104253498D01*
X135458362Y-104249000D01*
X136266638Y-104249000D01*
X136312308Y-104253498D01*
X136312308Y-104253498D01*
G37*
G36*
X128587308Y-104253498D02*
X128625317Y-104265028D01*
X128660348Y-104283753D01*
X128691050Y-104308950D01*
X128716247Y-104339652D01*
X128734972Y-104374683D01*
X128746502Y-104412692D01*
X128751000Y-104458362D01*
X128751000Y-107541638D01*
X128746502Y-107587308D01*
X128734972Y-107625317D01*
X128716247Y-107660348D01*
X128691050Y-107691050D01*
X128660348Y-107716247D01*
X128625317Y-107734972D01*
X128587308Y-107746502D01*
X128541638Y-107751000D01*
X127733362Y-107751000D01*
X127687692Y-107746502D01*
X127649683Y-107734972D01*
X127614652Y-107716247D01*
X127583950Y-107691050D01*
X127558753Y-107660348D01*
X127540028Y-107625317D01*
X127528498Y-107587308D01*
X127524000Y-107541638D01*
X127524000Y-104458362D01*
X127528498Y-104412692D01*
X127540028Y-104374683D01*
X127558753Y-104339652D01*
X127583950Y-104308950D01*
X127614652Y-104283753D01*
X127649683Y-104265028D01*
X127687692Y-104253498D01*
X127733362Y-104249000D01*
X128541638Y-104249000D01*
X128587308Y-104253498D01*
X128587308Y-104253498D01*
G37*
G36*
X124312308Y-104253498D02*
X124350317Y-104265028D01*
X124385348Y-104283753D01*
X124416050Y-104308950D01*
X124441247Y-104339652D01*
X124459972Y-104374683D01*
X124471502Y-104412692D01*
X124476000Y-104458362D01*
X124476000Y-107541638D01*
X124471502Y-107587308D01*
X124459972Y-107625317D01*
X124441247Y-107660348D01*
X124416050Y-107691050D01*
X124385348Y-107716247D01*
X124350317Y-107734972D01*
X124312308Y-107746502D01*
X124266638Y-107751000D01*
X123458362Y-107751000D01*
X123412692Y-107746502D01*
X123374683Y-107734972D01*
X123339652Y-107716247D01*
X123308950Y-107691050D01*
X123283753Y-107660348D01*
X123265028Y-107625317D01*
X123253498Y-107587308D01*
X123249000Y-107541638D01*
X123249000Y-104458362D01*
X123253498Y-104412692D01*
X123265028Y-104374683D01*
X123283753Y-104339652D01*
X123308950Y-104308950D01*
X123339652Y-104283753D01*
X123374683Y-104265028D01*
X123412692Y-104253498D01*
X123458362Y-104249000D01*
X124266638Y-104249000D01*
X124312308Y-104253498D01*
X124312308Y-104253498D01*
G37*
G36*
X186472797Y-104278247D02*
X186508367Y-104289037D01*
X186541139Y-104306554D01*
X186569869Y-104330131D01*
X186593446Y-104358861D01*
X186610963Y-104391633D01*
X186621753Y-104427203D01*
X186626000Y-104470324D01*
X186626000Y-107529676D01*
X186621753Y-107572797D01*
X186610963Y-107608367D01*
X186593446Y-107641139D01*
X186569869Y-107669869D01*
X186541139Y-107693446D01*
X186508367Y-107710963D01*
X186472797Y-107721753D01*
X186429676Y-107726000D01*
X185370324Y-107726000D01*
X185327203Y-107721753D01*
X185291633Y-107710963D01*
X185258861Y-107693446D01*
X185230131Y-107669869D01*
X185206554Y-107641139D01*
X185189037Y-107608367D01*
X185178247Y-107572797D01*
X185174000Y-107529676D01*
X185174000Y-104470324D01*
X185178247Y-104427203D01*
X185189037Y-104391633D01*
X185206554Y-104358861D01*
X185230131Y-104330131D01*
X185258861Y-104306554D01*
X185291633Y-104289037D01*
X185327203Y-104278247D01*
X185370324Y-104274000D01*
X186429676Y-104274000D01*
X186472797Y-104278247D01*
X186472797Y-104278247D01*
G37*
G36*
X180672797Y-104278247D02*
X180708367Y-104289037D01*
X180741139Y-104306554D01*
X180769869Y-104330131D01*
X180793446Y-104358861D01*
X180810963Y-104391633D01*
X180821753Y-104427203D01*
X180826000Y-104470324D01*
X180826000Y-107529676D01*
X180821753Y-107572797D01*
X180810963Y-107608367D01*
X180793446Y-107641139D01*
X180769869Y-107669869D01*
X180741139Y-107693446D01*
X180708367Y-107710963D01*
X180672797Y-107721753D01*
X180629676Y-107726000D01*
X179570324Y-107726000D01*
X179527203Y-107721753D01*
X179491633Y-107710963D01*
X179458861Y-107693446D01*
X179430131Y-107669869D01*
X179406554Y-107641139D01*
X179389037Y-107608367D01*
X179378247Y-107572797D01*
X179374000Y-107529676D01*
X179374000Y-104470324D01*
X179378247Y-104427203D01*
X179389037Y-104391633D01*
X179406554Y-104358861D01*
X179430131Y-104330131D01*
X179458861Y-104306554D01*
X179491633Y-104289037D01*
X179527203Y-104278247D01*
X179570324Y-104274000D01*
X180629676Y-104274000D01*
X180672797Y-104278247D01*
X180672797Y-104278247D01*
G37*
G36*
X159901000Y-103301001D02*
X158099000Y-103301001D01*
X158099000Y-100699001D01*
X159901000Y-100699001D01*
X159901000Y-103301001D01*
X159901000Y-103301001D01*
G37*
G36*
X177901000Y-103301000D02*
X176099000Y-103301000D01*
X176099000Y-100699000D01*
X177901000Y-100699000D01*
X177901000Y-103301000D01*
X177901000Y-103301000D01*
G37*
G36*
X165901000Y-103301000D02*
X164099000Y-103301000D01*
X164099000Y-100699000D01*
X165901000Y-100699000D01*
X165901000Y-103301000D01*
X165901000Y-103301000D01*
G37*
G36*
X115301000Y-103301000D02*
X112699000Y-103301000D01*
X112699000Y-100699000D01*
X115301000Y-100699000D01*
X115301000Y-103301000D01*
X115301000Y-103301000D01*
G37*
G36*
X135901000Y-103301000D02*
X134099000Y-103301000D01*
X134099000Y-100699000D01*
X135901000Y-100699000D01*
X135901000Y-103301000D01*
X135901000Y-103301000D01*
G37*
G36*
X141901000Y-103301000D02*
X140099000Y-103301000D01*
X140099000Y-100699000D01*
X141901000Y-100699000D01*
X141901000Y-103301000D01*
X141901000Y-103301000D01*
G37*
G36*
X147901000Y-103301000D02*
X146099000Y-103301000D01*
X146099000Y-100699000D01*
X147901000Y-100699000D01*
X147901000Y-103301000D01*
X147901000Y-103301000D01*
G37*
G36*
X171901000Y-103301000D02*
X170099000Y-103301000D01*
X170099000Y-100699000D01*
X171901000Y-100699000D01*
X171901000Y-103301000D01*
X171901000Y-103301000D01*
G37*
G36*
X123901000Y-103301000D02*
X122099000Y-103301000D01*
X122099000Y-100699000D01*
X123901000Y-100699000D01*
X123901000Y-103301000D01*
X123901000Y-103301000D01*
G37*
G36*
X153901000Y-103300999D02*
X152099000Y-103300999D01*
X152099000Y-100698999D01*
X153901000Y-100698999D01*
X153901000Y-103300999D01*
X153901000Y-103300999D01*
G37*
G36*
X129901000Y-103300999D02*
X128099000Y-103300999D01*
X128099000Y-100698999D01*
X129901000Y-100698999D01*
X129901000Y-103300999D01*
X129901000Y-103300999D01*
G37*
G36*
X159901000Y-99301001D02*
X158099000Y-99301001D01*
X158099000Y-96699001D01*
X159901000Y-96699001D01*
X159901000Y-99301001D01*
X159901000Y-99301001D01*
G37*
G36*
X135901000Y-99301000D02*
X134099000Y-99301000D01*
X134099000Y-96699000D01*
X135901000Y-96699000D01*
X135901000Y-99301000D01*
X135901000Y-99301000D01*
G37*
G36*
X123901000Y-99301000D02*
X122099000Y-99301000D01*
X122099000Y-96699000D01*
X123901000Y-96699000D01*
X123901000Y-99301000D01*
X123901000Y-99301000D01*
G37*
G36*
X177901000Y-99301000D02*
X176099000Y-99301000D01*
X176099000Y-96699000D01*
X177901000Y-96699000D01*
X177901000Y-99301000D01*
X177901000Y-99301000D01*
G37*
G36*
X165901000Y-99301000D02*
X164099000Y-99301000D01*
X164099000Y-96699000D01*
X165901000Y-96699000D01*
X165901000Y-99301000D01*
X165901000Y-99301000D01*
G37*
G36*
X141901000Y-99301000D02*
X140099000Y-99301000D01*
X140099000Y-96699000D01*
X141901000Y-96699000D01*
X141901000Y-99301000D01*
X141901000Y-99301000D01*
G37*
G36*
X171901000Y-99301000D02*
X170099000Y-99301000D01*
X170099000Y-96699000D01*
X171901000Y-96699000D01*
X171901000Y-99301000D01*
X171901000Y-99301000D01*
G37*
G36*
X147901000Y-99301000D02*
X146099000Y-99301000D01*
X146099000Y-96699000D01*
X147901000Y-96699000D01*
X147901000Y-99301000D01*
X147901000Y-99301000D01*
G37*
G36*
X129901000Y-99300999D02*
X128099000Y-99300999D01*
X128099000Y-96698999D01*
X129901000Y-96698999D01*
X129901000Y-99300999D01*
X129901000Y-99300999D01*
G37*
G36*
X153901000Y-99300999D02*
X152099000Y-99300999D01*
X152099000Y-96698999D01*
X153901000Y-96698999D01*
X153901000Y-99300999D01*
X153901000Y-99300999D01*
G37*
G36*
X142312308Y-92253498D02*
X142350317Y-92265028D01*
X142385348Y-92283753D01*
X142416050Y-92308950D01*
X142441247Y-92339652D01*
X142459972Y-92374683D01*
X142471502Y-92412692D01*
X142476000Y-92458362D01*
X142476000Y-95541638D01*
X142471502Y-95587308D01*
X142459972Y-95625317D01*
X142441247Y-95660348D01*
X142416050Y-95691050D01*
X142385348Y-95716247D01*
X142350317Y-95734972D01*
X142312308Y-95746502D01*
X142266638Y-95751000D01*
X141458362Y-95751000D01*
X141412692Y-95746502D01*
X141374683Y-95734972D01*
X141339652Y-95716247D01*
X141308950Y-95691050D01*
X141283753Y-95660348D01*
X141265028Y-95625317D01*
X141253498Y-95587308D01*
X141249000Y-95541638D01*
X141249000Y-92458362D01*
X141253498Y-92412692D01*
X141265028Y-92374683D01*
X141283753Y-92339652D01*
X141308950Y-92308950D01*
X141339652Y-92283753D01*
X141374683Y-92265028D01*
X141412692Y-92253498D01*
X141458362Y-92249000D01*
X142266638Y-92249000D01*
X142312308Y-92253498D01*
X142312308Y-92253498D01*
G37*
G36*
X170587308Y-92253498D02*
X170625317Y-92265028D01*
X170660348Y-92283753D01*
X170691050Y-92308950D01*
X170716247Y-92339652D01*
X170734972Y-92374683D01*
X170746502Y-92412692D01*
X170751000Y-92458362D01*
X170751000Y-95541638D01*
X170746502Y-95587308D01*
X170734972Y-95625317D01*
X170716247Y-95660348D01*
X170691050Y-95691050D01*
X170660348Y-95716247D01*
X170625317Y-95734972D01*
X170587308Y-95746502D01*
X170541638Y-95751000D01*
X169733362Y-95751000D01*
X169687692Y-95746502D01*
X169649683Y-95734972D01*
X169614652Y-95716247D01*
X169583950Y-95691050D01*
X169558753Y-95660348D01*
X169540028Y-95625317D01*
X169528498Y-95587308D01*
X169524000Y-95541638D01*
X169524000Y-92458362D01*
X169528498Y-92412692D01*
X169540028Y-92374683D01*
X169558753Y-92339652D01*
X169583950Y-92308950D01*
X169614652Y-92283753D01*
X169649683Y-92265028D01*
X169687692Y-92253498D01*
X169733362Y-92249000D01*
X170541638Y-92249000D01*
X170587308Y-92253498D01*
X170587308Y-92253498D01*
G37*
G36*
X166312308Y-92253498D02*
X166350317Y-92265028D01*
X166385348Y-92283753D01*
X166416050Y-92308950D01*
X166441247Y-92339652D01*
X166459972Y-92374683D01*
X166471502Y-92412692D01*
X166476000Y-92458362D01*
X166476000Y-95541638D01*
X166471502Y-95587308D01*
X166459972Y-95625317D01*
X166441247Y-95660348D01*
X166416050Y-95691050D01*
X166385348Y-95716247D01*
X166350317Y-95734972D01*
X166312308Y-95746502D01*
X166266638Y-95751000D01*
X165458362Y-95751000D01*
X165412692Y-95746502D01*
X165374683Y-95734972D01*
X165339652Y-95716247D01*
X165308950Y-95691050D01*
X165283753Y-95660348D01*
X165265028Y-95625317D01*
X165253498Y-95587308D01*
X165249000Y-95541638D01*
X165249000Y-92458362D01*
X165253498Y-92412692D01*
X165265028Y-92374683D01*
X165283753Y-92339652D01*
X165308950Y-92308950D01*
X165339652Y-92283753D01*
X165374683Y-92265028D01*
X165412692Y-92253498D01*
X165458362Y-92249000D01*
X166266638Y-92249000D01*
X166312308Y-92253498D01*
X166312308Y-92253498D01*
G37*
G36*
X158587308Y-92253498D02*
X158625317Y-92265028D01*
X158660348Y-92283753D01*
X158691050Y-92308950D01*
X158716247Y-92339652D01*
X158734972Y-92374683D01*
X158746502Y-92412692D01*
X158751000Y-92458362D01*
X158751000Y-95541638D01*
X158746502Y-95587308D01*
X158734972Y-95625317D01*
X158716247Y-95660348D01*
X158691050Y-95691050D01*
X158660348Y-95716247D01*
X158625317Y-95734972D01*
X158587308Y-95746502D01*
X158541638Y-95751000D01*
X157733362Y-95751000D01*
X157687692Y-95746502D01*
X157649683Y-95734972D01*
X157614652Y-95716247D01*
X157583950Y-95691050D01*
X157558753Y-95660348D01*
X157540028Y-95625317D01*
X157528498Y-95587308D01*
X157524000Y-95541638D01*
X157524000Y-92458362D01*
X157528498Y-92412692D01*
X157540028Y-92374683D01*
X157558753Y-92339652D01*
X157583950Y-92308950D01*
X157614652Y-92283753D01*
X157649683Y-92265028D01*
X157687692Y-92253498D01*
X157733362Y-92249000D01*
X158541638Y-92249000D01*
X158587308Y-92253498D01*
X158587308Y-92253498D01*
G37*
G36*
X154312308Y-92253498D02*
X154350317Y-92265028D01*
X154385348Y-92283753D01*
X154416050Y-92308950D01*
X154441247Y-92339652D01*
X154459972Y-92374683D01*
X154471502Y-92412692D01*
X154476000Y-92458362D01*
X154476000Y-95541638D01*
X154471502Y-95587308D01*
X154459972Y-95625317D01*
X154441247Y-95660348D01*
X154416050Y-95691050D01*
X154385348Y-95716247D01*
X154350317Y-95734972D01*
X154312308Y-95746502D01*
X154266638Y-95751000D01*
X153458362Y-95751000D01*
X153412692Y-95746502D01*
X153374683Y-95734972D01*
X153339652Y-95716247D01*
X153308950Y-95691050D01*
X153283753Y-95660348D01*
X153265028Y-95625317D01*
X153253498Y-95587308D01*
X153249000Y-95541638D01*
X153249000Y-92458362D01*
X153253498Y-92412692D01*
X153265028Y-92374683D01*
X153283753Y-92339652D01*
X153308950Y-92308950D01*
X153339652Y-92283753D01*
X153374683Y-92265028D01*
X153412692Y-92253498D01*
X153458362Y-92249000D01*
X154266638Y-92249000D01*
X154312308Y-92253498D01*
X154312308Y-92253498D01*
G37*
G36*
X146587308Y-92253498D02*
X146625317Y-92265028D01*
X146660348Y-92283753D01*
X146691050Y-92308950D01*
X146716247Y-92339652D01*
X146734972Y-92374683D01*
X146746502Y-92412692D01*
X146751000Y-92458362D01*
X146751000Y-95541638D01*
X146746502Y-95587308D01*
X146734972Y-95625317D01*
X146716247Y-95660348D01*
X146691050Y-95691050D01*
X146660348Y-95716247D01*
X146625317Y-95734972D01*
X146587308Y-95746502D01*
X146541638Y-95751000D01*
X145733362Y-95751000D01*
X145687692Y-95746502D01*
X145649683Y-95734972D01*
X145614652Y-95716247D01*
X145583950Y-95691050D01*
X145558753Y-95660348D01*
X145540028Y-95625317D01*
X145528498Y-95587308D01*
X145524000Y-95541638D01*
X145524000Y-92458362D01*
X145528498Y-92412692D01*
X145540028Y-92374683D01*
X145558753Y-92339652D01*
X145583950Y-92308950D01*
X145614652Y-92283753D01*
X145649683Y-92265028D01*
X145687692Y-92253498D01*
X145733362Y-92249000D01*
X146541638Y-92249000D01*
X146587308Y-92253498D01*
X146587308Y-92253498D01*
G37*
G36*
X134587308Y-92253498D02*
X134625317Y-92265028D01*
X134660348Y-92283753D01*
X134691050Y-92308950D01*
X134716247Y-92339652D01*
X134734972Y-92374683D01*
X134746502Y-92412692D01*
X134751000Y-92458362D01*
X134751000Y-95541638D01*
X134746502Y-95587308D01*
X134734972Y-95625317D01*
X134716247Y-95660348D01*
X134691050Y-95691050D01*
X134660348Y-95716247D01*
X134625317Y-95734972D01*
X134587308Y-95746502D01*
X134541638Y-95751000D01*
X133733362Y-95751000D01*
X133687692Y-95746502D01*
X133649683Y-95734972D01*
X133614652Y-95716247D01*
X133583950Y-95691050D01*
X133558753Y-95660348D01*
X133540028Y-95625317D01*
X133528498Y-95587308D01*
X133524000Y-95541638D01*
X133524000Y-92458362D01*
X133528498Y-92412692D01*
X133540028Y-92374683D01*
X133558753Y-92339652D01*
X133583950Y-92308950D01*
X133614652Y-92283753D01*
X133649683Y-92265028D01*
X133687692Y-92253498D01*
X133733362Y-92249000D01*
X134541638Y-92249000D01*
X134587308Y-92253498D01*
X134587308Y-92253498D01*
G37*
G36*
X130312308Y-92253498D02*
X130350317Y-92265028D01*
X130385348Y-92283753D01*
X130416050Y-92308950D01*
X130441247Y-92339652D01*
X130459972Y-92374683D01*
X130471502Y-92412692D01*
X130476000Y-92458362D01*
X130476000Y-95541638D01*
X130471502Y-95587308D01*
X130459972Y-95625317D01*
X130441247Y-95660348D01*
X130416050Y-95691050D01*
X130385348Y-95716247D01*
X130350317Y-95734972D01*
X130312308Y-95746502D01*
X130266638Y-95751000D01*
X129458362Y-95751000D01*
X129412692Y-95746502D01*
X129374683Y-95734972D01*
X129339652Y-95716247D01*
X129308950Y-95691050D01*
X129283753Y-95660348D01*
X129265028Y-95625317D01*
X129253498Y-95587308D01*
X129249000Y-95541638D01*
X129249000Y-92458362D01*
X129253498Y-92412692D01*
X129265028Y-92374683D01*
X129283753Y-92339652D01*
X129308950Y-92308950D01*
X129339652Y-92283753D01*
X129374683Y-92265028D01*
X129412692Y-92253498D01*
X129458362Y-92249000D01*
X130266638Y-92249000D01*
X130312308Y-92253498D01*
X130312308Y-92253498D01*
G37*
G36*
X122587308Y-92253498D02*
X122625317Y-92265028D01*
X122660348Y-92283753D01*
X122691050Y-92308950D01*
X122716247Y-92339652D01*
X122734972Y-92374683D01*
X122746502Y-92412692D01*
X122751000Y-92458362D01*
X122751000Y-95541638D01*
X122746502Y-95587308D01*
X122734972Y-95625317D01*
X122716247Y-95660348D01*
X122691050Y-95691050D01*
X122660348Y-95716247D01*
X122625317Y-95734972D01*
X122587308Y-95746502D01*
X122541638Y-95751000D01*
X121733362Y-95751000D01*
X121687692Y-95746502D01*
X121649683Y-95734972D01*
X121614652Y-95716247D01*
X121583950Y-95691050D01*
X121558753Y-95660348D01*
X121540028Y-95625317D01*
X121528498Y-95587308D01*
X121524000Y-95541638D01*
X121524000Y-92458362D01*
X121528498Y-92412692D01*
X121540028Y-92374683D01*
X121558753Y-92339652D01*
X121583950Y-92308950D01*
X121614652Y-92283753D01*
X121649683Y-92265028D01*
X121687692Y-92253498D01*
X121733362Y-92249000D01*
X122541638Y-92249000D01*
X122587308Y-92253498D01*
X122587308Y-92253498D01*
G37*
G36*
X118312308Y-92253498D02*
X118350317Y-92265028D01*
X118385348Y-92283753D01*
X118416050Y-92308950D01*
X118441247Y-92339652D01*
X118459972Y-92374683D01*
X118471502Y-92412692D01*
X118476000Y-92458362D01*
X118476000Y-95541638D01*
X118471502Y-95587308D01*
X118459972Y-95625317D01*
X118441247Y-95660348D01*
X118416050Y-95691050D01*
X118385348Y-95716247D01*
X118350317Y-95734972D01*
X118312308Y-95746502D01*
X118266638Y-95751000D01*
X117458362Y-95751000D01*
X117412692Y-95746502D01*
X117374683Y-95734972D01*
X117339652Y-95716247D01*
X117308950Y-95691050D01*
X117283753Y-95660348D01*
X117265028Y-95625317D01*
X117253498Y-95587308D01*
X117249000Y-95541638D01*
X117249000Y-92458362D01*
X117253498Y-92412692D01*
X117265028Y-92374683D01*
X117283753Y-92339652D01*
X117308950Y-92308950D01*
X117339652Y-92283753D01*
X117374683Y-92265028D01*
X117412692Y-92253498D01*
X117458362Y-92249000D01*
X118266638Y-92249000D01*
X118312308Y-92253498D01*
X118312308Y-92253498D01*
G37*
G36*
X115301000Y-95301000D02*
X112699000Y-95301000D01*
X112699000Y-92699000D01*
X115301000Y-92699000D01*
X115301000Y-95301000D01*
X115301000Y-95301000D01*
G37*
G36*
X200051000Y-86301000D02*
X197449000Y-86301000D01*
X197449000Y-83699000D01*
X200051000Y-83699000D01*
X200051000Y-86301000D01*
X200051000Y-86301000D01*
G37*
G36*
X102551000Y-86301000D02*
X99949000Y-86301000D01*
X99949000Y-83699000D01*
X102551000Y-83699000D01*
X102551000Y-86301000D01*
X102551000Y-86301000D01*
G37*
G36*
X166301000Y-52551000D02*
X163699000Y-52551000D01*
X163699000Y-49949000D01*
X166301000Y-49949000D01*
X166301000Y-52551000D01*
X166301000Y-52551000D01*
G37*
G36*
X136301000Y-52551000D02*
X133699000Y-52551000D01*
X133699000Y-49949000D01*
X136301000Y-49949000D01*
X136301000Y-52551000D01*
X136301000Y-52551000D01*
G37*
M02*
